<svg width="134" height="24" viewBox="0 0 134 24" fill="none" xmlns="http://www.w3.org/2000/svg">
<path d="M8.528 1.672C9.584 1.672 10.448 1.832 11.12 2.152C11.808 2.456 12.416 2.816 12.944 3.232C13.264 3.472 13.504 3.504 13.664 3.328C13.84 3.136 13.96 2.696 14.024 2.008H14.576C14.544 2.632 14.52 3.392 14.504 4.288C14.488 5.168 14.48 6.344 14.48 7.816H13.928C13.848 7.08 13.744 6.456 13.616 5.944C13.488 5.416 13.312 4.952 13.088 4.552C12.864 4.152 12.544 3.792 12.128 3.472C11.728 3.072 11.264 2.776 10.736 2.584C10.208 2.392 9.656 2.296 9.08 2.296C8.216 2.296 7.48 2.528 6.872 2.992C6.264 3.44 5.768 4.056 5.384 4.84C5.016 5.624 4.744 6.512 4.568 7.504C4.392 8.48 4.304 9.496 4.304 10.552C4.304 11.624 4.392 12.656 4.568 13.648C4.76 14.624 5.048 15.496 5.432 16.264C5.832 17.032 6.344 17.64 6.968 18.088C7.592 18.536 8.328 18.76 9.176 18.76C9.704 18.76 10.232 18.664 10.76 18.472C11.304 18.264 11.768 17.968 12.152 17.584C12.776 17.104 13.2 16.512 13.424 15.808C13.648 15.088 13.816 14.136 13.928 12.952H14.48C14.48 14.472 14.488 15.704 14.504 16.648C14.52 17.576 14.544 18.36 14.576 19H14.024C13.96 18.312 13.848 17.88 13.688 17.704C13.544 17.528 13.296 17.552 12.944 17.776C12.352 18.192 11.72 18.56 11.048 18.88C10.392 19.184 9.544 19.336 8.504 19.336C6.808 19.336 5.32 18.992 4.04 18.304C2.776 17.616 1.792 16.624 1.088 15.328C0.384 14.032 0.032 12.472 0.032 10.648C0.032 8.856 0.392 7.288 1.112 5.944C1.848 4.6 2.848 3.552 4.112 2.8C5.392 2.048 6.864 1.672 8.528 1.672ZM23.1699 6.256C24.3379 6.256 25.3619 6.472 26.2419 6.904C27.1219 7.336 27.8099 8.032 28.3059 8.992C28.8019 9.952 29.0499 11.224 29.0499 12.808C29.0499 14.392 28.8019 15.664 28.3059 16.624C27.8099 17.568 27.1219 18.256 26.2419 18.688C25.3619 19.12 24.3379 19.336 23.1699 19.336C22.0339 19.336 21.0179 19.12 20.1219 18.688C19.2419 18.256 18.5459 17.568 18.0339 16.624C17.5379 15.664 17.2899 14.392 17.2899 12.808C17.2899 11.224 17.5379 9.952 18.0339 8.992C18.5459 8.032 19.2419 7.336 20.1219 6.904C21.0179 6.472 22.0339 6.256 23.1699 6.256ZM23.1699 6.736C22.5299 6.736 21.9939 7.216 21.5619 8.176C21.1299 9.12 20.9139 10.664 20.9139 12.808C20.9139 14.952 21.1299 16.496 21.5619 17.44C21.9939 18.384 22.5299 18.856 23.1699 18.856C23.8259 18.856 24.3619 18.384 24.7779 17.44C25.2099 16.496 25.4259 14.952 25.4259 12.808C25.4259 10.664 25.2099 9.12 24.7779 8.176C24.3619 7.216 23.8259 6.736 23.1699 6.736ZM35.6898 0.207999V16.768C35.6898 17.44 35.8018 17.896 36.0258 18.136C36.2658 18.376 36.6658 18.496 37.2258 18.496V19C36.9218 18.984 36.4658 18.968 35.8578 18.952C35.2498 18.92 34.6338 18.904 34.0098 18.904C33.3858 18.904 32.7538 18.92 32.1138 18.952C31.4898 18.968 31.0178 18.984 30.6978 19V18.496C31.2578 18.496 31.6498 18.376 31.8738 18.136C32.1138 17.896 32.2338 17.44 32.2338 16.768V3.088C32.2338 2.368 32.1218 1.84 31.8978 1.504C31.6898 1.152 31.2898 0.975999 30.6978 0.975999V0.472C31.2098 0.519999 31.7058 0.543999 32.1858 0.543999C32.8418 0.543999 33.4658 0.519999 34.0578 0.472C34.6498 0.408 35.1938 0.319999 35.6898 0.207999ZM43.7636 0.207999V16.768C43.7636 17.44 43.8756 17.896 44.0996 18.136C44.3396 18.376 44.7396 18.496 45.2996 18.496V19C44.9956 18.984 44.5396 18.968 43.9316 18.952C43.3236 18.92 42.7076 18.904 42.0836 18.904C41.4596 18.904 40.8276 18.92 40.1876 18.952C39.5636 18.968 39.0916 18.984 38.7716 19V18.496C39.3316 18.496 39.7236 18.376 39.9476 18.136C40.1876 17.896 40.3076 17.44 40.3076 16.768V3.088C40.3076 2.368 40.1956 1.84 39.9716 1.504C39.7636 1.152 39.3636 0.975999 38.7716 0.975999V0.472C39.2836 0.519999 39.7796 0.543999 40.2596 0.543999C40.9156 0.543999 41.5396 0.519999 42.1316 0.472C42.7236 0.408 43.2676 0.319999 43.7636 0.207999ZM50.1127 19.168C49.3927 19.168 48.7927 19.032 48.3127 18.76C47.8327 18.488 47.4807 18.128 47.2567 17.68C47.0327 17.216 46.9207 16.712 46.9207 16.168C46.9207 15.48 47.0727 14.92 47.3767 14.488C47.6967 14.056 48.1047 13.704 48.6007 13.432C49.0967 13.16 49.6167 12.936 50.1607 12.76C50.7207 12.584 51.2487 12.416 51.7447 12.256C52.2567 12.08 52.6647 11.88 52.9687 11.656C53.2887 11.416 53.4487 11.112 53.4487 10.744V8.872C53.4487 8.456 53.3767 8.088 53.2327 7.768C53.1047 7.432 52.8967 7.176 52.6087 7C52.3367 6.824 51.9767 6.736 51.5287 6.736C51.2087 6.736 50.8887 6.784 50.5687 6.88C50.2487 6.96 49.9847 7.104 49.7767 7.312C50.2247 7.472 50.5687 7.72 50.8087 8.056C51.0647 8.376 51.1927 8.744 51.1927 9.16C51.1927 9.704 51.0007 10.136 50.6167 10.456C50.2487 10.776 49.8087 10.936 49.2967 10.936C48.7207 10.936 48.2807 10.76 47.9767 10.408C47.6887 10.04 47.5447 9.6 47.5447 9.088C47.5447 8.624 47.6567 8.24 47.8807 7.936C48.1207 7.632 48.4487 7.344 48.8647 7.072C49.3127 6.816 49.8487 6.616 50.4727 6.472C51.1127 6.328 51.8007 6.256 52.5367 6.256C53.2727 6.256 53.9367 6.336 54.5287 6.496C55.1207 6.64 55.6167 6.912 56.0167 7.312C56.3847 7.68 56.6247 8.136 56.7367 8.68C56.8487 9.208 56.9047 9.88 56.9047 10.696V17.224C56.9047 17.624 56.9447 17.904 57.0247 18.064C57.1047 18.208 57.2407 18.28 57.4327 18.28C57.5767 18.28 57.7127 18.24 57.8407 18.16C57.9847 18.08 58.1367 17.984 58.2967 17.872L58.5367 18.28C58.2007 18.568 57.8087 18.792 57.3607 18.952C56.9287 19.096 56.4407 19.168 55.8967 19.168C55.3047 19.168 54.8327 19.088 54.4807 18.928C54.1287 18.752 53.8727 18.52 53.7127 18.232C53.5687 17.944 53.4967 17.608 53.4967 17.224C53.1127 17.832 52.6487 18.312 52.1047 18.664C51.5607 19 50.8967 19.168 50.1127 19.168ZM51.8167 17.632C52.1367 17.632 52.4247 17.56 52.6807 17.416C52.9527 17.256 53.2087 17 53.4487 16.648V11.728C53.3047 11.968 53.1047 12.184 52.8487 12.376C52.5927 12.568 52.3207 12.768 52.0327 12.976C51.7447 13.168 51.4647 13.384 51.1927 13.624C50.9367 13.864 50.7287 14.16 50.5687 14.512C50.4087 14.864 50.3287 15.288 50.3287 15.784C50.3287 16.408 50.4647 16.872 50.7367 17.176C51.0087 17.48 51.3687 17.632 51.8167 17.632ZM64.3586 23.512C63.3666 23.512 62.4786 23.424 61.6946 23.248C60.9266 23.088 60.3186 22.832 59.8706 22.48C59.4386 22.144 59.2226 21.728 59.2226 21.232C59.2226 20.736 59.4466 20.288 59.8946 19.888C60.3426 19.504 61.0066 19.2 61.8866 18.976L62.1026 19.36C61.7986 19.6 61.5746 19.856 61.4306 20.128C61.3026 20.416 61.2386 20.712 61.2386 21.016C61.2386 21.688 61.5426 22.2 62.1506 22.552C62.7746 22.92 63.6146 23.104 64.6706 23.104C65.3906 23.104 66.0306 23.008 66.5906 22.816C67.1666 22.624 67.6146 22.336 67.9346 21.952C68.2706 21.568 68.4386 21.096 68.4386 20.536C68.4386 20.056 68.2626 19.648 67.9106 19.312C67.5586 18.992 66.8546 18.832 65.7986 18.832H64.3106C63.6546 18.832 63.0786 18.76 62.5826 18.616C62.1026 18.472 61.7266 18.248 61.4546 17.944C61.1826 17.624 61.0466 17.224 61.0466 16.744C61.0466 16.072 61.3106 15.48 61.8386 14.968C62.3666 14.456 63.1506 13.976 64.1906 13.528L64.4306 13.72C64.1266 13.912 63.8386 14.12 63.5666 14.344C63.3106 14.552 63.1826 14.824 63.1826 15.16C63.1826 15.672 63.5026 15.928 64.1426 15.928H66.7586C67.6386 15.928 68.4226 16.032 69.1106 16.24C69.8146 16.448 70.3666 16.792 70.7666 17.272C71.1826 17.736 71.3906 18.344 71.3906 19.096C71.3906 19.88 71.1346 20.608 70.6226 21.28C70.1266 21.952 69.3586 22.488 68.3186 22.888C67.2786 23.304 65.9586 23.512 64.3586 23.512ZM64.5986 13.888C63.6866 13.888 62.8706 13.752 62.1506 13.48C61.4306 13.208 60.8626 12.792 60.4466 12.232C60.0306 11.672 59.8226 10.952 59.8226 10.072C59.8226 9.192 60.0306 8.472 60.4466 7.912C60.8626 7.336 61.4306 6.92 62.1506 6.664C62.8706 6.392 63.6866 6.256 64.5986 6.256C65.5106 6.256 66.3266 6.392 67.0466 6.664C67.7666 6.92 68.3346 7.336 68.7506 7.912C69.1666 8.472 69.3746 9.192 69.3746 10.072C69.3746 10.952 69.1666 11.672 68.7506 12.232C68.3346 12.792 67.7666 13.208 67.0466 13.48C66.3266 13.752 65.5106 13.888 64.5986 13.888ZM64.5986 13.456C65.0306 13.456 65.3666 13.216 65.6066 12.736C65.8466 12.24 65.9666 11.352 65.9666 10.072C65.9666 8.792 65.8466 7.912 65.6066 7.432C65.3666 6.936 65.0306 6.688 64.5986 6.688C64.1826 6.688 63.8466 6.936 63.5906 7.432C63.3506 7.912 63.2306 8.792 63.2306 10.072C63.2306 11.352 63.3506 12.24 63.5906 12.736C63.8466 13.216 64.1826 13.456 64.5986 13.456ZM68.3426 8.32L67.8626 8.152C68.1026 7.528 68.4866 7.008 69.0146 6.592C69.5586 6.176 70.1426 5.968 70.7666 5.968C71.2786 5.968 71.6626 6.112 71.9186 6.4C72.1906 6.672 72.3266 7.032 72.3266 7.48C72.3266 7.96 72.1986 8.32 71.9426 8.56C71.6866 8.784 71.3986 8.896 71.0786 8.896C70.8066 8.896 70.5506 8.8 70.3106 8.608C70.0866 8.416 69.9586 8.128 69.9266 7.744C69.8946 7.344 70.0306 6.832 70.3346 6.208L70.5026 6.352C69.8946 6.576 69.4386 6.84 69.1346 7.144C68.8306 7.432 68.5666 7.824 68.3426 8.32ZM79.2652 6.256C80.6732 6.256 81.7772 6.672 82.5772 7.504C83.3772 8.336 83.7772 9.696 83.7772 11.584H75.8812L75.8332 11.128H80.7532C80.7692 10.344 80.7212 9.624 80.6092 8.968C80.4972 8.296 80.3212 7.76 80.0812 7.36C79.8412 6.96 79.5212 6.76 79.1212 6.76C78.5612 6.76 78.0812 7.112 77.6812 7.816C77.2972 8.52 77.0652 9.688 76.9852 11.32L77.0572 11.464C77.0412 11.656 77.0252 11.856 77.0092 12.064C77.0092 12.272 77.0092 12.488 77.0092 12.712C77.0092 13.816 77.1612 14.712 77.4652 15.4C77.7852 16.088 78.1852 16.592 78.6652 16.912C79.1452 17.216 79.6332 17.368 80.1292 17.368C80.4652 17.368 80.8092 17.32 81.1612 17.224C81.5292 17.112 81.8972 16.92 82.2652 16.648C82.6332 16.36 82.9772 15.96 83.2972 15.448L83.7292 15.592C83.5372 16.2 83.2332 16.792 82.8172 17.368C82.4012 17.944 81.8732 18.416 81.2332 18.784C80.5932 19.152 79.8252 19.336 78.9292 19.336C77.8412 19.336 76.8812 19.104 76.0492 18.64C75.2172 18.176 74.5612 17.472 74.0812 16.528C73.6172 15.584 73.3852 14.384 73.3852 12.928C73.3852 11.44 73.6332 10.2 74.1292 9.208C74.6412 8.216 75.3372 7.48 76.2172 7C77.1132 6.504 78.1292 6.256 79.2652 6.256ZM94.4343 6.256C95.1063 6.256 95.6503 6.344 96.0663 6.52C96.4983 6.68 96.8343 6.904 97.0743 7.192C97.3303 7.496 97.5143 7.888 97.6263 8.368C97.7543 8.848 97.8183 9.496 97.8183 10.312V16.768C97.8183 17.44 97.9303 17.896 98.1543 18.136C98.3943 18.376 98.7943 18.496 99.3543 18.496V19C99.0503 18.984 98.5943 18.968 97.9863 18.952C97.3783 18.92 96.7783 18.904 96.1863 18.904C95.5783 18.904 94.9783 18.92 94.3863 18.952C93.8103 18.968 93.3703 18.984 93.0663 19V18.496C93.5463 18.496 93.8823 18.376 94.0743 18.136C94.2663 17.896 94.3623 17.44 94.3623 16.768V9.304C94.3623 8.904 94.3223 8.56 94.2423 8.272C94.1623 7.968 94.0183 7.736 93.8103 7.576C93.6023 7.4 93.2903 7.312 92.8743 7.312C92.4423 7.312 92.0423 7.432 91.6743 7.672C91.3223 7.912 91.0343 8.248 90.8103 8.68C90.6023 9.096 90.4983 9.568 90.4983 10.096V16.768C90.4983 17.44 90.5943 17.896 90.7863 18.136C90.9943 18.376 91.3303 18.496 91.7943 18.496V19C91.5063 18.984 91.0823 18.968 90.5223 18.952C89.9783 18.92 89.4103 18.904 88.8183 18.904C88.2103 18.904 87.5863 18.92 86.9463 18.952C86.3063 18.968 85.8263 18.984 85.5063 19V18.496C86.0663 18.496 86.4583 18.376 86.6823 18.136C86.9223 17.896 87.0423 17.44 87.0423 16.768V9.208C87.0423 8.488 86.9303 7.96 86.7063 7.624C86.4983 7.272 86.0983 7.096 85.5063 7.096V6.592C86.0183 6.64 86.5143 6.664 86.9943 6.664C87.6663 6.664 88.2903 6.64 88.8663 6.592C89.4583 6.528 90.0023 6.44 90.4983 6.328V8.488C90.8983 7.672 91.4423 7.096 92.1303 6.76C92.8183 6.424 93.5863 6.256 94.4343 6.256ZM103.848 0.399999C104.52 0.399999 105.048 0.567999 105.432 0.904C105.832 1.224 106.032 1.672 106.032 2.248C106.032 2.824 105.832 3.28 105.432 3.616C105.048 3.936 104.52 4.096 103.848 4.096C103.176 4.096 102.64 3.936 102.24 3.616C101.856 3.28 101.664 2.824 101.664 2.248C101.664 1.672 101.856 1.224 102.24 0.904C102.64 0.567999 103.176 0.399999 103.848 0.399999ZM105.72 6.328V16.768C105.72 17.44 105.832 17.896 106.056 18.136C106.296 18.376 106.696 18.496 107.256 18.496V19C106.968 18.984 106.52 18.968 105.912 18.952C105.304 18.92 104.688 18.904 104.064 18.904C103.44 18.904 102.808 18.92 102.168 18.952C101.528 18.968 101.048 18.984 100.728 19V18.496C101.288 18.496 101.68 18.376 101.904 18.136C102.144 17.896 102.264 17.44 102.264 16.768V9.208C102.264 8.488 102.152 7.96 101.928 7.624C101.72 7.272 101.32 7.096 100.728 7.096V6.592C101.24 6.64 101.736 6.664 102.216 6.664C102.888 6.664 103.512 6.64 104.088 6.592C104.68 6.528 105.224 6.44 105.72 6.328ZM115.019 6.256C115.643 6.256 116.211 6.328 116.723 6.472C117.251 6.6 117.683 6.768 118.019 6.976C118.435 7.232 118.755 7.552 118.979 7.936C119.219 8.304 119.339 8.736 119.339 9.232C119.339 9.792 119.163 10.256 118.811 10.624C118.459 10.976 118.003 11.152 117.443 11.152C116.883 11.152 116.435 10.992 116.099 10.672C115.763 10.352 115.595 9.92 115.595 9.376C115.595 8.864 115.755 8.44 116.075 8.104C116.395 7.752 116.763 7.52 117.179 7.408C117.051 7.248 116.859 7.112 116.603 7C116.347 6.888 116.059 6.832 115.739 6.832C115.243 6.832 114.803 6.976 114.419 7.264C114.051 7.552 113.739 7.952 113.483 8.464C113.227 8.976 113.027 9.576 112.883 10.264C112.755 10.952 112.691 11.704 112.691 12.52C112.691 13.752 112.843 14.72 113.147 15.424C113.467 16.128 113.867 16.624 114.347 16.912C114.843 17.2 115.355 17.344 115.883 17.344C116.187 17.344 116.515 17.296 116.867 17.2C117.235 17.104 117.603 16.912 117.971 16.624C118.355 16.336 118.707 15.928 119.027 15.4L119.435 15.544C119.259 16.136 118.971 16.728 118.571 17.32C118.171 17.912 117.651 18.4 117.011 18.784C116.371 19.152 115.587 19.336 114.659 19.336C113.619 19.336 112.675 19.112 111.827 18.664C110.995 18.2 110.323 17.496 109.811 16.552C109.315 15.592 109.067 14.36 109.067 12.856C109.067 11.416 109.323 10.208 109.835 9.232C110.363 8.24 111.075 7.496 111.971 7C112.867 6.504 113.883 6.256 115.019 6.256ZM127.357 6.256C128.525 6.256 129.549 6.472 130.429 6.904C131.309 7.336 131.997 8.032 132.493 8.992C132.989 9.952 133.237 11.224 133.237 12.808C133.237 14.392 132.989 15.664 132.493 16.624C131.997 17.568 131.309 18.256 130.429 18.688C129.549 19.12 128.525 19.336 127.357 19.336C126.221 19.336 125.205 19.12 124.309 18.688C123.429 18.256 122.733 17.568 122.221 16.624C121.725 15.664 121.477 14.392 121.477 12.808C121.477 11.224 121.725 9.952 122.221 8.992C122.733 8.032 123.429 7.336 124.309 6.904C125.205 6.472 126.221 6.256 127.357 6.256ZM127.357 6.736C126.717 6.736 126.181 7.216 125.749 8.176C125.317 9.12 125.101 10.664 125.101 12.808C125.101 14.952 125.317 16.496 125.749 17.44C126.181 18.384 126.717 18.856 127.357 18.856C128.013 18.856 128.549 18.384 128.965 17.44C129.397 16.496 129.613 14.952 129.613 12.808C129.613 10.664 129.397 9.12 128.965 8.176C128.549 7.216 128.013 6.736 127.357 6.736Z" fill="white"/>
</svg>
