<svg width="59" height="40" viewBox="0 0 59 40" fill="none" xmlns="http://www.w3.org/2000/svg">
<rect x="1.16602" y="0.5" width="57.3333" height="39" rx="3.5" fill="white" stroke="white"/>
<path d="M12.2319 15.8848L10.5547 18.1811H19.696C20.1583 18.1811 20.1525 18.3565 19.9266 18.6666C19.6972 18.9802 19.3133 19.5227 19.0793 19.8421C18.9606 20.0036 18.7462 20.2974 19.4563 20.2974H23.1947L24.3025 18.7805C24.9895 17.8408 24.3624 15.8859 21.9059 15.8859L12.2319 15.8848Z" fill="#D80613"/>
<path d="M9.87619 23.3662L13.2457 18.7526H17.4268C17.889 18.7526 17.8832 18.9291 17.6573 19.2381L16.8043 20.4089C16.6855 20.5704 16.4711 20.8643 17.1812 20.8643H22.7813C22.3167 21.5077 20.8043 23.3662 18.093 23.3662H9.87619ZM29.171 20.8631L27.3439 23.3662H22.5242L24.3514 20.8631H29.171ZM36.5533 20.2963H24.7664L27.9895 15.8848H32.8068L30.9601 18.4146H33.11L34.959 15.8848H39.7764L36.5533 20.2963ZM36.1395 20.8631L34.3123 23.3662H29.495L31.3221 20.8631H36.1395ZM3 21.8504H10.0987L9.71135 22.3812H3V21.8504ZM3 20.8631H10.8203L10.4318 21.3939H3V20.8631ZM3 22.8377H9.3782L8.99203 23.3662H3V22.8377ZM55.5 22.3812H48.4267L48.8152 21.8504H55.5V22.3812ZM55.5 23.3662H47.7085L48.0935 22.8377H55.5V23.3662ZM49.5356 20.8631H55.5V21.3951H49.1483L49.5356 20.8631ZM46.4486 15.8848L43.2254 20.2963H38.1199L41.3453 15.8848H46.4486ZM37.7072 20.8631C37.7072 20.8631 37.3556 21.3486 37.1838 21.5809C36.5798 22.4056 37.1135 23.365 39.0882 23.365H46.8255L48.6526 20.8631H37.7072Z" fill="#D80613"/>
</svg>
