<svg width="101" height="100" viewBox="0 0 101 100" fill="none" xmlns="http://www.w3.org/2000/svg">
<path d="M50.8289 100C44.0684 100 37.5094 98.6787 31.334 96.0726C28.4438 94.8531 25.6961 93.3783 23.1084 91.6604C20.3564 89.8332 17.7853 87.7303 15.4151 85.3654C10.816 80.7773 7.20504 75.4342 4.68242 69.4841C2.0705 63.3234 0.746094 56.7798 0.746094 50.0353C0.746094 43.2907 2.0705 36.7471 4.68242 30.5864C7.20504 24.6363 10.816 19.2932 15.4151 14.7051C20.0141 10.1164 25.37 6.51428 31.334 3.99788C37.5094 1.39185 44.0684 0.0705032 50.8289 0.0705032C57.5894 0.0705032 64.1485 1.39185 70.3237 3.99788C73.236 5.2262 76.0034 6.71391 78.6081 8.44945C81.338 10.2672 83.8896 12.3571 86.2425 14.7051C90.8421 19.2932 94.4527 24.6363 96.9751 30.5864C99.5873 36.7471 100.912 43.2907 100.912 50.0353C100.912 56.7798 99.5873 63.3234 96.9751 69.4841C94.4527 75.4342 90.8421 80.7773 86.2425 85.3654C81.6436 89.9541 76.2879 93.5562 70.3237 96.0726C64.1485 98.6787 57.5894 100 50.8289 100ZM25.6223 90.0376C27.7731 91.3882 30.0354 92.5655 32.3982 93.563C38.235 96.0258 44.436 97.2745 50.8289 97.2745C57.2219 97.2745 63.4229 96.0258 69.2599 93.563C74.8981 91.1838 79.9618 87.7772 84.3109 83.4383C88.6601 79.0995 92.0747 74.0477 94.4596 68.4228C96.9281 62.5996 98.1798 56.4132 98.1798 50.0353C98.1798 43.6573 96.9281 37.4709 94.4596 31.6477C92.0747 26.0228 88.6601 20.971 84.3109 16.6322C82.3712 14.697 80.2892 12.9472 78.0772 11.3909C78.0663 11.3834 78.0554 11.376 78.0445 11.3685C78.0337 11.361 78.0234 11.3529 78.0119 11.3454C78.0017 11.3379 77.9908 11.3305 77.9799 11.323C77.969 11.3155 77.9581 11.3081 77.9472 11.2999C77.937 11.2924 77.9254 11.285 77.9152 11.2775C77.9043 11.2701 77.8934 11.2626 77.8826 11.2551C77.8717 11.2476 77.8608 11.2395 77.8499 11.232C77.839 11.2245 77.8281 11.2171 77.8179 11.2103C77.807 11.2021 77.7961 11.1947 77.7852 11.1872C77.7743 11.1797 77.7635 11.1723 77.7526 11.1648C77.7417 11.1573 77.7301 11.1492 77.7199 11.1424C77.709 11.1349 77.6981 11.1275 77.6872 11.12C77.6763 11.1125 77.6654 11.105 77.6546 11.0976C77.6437 11.0901 77.6328 11.0826 77.6219 11.0752C77.611 11.0677 77.6008 11.0602 77.5899 11.0528C77.579 11.0453 77.5674 11.0378 77.5565 11.0304C77.5457 11.0229 77.5354 11.0154 77.5246 11.0079C77.5137 11.0005 77.5021 10.993 77.4912 10.9855C77.4803 10.9781 77.4694 10.9706 77.4585 10.9631C77.4476 10.9563 77.4368 10.9482 77.4259 10.9414C77.415 10.9339 77.4034 10.9258 77.3925 10.9183C77.3816 10.9115 77.3714 10.9041 77.3605 10.8966C77.349 10.8891 77.3387 10.8817 77.3272 10.8742C77.317 10.8674 77.3061 10.8599 77.2952 10.8531C77.2843 10.8457 77.2727 10.8375 77.2618 10.8307C77.2503 10.8226 77.2394 10.8151 77.2285 10.8076C77.2176 10.8008 77.206 10.7934 77.1958 10.7859C77.1842 10.7784 77.1734 10.771 77.1625 10.7635C77.1516 10.7567 77.1414 10.7499 77.1305 10.7425C77.1176 10.7336 77.1046 10.7248 77.0917 10.716C74.6286 9.07617 72.013 7.66927 69.2599 6.50749C63.4229 4.04473 57.2219 2.79604 50.8289 2.79604C44.436 2.79604 38.235 4.04473 32.3982 6.50749C26.7599 8.88673 21.6958 12.2933 17.3468 16.6322C12.9977 20.971 9.5833 26.0228 7.19844 31.6477C4.72972 37.4709 3.47794 43.6573 3.47794 50.0353C3.47794 56.4132 4.72972 62.5996 7.19844 68.4228C9.5833 74.0477 12.9977 79.0995 17.3468 83.4383C19.589 85.6757 22.0209 87.6645 24.6239 89.3925C24.6362 89.4007 24.6487 89.4088 24.661 89.417C24.6713 89.4238 24.6814 89.4306 24.6916 89.4374C24.7027 89.4448 24.7135 89.4516 24.7247 89.4591C24.7358 89.4666 24.7469 89.474 24.758 89.4815C24.7689 89.4883 24.7797 89.4951 24.7905 89.5025C24.8013 89.5093 24.8128 89.5175 24.8236 89.5243C24.8347 89.5317 24.8451 89.5385 24.8563 89.546C24.8674 89.5528 24.8792 89.5609 24.8903 89.5677C24.9011 89.5752 24.912 89.582 24.9228 89.5895C24.934 89.5963 24.945 89.6037 24.9562 89.6112C24.9673 89.618 24.9783 89.6254 24.9894 89.6329C25.0003 89.6397 25.0116 89.6472 25.0225 89.654C25.0336 89.6614 25.0446 89.6682 25.0558 89.6757C25.0667 89.6832 25.0776 89.69 25.0885 89.6967C25.0997 89.7042 25.1106 89.711 25.1218 89.7185C25.133 89.7259 25.1439 89.7327 25.155 89.7402C25.1659 89.747 25.1776 89.7545 25.1885 89.7613C25.1997 89.7687 25.2107 89.7755 25.2219 89.783C25.2331 89.7904 25.2441 89.7972 25.2553 89.8047C25.2662 89.8115 25.2775 89.8183 25.2884 89.8258C25.2996 89.8325 25.3102 89.8393 25.3214 89.8468C25.3327 89.8536 25.3436 89.8611 25.3549 89.8679C25.3658 89.8753 25.3774 89.8821 25.3883 89.8896C25.3996 89.8964 25.4105 89.9032 25.4217 89.9106C25.4329 89.9174 25.444 89.9249 25.4553 89.9317C25.4661 89.9385 25.4778 89.9459 25.4887 89.9534C25.5 89.9602 25.5107 89.967 25.5219 89.9738C25.5328 89.9812 25.5443 89.988 25.5553 89.9948C25.5666 90.0023 25.5776 90.0091 25.5889 90.0166C25.6001 90.0233 25.611 90.0301 25.6223 90.0376Z" fill="#313131"/>
<path d="M50.8272 94.9688C44.747 94.9688 38.8485 93.7805 33.2954 91.4372C27.9319 89.1741 23.1152 85.9346 18.979 81.8076C14.8428 77.6812 11.5953 72.8759 9.32677 67.5253C6.97805 61.9853 5.78711 56.1003 5.78711 50.0348C5.78711 46.434 6.20671 42.8971 7.0391 39.4586C7.61197 37.2654 8.34567 35.1116 9.23863 33.0053C11.6234 27.3804 15.0378 22.3286 19.3868 17.9897C20.9347 16.4456 22.573 15.0197 24.2955 13.716C27.0812 11.6858 30.0909 9.98422 33.2954 8.63232C38.8485 6.28906 44.747 5.10081 50.8272 5.10081C50.8346 5.10081 50.8417 5.10081 50.8491 5.10081C56.9214 5.10352 62.8128 6.29178 68.3591 8.63232C73.7223 10.8954 78.539 14.135 82.6751 18.262C86.8118 22.3883 90.059 27.1937 92.3275 32.5442C94.6763 38.0842 95.8674 43.9692 95.8674 50.0348C95.8674 56.1003 94.6763 61.9853 92.3275 67.5253C90.059 72.8759 86.8118 77.6812 82.6751 81.8076C78.539 85.9346 73.7223 89.1741 68.3591 91.4372C62.8128 93.7778 56.9214 94.966 50.8491 94.9688C50.8417 94.9688 50.8346 94.9688 50.8272 94.9688ZM50.8272 6.25512C44.9027 6.25512 39.1558 7.41214 33.746 9.69496C28.5205 11.9004 23.8274 15.0571 19.797 19.0775C15.7667 23.0986 12.6024 27.781 10.3923 32.9937C8.10412 38.3912 6.94388 44.124 6.94388 50.0348C6.94388 55.9455 8.10412 61.6784 10.3923 67.0758C12.6024 72.2886 15.7667 76.971 19.797 80.9921C23.8274 85.0125 28.5205 88.1692 33.746 90.3746C39.1558 92.6574 44.9027 93.8144 50.8272 93.8144C50.8344 93.8144 50.8419 93.8144 50.8491 93.8144C50.8564 93.8144 50.8639 93.8144 50.8711 93.8144C50.8787 93.8144 50.8854 93.8144 50.8931 93.8144C50.9003 93.8144 50.9078 93.8144 50.915 93.8144C50.9223 93.8144 50.9297 93.8144 50.937 93.8144C50.9442 93.8144 50.9517 93.8144 50.9589 93.8144C50.9665 93.8144 50.9733 93.8144 50.9809 93.8144C50.9881 93.8144 50.9956 93.8144 51.0028 93.8144C51.0101 93.8144 51.0175 93.8144 51.0248 93.8144C51.032 93.8138 51.0395 93.8138 51.0467 93.8138C51.0543 93.8138 51.0611 93.8138 51.0687 93.8138C51.0759 93.8138 51.0834 93.8138 51.0906 93.8138C51.0979 93.8138 51.1056 93.8138 51.1124 93.8138C51.1198 93.8138 51.1273 93.8138 51.1348 93.8138C51.1423 93.8138 51.1491 93.8131 51.1566 93.8131C51.1634 93.8131 51.1716 93.8131 51.1784 93.8131C51.1859 93.8131 51.1933 93.8131 51.2002 93.8131C51.2083 93.8131 51.2144 93.8131 51.2226 93.8131C51.2294 93.8131 51.2369 93.8124 51.2444 93.8124C51.2519 93.8124 51.2594 93.8124 51.2662 93.8124C51.2737 93.8124 51.2812 93.8124 51.288 93.8124C51.2961 93.8124 51.3029 93.8117 51.3104 93.8117C51.3172 93.8117 51.3247 93.8117 51.3322 93.8117C51.3397 93.8117 51.3472 93.8117 51.354 93.8117C51.3615 93.8117 51.3689 93.811 51.3758 93.811C51.3839 93.811 51.3907 93.811 51.3982 93.811C51.405 93.811 51.4125 93.811 51.42 93.8104C51.4275 93.8104 51.435 93.8104 51.4418 93.8104C51.4493 93.8104 51.4561 93.8104 51.4636 93.8104C51.471 93.8097 51.4785 93.8097 51.486 93.8097C51.4928 93.8097 51.5003 93.8097 51.5078 93.8097C57.1916 93.7241 62.7059 92.5698 67.9085 90.3746C73.1336 88.1692 77.8271 85.0125 81.857 80.9921C85.8876 76.971 89.0517 72.2886 91.2624 67.0758C93.5506 61.6784 94.7103 55.9455 94.7103 50.0348C94.7103 44.124 93.5506 38.3912 91.2624 32.9937C89.0517 27.781 85.8876 23.0986 81.857 19.0775C77.8271 15.0571 73.1336 11.9004 67.9085 9.69496C62.7059 7.49973 57.1916 6.34542 51.5078 6.25986C51.5003 6.25986 51.4928 6.25986 51.486 6.25986C51.4785 6.25986 51.471 6.25986 51.4636 6.25986C51.4561 6.25919 51.4493 6.25919 51.4418 6.25919C51.435 6.25919 51.4275 6.25919 51.42 6.25919C51.4125 6.25851 51.405 6.25851 51.3982 6.25851C51.3907 6.25851 51.3839 6.25851 51.3758 6.25851C51.3689 6.25851 51.3615 6.25782 51.354 6.25782C51.3472 6.25782 51.3397 6.25782 51.3322 6.25782C51.3247 6.25782 51.3172 6.25782 51.3104 6.25782C51.3029 6.25714 51.2961 6.25715 51.288 6.25715C51.2812 6.25715 51.2737 6.25715 51.2662 6.25715C51.2594 6.25715 51.2519 6.25715 51.2444 6.25715C51.2369 6.25715 51.2294 6.25647 51.2226 6.25647C51.2144 6.25647 51.2083 6.25647 51.2002 6.25647C51.1933 6.25647 51.1859 6.25647 51.1784 6.25647C51.1716 6.25647 51.1634 6.25647 51.1566 6.25647C51.1491 6.25647 51.1423 6.25647 51.1348 6.25579C51.1273 6.25579 51.1198 6.25579 51.1124 6.25579C51.1056 6.25579 51.0979 6.25579 51.0906 6.25579C51.0834 6.25579 51.0759 6.25579 51.0687 6.25579C51.0611 6.25579 51.0543 6.25579 51.0467 6.25579C51.0395 6.25579 51.032 6.2558 51.0248 6.25512C51.0175 6.25512 51.0101 6.25512 51.0028 6.25512C50.9956 6.25512 50.9881 6.25512 50.9809 6.25512C50.9733 6.25512 50.9665 6.25512 50.9589 6.25512C50.9517 6.25512 50.9442 6.25512 50.937 6.25512C50.9297 6.25512 50.9223 6.25512 50.915 6.25512C50.9078 6.25512 50.9003 6.25512 50.8931 6.25512C50.8854 6.25512 50.8787 6.25512 50.8711 6.25512C50.8639 6.25512 50.8564 6.25512 50.8491 6.25512C50.8419 6.25512 50.8344 6.25512 50.8272 6.25512Z" fill="#313131"/>
<path d="M7.04297 39.4561C7.44208 37.8074 7.93593 36.1812 8.52405 34.5808C8.73123 34.0376 8.94862 33.4971 9.17662 32.9593C11.5614 27.3344 14.9758 22.2819 19.3249 17.9431C19.6623 17.607 20.0039 17.2756 20.3498 16.9504C21.6098 15.7933 22.9275 14.713 24.2994 13.7135C22.5769 15.0172 20.9386 16.4431 19.3907 17.9872C15.0417 22.3261 11.6273 27.3779 9.2425 33.0028C8.34954 35.109 7.61584 37.2629 7.04297 39.4561Z" fill="#313131"/>
<path d="M8.51953 34.582C8.77109 33.8976 9.04013 33.2179 9.32613 32.543C11.5947 27.1924 14.8422 22.3871 18.9784 18.2607C19.4262 17.8139 19.8817 17.3773 20.3453 16.9516C19.9994 17.2769 19.6578 17.6082 19.3204 17.9443C14.9713 22.2832 11.5569 27.3357 9.1721 32.9606C8.9441 33.4983 8.72671 34.0388 8.51953 34.582Z" fill="#313131"/>
<path d="M50.8285 82.1807C46.4787 82.1807 42.2587 81.3305 38.2857 79.6541C37.6585 79.3899 37.0418 79.1061 36.436 78.8046C33.3351 77.2606 30.5188 75.2351 28.0434 72.7649C25.0843 69.8132 22.7609 66.3754 21.138 62.5472C19.4575 58.5831 18.6055 54.3733 18.6055 50.0338C18.6055 45.6942 19.4575 41.4844 21.138 37.5203C22.7609 33.6921 25.0843 30.2543 28.0434 27.3026C31.0025 24.3503 34.4485 22.0322 38.2857 20.4134C42.2587 18.737 46.4787 17.8868 50.8285 17.8868C55.1783 17.8868 59.3981 18.737 63.3715 20.4134C64.0106 20.683 64.6395 20.9722 65.2568 21.2805C68.3434 22.8225 71.1475 24.8426 73.6134 27.3026C76.5727 30.2543 78.8963 33.6921 80.5189 37.5203C82.1993 41.4844 83.0514 45.6942 83.0514 50.0338C83.0514 54.3733 82.1993 58.5831 80.5189 62.5472C78.8963 66.3747 76.5727 69.8132 73.6134 72.7649C70.6548 75.7172 67.2081 78.0353 63.3715 79.6541C59.3981 81.3305 55.1783 82.1807 50.8285 82.1807ZM37.5947 78.144C37.9641 78.3171 38.3374 78.4835 38.7147 78.6424C42.5511 80.2611 46.6268 81.082 50.8285 81.082C55.0299 81.082 59.1061 80.2611 62.9421 78.6424C66.648 77.0786 69.9769 74.8399 72.8348 71.9881C75.6933 69.1369 77.9373 65.8159 79.5048 62.1187C81.1273 58.2918 81.9502 54.2259 81.9502 50.0338C81.9502 45.8416 81.1273 41.7757 79.5048 37.9488C77.9373 34.2516 75.6933 30.9306 72.8348 28.0794C70.6303 25.8794 68.1454 24.0447 65.4236 22.6025C65.4161 22.5991 65.41 22.5951 65.4025 22.591C65.395 22.5876 65.3875 22.5835 65.38 22.5795C65.3732 22.5761 65.3657 22.572 65.3589 22.5686C65.3514 22.5645 65.3446 22.5611 65.3371 22.557C65.3297 22.553 65.3228 22.5496 65.3154 22.5455C65.3079 22.5414 65.3011 22.538 65.2936 22.534C65.2861 22.5306 65.2793 22.5265 65.2718 22.5231C65.265 22.519 65.2575 22.5156 65.2507 22.5116C65.2432 22.5075 65.2357 22.5041 65.2282 22.5C65.2208 22.4959 65.214 22.4925 65.2065 22.4885C65.1997 22.4851 65.1922 22.4817 65.1854 22.4776C65.1779 22.4742 65.1711 22.4701 65.1636 22.4667C65.1561 22.4627 65.1486 22.4586 65.1418 22.4552C65.1343 22.4511 65.1268 22.4477 65.1193 22.4437C65.1125 22.4403 65.105 22.4362 65.0982 22.4328C65.0908 22.4287 65.0833 22.4253 65.0765 22.4212C65.069 22.4179 65.0615 22.4138 65.054 22.4104C65.0472 22.4063 65.0397 22.4029 65.0329 22.3988C65.0254 22.3954 65.0186 22.392 65.0111 22.388C65.0036 22.3846 64.9962 22.3805 64.9893 22.3771C64.9819 22.373 64.9744 22.3696 64.9669 22.3656C64.9601 22.3622 64.9526 22.3581 64.9458 22.3547C64.9383 22.3513 64.9308 22.3472 64.924 22.3438C64.9158 22.3398 64.909 22.3357 64.9009 22.3323C64.8947 22.3289 64.8873 22.3255 64.8804 22.3221C64.8736 22.318 64.8668 22.3146 64.8594 22.3113C64.8519 22.3072 64.8444 22.3038 64.8369 22.2997C64.8301 22.2963 64.8233 22.2929 64.8165 22.2895C64.8097 22.2861 64.8029 22.2827 64.7961 22.2793C64.7892 22.2759 64.7824 22.2725 64.775 22.2691C64.1753 21.969 63.5641 21.6872 62.9421 21.4251C59.1061 19.8064 55.0299 18.9855 50.8285 18.9855C46.6268 18.9855 42.5512 19.8064 38.7147 21.4251C35.0088 22.9889 31.6804 25.2276 28.8221 28.0794C25.9638 30.9306 23.7197 34.2516 22.1523 37.9488C20.5296 41.7757 19.7068 45.8422 19.7068 50.0338C19.7068 54.2253 20.5296 58.2918 22.1523 62.1187C23.7197 65.8159 25.9638 69.1369 28.8221 71.9881C31.2124 74.3728 33.9316 76.329 36.9252 77.8201C36.935 77.8255 36.9444 77.8296 36.9542 77.835C36.9608 77.8377 36.9676 77.8411 36.9742 77.8445C36.9814 77.8479 36.9886 77.852 36.9959 77.8554C37.004 77.8595 37.0118 77.8635 37.0198 77.8669C37.0271 77.871 37.0344 77.8744 37.0416 77.8778C37.0489 77.8819 37.0563 77.8853 37.0635 77.8887C37.0708 77.8921 37.0781 77.8961 37.0853 77.8995C37.0927 77.9029 37.1002 77.907 37.1076 77.9104C37.1149 77.9138 37.122 77.9172 37.1292 77.9213C37.1365 77.9246 37.1439 77.928 37.1511 77.9314C37.1588 77.9355 37.1662 77.9389 37.1739 77.943C37.1809 77.9464 37.1882 77.9498 37.1952 77.9532C37.2029 77.9572 37.2103 77.9606 37.218 77.964C37.2253 77.9674 37.2327 77.9715 37.24 77.9749C37.2474 77.9783 37.2547 77.9824 37.2622 77.9858C37.2694 77.9892 37.2768 77.9925 37.284 77.9959C37.2913 78 37.2988 78.0034 37.306 78.0068C37.3135 78.0102 37.3211 78.0143 37.3286 78.0177C37.3359 78.0211 37.3429 78.0245 37.3502 78.0279C37.3577 78.0319 37.3653 78.0353 37.3728 78.0387C37.3801 78.0421 37.3874 78.0455 37.3947 78.0496C37.4021 78.053 37.4096 78.0564 37.4171 78.0598C37.4244 78.0632 37.4318 78.0672 37.4391 78.0706C37.4466 78.074 37.4537 78.0774 37.4612 78.0808C37.4687 78.0842 37.4762 78.0883 37.4837 78.0917C37.491 78.0951 37.4982 78.0985 37.5056 78.1019C37.5131 78.1053 37.5206 78.1093 37.5281 78.1127C37.5354 78.1161 37.5428 78.1195 37.5501 78.1229C37.5576 78.1263 37.565 78.1297 37.5726 78.1338C37.5799 78.1372 37.5873 78.1406 37.5947 78.144Z" fill="#313131"/>
<mask id="mask0_2262_7273" style="mask-type:luminance" maskUnits="userSpaceOnUse" x="0" y="0" width="101" height="100">
<path d="M94.5221 68.3525C92.1372 73.9774 88.7226 79.0292 84.3734 83.368C80.0243 87.7069 74.9606 91.1135 69.3224 93.4927C63.4854 95.9555 57.2844 97.2042 50.8914 97.2042C44.4985 97.2042 38.2975 95.9555 32.4607 93.4927C26.8224 91.1135 21.7583 87.7069 17.4093 83.368C13.0602 79.0292 9.6458 73.9774 7.261 68.3525C4.79222 62.5293 3.54044 56.3429 3.54044 49.9649C3.54044 43.587 4.79222 37.4006 7.261 31.5774C9.6458 25.9525 13.0602 20.9007 17.4093 16.5619C21.7583 12.223 26.8224 8.81642 32.4607 6.43718C38.2975 3.97442 44.4985 2.72572 50.8914 2.72572C57.2844 2.72572 63.4854 3.97442 69.3224 6.43718C74.9606 8.81642 80.0243 12.223 84.3734 16.5619C88.7226 20.9007 92.1372 25.9525 94.5221 31.5774C96.9906 37.4006 98.2423 43.587 98.2423 49.9649C98.2423 56.3429 96.9906 62.5293 94.5221 68.3525ZM97.0376 30.5161C94.5152 24.566 90.9046 19.2229 86.305 14.6348C81.7061 10.0461 76.3504 6.44397 70.3862 3.92757C64.211 1.32154 57.6519 0.000190735 50.8914 0.000190735C44.1309 0.000190735 37.5719 1.32154 31.3965 3.92757C25.4325 6.44397 20.0766 10.0461 15.4776 14.6348C10.8785 19.2229 7.26747 24.566 4.74492 30.5161C2.133 36.6768 0.808594 43.2204 0.808594 49.9649C0.808594 56.7095 2.133 63.2531 4.74492 69.4137C7.26747 75.3639 10.8785 80.707 15.4776 85.295C20.0766 89.8838 25.4325 93.4859 31.3965 96.0023C37.5719 98.6083 44.1309 99.9297 50.8914 99.9297C57.6519 99.9297 64.211 98.6083 70.3862 96.0023C76.3504 93.4859 81.7061 89.8838 86.305 85.295C90.9046 80.707 94.5152 75.3639 97.0376 69.4137C99.6498 63.2531 100.974 56.7095 100.974 49.9649C100.974 43.2204 99.6498 36.6768 97.0376 30.5161Z" fill="white"/>
</mask>
<g mask="url(#mask0_2262_7273)">
<path d="M94.5221 68.3525C92.1372 73.9774 88.7226 79.0292 84.3734 83.368C80.0243 87.7069 74.9606 91.1135 69.3224 93.4927C63.4854 95.9555 57.2844 97.2042 50.8914 97.2042C44.4985 97.2042 38.2975 95.9555 32.4607 93.4927C26.8224 91.1135 21.7583 87.7069 17.4093 83.368C13.0602 79.0292 9.6458 73.9774 7.261 68.3525C4.79222 62.5293 3.54044 56.3429 3.54044 49.9649C3.54044 43.587 4.79222 37.4006 7.261 31.5774C9.6458 25.9525 13.0602 20.9007 17.4093 16.5619C21.7583 12.223 26.8224 8.81642 32.4607 6.43718C38.2975 3.97442 44.4985 2.72572 50.8914 2.72572C57.2844 2.72572 63.4854 3.97442 69.3224 6.43718C74.9606 8.81642 80.0243 12.223 84.3734 16.5619C88.7226 20.9007 92.1372 25.9525 94.5221 31.5774C96.9906 37.4006 98.2423 43.587 98.2423 49.9649C98.2423 56.3429 96.9906 62.5293 94.5221 68.3525ZM97.0376 30.5161C94.5152 24.566 90.9046 19.2229 86.305 14.6348C81.7061 10.0461 76.3504 6.44397 70.3862 3.92757C64.211 1.32154 57.6519 0.000190735 50.8914 0.000190735C44.1309 0.000190735 37.5719 1.32154 31.3965 3.92757C25.4325 6.44397 20.0766 10.0461 15.4776 14.6348C10.8785 19.2229 7.26747 24.566 4.74492 30.5161C2.133 36.6768 0.808594 43.2204 0.808594 49.9649C0.808594 56.7095 2.133 63.2531 4.74492 69.4137C7.26747 75.3639 10.8785 80.707 15.4776 85.295C20.0766 89.8838 25.4325 93.4859 31.3965 96.0023C37.5719 98.6083 44.1309 99.9297 50.8914 99.9297C57.6519 99.9297 64.211 98.6083 70.3862 96.0023C76.3504 93.4859 81.7061 89.8838 86.305 85.295C90.9046 80.707 94.5152 75.3639 97.0376 69.4137C99.6498 63.2531 100.974 56.7095 100.974 49.9649C100.974 43.2204 99.6498 36.6768 97.0376 30.5161Z" fill="#313131"/>
</g>
<mask id="mask1_2262_7273" style="mask-type:luminance" maskUnits="userSpaceOnUse" x="5" y="5" width="91" height="90">
<path d="M91.3327 67.0114C89.122 72.2241 85.9579 76.9065 81.928 80.9276C77.8974 84.948 73.2039 88.1047 67.9788 90.3101C62.5686 92.593 56.8222 93.75 50.8975 93.75C44.973 93.75 39.2261 92.593 33.8163 90.3101C28.5908 88.1047 23.8977 84.948 19.8674 80.9276C15.837 76.9065 12.6727 72.2241 10.4626 67.0114C8.17443 61.6139 7.01426 55.8811 7.01426 49.9703C7.01426 44.0596 8.17443 38.3267 10.4626 32.9293C12.6727 27.7165 15.837 23.0341 19.8674 19.013C23.8977 14.9926 28.5908 11.8359 33.8163 9.63051C39.2261 7.34769 44.973 6.19067 50.8975 6.19067C56.8222 6.19067 62.5686 7.34769 67.9788 9.63051C73.2039 11.8359 77.8974 14.9926 81.928 19.013C85.9579 23.0341 89.122 27.7165 91.3327 32.9293C93.6209 38.3267 94.7807 44.0596 94.7807 49.9703C94.7807 55.8811 93.6209 61.6139 91.3327 67.0114ZM92.3978 32.4798C90.1293 27.1292 86.8821 22.3239 82.7454 18.1975C78.6093 14.0705 73.7926 10.831 68.4294 8.56786C62.8763 6.22461 56.9774 5.03635 50.8975 5.03635C44.8174 5.03635 38.9188 6.22461 33.3657 8.56786C28.0022 10.831 23.1855 14.0705 19.0493 18.1975C14.9131 22.3239 11.6656 27.1292 9.39708 32.4798C7.04829 38.0198 5.85742 43.9048 5.85742 49.9703C5.85742 56.0359 7.04829 61.9208 9.39708 67.4609C11.6656 72.8114 14.9131 77.6168 19.0493 81.7431C23.1855 85.8701 28.0022 89.1096 33.3657 91.3728C38.9188 93.716 44.8174 94.9043 50.8975 94.9043C56.9774 94.9043 62.8763 93.716 68.4294 91.3728C73.7926 89.1096 78.6093 85.8701 82.7454 81.7431C86.8821 77.6168 90.1293 72.8114 92.3978 67.4609C94.7466 61.9208 95.9377 56.0359 95.9377 49.9703C95.9377 43.9048 94.7466 38.0198 92.3978 32.4798Z" fill="white"/>
</mask>
<g mask="url(#mask1_2262_7273)">
<path d="M91.3327 67.0114C89.122 72.2241 85.9579 76.9065 81.928 80.9276C77.8974 84.948 73.2039 88.1047 67.9788 90.3101C62.5686 92.593 56.8222 93.75 50.8975 93.75C44.973 93.75 39.2261 92.593 33.8163 90.3101C28.5908 88.1047 23.8977 84.948 19.8674 80.9276C15.837 76.9065 12.6727 72.2241 10.4626 67.0114C8.17443 61.6139 7.01426 55.8811 7.01426 49.9703C7.01426 44.0596 8.17443 38.3267 10.4626 32.9293C12.6727 27.7165 15.837 23.0341 19.8674 19.013C23.8977 14.9926 28.5908 11.8359 33.8163 9.63051C39.2261 7.34769 44.973 6.19067 50.8975 6.19067C56.8222 6.19067 62.5686 7.34769 67.9788 9.63051C73.2039 11.8359 77.8974 14.9926 81.928 19.013C85.9579 23.0341 89.122 27.7165 91.3327 32.9293C93.6209 38.3267 94.7807 44.0596 94.7807 49.9703C94.7807 55.8811 93.6209 61.6139 91.3327 67.0114ZM92.3978 32.4798C90.1293 27.1292 86.8821 22.3239 82.7454 18.1975C78.6093 14.0705 73.7926 10.831 68.4294 8.56786C62.8763 6.22461 56.9774 5.03635 50.8975 5.03635C44.8174 5.03635 38.9188 6.22461 33.3657 8.56786C28.0022 10.831 23.1855 14.0705 19.0493 18.1975C14.9131 22.3239 11.6656 27.1292 9.39708 32.4798C7.04829 38.0198 5.85742 43.9048 5.85742 49.9703C5.85742 56.0359 7.04829 61.9208 9.39708 67.4609C11.6656 72.8114 14.9131 77.6168 19.0493 81.7431C23.1855 85.8701 28.0022 89.1096 33.3657 91.3728C38.9188 93.716 44.8174 94.9043 50.8975 94.9043C56.9774 94.9043 62.8763 93.716 68.4294 91.3728C73.7926 89.1096 78.6093 85.8701 82.7454 81.7431C86.8821 77.6168 90.1293 72.8114 92.3978 67.4609C94.7466 61.9208 95.9377 56.0359 95.9377 49.9703C95.9377 43.9048 94.7466 38.0198 92.3978 32.4798Z" fill="#313131"/>
</g>
<mask id="mask2_2262_7273" style="mask-type:luminance" maskUnits="userSpaceOnUse" x="18" y="17" width="66" height="66">
<path d="M63.0143 78.576C59.1784 80.1947 55.1022 81.0156 50.9008 81.0156C46.699 81.0156 42.6234 80.1947 38.787 78.576C35.0811 77.0122 31.7527 74.7735 28.8943 71.9217C26.036 69.0705 23.792 65.7495 22.2245 62.0523C20.6018 58.2254 19.779 54.1589 19.779 49.9673C19.779 45.7758 20.6018 41.7093 22.2245 37.8824C23.792 34.1852 26.036 30.8642 28.8943 28.013C31.7527 25.1612 35.081 22.9225 38.787 21.3587C42.6235 19.74 46.6991 18.9191 50.9008 18.9191C55.1022 18.9191 59.1784 19.74 63.0143 21.3587C66.7203 22.9225 70.0491 25.1612 72.907 28.013C75.7656 30.8642 78.0096 34.1852 79.577 37.8824C81.1996 41.7093 82.0225 45.7752 82.0225 49.9673C82.0225 54.1589 81.1996 58.2254 79.577 62.0523C78.0096 65.7495 75.7656 69.0705 72.907 71.9217C70.0491 74.7735 66.7203 77.0122 63.0143 78.576ZM80.5911 62.4808C82.2716 58.5167 83.1237 54.3069 83.1237 49.9673C83.1237 45.6278 82.2716 41.418 80.5911 37.4539C78.9686 33.6257 76.645 30.1879 73.6857 27.2362C70.727 24.2839 67.2811 21.9658 63.4438 20.347C59.4704 18.6706 55.2506 17.8204 50.9008 17.8204C46.5509 17.8204 42.3309 18.6706 38.3579 20.347C34.5208 21.9658 31.0747 24.2839 28.1157 27.2362C25.1566 30.1879 22.8332 33.6257 21.2102 37.4539C19.5298 41.418 18.6777 45.6278 18.6777 49.9673C18.6777 54.3069 19.5298 58.5167 21.2102 62.4808C22.8332 66.309 25.1566 69.7468 28.1157 72.6985C31.0748 75.6508 34.5208 77.9689 38.3579 79.5877C42.331 81.2641 46.551 82.1143 50.9008 82.1143C55.2506 82.1143 59.4704 81.2641 63.4438 79.5877C67.2804 77.9689 70.727 75.6508 73.6857 72.6985C76.645 69.7468 78.9686 66.3083 80.5911 62.4808Z" fill="white"/>
</mask>
<g mask="url(#mask2_2262_7273)">
<path d="M63.0143 78.576C59.1784 80.1947 55.1022 81.0156 50.9008 81.0156C46.699 81.0156 42.6234 80.1947 38.787 78.576C35.0811 77.0122 31.7527 74.7735 28.8943 71.9217C26.036 69.0705 23.792 65.7495 22.2245 62.0523C20.6018 58.2254 19.779 54.1589 19.779 49.9673C19.779 45.7758 20.6018 41.7093 22.2245 37.8824C23.792 34.1852 26.036 30.8642 28.8943 28.013C31.7527 25.1612 35.081 22.9225 38.787 21.3587C42.6235 19.74 46.6991 18.9191 50.9008 18.9191C55.1022 18.9191 59.1784 19.74 63.0143 21.3587C66.7203 22.9225 70.0491 25.1612 72.907 28.013C75.7656 30.8642 78.0096 34.1852 79.577 37.8824C81.1996 41.7093 82.0225 45.7752 82.0225 49.9673C82.0225 54.1589 81.1996 58.2254 79.577 62.0523C78.0096 65.7495 75.7656 69.0705 72.907 71.9217C70.0491 74.7735 66.7203 77.0122 63.0143 78.576ZM80.5911 62.4808C82.2716 58.5167 83.1237 54.3069 83.1237 49.9673C83.1237 45.6278 82.2716 41.418 80.5911 37.4539C78.9686 33.6257 76.645 30.1879 73.6857 27.2362C70.727 24.2839 67.2811 21.9658 63.4438 20.347C59.4704 18.6706 55.2506 17.8204 50.9008 17.8204C46.5509 17.8204 42.3309 18.6706 38.3579 20.347C34.5208 21.9658 31.0747 24.2839 28.1157 27.2362C25.1566 30.1879 22.8332 33.6257 21.2102 37.4539C19.5298 41.418 18.6777 45.6278 18.6777 49.9673C18.6777 54.3069 19.5298 58.5167 21.2102 62.4808C22.8332 66.309 25.1566 69.7468 28.1157 72.6985C31.0748 75.6508 34.5208 77.9689 38.3579 79.5877C42.331 81.2641 46.551 82.1143 50.9008 82.1143C55.2506 82.1143 59.4704 81.2641 63.4438 79.5877C67.2804 77.9689 70.727 75.6508 73.6857 72.6985C76.645 69.7468 78.9686 66.3083 80.5911 62.4808Z" fill="#313131"/>
</g>
<mask id="mask3_2262_7273" style="mask-type:luminance" maskUnits="userSpaceOnUse" x="71" y="69" width="13" height="13">
<path d="M83.2219 69.6407C82.9953 69.5355 82.7271 69.6163 82.5944 69.8268C81.1086 72.1836 79.3588 74.3707 77.3585 76.367C75.5821 78.1392 73.6546 79.7138 71.5916 81.082C71.3752 81.2253 71.3099 81.5125 71.4392 81.7366C71.5821 81.9831 71.904 82.0571 72.1416 81.8995C74.2569 80.4954 76.2341 78.88 78.0561 77.063C80.1095 75.0137 81.9056 72.7689 83.4309 70.3503C83.5888 70.0991 83.4915 69.7664 83.2219 69.6407Z" fill="white"/>
</mask>
<g mask="url(#mask3_2262_7273)">
<path d="M83.2219 69.6407C82.9953 69.5355 82.7271 69.6163 82.5944 69.8268C81.1086 72.1836 79.3588 74.3707 77.3585 76.367C75.5821 78.1392 73.6546 79.7138 71.5916 81.082C71.3752 81.2253 71.3099 81.5125 71.4392 81.7366C71.5821 81.9831 71.904 82.0571 72.1416 81.8995C74.2569 80.4954 76.2341 78.88 78.0561 77.063C80.1095 75.0137 81.9056 72.7689 83.4309 70.3503C83.5888 70.0991 83.4915 69.7664 83.2219 69.6407Z" fill="#313131"/>
</g>
<mask id="mask4_2262_7273" style="mask-type:luminance" maskUnits="userSpaceOnUse" x="18" y="69" width="13" height="13">
<path d="M30.1674 81.082C28.1045 79.7138 26.1769 78.1392 24.4005 76.367C22.3998 74.3707 20.6498 72.1836 19.1644 69.8268C19.0315 69.6163 18.7632 69.5355 18.5369 69.6407H18.5368C18.2672 69.7664 18.1698 70.0991 18.3282 70.3503C19.8528 72.7689 21.6492 75.0137 23.7029 77.063C25.5246 78.88 27.5016 80.4954 29.6172 81.8995C29.855 82.0571 30.1767 81.9831 30.3194 81.7366C30.4491 81.5125 30.3834 81.2253 30.1674 81.082Z" fill="white"/>
</mask>
<g mask="url(#mask4_2262_7273)">
<path d="M30.1674 81.082C28.1045 79.7138 26.1769 78.1392 24.4005 76.367C22.3998 74.3707 20.6498 72.1836 19.1644 69.8268C19.0315 69.6163 18.7632 69.5355 18.5369 69.6407H18.5368C18.2672 69.7664 18.1698 70.0991 18.3282 70.3503C19.8528 72.7689 21.6492 75.0137 23.7029 77.063C25.5246 78.88 27.5016 80.4954 29.6172 81.8995C29.855 82.0571 30.1767 81.9831 30.3194 81.7366C30.4491 81.5125 30.3834 81.2253 30.1674 81.082Z" fill="#313131"/>
</g>
<path d="M83.1594 69.507C82.9328 69.4017 82.6646 69.4825 82.5319 69.693C81.0461 72.0498 79.2963 74.2369 77.296 76.2332C75.5196 78.0054 73.5921 79.58 71.5291 80.9482C71.3127 81.0915 71.2474 81.3787 71.3767 81.6028C71.5196 81.8493 71.8415 81.9233 72.0791 81.7658C74.1944 80.3616 76.1716 78.7462 77.9936 76.9292C80.047 74.8799 81.8431 72.6351 83.3684 70.2165C83.5263 69.9653 83.429 69.6326 83.1594 69.507Z" fill="#313131"/>
<mask id="mask5_2262_7273" style="mask-type:luminance" maskUnits="userSpaceOnUse" x="22" y="21" width="57" height="58">
<path d="M78.779 50.0841C78.779 65.7101 66.0822 78.377 50.4198 78.377C34.7574 78.377 22.0605 65.7101 22.0605 50.0841C22.0605 34.4588 34.7574 21.7919 50.4198 21.7919C66.0822 21.7919 78.779 34.4588 78.779 50.0841Z" fill="white"/>
</mask>
<g mask="url(#mask5_2262_7273)">
<path d="M78.779 50.0841C78.779 65.7101 66.0822 78.377 50.4198 78.377C34.7574 78.377 22.0605 65.7101 22.0605 50.0841C22.0605 34.4588 34.7574 21.7919 50.4198 21.7919C66.0822 21.7919 78.779 34.4588 78.779 50.0841Z" fill="#313131"/>
</g>
<path d="M50.4336 24.7356L51.0957 26.7685H53.2387L51.5051 28.0247L52.1674 30.0576L50.4336 28.8015L48.7003 30.0576L49.3624 28.0247L47.6289 26.7685H49.7715L50.4336 24.7356Z" fill="white"/>
<path d="M37.7636 28.1215L39.3559 29.5522L41.2115 28.4835L40.34 30.4363L41.9323 31.8663L39.8014 31.6429L38.9299 33.5957L38.4844 31.505L36.3535 31.2816L38.2091 30.2129L37.7636 28.1215Z" fill="white"/>
<path d="M28.4902 37.3743L30.5861 37.819L31.6574 35.9674L31.8814 38.0933L33.9772 38.5381L32.0198 39.4072L32.2437 41.5332L30.81 39.9443L28.8527 40.8141L29.9239 38.9632L28.4902 37.3743Z" fill="white"/>
<path d="M25.0977 50.0133L27.1354 49.3527V47.2152L28.3948 48.9446L30.4326 48.2839L29.1732 50.0133L30.4326 51.7428L28.3948 51.0821L27.1354 52.8115V50.674L25.0977 50.0133Z" fill="white"/>
<path d="M28.4902 62.6507L29.9239 61.0625L28.8527 59.2115L30.81 60.0807L32.2437 58.4918L32.0198 60.6178L33.9772 61.4876L31.8814 61.9316L31.6574 64.0576L30.5861 62.2066L28.4902 62.6507Z" fill="white"/>
<path d="M37.7636 71.9043L38.2091 69.8136L36.3535 68.7449L38.4844 68.5215L38.9299 66.4301L39.8014 68.383L41.9323 68.1596L40.34 69.5902L41.2115 71.5431L39.3559 70.4743L37.7636 71.9043Z" fill="white"/>
<path d="M50.4336 75.291L49.7715 73.2581H47.6289L49.3624 72.0019L48.7003 69.969L50.4336 71.2251L52.1674 69.969L51.5051 72.0019L53.2387 73.2581H51.0957L50.4336 75.291Z" fill="white"/>
<path d="M63.1004 71.9043L61.5078 70.4743L59.6524 71.5431L60.5236 69.5902L58.9316 68.1596L61.0626 68.383L61.9338 66.4301L62.3796 68.5215L64.5106 68.7449L62.6546 69.8136L63.1004 71.9043Z" fill="white"/>
<path d="M72.3758 62.6507L70.2795 62.2066L69.2082 64.0576L68.9843 61.9316L66.8887 61.4876L68.8461 60.6178L68.6222 58.4918L70.0556 60.0807L72.013 59.2115L70.9417 61.0625L72.3758 62.6507Z" fill="white"/>
<path d="M75.7663 50.0133L73.7285 50.674V52.8115L72.4694 51.0821L70.4316 51.7428L71.6908 50.0133L70.4316 48.2839L72.4694 48.9446L73.7285 47.2152V49.3527L75.7663 50.0133Z" fill="white"/>
<path d="M72.3758 37.3743L70.9417 38.9632L72.013 40.8141L70.0556 39.9443L68.6222 41.5332L68.8461 39.4072L66.8887 38.5381L68.9843 38.0933L69.2082 35.9674L70.2795 37.819L72.3758 37.3743Z" fill="white"/>
<path d="M63.1004 28.1215L62.6546 30.2129L64.5106 31.2816L62.3796 31.505L61.9338 33.5957L61.0626 31.6429L58.9316 31.8663L60.5236 30.4363L59.6524 28.4835L61.5078 29.5522L63.1004 28.1215Z" fill="white"/>
<path d="M50.1145 49.7839L47.0338 47.1487L47.8625 46.1845L49.9762 47.9927L53.5748 43.8059L54.5413 44.6329L50.1145 49.7839ZM55.8957 41.4117H44.857C44.2413 41.4117 43.7422 41.9095 43.7422 42.524V46.3977C43.7422 49.9693 46.6444 52.8652 50.2245 52.8652H50.528C54.1084 52.8652 57.0105 49.9693 57.0105 46.3977V42.524C57.0105 41.9095 56.511 41.4117 55.8957 41.4117Z" fill="white"/>
<path d="M46.9873 42.5225V38.7553C46.9873 36.8894 48.5087 35.3718 50.3788 35.3718C52.2488 35.3718 53.77 36.8894 53.77 38.7553V42.5225H54.9999V38.7553C54.9999 36.2131 52.9267 34.1449 50.3788 34.1449C47.8308 34.1449 45.7578 36.2131 45.7578 38.7553V42.5225H46.9873Z" fill="white"/>
<path d="M43.7817 63.014C43.3398 63.1715 42.4895 63.3936 41.5787 63.3936C40.4244 63.3936 39.5436 63.1043 38.8978 62.4837C38.2872 61.9025 37.9347 61.0062 37.9375 59.9768C37.9433 57.8121 39.4869 56.431 41.7507 56.431C42.5924 56.431 43.2484 56.6014 43.5669 56.7522L43.2897 57.7558C42.917 57.5914 42.4584 57.4651 41.734 57.4651C40.2778 57.4651 39.2487 58.3268 39.2487 59.913C39.2487 61.4659 40.2072 62.3812 41.6242 62.3812C42.0767 62.3812 42.4089 62.3221 42.5688 62.2454V60.5417H41.364V59.5619H43.7817V63.014Z" fill="white"/>
<path d="M46.3038 62.3744C46.4789 62.405 46.7448 62.4077 47.0004 62.4077C48.6233 62.4165 49.5888 61.5182 49.5888 59.7901C49.5954 58.2848 48.7263 57.417 47.1562 57.417C46.7645 57.417 46.4851 57.4516 46.3038 57.4897V62.3744ZM45.0547 56.5941C45.6118 56.5037 46.3084 56.4474 47.048 56.4474C48.3316 56.4474 49.2063 56.7129 49.8361 57.2357C50.5023 57.7755 50.9083 58.589 50.9083 59.7474C50.9083 60.9703 50.4898 61.8754 49.8431 62.4627C49.1565 63.0779 48.0742 63.3916 46.7444 63.3916C46.0173 63.3916 45.4662 63.3543 45.0547 63.3027V56.5941Z" fill="white"/>
<path d="M53.2284 59.7676C53.3876 59.8097 53.5864 59.8246 53.8409 59.8246C54.7747 59.8246 55.3451 59.3602 55.3451 58.5603C55.3451 57.808 54.8176 57.404 53.9518 57.404C53.6088 57.404 53.3611 57.4338 53.2284 57.463V59.7676ZM51.9883 56.5857C52.4422 56.5083 53.0616 56.4459 53.9022 56.4459C54.8149 56.4459 55.4805 56.6367 55.9168 57.004C56.3245 57.3374 56.5865 57.8732 56.5865 58.5148C56.5865 59.1619 56.3837 59.6949 56.0032 60.0616C55.5002 60.5586 54.7271 60.7963 53.8402 60.7963C53.6068 60.7963 53.3972 60.784 53.2284 60.7481V63.3242H51.9883V56.5857Z" fill="white"/>
<path d="M58.9022 59.6046H59.642C60.4901 59.6046 61.0121 59.1592 61.0121 58.4809C61.0121 57.738 60.4873 57.389 59.6794 57.3863C59.2826 57.3863 59.0301 57.4169 58.9022 57.4494V59.6046ZM57.6621 56.5925C58.1372 56.5056 58.8314 56.4459 59.5576 56.4459C60.5377 56.4459 61.2067 56.6109 61.6675 56.9959C62.0439 57.3082 62.2569 57.7815 62.2569 58.3668C62.2569 59.2454 61.658 59.845 61.0128 60.0718V60.101C61.5082 60.2884 61.7975 60.7582 61.967 61.4216C62.1848 62.2758 62.3706 63.0587 62.5074 63.3242H61.2238C61.1176 63.1266 60.9542 62.5631 60.763 61.7136C60.567 60.8241 60.2423 60.5355 59.5317 60.5192H58.9022V63.3242H57.6621V56.5925Z" fill="white"/>
<mask id="mask6_2262_7273" style="mask-type:luminance" maskUnits="userSpaceOnUse" x="12" y="62" width="8" height="7">
<path d="M17.7311 62.0839C18.0195 62.3814 18.5081 62.983 18.84 63.7142C19.2607 64.6411 19.348 65.4539 19.0831 66.1987C18.8368 66.9008 18.2421 67.5099 17.4104 67.8833C15.6618 68.6669 13.9855 67.9309 13.1607 66.1132C12.854 65.4376 12.7521 64.8489 12.7581 64.5379L13.6688 64.3946C13.672 64.7538 13.737 65.168 14.0009 65.7499C14.5315 66.9192 15.6015 67.4311 16.8809 66.8533C18.1341 66.2877 18.523 65.1843 18.0067 64.047C17.8419 63.6837 17.6734 63.4379 17.553 63.3381L16.1786 63.9587L16.6175 64.9263L15.8273 65.2827L14.9464 63.3415L17.7311 62.0839Z" fill="white"/>
</mask>
<g mask="url(#mask6_2262_7273)">
<path d="M17.7311 62.0839C18.0195 62.3814 18.5081 62.983 18.84 63.7142C19.2607 64.6411 19.348 65.4539 19.0831 66.1987C18.8368 66.9008 18.2421 67.5099 17.4104 67.8833C15.6618 68.6669 13.9855 67.9309 13.1607 66.1132C12.854 65.4376 12.7521 64.8489 12.7581 64.5379L13.6688 64.3946C13.672 64.7538 13.737 65.168 14.0009 65.7499C14.5315 66.9192 15.6015 67.4311 16.8809 66.8533C18.1341 66.2877 18.523 65.1843 18.0067 64.047C17.8419 63.6837 17.6734 63.4379 17.553 63.3381L16.1786 63.9587L16.6175 64.9263L15.8273 65.2827L14.9464 63.3415L17.7311 62.0839Z" fill="#313131"/>
</g>
<mask id="mask7_2262_7273" style="mask-type:luminance" maskUnits="userSpaceOnUse" x="10" y="57" width="8" height="6">
<path d="M14.1149 58.237L14.7237 60.4268L16.4323 59.9542L15.7516 57.5057L16.6268 57.2633L17.6029 60.7738L11.7783 62.3857L10.8379 59.0036L11.7132 58.7612L12.3583 61.0814L13.8557 60.6672L13.247 58.4774L14.1149 58.237Z" fill="white"/>
</mask>
<g mask="url(#mask7_2262_7273)">
<path d="M14.1149 58.237L14.7237 60.4268L16.4323 59.9542L15.7516 57.5057L16.6268 57.2633L17.6029 60.7738L11.7783 62.3857L10.8379 59.0036L11.7132 58.7612L12.3583 61.0814L13.8557 60.6672L13.247 58.4774L14.1149 58.237Z" fill="#313131"/>
</g>
<mask id="mask8_2262_7273" style="mask-type:luminance" maskUnits="userSpaceOnUse" x="9" y="51" width="8" height="6">
<path d="M16.3831 56.1919L10.3787 56.8838L10.2338 55.6331L12.6316 53.7889C13.249 53.3183 13.906 52.8885 14.5261 52.5375L14.5178 52.5164C13.7294 52.6855 12.9583 52.7955 12.0406 52.9014L9.94526 53.1431L9.82812 52.1314L15.8326 51.4388L15.964 52.5728L13.5036 54.4407C12.8888 54.8984 12.2035 55.3805 11.5565 55.7532L11.5657 55.7811C12.3405 55.6473 13.1317 55.5414 14.1178 55.428L16.266 55.1802L16.3831 56.1919Z" fill="white"/>
</mask>
<g mask="url(#mask8_2262_7273)">
<path d="M16.3831 56.1919L10.3787 56.8838L10.2338 55.6331L12.6316 53.7889C13.249 53.3183 13.906 52.8885 14.5261 52.5375L14.5178 52.5164C13.7294 52.6855 12.9583 52.7955 12.0406 52.9014L9.94526 53.1431L9.82812 52.1314L15.8326 51.4388L15.964 52.5728L13.5036 54.4407C12.8888 54.8984 12.2035 55.3805 11.5565 55.7532L11.5657 55.7811C12.3405 55.6473 13.1317 55.5414 14.1178 55.428L16.266 55.1802L16.3831 56.1919Z" fill="#313131"/>
</g>
<mask id="mask9_2262_7273" style="mask-type:luminance" maskUnits="userSpaceOnUse" x="9" y="46" width="7" height="5">
<path d="M13.3012 46.5646L13.2082 48.8352L14.9799 48.9079L15.0839 46.3684L15.9915 46.4057L15.8425 50.0459L9.80273 49.7994L9.94641 46.2923L10.854 46.329L10.7555 48.7354L12.3083 48.7986L12.4012 46.528L13.3012 46.5646Z" fill="white"/>
</mask>
<g mask="url(#mask9_2262_7273)">
<path d="M13.3012 46.5646L13.2082 48.8352L14.9799 48.9079L15.0839 46.3684L15.9915 46.4057L15.8425 50.0459L9.80273 49.7994L9.94641 46.2923L10.854 46.329L10.7555 48.7354L12.3083 48.7986L12.4012 46.528L13.3012 46.5646Z" fill="#313131"/>
</g>
<mask id="mask10_2262_7273" style="mask-type:luminance" maskUnits="userSpaceOnUse" x="10" y="40" width="7" height="6">
<path d="M13.0756 43.622L13.1955 42.981C13.333 42.2463 13.0295 41.7221 12.439 41.6121C11.7924 41.4913 11.4035 41.8891 11.27 42.5892C11.2058 42.9328 11.1915 43.1569 11.1993 43.2723L13.0756 43.622ZM10.252 44.208C10.2536 43.7822 10.3138 43.1711 10.4314 42.5417C10.5903 41.6929 10.8425 41.1395 11.2525 40.8027C11.5855 40.5271 12.0318 40.4191 12.5415 40.5142C13.3067 40.6568 13.7317 41.2733 13.8244 41.8695L13.8495 41.8735C14.0929 41.4743 14.5493 41.3005 15.1543 41.2611C15.933 41.2108 16.6449 41.1762 16.8981 41.1015L16.6901 42.2137C16.501 42.2735 15.9837 42.3237 15.2133 42.3516C14.4069 42.3774 14.1031 42.6116 13.9737 43.2248L13.8717 43.77L16.3138 44.2249L16.1126 45.2998L10.252 44.208Z" fill="white"/>
</mask>
<g mask="url(#mask10_2262_7273)">
<path d="M13.0756 43.622L13.1955 42.981C13.333 42.2463 13.0295 41.7221 12.439 41.6121C11.7924 41.4913 11.4035 41.8891 11.27 42.5892C11.2058 42.9328 11.1915 43.1569 11.1993 43.2723L13.0756 43.622ZM10.252 44.208C10.2536 43.7822 10.3138 43.1711 10.4314 42.5417C10.5903 41.6929 10.8425 41.1395 11.2525 40.8027C11.5855 40.5271 12.0318 40.4191 12.5415 40.5142C13.3067 40.6568 13.7317 41.2733 13.8244 41.8695L13.8495 41.8735C14.0929 41.4743 14.5493 41.3005 15.1543 41.2611C15.933 41.2108 16.6449 41.1762 16.8981 41.1015L16.6901 42.2137C16.501 42.2735 15.9837 42.3237 15.2133 42.3516C14.4069 42.3774 14.1031 42.6116 13.9737 43.2248L13.8717 43.77L16.3138 44.2249L16.1126 45.2998L10.252 44.208Z" fill="#313131"/>
</g>
<mask id="mask11_2262_7273" style="mask-type:luminance" maskUnits="userSpaceOnUse" x="12" y="35" width="7" height="6">
<path d="M15.7896 36.5046L14.2269 36.4489C13.8349 36.4312 13.4143 36.3858 13.0535 36.3532L13.0468 36.3715C13.3506 36.5738 13.7131 36.802 14.0151 37.024L15.2622 37.9665L15.7896 36.5046ZM15.9864 38.418L17.4193 39.4793L17.0327 40.5508L12.002 36.6879L12.4782 35.3679L18.831 35.5662L18.4296 36.6791L16.6367 36.6153L15.9864 38.418Z" fill="white"/>
</mask>
<g mask="url(#mask11_2262_7273)">
<path d="M15.7896 36.5046L14.2269 36.4489C13.8349 36.4312 13.4143 36.3858 13.0535 36.3532L13.0468 36.3715C13.3506 36.5738 13.7131 36.802 14.0151 37.024L15.2622 37.9665L15.7896 36.5046ZM15.9864 38.418L17.4193 39.4793L17.0327 40.5508L12.002 36.6879L12.4782 35.3679L18.831 35.5662L18.4296 36.6791L16.6367 36.6153L15.9864 38.418Z" fill="#313131"/>
</g>
<mask id="mask12_2262_7273" style="mask-type:luminance" maskUnits="userSpaceOnUse" x="13" y="30" width="9" height="5">
<path d="M13.9863 31.8392L14.5107 30.8695L19.0157 33.2922L20.1954 31.1099L21.011 31.5485L19.3069 34.7012L13.9863 31.8392Z" fill="white"/>
</mask>
<g mask="url(#mask12_2262_7273)">
<path d="M13.9863 31.8392L14.5107 30.8695L19.0157 33.2922L20.1954 31.1099L21.011 31.5485L19.3069 34.7012L13.9863 31.8392Z" fill="#313131"/>
</g>
<mask id="mask13_2262_7273" style="mask-type:luminance" maskUnits="userSpaceOnUse" x="18" y="22" width="6" height="7">
<path d="M21.0306 26.1363C21.1488 26.0521 21.2711 25.9258 21.4148 25.7527C21.9414 25.1192 21.9465 24.4707 21.4011 24.0199C20.8883 23.5955 20.3151 23.7252 19.8272 24.3125C19.6337 24.5454 19.5142 24.7308 19.4598 24.8367L21.0306 26.1363ZM18.1621 25.1837C18.3651 24.832 18.6718 24.3763 19.1457 23.806C19.6602 23.1867 20.1662 22.8431 20.6623 22.7542C21.1196 22.6652 21.6326 22.7902 22.0701 23.1521C22.5107 23.5167 22.7601 23.9547 22.7954 24.4191C22.8507 25.0404 22.5765 25.6997 22.0766 26.3013C21.945 26.4595 21.8186 26.5953 21.699 26.689L23.4552 28.1421L22.7558 28.9834L18.1621 25.1837Z" fill="white"/>
</mask>
<g mask="url(#mask13_2262_7273)">
<path d="M21.0306 26.1363C21.1488 26.0521 21.2711 25.9258 21.4148 25.7527C21.9414 25.1192 21.9465 24.4707 21.4011 24.0199C20.8883 23.5955 20.3151 23.7252 19.8272 24.3125C19.6337 24.5454 19.5142 24.7308 19.4598 24.8367L21.0306 26.1363ZM18.1621 25.1837C18.3651 24.832 18.6718 24.3763 19.1457 23.806C19.6602 23.1867 20.1662 22.8431 20.6623 22.7542C21.1196 22.6652 21.6326 22.7902 22.0701 23.1521C22.5107 23.5167 22.7601 23.9547 22.7954 24.4191C22.8507 25.0404 22.5765 25.6997 22.0766 26.3013C21.945 26.4595 21.8186 26.5953 21.699 26.689L23.4552 28.1421L22.7558 28.9834L18.1621 25.1837Z" fill="#313131"/>
</g>
<mask id="mask14_2262_7273" style="mask-type:luminance" maskUnits="userSpaceOnUse" x="22" y="18" width="8" height="8">
<path d="M24.7373 21.9114L25.2245 21.4768C25.7828 20.9791 25.8637 20.3789 25.4634 19.9321C25.0252 19.4432 24.4737 19.5213 23.9397 19.9939C23.6785 20.2268 23.5303 20.3952 23.4655 20.4916L24.7373 21.9114ZM22.1426 20.6553C22.4045 20.3198 22.8265 19.8717 23.3046 19.4453C23.9503 18.8695 24.4884 18.5856 25.0192 18.5687C25.4516 18.553 25.871 18.7398 26.2165 19.1254C26.7352 19.7046 26.6944 20.4515 26.4029 20.9798L26.4199 20.9988C26.8571 20.8311 27.3248 20.971 27.828 21.3085C28.4753 21.7437 29.0602 22.1497 29.3066 22.2448L28.4612 22.9985C28.2747 22.9306 27.8345 22.6549 27.2072 22.2081C26.553 21.7376 26.1689 21.7376 25.6914 22.1443L25.2769 22.5137L26.932 24.3619L26.1149 25.0898L22.1426 20.6553Z" fill="white"/>
</mask>
<g mask="url(#mask14_2262_7273)">
<path d="M24.7373 21.9114L25.2245 21.4768C25.7828 20.9791 25.8637 20.3789 25.4634 19.9321C25.0252 19.4432 24.4737 19.5213 23.9397 19.9939C23.6785 20.2268 23.5303 20.3952 23.4655 20.4916L24.7373 21.9114ZM22.1426 20.6553C22.4045 20.3198 22.8265 19.8717 23.3046 19.4453C23.9503 18.8695 24.4884 18.5856 25.0192 18.5687C25.4516 18.553 25.871 18.7398 26.2165 19.1254C26.7352 19.7046 26.6944 20.4515 26.4029 20.9798L26.4199 20.9988C26.8571 20.8311 27.3248 20.971 27.828 21.3085C28.4753 21.7437 29.0602 22.1497 29.3066 22.2448L28.4612 22.9985C28.2747 22.9306 27.8345 22.6549 27.2072 22.2081C26.553 21.7376 26.1689 21.7376 25.6914 22.1443L25.2769 22.5137L26.932 24.3619L26.1149 25.0898L22.1426 20.6553Z" fill="#313131"/>
</g>
<mask id="mask15_2262_7273" style="mask-type:luminance" maskUnits="userSpaceOnUse" x="27" y="14" width="7" height="7">
<path d="M29.1641 18.6883C29.8213 19.7292 30.8707 20.2255 31.764 19.664C32.666 19.097 32.6481 17.938 31.9743 16.8706C31.3663 15.9077 30.3136 15.2993 29.3814 15.8853C28.4565 16.4659 28.5025 17.6399 29.1641 18.6883ZM32.9392 16.216C34.0177 17.9251 33.5964 19.554 32.1872 20.4401C30.7426 21.3473 29.1326 20.821 28.1893 19.3272C27.2003 17.7607 27.4937 16.0299 28.9363 15.1235C30.4283 14.1858 32.0184 14.7575 32.9392 16.216Z" fill="white"/>
</mask>
<g mask="url(#mask15_2262_7273)">
<path d="M29.1641 18.6883C29.8213 19.7292 30.8707 20.2255 31.764 19.664C32.666 19.097 32.6481 17.938 31.9743 16.8706C31.3663 15.9077 30.3136 15.2993 29.3814 15.8853C28.4565 16.4659 28.5025 17.6399 29.1641 18.6883ZM32.9392 16.216C34.0177 17.9251 33.5964 19.554 32.1872 20.4401C30.7426 21.3473 29.1326 20.821 28.1893 19.3272C27.2003 17.7607 27.4937 16.0299 28.9363 15.1235C30.4283 14.1858 32.0184 14.7575 32.9392 16.216Z" fill="#313131"/>
</g>
<mask id="mask16_2262_7273" style="mask-type:luminance" maskUnits="userSpaceOnUse" x="32" y="11" width="6" height="8">
<path d="M34.3993 13.3604L32.8148 14.0428L32.4473 13.1927L36.6456 11.3851L37.0133 12.2346L35.4136 12.9238L37.4411 17.6103L36.4269 18.0469L34.3993 13.3604Z" fill="white"/>
</mask>
<g mask="url(#mask16_2262_7273)">
<path d="M34.3993 13.3604L32.8148 14.0428L32.4473 13.1927L36.6456 11.3851L37.0133 12.2346L35.4136 12.9238L37.4411 17.6103L36.4269 18.0469L34.3993 13.3604Z" fill="#313131"/>
</g>
<mask id="mask17_2262_7273" style="mask-type:luminance" maskUnits="userSpaceOnUse" x="38" y="9" width="6" height="8">
<path d="M42.4173 13.2034L40.222 13.8104L40.6952 15.5154L43.15 14.8371L43.3923 15.7103L39.8729 16.6826L38.2598 10.871L41.6508 9.93397L41.8931 10.8072L39.5669 11.4502L39.9816 12.944L42.177 12.3377L42.4173 13.2034Z" fill="white"/>
</mask>
<g mask="url(#mask17_2262_7273)">
<path d="M42.4173 13.2034L40.222 13.8104L40.6952 15.5154L43.15 14.8371L43.3923 15.7103L39.8729 16.6826L38.2598 10.871L41.6508 9.93397L41.8931 10.8072L39.5669 11.4502L39.9816 12.944L42.177 12.3377L42.4173 13.2034Z" fill="#313131"/>
</g>
<mask id="mask18_2262_7273" style="mask-type:luminance" maskUnits="userSpaceOnUse" x="43" y="9" width="6" height="7">
<path d="M48.7696 14.7669C48.5265 14.9285 47.9735 15.1417 47.2475 15.2327C45.3452 15.4724 44.0357 14.426 43.8054 12.6042C43.5568 10.6371 44.7834 9.27574 46.6169 9.04487C47.338 8.95389 47.8662 9.03605 48.1025 9.12635L47.9747 10.0274C47.6793 9.93573 47.2665 9.8787 46.7758 9.94049C45.5535 10.0939 44.7698 10.9665 44.9517 12.4046C45.1183 13.7232 45.9942 14.4613 47.3118 14.2956C47.7548 14.24 48.2065 14.094 48.4795 13.929L48.7696 14.7669Z" fill="white"/>
</mask>
<g mask="url(#mask18_2262_7273)">
<path d="M48.7696 14.7669C48.5265 14.9285 47.9735 15.1417 47.2475 15.2327C45.3452 15.4724 44.0357 14.426 43.8054 12.6042C43.5568 10.6371 44.7834 9.27574 46.6169 9.04487C47.338 8.95389 47.8662 9.03605 48.1025 9.12635L47.9747 10.0274C47.6793 9.93573 47.2665 9.8787 46.7758 9.94049C45.5535 10.0939 44.7698 10.9665 44.9517 12.4046C45.1183 13.7232 45.9942 14.4613 47.3118 14.2956C47.7548 14.24 48.2065 14.094 48.4795 13.929L48.7696 14.7669Z" fill="#313131"/>
</g>
<mask id="mask19_2262_7273" style="mask-type:luminance" maskUnits="userSpaceOnUse" x="49" y="8" width="6" height="7">
<path d="M51.3307 9.85507L49.6055 9.81093L49.6294 8.88545L54.2008 9.00291L54.177 9.9284L52.4353 9.88359L52.3033 14.9863L51.1986 14.9578L51.3307 9.85507Z" fill="white"/>
</mask>
<g mask="url(#mask19_2262_7273)">
<path d="M51.3307 9.85507L49.6055 9.81093L49.6294 8.88545L54.2008 9.00291L54.177 9.9284L52.4353 9.88359L52.3033 14.9863L51.1986 14.9578L51.3307 9.85507Z" fill="#313131"/>
</g>
<mask id="mask20_2262_7273" style="mask-type:luminance" maskUnits="userSpaceOnUse" x="54" y="9" width="3" height="7">
<path d="M56.8395 9.36615L56.0385 15.3428L54.9434 15.1968L55.7451 9.22016L56.8395 9.36615Z" fill="white"/>
</mask>
<g mask="url(#mask20_2262_7273)">
<path d="M56.8395 9.36615L56.0385 15.3428L54.9434 15.1968L55.7451 9.22016L56.8395 9.36615Z" fill="#313131"/>
</g>
<mask id="mask21_2262_7273" style="mask-type:luminance" maskUnits="userSpaceOnUse" x="57" y="10" width="7" height="7">
<path d="M59.053 12.8279C58.7324 14.0162 59.0795 15.1216 60.0991 15.3946C61.1282 15.6709 61.9694 14.8717 62.2975 13.6536C62.5942 12.5543 62.3274 11.3701 61.2636 11.0849C60.208 10.8018 59.3749 11.6322 59.053 12.8279ZM63.4341 13.9157C62.9087 15.8658 61.4236 16.6629 59.8153 16.2318C58.1668 15.7891 57.461 14.2525 57.9211 12.5475C58.403 10.7597 59.8759 9.79954 61.5223 10.2416C63.2252 10.6985 63.8833 12.2514 63.4341 13.9157Z" fill="white"/>
</mask>
<g mask="url(#mask21_2262_7273)">
<path d="M59.053 12.8279C58.7324 14.0162 59.0795 15.1216 60.0991 15.3946C61.1282 15.6709 61.9694 14.8717 62.2975 13.6536C62.5942 12.5543 62.3274 11.3701 61.2636 11.0849C60.208 10.8018 59.3749 11.6322 59.053 12.8279ZM63.4341 13.9157C62.9087 15.8658 61.4236 16.6629 59.8153 16.2318C58.1668 15.7891 57.461 14.2525 57.9211 12.5475C58.403 10.7597 59.8759 9.79954 61.5223 10.2416C63.2252 10.6985 63.8833 12.2514 63.4341 13.9157Z" fill="#313131"/>
</g>
<mask id="mask22_2262_7273" style="mask-type:luminance" maskUnits="userSpaceOnUse" x="63" y="11" width="8" height="9">
<path d="M63.6191 17.2879L66.2116 11.8402L67.3516 12.3807L67.6491 15.3867C67.7226 16.158 67.7396 16.9416 67.7096 17.6525L67.7314 17.6566C68.0057 16.9002 68.3208 16.1892 68.7169 15.3568L69.6215 13.4556L70.5437 13.8928L67.9512 19.3398L66.9174 18.8503L66.6336 15.7791C66.5696 15.0159 66.5233 14.1807 66.5492 13.4359L66.5206 13.4291C66.2238 14.1556 65.8944 14.8815 65.4684 15.7757L64.5414 17.7245L63.6191 17.2879Z" fill="white"/>
</mask>
<g mask="url(#mask22_2262_7273)">
<path d="M63.6191 17.2879L66.2116 11.8402L67.3516 12.3807L67.6491 15.3867C67.7226 16.158 67.7396 16.9416 67.7096 17.6525L67.7314 17.6566C68.0057 16.9002 68.3208 16.1892 68.7169 15.3568L69.6215 13.4556L70.5437 13.8928L67.9512 19.3398L66.9174 18.8503L66.6336 15.7791C66.5696 15.0159 66.5233 14.1807 66.5492 13.4359L66.5206 13.4291C66.2238 14.1556 65.8944 14.8815 65.4684 15.7757L64.5414 17.7245L63.6191 17.2879Z" fill="#313131"/>
</g>
<mask id="mask23_2262_7273" style="mask-type:luminance" maskUnits="userSpaceOnUse" x="70" y="16" width="8" height="8">
<path d="M73.81 19.3193L74.3245 19.7213C74.9139 20.1823 75.5204 20.1558 75.8906 19.6839C76.2969 19.1679 76.1227 18.6396 75.5619 18.1982C75.2862 17.983 75.0936 17.8669 74.9874 17.82L73.81 19.3193ZM74.5934 16.5496C74.9704 16.7479 75.4863 17.0833 75.9913 17.4785C76.6733 18.0108 77.0483 18.4895 77.1579 19.0076C77.2491 19.43 77.1389 19.8747 76.8196 20.2821C76.3391 20.8932 75.5952 20.9842 75.0221 20.7907L75.0065 20.8111C75.2488 21.211 75.193 21.6951 74.9486 22.2485C74.6335 22.9608 74.3354 23.6065 74.285 23.8652L73.3928 23.1672C73.4268 22.9723 73.6208 22.4916 73.9515 21.797C74.3014 21.0718 74.2333 20.6949 73.748 20.2971L73.3104 19.9548L71.7784 21.9056L70.916 21.2314L74.5934 16.5496Z" fill="white"/>
</mask>
<g mask="url(#mask23_2262_7273)">
<path d="M73.81 19.3193L74.3245 19.7213C74.9139 20.1823 75.5204 20.1558 75.8906 19.6839C76.2969 19.1679 76.1227 18.6396 75.5619 18.1982C75.2862 17.983 75.0936 17.8669 74.9874 17.82L73.81 19.3193ZM74.5934 16.5496C74.9704 16.7479 75.4863 17.0833 75.9913 17.4785C76.6733 18.0108 77.0483 18.4895 77.1579 19.0076C77.2491 19.43 77.1389 19.8747 76.8196 20.2821C76.3391 20.8932 75.5952 20.9842 75.0221 20.7907L75.0065 20.8111C75.2488 21.211 75.193 21.6951 74.9486 22.2485C74.6335 22.9608 74.3354 23.6065 74.285 23.8652L73.3928 23.1672C73.4268 22.9723 73.6208 22.4916 73.9515 21.797C74.3014 21.0718 74.2333 20.6949 73.748 20.2971L73.3104 19.9548L71.7784 21.9056L70.916 21.2314L74.5934 16.5496Z" fill="#313131"/>
</g>
<mask id="mask24_2262_7273" style="mask-type:luminance" maskUnits="userSpaceOnUse" x="74" y="20" width="8" height="8">
<path d="M79.2456 25.147L77.6727 23.5038L76.3905 24.726L78.1498 26.5634L77.493 27.1895L74.9707 24.5549L79.3409 20.3892L81.7714 22.9273L81.1146 23.5534L79.4478 21.8124L78.3241 22.8832L79.897 24.5264L79.2456 25.147Z" fill="white"/>
</mask>
<g mask="url(#mask24_2262_7273)">
<path d="M79.2456 25.147L77.6727 23.5038L76.3905 24.726L78.1498 26.5634L77.493 27.1895L74.9707 24.5549L79.3409 20.3892L81.7714 22.9273L81.1146 23.5534L79.4478 21.8124L78.3241 22.8832L79.897 24.5264L79.2456 25.147Z" fill="#313131"/>
</g>
<mask id="mask25_2262_7273" style="mask-type:luminance" maskUnits="userSpaceOnUse" x="79" y="25" width="7" height="7">
<path d="M81.1949 31.8311C80.8573 31.59 80.2679 31.0862 79.8092 30.4269C79.228 29.5903 78.9952 28.8068 79.1211 28.0273C79.2368 27.2919 79.7119 26.5857 80.4619 26.069C82.0402 24.9833 83.8221 25.4063 84.9621 27.0461C85.3861 27.6552 85.5924 28.216 85.6427 28.5229L84.7729 28.8271C84.7048 28.4747 84.566 28.0789 84.2012 27.554C83.4682 26.4995 82.3234 26.1878 81.1691 26.9863C80.0386 27.7686 79.8555 28.9235 80.5688 29.9495C80.7968 30.2775 81.0064 30.4887 81.1432 30.5654L82.3833 29.7078L81.7762 28.8353L82.4894 28.3423L83.7064 30.0928L81.1949 31.8311Z" fill="white"/>
</mask>
<g mask="url(#mask25_2262_7273)">
<path d="M81.1949 31.8311C80.8573 31.59 80.2679 31.0862 79.8092 30.4269C79.228 29.5903 78.9952 28.8068 79.1211 28.0273C79.2368 27.2919 79.7119 26.5857 80.4619 26.069C82.0402 24.9833 83.8221 25.4063 84.9621 27.0461C85.3861 27.6552 85.5924 28.216 85.6427 28.5229L84.7729 28.8271C84.7048 28.4747 84.566 28.0789 84.2012 27.554C83.4682 26.4995 82.3234 26.1878 81.1691 26.9863C80.0386 27.7686 79.8555 28.9235 80.5688 29.9495C80.7968 30.2775 81.0064 30.4887 81.1432 30.5654L82.3833 29.7078L81.7762 28.8353L82.4894 28.3423L83.7064 30.0928L81.1949 31.8311Z" fill="#313131"/>
</g>
<mask id="mask26_2262_7273" style="mask-type:luminance" maskUnits="userSpaceOnUse" x="82" y="30" width="8" height="7">
<path d="M87.5255 31.5338L84.326 33.0059C83.2533 33.4995 82.9586 34.1731 83.2717 34.8515C83.6052 35.5719 84.3001 35.7769 85.3775 35.2813L88.5778 33.8092L89.0406 34.81L85.905 36.2522C84.2144 37.0304 83.0607 36.5082 82.4495 35.1862C81.8656 33.9226 82.195 32.7723 83.9217 31.9779L87.0627 30.533L87.5255 31.5338Z" fill="white"/>
</mask>
<g mask="url(#mask26_2262_7273)">
<path d="M87.5255 31.5338L84.326 33.0059C83.2533 33.4995 82.9586 34.1731 83.2717 34.8515C83.6052 35.5719 84.3001 35.7769 85.3775 35.2813L88.5778 33.8092L89.0406 34.81L85.905 36.2522C84.2144 37.0304 83.0607 36.5082 82.4495 35.1862C81.8656 33.9226 82.195 32.7723 83.9217 31.9779L87.0627 30.533L87.5255 31.5338Z" fill="#313131"/>
</g>
<mask id="mask27_2262_7273" style="mask-type:luminance" maskUnits="userSpaceOnUse" x="83" y="36" width="8" height="7">
<path d="M89.7751 36.9904L90.0807 38.0496L85.1626 39.462L85.8501 41.8446L84.9598 42.1006L83.9668 38.658L89.7751 36.9904Z" fill="white"/>
</mask>
<g mask="url(#mask27_2262_7273)">
<path d="M89.7751 36.9904L90.0807 38.0496L85.1626 39.462L85.8501 41.8446L84.9598 42.1006L83.9668 38.658L89.7751 36.9904Z" fill="#313131"/>
</g>
<mask id="mask28_2262_7273" style="mask-type:luminance" maskUnits="userSpaceOnUse" x="85" y="42" width="7" height="6">
<path d="M88.0885 45.6651L89.5028 44.9997C89.8587 44.8361 90.2535 44.6833 90.589 44.5475L90.587 44.5278C90.2236 44.4871 89.7968 44.4504 89.4266 44.3913L87.885 44.1251L88.0885 45.6651ZM87.0335 44.0559L85.2721 43.7687L85.123 42.6402L91.369 43.7687L91.5535 45.1593L85.8186 47.8916L85.6628 46.719L87.2854 45.9551L87.0335 44.0559Z" fill="white"/>
</mask>
<g mask="url(#mask28_2262_7273)">
<path d="M88.0885 45.6651L89.5028 44.9997C89.8587 44.8361 90.2535 44.6833 90.589 44.5475L90.587 44.5278C90.2236 44.4871 89.7968 44.4504 89.4266 44.3913L87.885 44.1251L88.0885 45.6651ZM87.0335 44.0559L85.2721 43.7687L85.123 42.6402L91.369 43.7687L91.5535 45.1593L85.8186 47.8916L85.6628 46.719L87.2854 45.9551L87.0335 44.0559Z" fill="#313131"/>
</g>
<mask id="mask29_2262_7273" style="mask-type:luminance" maskUnits="userSpaceOnUse" x="85" y="47" width="7" height="6">
<path d="M90.8877 49.3397L90.8891 47.6177L91.8168 47.6184L91.8127 52.1807L90.885 52.18L90.8864 50.4417L85.7695 50.437L85.7709 49.3343L90.8877 49.3397Z" fill="white"/>
</mask>
<g mask="url(#mask29_2262_7273)">
<path d="M90.8877 49.3397L90.8891 47.6177L91.8168 47.6184L91.8127 52.1807L90.885 52.18L90.8864 50.4417L85.7695 50.437L85.7709 49.3343L90.8877 49.3397Z" fill="#313131"/>
</g>
<mask id="mask30_2262_7273" style="mask-type:luminance" maskUnits="userSpaceOnUse" x="85" y="53" width="7" height="2">
<path d="M91.5247 54.8125L85.5156 54.1627L85.6347 53.0668L91.6439 53.7166L91.5247 54.8125Z" fill="white"/>
</mask>
<g mask="url(#mask30_2262_7273)">
<path d="M91.5247 54.8125L85.5156 54.1627L85.6347 53.0668L91.6439 53.7166L91.5247 54.8125Z" fill="#313131"/>
</g>
<mask id="mask31_2262_7273" style="mask-type:luminance" maskUnits="userSpaceOnUse" x="84" y="55" width="7" height="7">
<path d="M88.1108 57.1194C86.9122 56.8302 85.813 57.2043 85.5646 58.2276C85.3134 59.2617 86.1363 60.0799 87.3648 60.3773C88.4735 60.6448 89.6537 60.3488 89.913 59.2807C90.1703 58.2215 89.3175 57.4114 88.1108 57.1194ZM87.1307 61.5174C85.163 61.0421 84.3272 59.5802 84.7193 57.9655C85.1208 56.3101 86.6434 55.5679 88.3633 55.9841C90.1669 56.4194 91.166 57.865 90.7645 59.5177C90.3493 61.2274 88.8098 61.9227 87.1307 61.5174Z" fill="white"/>
</mask>
<g mask="url(#mask31_2262_7273)">
<path d="M88.1108 57.1194C86.9122 56.8302 85.813 57.2043 85.5646 58.2276C85.3134 59.2617 86.1363 60.0799 87.3648 60.3773C88.4735 60.6448 89.6537 60.3488 89.913 59.2807C90.1703 58.2215 89.3175 57.4114 88.1108 57.1194ZM87.1307 61.5174C85.163 61.0421 84.3272 59.5802 84.7193 57.9655C85.1208 56.3101 86.6434 55.5679 88.3633 55.9841C90.1669 56.4194 91.166 57.865 90.7645 59.5177C90.3493 61.2274 88.8098 61.9227 87.1307 61.5174Z" fill="#313131"/>
</g>
<mask id="mask32_2262_7273" style="mask-type:luminance" maskUnits="userSpaceOnUse" x="81" y="61" width="9" height="8">
<path d="M83.7533 61.7653L89.2765 64.2145L88.7633 65.3647L85.759 65.7368C84.9872 65.8292 84.2025 65.8658 83.4899 65.8536L83.4865 65.876C84.2515 66.13 84.9709 66.4267 85.8155 66.8008L87.7424 67.6557L87.3279 68.5859L81.8047 66.1368L82.2695 65.0938L85.3398 64.7333C86.1028 64.6511 86.9385 64.5839 87.6859 64.5907L87.692 64.5628C86.9562 64.2844 86.2212 63.9741 85.3139 63.5721L83.3381 62.6956L83.7533 61.7653Z" fill="white"/>
</mask>
<g mask="url(#mask32_2262_7273)">
<path d="M83.7533 61.7653L89.2765 64.2145L88.7633 65.3647L85.759 65.7368C84.9872 65.8292 84.2025 65.8658 83.4899 65.8536L83.4865 65.876C84.2515 66.13 84.9709 66.4267 85.8155 66.8008L87.7424 67.6557L87.3279 68.5859L81.8047 66.1368L82.2695 65.0938L85.3398 64.7333C86.1028 64.6511 86.9385 64.5839 87.6859 64.5907L87.692 64.5628C86.9562 64.2844 86.2212 63.9741 85.3139 63.5721L83.3381 62.6956L83.7533 61.7653Z" fill="#313131"/>
</g>
<mask id="mask33_2262_7273" style="mask-type:luminance" maskUnits="userSpaceOnUse" x="32" y="80" width="6" height="8">
<path d="M36.3811 85.3656L34.3102 84.4191L33.572 86.0277L35.8876 87.0855L35.5095 87.9092L32.1895 86.393L34.7057 80.91L37.9046 82.3712L37.5265 83.1955L35.332 82.1926L34.6851 83.6022L36.756 84.5488L36.3811 85.3656Z" fill="white"/>
</mask>
<g mask="url(#mask33_2262_7273)">
<path d="M36.3811 85.3656L34.3102 84.4191L33.572 86.0277L35.8876 87.0855L35.5095 87.9092L32.1895 86.393L34.7057 80.91L37.9046 82.3712L37.5265 83.1955L35.332 82.1926L34.6851 83.6022L36.756 84.5488L36.3811 85.3656Z" fill="#313131"/>
</g>
<mask id="mask34_2262_7273" style="mask-type:luminance" maskUnits="userSpaceOnUse" x="37" y="82" width="7" height="8">
<path d="M40.0114 83.0904L39.0421 86.4705C38.7173 87.603 39.0369 88.2657 39.7566 88.4708C40.5211 88.6888 41.1306 88.2977 41.457 87.1596L42.4263 83.7795L43.4885 84.0824L42.5388 87.3939C42.0267 89.1804 40.8775 89.712 39.474 89.3114C38.1334 88.9285 37.4748 87.929 37.9978 86.1045L38.9493 82.7868L40.0114 83.0904Z" fill="white"/>
</mask>
<g mask="url(#mask34_2262_7273)">
<path d="M40.0114 83.0904L39.0421 86.4705C38.7173 87.603 39.0369 88.2657 39.7566 88.4708C40.5211 88.6888 41.1306 88.2977 41.457 87.1596L42.4263 83.7795L43.4885 84.0824L42.5388 87.3939C42.0267 89.1804 40.8775 89.712 39.474 89.3114C38.1334 88.9285 37.4748 87.929 37.9978 86.1045L38.9493 82.7868L40.0114 83.0904Z" fill="#313131"/>
</g>
<mask id="mask35_2262_7273" style="mask-type:luminance" maskUnits="userSpaceOnUse" x="43" y="87" width="4" height="2">
<path d="M46.2265 87.7999L46.112 88.5488L43.8516 88.2052L43.966 87.4563L46.2265 87.7999Z" fill="white"/>
</mask>
<g mask="url(#mask35_2262_7273)">
<path d="M46.2265 87.7999L46.112 88.5488L43.8516 88.2052L43.966 87.4563L46.2265 87.7999Z" fill="#313131"/>
</g>
<mask id="mask36_2262_7273" style="mask-type:luminance" maskUnits="userSpaceOnUse" x="47" y="84" width="6" height="7">
<path d="M52.5339 90.5841C52.1405 90.7165 51.3857 90.8971 50.5809 90.8808C49.5612 90.8604 48.7883 90.5895 48.2288 90.0307C47.6996 89.5065 47.4041 88.7087 47.4249 87.7988C47.4681 85.8867 48.856 84.6944 50.8558 84.7338C51.5994 84.7487 52.1759 84.9103 52.4542 85.0495L52.1915 85.9315C51.8655 85.7794 51.4626 85.6599 50.8227 85.647C49.5364 85.6219 48.6122 86.3647 48.5842 87.7655C48.5567 89.1378 49.3873 89.9628 50.639 89.9879C51.0386 89.9954 51.3333 89.9492 51.4755 89.884L51.5055 88.3793L50.4415 88.3583L50.4589 87.4926L52.5944 87.5353L52.5339 90.5841Z" fill="white"/>
</mask>
<g mask="url(#mask36_2262_7273)">
<path d="M52.5339 90.5841C52.1405 90.7165 51.3857 90.8971 50.5809 90.8808C49.5612 90.8604 48.7883 90.5895 48.2288 90.0307C47.6996 89.5065 47.4041 88.7087 47.4249 87.7988C47.4681 85.8867 48.856 84.6944 50.8558 84.7338C51.5994 84.7487 52.1759 84.9103 52.4542 85.0495L52.1915 85.9315C51.8655 85.7794 51.4626 85.6599 50.8227 85.647C49.5364 85.6219 48.6122 86.3647 48.5842 87.7655C48.5567 89.1378 49.3873 89.9628 50.639 89.9879C51.0386 89.9954 51.3333 89.9492 51.4755 89.884L51.5055 88.3793L50.4415 88.3583L50.4589 87.4926L52.5944 87.5353L52.5339 90.5841Z" fill="#313131"/>
</g>
<mask id="mask37_2262_7273" style="mask-type:luminance" maskUnits="userSpaceOnUse" x="53" y="84" width="7" height="7">
<path d="M55.6296 89.7081C55.7861 89.7108 56.0189 89.6775 56.2421 89.6436C57.6605 89.4324 58.382 88.5178 58.1479 87.009C57.9498 85.6938 57.0732 85.0528 55.7024 85.2647C55.3601 85.3176 55.1212 85.3855 54.968 85.4432L55.6296 89.7081ZM53.7559 84.8294C54.2302 84.6753 54.8305 84.532 55.4764 84.4322C56.5974 84.2597 57.3971 84.3738 58.0179 84.7452C58.6726 85.1268 59.1368 85.7821 59.294 86.7938C59.4594 87.8612 59.2164 88.7079 58.7318 89.3081C58.2152 89.9376 57.3127 90.3579 56.1516 90.5371C55.5173 90.6349 55.0306 90.6763 54.6645 90.6865L53.7559 84.8294Z" fill="white"/>
</mask>
<g mask="url(#mask37_2262_7273)">
<path d="M55.6296 89.7081C55.7861 89.7108 56.0189 89.6775 56.2421 89.6436C57.6605 89.4324 58.382 88.5178 58.1479 87.009C57.9498 85.6938 57.0732 85.0528 55.7024 85.2647C55.3601 85.3176 55.1212 85.3855 54.968 85.4432L55.6296 89.7081ZM53.7559 84.8294C54.2302 84.6753 54.8305 84.532 55.4764 84.4322C56.5974 84.2597 57.3971 84.3738 58.0179 84.7452C58.6726 85.1268 59.1368 85.7821 59.294 86.7938C59.4594 87.8612 59.2164 88.7079 58.7318 89.3081C58.2152 89.9376 57.3127 90.3579 56.1516 90.5371C55.5173 90.6349 55.0306 90.6763 54.6645 90.6865L53.7559 84.8294Z" fill="#313131"/>
</g>
<mask id="mask38_2262_7273" style="mask-type:luminance" maskUnits="userSpaceOnUse" x="59" y="82" width="6" height="8">
<path d="M61.7203 86.0834C61.8653 86.0753 62.0361 86.0338 62.2505 85.9653C63.036 85.7113 63.3885 85.1667 63.1707 84.4938C62.9652 83.8617 62.4118 83.6648 61.6843 83.8997C61.3957 83.9927 61.1956 84.0858 61.0921 84.1462L61.7203 86.0834ZM59.8105 83.7449C60.1706 83.5561 60.6742 83.3355 61.3807 83.108C62.1478 82.8602 62.7603 82.8405 63.2265 83.0306C63.6601 83.2003 64.0269 83.5799 64.2019 84.1197C64.3775 84.6629 64.353 85.1661 64.1331 85.5775C63.8459 86.1316 63.2599 86.5411 62.5146 86.7814C62.3186 86.8452 62.1389 86.8921 61.9878 86.907L62.6895 89.0731L61.6468 89.4092L59.8105 83.7449Z" fill="white"/>
</mask>
<g mask="url(#mask38_2262_7273)">
<path d="M61.7203 86.0834C61.8653 86.0753 62.0361 86.0338 62.2505 85.9653C63.036 85.7113 63.3885 85.1667 63.1707 84.4938C62.9652 83.8617 62.4118 83.6648 61.6843 83.8997C61.3957 83.9927 61.1956 84.0858 61.0921 84.1462L61.7203 86.0834ZM59.8105 83.7449C60.1706 83.5561 60.6742 83.3355 61.3807 83.108C62.1478 82.8602 62.7603 82.8405 63.2265 83.0306C63.6601 83.2003 64.0269 83.5799 64.2019 84.1197C64.3775 84.6629 64.353 85.1661 64.1331 85.5775C63.8459 86.1316 63.2599 86.5411 62.5146 86.7814C62.3186 86.8452 62.1389 86.8921 61.9878 86.907L62.6895 89.0731L61.6468 89.4092L59.8105 83.7449Z" fill="#313131"/>
</g>
<mask id="mask39_2262_7273" style="mask-type:luminance" maskUnits="userSpaceOnUse" x="64" y="80" width="8" height="8">
<path d="M66.7539 84.0195L67.3406 83.7323C68.0131 83.4036 68.2533 82.8475 67.9886 82.3091C67.6993 81.7204 67.1473 81.6463 66.5048 81.958C66.1904 82.1115 66.0018 82.2344 65.9134 82.3091L66.7539 84.0195ZM64.5957 82.1101C64.9387 81.8575 65.4662 81.5404 66.042 81.2586C66.8199 80.8784 67.4148 80.7501 67.9307 80.877C68.3506 80.9782 68.7046 81.2708 68.9326 81.7353C69.2749 82.4333 69.0333 83.1408 68.6093 83.5713L68.6208 83.5944C69.0871 83.5503 69.4995 83.8117 69.8929 84.2721C70.3979 84.8655 70.8512 85.4142 71.0629 85.5717L70.0447 86.0694C69.8834 85.954 69.5342 85.5703 69.051 84.9708C68.5487 84.3413 68.1791 84.2381 67.6095 84.5002L67.1099 84.7447L68.2029 86.9698L67.2188 87.4512L64.5957 82.1101Z" fill="white"/>
</mask>
<g mask="url(#mask39_2262_7273)">
<path d="M66.7539 84.0195L67.3406 83.7323C68.0131 83.4036 68.2533 82.8475 67.9886 82.3091C67.6993 81.7204 67.1473 81.6463 66.5048 81.958C66.1904 82.1115 66.0018 82.2344 65.9134 82.3091L66.7539 84.0195ZM64.5957 82.1101C64.9387 81.8575 65.4662 81.5404 66.042 81.2586C66.8199 80.8784 67.4148 80.7501 67.9307 80.877C68.3506 80.9782 68.7046 81.2708 68.9326 81.7353C69.2749 82.4333 69.0333 83.1408 68.6093 83.5713L68.6208 83.5944C69.0871 83.5503 69.4995 83.8117 69.8929 84.2721C70.3979 84.8655 70.8512 85.4142 71.0629 85.5717L70.0447 86.0694C69.8834 85.954 69.5342 85.5703 69.051 84.9708C68.5487 84.3413 68.1791 84.2381 67.6095 84.5002L67.1099 84.7447L68.2029 86.9698L67.2188 87.4512L64.5957 82.1101Z" fill="#313131"/>
</g>
</svg>
