<svg width="59" height="40" viewBox="0 0 59 40" fill="none" xmlns="http://www.w3.org/2000/svg">
<rect x="0.5" y="0.5" width="57.3333" height="39" rx="3.5" fill="white" stroke="white"/>
<g clip-path="url(#clip0_2096_3405)">
<path d="M49.627 24.4185C49.627 24.3679 49.627 24.3173 49.627 24.2718C49.632 24.2667 49.632 24.2718 49.637 24.2718C49.637 24.3224 49.637 24.3679 49.637 24.4185C49.637 24.4236 49.632 24.4236 49.627 24.4185Z" fill="#FDDB3F"/>
<path d="M49.637 24.2723C49.632 24.2723 49.632 24.2723 49.627 24.2723C49.627 24.2369 49.627 24.2014 49.627 24.166C49.632 24.166 49.632 24.166 49.637 24.166C49.637 24.2014 49.637 24.2369 49.637 24.2723Z" fill="#FDEB94"/>
<path d="M49.6277 24.4189C49.6327 24.4189 49.6327 24.4189 49.6378 24.4189C49.6378 24.4493 49.6378 24.4746 49.6378 24.505C49.6177 24.4797 49.6327 24.4493 49.6277 24.4189Z" fill="#FEE679"/>
<path d="M16.5112 12.4909C17.2153 12.5264 17.9042 12.6225 18.5982 12.7541C18.9704 12.825 19.3425 12.9059 19.7046 13.0274C19.7599 13.0476 19.8152 13.0729 19.8706 13.0881C19.9208 13.1033 19.9359 13.1286 19.9359 13.1843C19.9359 14.3179 19.9359 15.4565 19.9359 16.5901C19.9359 16.6559 19.9359 16.7217 19.9359 16.7926C19.7247 16.7318 19.5185 16.6711 19.3123 16.6104C18.6535 16.4231 17.9797 16.2713 17.3007 16.1802C16.6771 16.0942 16.0485 16.0689 15.4199 16.1549C14.8768 16.2258 14.3588 16.3725 13.8911 16.666C13.3027 17.0355 12.9255 17.5669 12.7042 18.2197C12.5634 18.6448 12.4981 19.0851 12.483 19.5355C12.4679 19.9353 12.483 20.3351 12.5433 20.7349C12.6188 21.2055 12.7545 21.6559 13.0211 22.0557C13.3731 22.577 13.871 22.8756 14.4694 23.0122C14.7963 23.0881 15.1282 23.1286 15.4601 23.0932C16.0837 23.0324 16.6319 22.7997 17.0443 22.2986C17.0644 22.2784 17.0795 22.2531 17.0946 22.2278C17.0996 22.2227 17.0996 22.2177 17.0996 22.2126C17.0795 22.2025 17.0543 22.2075 17.0342 22.2075C16.2396 22.2075 15.44 22.2075 14.6454 22.2075C14.5901 22.2075 14.57 22.1974 14.57 22.1367C14.57 21.1549 14.57 20.1782 14.57 19.1964C14.57 19.1407 14.5851 19.1256 14.6404 19.1256C16.8683 19.1256 19.0911 19.1256 21.3189 19.1256C21.3742 19.1256 21.3893 19.1407 21.3893 19.1964C21.3893 21.6154 21.3893 24.0395 21.3893 26.4586C21.3893 26.5092 21.3793 26.5243 21.3239 26.5243C20.4237 26.5243 19.5236 26.5243 18.6183 26.5243C18.558 26.5243 18.5479 26.5041 18.5479 26.4484C18.553 25.8108 18.558 25.1731 18.563 24.5355C18.563 24.5152 18.563 24.4899 18.553 24.4646C18.5328 24.5001 18.5178 24.5355 18.4976 24.5709C18.216 25.0972 17.8036 25.5021 17.3209 25.831C16.6671 26.2713 15.9479 26.5395 15.1735 26.6711C14.9472 26.7065 14.7259 26.7318 14.4946 26.742C14.4694 26.7521 14.4443 26.742 14.4191 26.747C14.3688 26.747 14.3186 26.747 14.2683 26.747C14.2381 26.747 14.2079 26.747 14.1828 26.747C14.1224 26.747 14.057 26.747 13.9967 26.747C13.9665 26.747 13.9363 26.747 13.9011 26.747C13.2876 26.747 12.6892 26.6458 12.1008 26.4737C11.7689 26.3776 11.447 26.2511 11.1352 26.0942C10.7128 25.8816 10.3205 25.6134 9.96345 25.2946C9.57621 24.9454 9.22418 24.5557 8.93753 24.1154C8.60562 23.6094 8.3592 23.0628 8.18318 22.4808C8.07757 22.1215 7.99208 21.7521 7.94179 21.3776C7.90156 21.1043 7.86636 20.831 7.86636 20.5527C7.86636 20.4717 7.86133 20.3907 7.86133 20.3098C7.86133 20.2794 7.86133 20.249 7.86133 20.2136C7.86133 20.1529 7.86133 20.0972 7.86133 20.0365C7.86133 19.9707 7.86133 19.8999 7.86133 19.8341C7.86133 19.7784 7.86133 19.7227 7.86133 19.6671C7.86133 19.6367 7.86133 19.6063 7.86133 19.5709C7.86133 18.8624 7.97699 18.1691 8.17815 17.4909C8.29382 17.1063 8.43966 16.7318 8.62071 16.3725C8.85707 15.9019 9.15378 15.4616 9.50078 15.0618C9.90813 14.5861 10.3758 14.1762 10.8938 13.827C11.3917 13.4879 11.9298 13.2248 12.493 13.0173C13.1217 12.7845 13.7704 12.6377 14.4342 12.5517C14.7661 12.5061 15.1031 12.4758 15.435 12.4758C15.4601 12.4758 15.4802 12.4758 15.5054 12.4758C15.5356 12.4758 15.5657 12.4758 15.5959 12.4758C15.6311 12.4707 15.6714 12.4808 15.7066 12.4707C15.8876 12.4707 16.0686 12.4707 16.2497 12.4707C16.2849 12.4859 16.3251 12.4758 16.3603 12.4758C16.3855 12.4758 16.4106 12.4758 16.4307 12.4758C16.4609 12.4909 16.486 12.4808 16.5112 12.4909Z" fill="#061AB1"/>
<path d="M37.4269 26.7515C37.0447 26.7414 36.6625 26.7212 36.2854 26.6908C35.7724 26.6503 35.2645 26.5896 34.7565 26.5036C34.314 26.4277 33.8765 26.3366 33.449 26.205C33.3987 26.1898 33.3836 26.1696 33.3836 26.1139C33.3836 24.9044 33.3836 23.6949 33.3836 22.4854C33.3836 22.4094 33.3836 22.4094 33.454 22.4297C34.0324 22.6119 34.6258 22.7485 35.2242 22.8649C35.6819 22.956 36.1445 23.0319 36.6072 23.0926C36.9743 23.1382 37.3465 23.1686 37.7186 23.1787C38.0505 23.1888 38.3824 23.1736 38.7093 23.1129C38.8954 23.0775 39.0764 23.0218 39.2374 22.9155C39.4587 22.7738 39.5542 22.5613 39.5089 22.3183C39.4888 22.202 39.4184 22.121 39.3229 22.0603C39.167 21.959 38.996 21.9034 38.82 21.8629C38.2718 21.7364 37.7236 21.6098 37.1755 21.4884C36.572 21.3568 35.9836 21.1847 35.4204 20.9165C34.8169 20.6281 34.2838 20.2434 33.8865 19.6969C33.5596 19.2465 33.3635 18.7404 33.2629 18.1939C33.2076 17.8953 33.1875 17.5967 33.1875 17.293C33.1875 16.4732 33.3333 15.6888 33.7306 14.9651C34.148 14.1959 34.7565 13.624 35.526 13.2141C36.0892 12.9155 36.6877 12.7283 37.3113 12.6169C37.6734 12.5511 38.0405 12.5157 38.4076 12.4955C38.4327 12.4854 38.4579 12.4955 38.478 12.4904C38.5031 12.4904 38.5333 12.4904 38.5585 12.4904C38.5937 12.4854 38.6238 12.4955 38.659 12.4854C38.83 12.4854 38.996 12.4854 39.167 12.4854C39.2022 12.5005 39.2424 12.4904 39.2776 12.4904C39.3028 12.4904 39.3329 12.4904 39.3581 12.4904C39.3832 12.4904 39.4033 12.4904 39.4285 12.4904C39.7503 12.4904 40.0722 12.5157 40.389 12.5511C40.9422 12.6068 41.4954 12.6777 42.0436 12.7738C42.3906 12.8345 42.7376 12.9003 43.0846 12.9864C43.1851 13.0117 43.1851 13.0167 43.1851 13.1179C43.1851 14.2566 43.1851 15.3953 43.1851 16.5339C43.1851 16.539 43.1851 16.5441 43.1851 16.5542C43.1851 16.6402 43.1751 16.6453 43.0896 16.625C42.6873 16.5238 42.2849 16.4327 41.8776 16.3568C41.42 16.2708 40.9623 16.1898 40.5047 16.1291C40.1879 16.0886 39.871 16.0532 39.5492 16.0279C39.2726 16.0076 38.991 16.0076 38.7093 16.0177C38.4177 16.0279 38.131 16.0734 37.8695 16.2151C37.7035 16.3062 37.5728 16.4327 37.5325 16.625C37.4873 16.8325 37.5678 17.0046 37.7538 17.126C37.8896 17.2171 38.0405 17.2728 38.1964 17.3133C38.649 17.4297 39.1016 17.5309 39.5592 17.6422C39.9766 17.7434 40.3991 17.8345 40.8064 17.9712C41.3898 18.1686 41.948 18.4216 42.4408 18.8062C42.9689 19.2161 43.3662 19.7323 43.5975 20.3649C43.7333 20.7394 43.8138 21.1291 43.849 21.5289C43.8741 21.8325 43.8791 22.1362 43.859 22.4398C43.7987 23.2546 43.5623 24.0086 43.0795 24.6716C42.7878 25.0764 42.4308 25.4105 42.0285 25.6989C41.4702 26.0886 40.8517 26.3467 40.1979 26.5188C39.8258 26.6149 39.4486 26.6807 39.0714 26.7212C38.8099 26.7515 38.5484 26.7617 38.2919 26.7617C38.2567 26.7617 38.2215 26.7617 38.1863 26.7617C38.1159 26.7617 38.0455 26.7617 37.9751 26.7617C37.9298 26.7617 37.8846 26.7617 37.8393 26.7617C37.7488 26.7617 37.6583 26.7617 37.5678 26.7617C37.5175 26.7515 37.4722 26.7617 37.4269 26.7515Z" fill="#061AB1"/>
<path d="M49.6375 24.5404C49.6073 24.6213 49.6073 24.7124 49.5922 24.7984C49.5017 25.2438 49.3106 25.6284 48.9988 25.9574C48.6266 26.3572 48.169 26.6001 47.6309 26.6709C46.8866 26.7721 46.2328 26.5596 45.6847 26.0383C45.3125 25.6841 45.0812 25.2438 45.0007 24.7327C44.8901 24.014 45.0661 23.3663 45.5338 22.8146C45.8959 22.3895 46.3535 22.1163 46.9067 22.0353C47.8019 21.8987 48.5512 22.1821 49.1295 22.8855C49.4313 23.2549 49.5922 23.6851 49.6324 24.1608C49.6425 24.1962 49.6324 24.2316 49.6375 24.2721C49.6375 24.3177 49.6375 24.3632 49.6375 24.4138C49.6425 24.4442 49.6324 24.4746 49.6425 24.5049C49.6375 24.515 49.6375 24.5302 49.6375 24.5404Z" fill="#FFD101"/>
<path d="M22.7824 19.6159C22.7824 17.3386 22.7824 15.0562 22.7824 12.7789C22.7824 12.7181 22.7975 12.708 22.8528 12.708C24.271 12.708 25.6942 12.708 27.1123 12.708C27.1677 12.708 27.1777 12.7232 27.1777 12.7789C27.1777 16.1341 27.1777 19.4894 27.1777 22.8446C27.1777 22.9256 27.1777 22.9256 27.2582 22.9256C28.8071 22.9256 30.3611 22.9256 31.91 22.9256C31.9703 22.9256 31.9804 22.9408 31.9804 22.9965C31.9804 24.1503 31.9804 25.3042 31.9804 26.458C31.9804 26.5187 31.9603 26.5289 31.905 26.5289C28.8876 26.5289 25.8702 26.5289 22.8528 26.5289C22.7874 26.5289 22.7773 26.5137 22.7773 26.4479C22.7824 24.1706 22.7824 21.8932 22.7824 19.6159Z" fill="#061AB1"/>
</g>
<defs>
<clipPath id="clip0_2096_3405">
<rect width="42.5" height="15" fill="white" transform="translate(7.5 12.1211)"/>
</clipPath>
</defs>
</svg>
