<svg width="122" height="122" viewBox="0 0 122 122" fill="none" xmlns="http://www.w3.org/2000/svg">
<path d="M61.2171 118.524C29.5352 118.524 3.85185 92.7694 3.85185 61C3.85185 29.2306 29.5352 3.47556 61.2171 3.47556C92.8987 3.47556 118.582 29.2306 118.582 61C118.582 92.7694 92.8987 118.524 61.2171 118.524ZM61.2171 1C28.1715 1 1.38281 27.8628 1.38281 61C1.38281 94.1372 28.1715 121 61.2171 121C94.2627 121 121.051 94.1372 121.051 61C121.051 27.8628 94.2627 1 61.2171 1Z" fill="white" stroke="white"/>
<path d="M54.0705 79.424H53.2676V82.2563H54.0705C54.2818 82.2563 54.4614 82.1806 54.6094 82.0299C54.7572 81.8793 54.8313 81.6982 54.8313 81.4858V80.1938C54.8313 79.6801 54.5776 79.424 54.0705 79.424Z" fill="white"/>
<path d="M85.3629 50.2702H84.5859V59.9062H85.3629C86.4412 59.9062 86.9854 59.2013 86.9963 57.7914V52.3531C86.9963 50.9642 86.4513 50.2702 85.3629 50.2702Z" fill="white"/>
<path d="M92.9417 45.9925C94.3477 47.4977 95.0507 49.5759 95.0507 52.2255V57.5046C95.0507 60.155 94.3236 62.3152 92.87 63.9843C91.4165 65.6542 89.4686 66.4888 87.0272 66.4888H84.5849V74.5033H76.7677V43.734H87.0272C89.5644 43.734 91.5356 44.4873 92.9417 45.9925ZM80.9686 84.7921C80.9686 85.3752 80.7646 85.8749 80.3559 86.2894C79.9472 86.7032 79.4544 86.9109 78.8767 86.9109H76.7848V78.0531H78.8767C79.459 78.0531 79.9534 78.2608 80.3598 78.6754C80.7654 79.0899 80.9686 79.5864 80.9686 80.1657V84.7921ZM74.0194 37.9452L71.532 39.7571L72.4826 36.8256L69.9954 35.0137H73.0696L74.0194 32.0822L74.9692 35.0137H78.0429L75.5563 36.8256L76.5061 39.7571L74.0194 37.9452ZM75.8692 79.3952H73.4114V81.8114H75.2075V83.1534H73.4114V85.5689H75.8692V86.9109H72.0801V78.0531H75.8692V79.3952ZM70.8897 86.9109H69.5584V78.061H70.8897V86.9109ZM68.6428 79.3952H66.1846V81.8114H67.9807V83.1534H66.1846V86.9109H64.8534V78.0531H68.6428V79.3952ZM57.8654 74.5033L55.8198 54.9291H55.3917L55.8198 65.3919V74.5033H48.3193V43.734H59.5146L60.8149 58.2837L61.1479 63.0701H61.5601L61.8614 58.2837L63.1617 43.734H74.3254V74.5033H66.8248L66.8565 65.4239L67.2529 54.9923H66.8248L64.6841 74.5033H57.8654ZM63.663 86.9109H62.3318V78.061H63.663V86.9109ZM61.2612 79.403H59.8526V86.9109H58.5213V79.403H57.1056V78.061H61.2612V79.403ZM54.9616 86.9109L54.1544 83.5765C54.1168 83.5765 54.0769 83.5765 54.0347 83.5765H53.2669V86.9109H51.9357V78.061H54.0347C54.7766 78.061 55.3213 78.2655 55.6688 78.6754C55.974 79.0329 56.1266 79.5326 56.1266 80.1727V81.4577C56.1266 82.0839 55.8895 82.6139 55.4152 83.0472L56.4012 86.9109H54.9616ZM51.0201 79.3952H48.5618V81.8114H50.358V83.1534H48.5618V85.5689H51.0201V86.9109H47.2307V78.0531H51.0201V79.3952ZM46.1469 56.0736H38.2657V51.1919C38.2657 50.1747 37.8535 49.6602 37.0289 49.6493C36.6587 49.6493 36.3654 49.7875 36.1488 50.063C35.932 50.3386 35.8238 50.7149 35.8238 51.1919V67.2367C35.8238 68.2539 36.2571 68.7684 37.124 68.7785C37.515 68.7785 37.8297 68.6302 38.0676 68.3335C38.3054 68.0369 38.4244 67.6497 38.4244 67.1727V62.6884H37.2509V57.7591H46.1469V74.5033H39.8832L39.2647 71.1167H38.8684C38.4561 72.5056 37.8825 73.483 37.1478 74.0498C36.413 74.6173 35.3532 74.9007 33.9684 74.9007C32.129 74.8796 30.6674 74.1958 29.5839 72.8498C28.5001 71.5032 27.9585 69.4944 27.9585 66.8229V53.3068C27.9585 49.8936 28.7328 47.3837 30.2816 45.7778C31.8301 44.1719 34.185 43.3686 37.346 43.3686C40.2004 43.3686 42.3807 44.0314 43.8873 45.3563C45.3936 46.6819 46.1469 48.6164 46.1469 51.1599V56.0736ZM46.1391 81.0908H44.7585V80.0525C44.7585 79.8401 44.6834 79.659 44.5332 79.5084C44.3829 79.3577 44.2021 79.2827 43.9908 79.2827C43.7795 79.2827 43.5999 79.3577 43.452 79.5084C43.3041 79.659 43.2302 79.8401 43.2302 80.0525V84.8975C43.2302 85.1098 43.3041 85.2894 43.452 85.4377C43.5999 85.586 43.7795 85.6602 43.9908 85.6602C44.2021 85.6602 44.3829 85.586 44.5332 85.4377C44.6834 85.2894 44.7585 85.1098 44.7585 84.8975V83.6757H46.1391V84.9115C46.1391 85.5002 45.9325 85.9998 45.5192 86.4089C45.106 86.8187 44.6107 87.0233 44.0331 87.0233C43.4461 87.0233 42.9472 86.818 42.5364 86.4058C42.1254 85.9936 41.92 85.4955 41.92 84.9115V80.0806C41.92 79.492 42.1266 78.9915 42.5399 78.5801C42.953 78.1679 43.4508 77.9618 44.0331 77.9618C44.62 77.9618 45.1178 78.1687 45.5263 78.5832C45.9348 78.9978 46.1391 79.4966 46.1391 80.0806V81.0908ZM47.4638 35.0137L48.4137 32.0822L49.3635 35.0137H52.4375L49.9506 36.8256L50.9005 39.7571L48.4137 37.9452L45.9268 39.7571L46.8767 36.8256L44.3898 35.0137H47.4638ZM59.8417 32.3624L61.2165 28.1194L62.5912 32.3624H67.0398L63.4408 34.984L64.8155 39.227L61.2165 36.6047L57.6174 39.227L58.9921 34.984L55.3931 32.3624H59.8417ZM61.2165 21.9621C39.7163 21.9621 22.2871 39.4402 22.2871 60.9997C22.2871 82.5593 39.7163 100.037 61.2165 100.037C82.7164 100.037 100.145 82.5593 100.145 60.9997C100.145 39.4402 82.7164 21.9621 61.2165 21.9621Z" fill="white"/>
<path d="M78.9199 79.4174H78.1172V85.5903H78.9199C79.1316 85.5903 79.3099 85.5138 79.4555 85.3608C79.6011 85.2078 79.6735 85.0275 79.6735 84.8206V80.1872C79.6735 79.9748 79.5995 79.7937 79.4524 79.643C79.3044 79.4924 79.1269 79.4174 78.9199 79.4174Z" fill="white"/>
<path d="M16.4645 64.4396C16.8535 63.7058 17.0356 62.8525 17.0111 61.879C16.9918 61.1131 16.8281 60.3605 16.5202 59.6212C16.2125 58.8819 15.8636 58.3198 15.4741 57.9365L11.7777 58.0302L11.8798 62.0788L13.4432 62.0398L13.3889 59.8882L14.5661 59.8578C14.7928 60.1365 14.988 60.4706 15.1519 60.8625C15.316 61.2544 15.4029 61.6471 15.4129 62.0406C15.433 62.8361 15.1739 63.4856 14.6356 63.9907C14.0973 64.4958 13.2776 64.7621 12.1763 64.7902C11.1551 64.8159 10.379 64.5934 9.84768 64.1219C9.31649 63.6504 9.04058 63.0047 9.01979 62.1834C9.00616 61.6424 9.12676 61.1873 9.38118 60.818C9.63584 60.4503 9.98929 60.1942 10.4418 60.0521L10.0466 58.1941C9.19893 58.4025 8.54185 58.8374 8.07504 59.4986C7.60823 60.1607 7.38946 61.0686 7.41858 62.224C7.441 63.1125 7.61384 63.8518 7.93677 64.4404C8.35749 65.2125 8.94847 65.7926 9.70965 66.1798C10.4711 66.567 11.3348 66.7481 12.3011 66.7239C13.1913 66.7013 14.0107 66.4983 14.7588 66.115C15.5071 65.7317 16.0756 65.1735 16.4645 64.4396Z" fill="white"/>
<path d="M9.9788 51.0053C10.135 50.2472 10.5165 49.6914 11.1232 49.3401C11.73 48.988 12.5543 48.9193 13.596 49.1347C14.6502 49.3533 15.3923 49.7523 15.8225 50.3315C16.2528 50.9116 16.3924 51.5681 16.2413 52.302C16.0904 53.0351 15.7002 53.5854 15.0709 53.9524C14.4417 54.3185 13.6123 54.3958 12.583 54.1827C11.5373 53.9664 10.8026 53.5722 10.3794 53.0007C9.95623 52.4292 9.82263 51.7641 9.9788 51.0053ZM8.93744 54.0859C9.23157 54.5207 9.58876 54.89 10.009 55.1929C10.5802 55.6012 11.3289 55.9002 12.2547 56.0922C13.7016 56.3913 14.9195 56.2265 15.9089 55.5973C16.8982 54.9681 17.5324 53.975 17.8114 52.6197C18.0869 51.2808 17.8927 50.1262 17.2284 49.1542C16.5643 48.1831 15.4985 47.5452 14.031 47.2416C12.5512 46.9355 11.3128 47.0995 10.316 47.7334C9.31923 48.3681 8.68263 49.3564 8.40617 50.6992C8.2535 51.4417 8.23863 52.1209 8.36148 52.7384C8.4514 53.2021 8.64331 53.6518 8.93744 54.0859Z" fill="white"/>
<path d="M13.2734 40.2725C13.5784 39.5613 14.0634 39.0945 14.7283 38.8712C15.3933 38.6487 16.2145 38.7478 17.1916 39.1694C18.1806 39.5949 18.8277 40.1351 19.1331 40.7901C19.4384 41.4443 19.4437 42.1157 19.1487 42.8035C18.8539 43.4921 18.3615 43.9527 17.6715 44.1853C16.9817 44.418 16.1538 44.3259 15.1882 43.9098C14.207 43.4874 13.5664 42.9534 13.2663 42.3078C12.9662 41.6629 12.9686 40.9845 13.2734 40.2725ZM12.4643 44.3813C12.9422 44.8958 13.6154 45.34 14.484 45.7139C15.8415 46.2987 17.0677 46.383 18.1628 45.9653C19.2581 45.5484 20.0781 44.7037 20.623 43.432C21.1611 42.1759 21.2022 41.0056 20.7463 39.9197C20.2902 38.8345 19.3739 37.9945 17.9972 37.4019C16.6089 36.8039 15.3629 36.7149 14.2594 37.1357C13.1558 37.5565 12.3341 38.3965 11.7942 39.6566C11.496 40.3522 11.3454 41.015 11.342 41.645C11.3371 42.1173 11.4352 42.5959 11.6362 43.0814C11.8373 43.5663 12.1133 43.9995 12.4643 44.3813Z" fill="white"/>
<path d="M17.6065 32.3836L18.093 31.6942C18.5344 31.0689 18.8547 30.6661 19.0541 30.4865C19.3186 30.2437 19.6045 30.0915 19.9117 30.029C20.2193 29.9674 20.5663 29.9962 20.9529 30.1149C21.3395 30.2336 21.8257 30.5013 22.4114 30.9167C22.9971 31.3328 23.423 31.713 23.6892 32.0573C23.9554 32.4016 24.1047 32.7084 24.1369 32.9777C24.1692 33.247 24.1287 33.5281 24.0151 33.8208C23.9292 34.0449 23.735 34.3712 23.4327 34.7998L22.6244 35.9451L17.6065 32.3836ZM24.8554 35.4985C25.2554 34.9318 25.5214 34.4415 25.6536 34.0269C25.8283 33.4719 25.8803 32.9691 25.8098 32.5194C25.7174 31.9253 25.4627 31.3375 25.0456 30.7566C24.704 30.2804 24.2215 29.8214 23.5978 29.3787C22.8882 28.8752 22.2328 28.534 21.6317 28.3568C21.0306 28.1788 20.4508 28.1304 19.8921 28.2108C19.3337 28.292 18.8318 28.5082 18.3862 28.8611C18.0557 29.1242 17.6673 29.5715 17.2211 30.2039L15.2422 33.0074L22.8181 38.3848L24.8554 35.4985Z" fill="white"/>
<path d="M31.7933 27.5966L27.306 21.8148L33.2423 26.4654L34.6662 25.3544L31.6329 18.4375L36.1202 24.2193L37.4942 23.1474L31.7937 15.8027L29.5753 17.5335L32.1497 23.569L26.9322 19.5961L24.7188 21.3237L30.4193 28.6685L31.7933 27.5966Z" fill="white"/>
<path d="M41.5885 17.0221L39.3038 18.1174L38.9488 14.4591L41.5885 17.0221ZM39.6773 22.02L39.4589 19.781L42.8058 18.1759L44.4465 19.7326L46.2857 18.8512L38.9284 12.0623L37.1406 12.9195L37.8839 22.8804L39.6773 22.02Z" fill="white"/>
<path d="M48.5613 18.3109L47.0933 12.423L52.1913 17.4014L54.0156 16.944L51.7644 7.91448L50.0753 8.33762L51.5786 14.3677L46.39 9.26196L44.6211 9.70539L46.8722 18.7349L48.5613 18.3109Z" fill="white"/>
<path d="M55.6394 14.7244C55.7389 15.0804 55.9286 15.4161 56.2082 15.733C56.4879 16.0492 56.8607 16.2998 57.327 16.4856C57.7933 16.6706 58.4693 16.7448 59.3548 16.7065C60.0885 16.6753 60.6791 16.5559 61.1265 16.3482C61.574 16.1405 61.9269 15.8728 62.1855 15.5441C62.444 15.2146 62.614 14.818 62.6957 14.3528C62.7772 13.8875 62.7943 13.0966 62.7467 11.9802L62.539 7.09623L60.6667 7.17586L60.8854 12.3206C60.9168 13.056 60.9117 13.5838 60.8705 13.9031C60.8291 14.2232 60.6781 14.4972 60.4175 14.7267C60.1568 14.9562 59.761 15.0819 59.2296 15.1046C58.7066 15.1272 58.2895 15.0296 57.9782 14.8118C57.6669 14.594 57.463 14.2965 57.3668 13.9195C57.3103 13.6853 57.2651 13.1677 57.2312 12.369L57.0169 7.332L55.1445 7.41241L55.3555 12.3729C55.3998 13.4128 55.4942 14.1966 55.6394 14.7244Z" fill="white"/>
<path d="M66.9335 12.889L70.7687 13.4418L70.9922 11.8835L67.1568 11.3308L67.4693 9.1503L71.9124 9.79047L72.1358 8.23144L65.8376 7.32426L64.5176 16.5372L66.3727 16.8042L66.9335 12.889Z" fill="white"/>
<path d="M76.9259 11.8404L77.0894 15.5206L74.6783 14.7438L76.9259 11.8404ZM72.2773 17.8376L73.6514 16.06L77.1844 17.1983L77.3105 19.4591L79.2514 20.0845L78.5523 10.0838L76.6659 9.47566L70.3848 17.2279L72.2773 17.8376Z" fill="white"/>
<path d="M83.0586 22.4534C83.9267 22.9437 84.7636 23.1334 85.5694 23.0226C86.3752 22.9117 87.1483 22.4823 87.8879 21.7344L86.5877 20.337C86.1183 20.8538 85.6488 21.1622 85.1809 21.2621C84.713 21.362 84.2622 21.2894 83.8286 21.0451C83.24 20.7125 82.8842 20.2246 82.7604 19.5821C82.6374 18.9388 82.864 18.105 83.4393 17.0799C83.982 16.1134 84.5612 15.5201 85.177 15.2992C85.7928 15.079 86.4001 15.1376 86.9995 15.4764C87.4332 15.7215 87.7337 16.0518 87.9003 16.4663C88.0669 16.8809 88.0802 17.3259 87.94 17.7997L89.7735 18.3259C89.9541 17.5725 89.958 16.9191 89.7851 16.3648C89.4963 15.4296 88.8579 14.6824 87.8684 14.1235C86.7356 13.4841 85.6122 13.3412 84.4974 13.6956C83.3833 14.0493 82.4467 14.9018 81.6884 16.2516C80.9721 17.5273 80.7526 18.728 81.0305 19.8545C81.3093 20.981 81.985 21.8468 83.0586 22.4534Z" fill="white"/>
<path d="M89.0391 26.3327L90.4731 27.542L95.4378 21.6251L97.5406 23.3989L98.5512 22.1943L92.9068 17.432L91.8963 18.6374L94.0038 20.4151L89.0391 26.3327Z" fill="white"/>
<path d="M94.7858 28.7712C94.5615 29.0647 94.4074 29.4192 94.3233 29.8329C94.2384 30.2475 94.2618 30.6972 94.3941 31.182C94.5257 31.6676 94.8729 32.2539 95.4343 32.9416C95.8998 33.5116 96.3498 33.9128 96.7842 34.1478C97.2179 34.382 97.6437 34.5038 98.061 34.514C98.4783 34.5241 98.8972 34.4218 99.3176 34.2087C99.7372 33.9948 100.379 33.5334 101.241 32.8253L105.012 29.7275L103.825 28.2739L99.8524 31.5364C99.2841 32.0033 98.8598 32.3163 98.5803 32.4748C98.3008 32.6333 97.991 32.677 97.6523 32.6052C97.3129 32.5341 96.975 32.2921 96.6371 31.8799C96.3054 31.4732 96.1334 31.0805 96.1202 30.7003C96.1069 30.3201 96.2214 29.9781 96.4643 29.6745C96.6184 29.4879 97.003 29.1412 97.6204 28.6346L101.509 25.44L100.322 23.9863L96.4915 27.1325C95.6881 27.7922 95.1197 28.3387 94.7858 28.7712Z" fill="white"/>
<path d="M106.396 34.9719L107.079 36.2687C107.434 36.9416 107.638 37.3507 107.691 37.4951C107.788 37.7887 107.791 38.0541 107.699 38.2922C107.607 38.5295 107.423 38.7216 107.147 38.8684C106.901 38.9987 106.666 39.0518 106.443 39.0261C106.219 39.0011 106.021 38.9074 105.85 38.7442C105.678 38.5818 105.382 38.1017 104.962 37.3046L104.314 36.0758L106.396 34.9719ZM99.579 38.5865L103.004 36.7699L103.182 37.1071C103.383 37.4889 103.499 37.784 103.53 37.9924C103.561 38.2009 103.535 38.4273 103.452 38.6732C103.369 38.9183 103.121 39.4226 102.708 40.1877L101.556 42.3354L102.604 44.3223L103.674 42.4689C104.103 41.7343 104.381 41.1831 104.508 40.817C104.634 40.4508 104.708 40.0324 104.727 39.5624C105.212 40.2291 105.751 40.6374 106.344 40.7881C106.936 40.938 107.54 40.8497 108.156 40.5234C108.641 40.2666 109.009 39.9184 109.259 39.4789C109.51 39.0393 109.604 38.5818 109.541 38.1048C109.479 37.6286 109.216 36.9502 108.752 36.0711L106.908 32.5744L98.7031 36.9252L99.579 38.5865Z" fill="white"/>
<path d="M103.273 46.7939L112 43.6236L111.361 41.8569L102.635 45.0265L103.273 46.7939Z" fill="white"/>
<path d="M104.229 49.8938L110.15 48.6408L105.001 53.5646L105.389 55.4102L114.471 53.4881L114.112 51.7799L108.047 53.0634L113.327 48.0529L112.951 46.2636L103.869 48.1856L104.229 49.8938Z" fill="white"/>
<path d="M114.569 59.0308C114.169 58.2462 113.595 57.6505 112.844 57.243C112.094 56.8347 111.235 56.6294 110.269 56.6278C109.378 56.6255 108.554 56.8058 107.795 57.1681C107.037 57.5303 106.453 58.0729 106.044 58.7958C105.635 59.5187 105.429 60.3665 105.428 61.3401C105.425 62.1059 105.569 62.8632 105.856 63.6111C106.143 64.3582 106.477 64.9297 106.856 65.3239L110.554 65.3325L110.562 61.2815L108.999 61.2784L108.993 63.4308L107.816 63.4276C107.598 63.1435 107.411 62.8039 107.258 62.4081C107.105 62.0115 107.028 61.6164 107.029 61.223C107.032 60.4274 107.308 59.7849 107.86 59.2947C108.412 58.8052 109.239 58.5616 110.34 58.5639C111.362 58.5663 112.132 58.8106 112.649 59.2962C113.168 59.7818 113.426 60.4352 113.424 61.2565C113.423 61.7983 113.29 62.2496 113.025 62.611C112.761 62.9725 112.4 63.2184 111.944 63.348L112.288 65.2154C113.141 65.0312 113.81 64.6151 114.295 63.9663C114.779 63.3176 115.023 62.4159 115.026 61.2597C115.028 60.3712 114.875 59.628 114.569 59.0308Z" fill="white"/>
<path d="M35.9919 99.8518C35.8332 100.076 35.6363 100.232 35.4013 100.319C35.1663 100.406 34.9192 100.417 34.6599 100.352C34.4005 100.287 33.9697 100.04 33.3673 99.6113L32.5308 99.0165L34.0546 96.8625L34.7931 97.3871C35.3439 97.7791 35.6982 98.0578 35.8564 98.2217C36.0724 98.4426 36.1979 98.7011 36.2328 98.9954C36.2675 99.2897 36.1873 99.5754 35.9919 99.8518ZM37.5815 100.951C38.0089 100.347 38.2111 99.7503 38.1884 99.1609C38.1656 98.5707 37.9777 98.0648 37.6245 97.6424C37.3959 97.3661 36.8169 96.8969 35.8875 96.2356L33.4346 94.4908L28.0645 102.082L29.5929 103.169L31.6186 100.305L32.6153 101.015C33.3072 101.507 33.8613 101.846 34.2775 102.034C34.5875 102.166 34.9366 102.234 35.3248 102.238C35.7129 102.241 36.1036 102.145 36.497 101.946C36.8903 101.749 37.2518 101.417 37.5815 100.951Z" fill="white"/>
<path d="M42.9274 104.579C42.6922 104.557 42.1651 104.359 41.346 103.988L40.0826 103.415L41.0531 101.263L42.3856 101.867C43.0779 102.181 43.4889 102.379 43.6187 102.461C43.8747 102.633 44.039 102.841 44.1119 103.085C44.1846 103.33 44.1566 103.595 44.028 103.88C43.9133 104.134 43.7598 104.32 43.5679 104.438C43.3761 104.555 43.1625 104.603 42.9274 104.579ZM44.5665 105.891C45.1265 105.645 45.5501 105.205 45.837 104.568C46.0631 104.067 46.1408 103.565 46.0705 103.064C46 102.563 45.7943 102.144 45.4534 101.806C45.1125 101.468 44.4902 101.094 43.5864 100.684L39.9926 99.0538L36.168 107.534L37.8755 108.309L39.4722 104.768L39.8183 104.925C40.2105 105.103 40.4827 105.265 40.6348 105.411C40.7868 105.556 40.9049 105.751 40.989 105.996C41.0732 106.242 41.1858 106.793 41.3268 107.651L41.729 110.056L43.7712 110.982L43.4847 108.859C43.3745 108.015 43.2574 107.409 43.1336 107.042C43.0097 106.675 42.812 106.299 42.5401 105.916C43.331 106.145 44.0065 106.136 44.5665 105.891Z" fill="white"/>
<path d="M49.0066 108.535L50.9923 105.446L51.4761 109.098L49.0066 108.535ZM50.5277 103.113L44.9453 111.386L46.8839 111.828L48.0981 109.937L51.716 110.761L52.0389 113.002L54.0269 113.456L52.4601 103.554L50.5277 103.113Z" fill="white"/>
<path d="M58.5902 106.57C59.0304 106.086 59.5946 105.851 60.2824 105.869C60.7802 105.88 61.1999 106.031 61.5412 106.318C61.8826 106.606 62.1022 106.993 62.2002 107.478L64.0655 107.079C63.8725 106.329 63.57 105.75 63.1578 105.342C62.4653 104.652 61.5514 104.293 60.4164 104.265C59.1167 104.233 58.0578 104.636 57.2394 105.474C56.4211 106.311 55.9932 107.503 55.9555 109.052C55.9198 110.516 56.2884 111.68 57.0611 112.544C57.8339 113.407 58.8363 113.854 60.0684 113.884C61.0641 113.908 61.892 113.683 62.5517 113.205C63.2113 112.728 63.6928 111.985 63.996 110.977L62.1935 110.354C62.0208 111.032 61.7513 111.525 61.3849 111.833C61.0185 112.141 60.5863 112.29 60.0885 112.278C59.4133 112.262 58.8708 111.999 58.461 111.489C58.0513 110.979 57.8607 110.136 57.8893 108.96C57.9162 107.852 58.1499 107.055 58.5902 106.57Z" fill="white"/>
<path d="M71.7086 103.313L64.4238 104.47L64.6696 106.025L67.3897 105.593L68.5963 113.23L70.4473 112.937L69.2407 105.299L71.9546 104.868L71.7086 103.313Z" fill="white"/>
<path d="M72.3672 102.989L74.9395 111.932L76.7402 111.411L74.1679 102.469L72.3672 102.989Z" fill="white"/>
<path d="M83.2629 105.151C83.3968 105.837 83.3648 106.398 83.1671 106.835C82.9686 107.271 82.6416 107.591 82.1869 107.795C81.5703 108.071 80.9677 108.067 80.3792 107.784C79.7906 107.501 79.2573 106.822 78.7785 105.748C78.3277 104.736 78.1969 103.916 78.3869 103.288C78.5761 102.661 78.9856 102.206 79.6131 101.925C80.0678 101.721 80.5115 101.676 80.9428 101.788C81.3741 101.901 81.7385 102.155 82.0351 102.551L83.5478 101.386C83.0519 100.792 82.531 100.4 81.9837 100.21C81.0627 99.8851 80.0833 99.9553 79.0471 100.42C77.8598 100.951 77.0766 101.772 76.6967 102.881C76.3168 103.989 76.4421 105.251 77.072 106.665C77.6683 108.003 78.4998 108.894 79.5679 109.341C80.6353 109.787 81.7323 109.758 82.858 109.254C83.7674 108.847 84.4174 108.285 84.8083 107.57C85.1991 106.855 85.3151 105.977 85.1562 104.935L83.2629 105.151Z" fill="white"/>
<path d="M89.2823 103.768L87.8303 101.696L91.6428 99.0101L90.7444 97.7266L86.9311 100.413L85.7485 98.7243L89.8459 95.8374L88.9436 94.5492L83.3125 98.5159L88.6478 106.132L94.4237 102.063L93.5253 100.78L89.2823 103.768Z" fill="white"/>
<path d="M18.1526 80.7676L16.0796 77.851L16.0472 81.4328L12.6406 82.5078L16.0272 83.646L15.9948 87.2271L18.1202 84.3486L21.5067 85.4861L19.4338 82.5702L21.5592 79.6918L18.1526 80.7676Z" fill="white"/>
<path d="M106.387 81.4328L106.354 77.851L104.281 80.7676L100.875 79.6918L103 82.5702L100.927 85.4861L104.314 84.3486L106.439 87.2271L106.407 83.646L109.793 82.5078L106.387 81.4328Z" fill="white"/>
</svg>
