<svg width="120" height="120" viewBox="0 0 120 120" fill="none" xmlns="http://www.w3.org/2000/svg">
<path d="M60.0108 3.24326C28.7357 3.24326 3.29186 28.7028 3.29186 59.9997C3.29186 91.2956 28.7357 116.757 60.0108 116.757C91.2856 116.757 116.73 91.2956 116.73 59.9997C116.73 28.7028 91.2856 3.24326 60.0108 3.24326ZM60.0108 120C26.9485 120 0.0507812 93.0839 0.0507812 59.9997C0.0507812 26.9164 26.9485 0 60.0108 0C93.0728 0 119.971 26.9164 119.971 59.9997C119.971 93.0839 93.0728 120 60.0108 120Z" fill="white"/>
<path d="M29.2193 44.5947C34.8817 33.3082 46.5526 25.5406 60.0093 25.5406C73.4657 25.5406 85.1366 33.3082 90.799 44.5947H94.3953C88.4976 31.4622 75.3034 22.2973 60.0093 22.2973C44.7149 22.2973 31.5207 31.4622 25.623 44.5947H29.2193Z" fill="white"/>
<path d="M90.799 75.4048C85.1366 86.6908 73.4657 94.4589 60.0093 94.4589C46.5526 94.4589 34.8817 86.6908 29.2193 75.4048H25.623C31.5207 88.5354 44.7149 97.7021 60.0093 97.7021C75.3034 97.7021 88.4976 88.5354 94.3953 75.4048H90.799Z" fill="white"/>
<path d="M16.6613 76.2157L15.9083 77.8676L14.1055 78.0738L15.4429 79.3011L15.0816 81.0806L16.6613 80.1868L18.2411 81.0806L17.8797 79.3011L19.2172 78.0738L17.4143 77.8676L16.6613 76.2157Z" fill="white"/>
<path d="M103.36 76.2157L104.114 77.8676L105.916 78.0738L104.579 79.3011L104.941 81.0806L103.36 80.1868L101.78 81.0806L102.142 79.3011L100.803 78.0738L102.607 77.8676L103.36 76.2157Z" fill="white"/>
<path d="M44.9732 77.9248L43.7794 80.5435L40.9219 80.8703L43.0418 82.8154L42.4692 85.6362L44.9732 84.2197L47.477 85.6362L46.9044 82.8154L49.0246 80.8703L46.1668 80.5435L44.9732 77.9248Z" fill="white"/>
<path d="M75.0474 77.9248L73.8536 80.5435L70.9961 80.8703L73.116 82.8154L72.5434 85.6362L75.0474 84.2197L77.5512 85.6362L76.9789 82.8154L79.0988 80.8703L76.241 80.5435L75.0474 77.9248Z" fill="white"/>
<path d="M60.0101 81.1737L58.5778 84.3161L55.1484 84.7083L57.6924 87.0424L57.0056 90.4272L60.0101 88.7275L63.0148 90.4272L62.3277 87.0424L64.8717 84.7083L61.4424 84.3161L60.0101 81.1737Z" fill="white"/>
<path d="M44.9732 34.3624L43.7794 36.9813L40.9219 37.3084L43.0418 39.2543L42.4692 42.0732L44.9732 40.657L47.477 42.0732L46.9044 39.2543L49.0246 37.3084L46.1668 36.9813L44.9732 34.3624Z" fill="white"/>
<path d="M75.0474 34.3624L73.8536 36.9813L70.9961 37.3084L73.116 39.2543L72.5434 42.0732L75.0474 40.657L77.5512 42.0732L76.9789 39.2543L79.0988 37.3084L76.241 36.9813L75.0474 34.3624Z" fill="white"/>
<path d="M60.0101 29.5701L58.5778 32.7134L55.1484 33.1053L57.6924 35.4404L57.0056 38.8242L60.0101 37.1242L63.0148 38.8242L62.3277 35.4404L64.8717 33.1053L61.4424 32.7134L60.0101 29.5701Z" fill="white"/>
<path d="M15.1189 40.0242L17.026 40.908L18.2438 38.2837L19.1767 38.7161L17.9589 41.3431L20.7133 42.6215L20.1736 43.7837L13.6426 40.7512L14.1817 39.5891L15.574 36.5864L16.5117 37.0215L15.1189 40.0242Z" fill="white"/>
<path d="M19.9317 32.5191C19.4167 32.5407 19.0107 32.7839 18.7136 33.2434C18.5216 33.538 18.4349 33.8461 18.4527 34.165C18.4711 34.4812 18.5972 34.8002 18.8319 35.1137C19.0661 35.4299 19.4026 35.7299 19.8431 36.0137L20.154 36.2164C20.5943 36.5002 21.0075 36.6839 21.3924 36.7677C21.7778 36.8542 22.1203 36.838 22.4206 36.7245C22.7199 36.611 22.9654 36.4056 23.1574 36.1083C23.4545 35.6488 23.5067 35.1812 23.3125 34.7028C23.1183 34.2245 22.6861 33.7704 22.0168 33.3353L21.7049 33.1353C21.0375 32.7028 20.4468 32.4974 19.9317 32.5191ZM24.0836 33.5866C24.3925 34.0839 24.5433 34.5975 24.5362 35.1326C24.5289 35.665 24.3639 36.1812 24.0417 36.6812C23.7227 37.1731 23.3208 37.5353 22.8352 37.7623C22.3501 37.9894 21.8162 38.0677 21.2325 37.9921C20.6491 37.9164 20.0568 37.684 19.4561 37.2948L19.1531 37.1002C18.5524 36.711 18.0975 36.265 17.7888 35.765C17.4799 35.265 17.3291 34.7461 17.3362 34.2109C17.3435 33.6758 17.5055 33.1596 17.8245 32.6677C18.1473 32.1704 18.5505 31.8055 19.0345 31.5785C19.5188 31.3515 20.0519 31.2785 20.6334 31.3569C21.216 31.4353 21.8086 31.6677 22.412 32.0596L22.7147 32.2542C23.3178 32.6461 23.7746 33.0893 24.0836 33.5866Z" fill="white"/>
<path d="M24.7031 26.5972C24.1907 26.5377 23.7521 26.7134 23.3869 27.1188C23.152 27.3837 23.0183 27.6729 22.9864 27.9891C22.9548 28.308 23.0304 28.6404 23.2127 28.9864C23.3948 29.335 23.6813 29.6837 24.0722 30.035L24.3482 30.281C24.7385 30.6323 25.1174 30.8783 25.485 31.0215C25.8526 31.1647 26.1932 31.2026 26.507 31.1377C26.8211 31.0702 27.0956 30.9053 27.3311 30.6431C27.6962 30.235 27.8205 29.781 27.7025 29.2782C27.5855 28.7782 27.2293 28.2593 26.6356 27.7269L26.359 27.4783C25.7678 26.9485 25.2152 26.6539 24.7031 26.5972ZM28.6386 28.2972C28.8665 28.835 28.9349 29.3675 28.8452 29.8945C28.755 30.4215 28.5114 30.9053 28.1157 31.3458C27.7238 31.7837 27.2708 32.0783 26.7558 32.2269C26.241 32.3783 25.7013 32.3702 25.1363 32.2053C24.5718 32.0377 24.0227 31.7161 23.4907 31.2404L23.2216 30.9972C22.6882 30.5215 22.3085 30.0107 22.0816 29.4674C21.8547 28.9269 21.7861 28.3891 21.8763 27.862C21.9665 27.335 22.2075 26.8512 22.5988 26.4134C22.9948 25.9701 23.4499 25.6755 23.9639 25.5269C24.4768 25.3782 25.0153 25.3891 25.5779 25.5566C26.1402 25.7242 26.6893 26.0485 27.2247 26.5269L27.4937 26.7674C28.0284 27.2485 28.4103 27.7593 28.6386 28.2972Z" fill="white"/>
<path d="M31.5267 22.8731C31.0373 22.2785 30.5328 21.9271 30.0137 21.8244C29.4943 21.7217 28.9881 21.8731 28.4968 22.2785L27.8354 22.8217L31.0954 26.7947L31.7187 26.2839C32.2284 25.865 32.4828 25.3866 32.4817 24.846C32.4809 24.3082 32.2392 23.7433 31.7557 23.1542L31.5267 22.8731ZM29.4219 20.7298C29.9815 20.6379 30.5312 20.7055 31.0692 20.9325C31.608 21.1595 32.0939 21.5379 32.5269 22.065L32.7494 22.3379C33.1842 22.8677 33.4608 23.419 33.578 23.992C33.6955 24.5623 33.6504 25.1163 33.4446 25.6488C33.2388 26.1839 32.8809 26.6596 32.3716 27.0785L31.194 28.0461L30.7583 28.4028L26.1895 22.8352L27.1793 22.0217L27.8413 21.4785C28.3353 21.0731 28.8623 20.8217 29.4219 20.7298Z" fill="white"/>
<path d="M36.3723 19.3949C35.8478 19.2841 35.4564 18.9868 35.1993 18.5003C35.0189 18.157 34.9532 17.803 35.0018 17.4327C35.0513 17.0651 35.2079 16.7138 35.4723 16.3814C35.737 16.0489 36.0903 15.7651 36.5335 15.53C36.9967 15.2868 37.4489 15.157 37.8886 15.1462C38.3285 15.1354 38.7202 15.23 39.0632 15.4273C39.4062 15.6246 39.6725 15.903 39.8618 16.2597L38.7345 16.857C38.5665 16.5408 38.3323 16.3381 38.0328 16.2543C37.7322 16.1705 37.3875 16.2327 36.997 16.4381C36.6299 16.6327 36.3925 16.8597 36.2858 17.1192C36.1789 17.3813 36.1935 17.6408 36.3293 17.8949C36.4492 18.1246 36.6583 18.257 36.9576 18.303C37.2566 18.3462 37.6728 18.3111 38.2073 18.2003C38.7669 18.0868 39.2487 18.0408 39.6533 18.0624C40.0577 18.084 40.4023 18.1787 40.687 18.3489C40.9706 18.5192 41.2012 18.7732 41.3789 19.1084C41.5666 19.4651 41.6371 19.8219 41.5893 20.184C41.541 20.5435 41.3835 20.8868 41.1156 21.2084C40.8487 21.5327 40.4858 21.8138 40.0277 22.0571C39.6028 22.2814 39.1577 22.4192 38.6937 22.4678C38.2294 22.5192 37.7978 22.4544 37.3983 22.2733C36.9986 22.0922 36.685 21.7868 36.4565 21.3543L37.589 20.757C37.7916 21.1381 38.0657 21.3543 38.4128 21.4084C38.7596 21.4625 39.1402 21.3787 39.5542 21.1597C39.9218 20.9651 40.163 20.7408 40.2778 20.4868C40.3926 20.23 40.3823 19.9733 40.247 19.7192C40.1538 19.5435 40.0404 19.4165 39.9051 19.3354C39.7697 19.257 39.5799 19.2165 39.3346 19.2165C39.0899 19.2138 38.7545 19.257 38.3288 19.3408C37.5491 19.4868 36.8971 19.5057 36.3723 19.3949Z" fill="white"/>
<path d="M45.6046 16.6563L43.6481 14.2185L43.6754 17.3455L45.6046 16.6563ZM46.2915 17.5104L43.6873 18.4401L43.7018 20.1888L42.4395 20.6401L42.578 12.9401L43.3794 12.6536L43.6635 12.5536L48.6491 18.4239L47.3864 18.8753L46.2915 17.5104Z" fill="white"/>
<path d="M49.2099 12.0459L49.6407 14.1054L52.4723 13.5108L52.6838 14.5189L49.8514 15.1135L50.4739 18.0865L49.221 18.3486L47.7441 11.2972L48.9979 11.0351L52.2363 10.354L52.4483 11.3675L49.2099 12.0459Z" fill="white"/>
<path d="M59.0898 15.9188L59.1722 16.9458L55.4009 17.2485L54.464 17.3242L53.8887 10.1404L55.1659 10.0377L58.5672 9.76472L58.6498 10.7972L55.2477 11.0702L55.4044 13.0188L58.3379 12.7837L58.4181 13.7891L55.4852 14.0242L55.6586 16.1945L59.0898 15.9188Z" fill="white"/>
<path d="M65.627 11.0835L63.3904 10.9592L63.0419 17.1187L61.7674 17.0484L62.1163 10.8862L59.9043 10.7619L59.9629 9.72942L63.4492 9.92671L65.6856 10.0511L65.627 11.0835Z" fill="white"/>
<path d="M71.4058 11.1053L72.7976 11.3837L69.5408 15.381L69.0209 17.9756L67.7553 17.7215L68.2747 15.1242L66.8086 10.1836L68.2004 10.462L69.1349 14.108L71.4058 11.1053Z" fill="white"/>
<path d="M76.1667 15.9025C75.9166 15.4269 75.8972 14.935 76.1073 14.4268C76.255 14.0701 76.486 13.7917 76.8017 13.5944C77.1174 13.3971 77.4869 13.2944 77.9115 13.2836C78.3361 13.2755 78.7796 13.3674 79.2433 13.5593C79.7276 13.7593 80.1141 14.0268 80.4031 14.3593C80.6923 14.689 80.8709 15.0512 80.9376 15.4431C81.0046 15.8323 80.9611 16.2133 80.8061 16.589L79.6268 16.1025C79.7638 15.7701 79.7695 15.462 79.6428 15.1755C79.5159 14.8917 79.2479 14.6647 78.8401 14.4971C78.456 14.3377 78.1297 14.2998 77.8615 14.3836C77.5933 14.4674 77.4037 14.6431 77.293 14.9106C77.195 15.1485 77.2247 15.3971 77.3816 15.6566C77.539 15.9133 77.8316 16.2133 78.258 16.5539C78.7021 16.9106 79.0445 17.2539 79.2871 17.5782C79.5293 17.9026 79.6752 18.2296 79.7252 18.5566C79.7754 18.8863 79.7281 19.2242 79.5834 19.5755C79.43 19.9485 79.1988 20.2296 78.8903 20.4242C78.5824 20.6188 78.2181 20.7134 77.7986 20.7134C77.3802 20.7134 76.9311 20.6161 76.453 20.4161C76.0082 20.2323 75.6184 19.9782 75.2835 19.6512C74.9494 19.3269 74.7242 18.9512 74.6077 18.5296C74.4916 18.1053 74.5273 17.6701 74.7131 17.2188L75.8972 17.708C75.7324 18.108 75.7397 18.4566 75.9207 18.7593C76.1011 19.0593 76.4074 19.2999 76.8401 19.4782C77.2247 19.6377 77.5509 19.6809 77.8205 19.608C78.0903 19.5323 78.2802 19.362 78.3909 19.0918C78.4671 18.9107 78.4922 18.7404 78.4671 18.5863C78.4417 18.4296 78.3515 18.2593 78.1959 18.0701C78.0403 17.8809 77.7948 17.6485 77.4588 17.3728C76.8471 16.8674 76.4168 16.3782 76.1667 15.9025Z" fill="white"/>
<path d="M86.7154 17.5135L87.9398 18.2297L83.5621 20.9486L82.2255 23.2324L81.1113 22.5811L82.4472 20.2946L82.6676 15.1432L83.8927 15.8621L83.5913 19.6108L86.7154 17.5135Z" fill="white"/>
<path d="M87.4734 21.9187C87.3597 21.3943 87.4734 20.916 87.8126 20.4808C88.0505 20.1781 88.3479 19.9727 88.7052 19.8673C89.0626 19.7619 89.4466 19.7619 89.8577 19.8673C90.268 19.9754 90.6712 20.1835 91.0653 20.4916C91.478 20.816 91.7794 21.1754 91.969 21.5727C92.1575 21.97 92.2324 22.3673 92.1916 22.7592C92.1516 23.1538 92.0066 23.5106 91.7567 23.8295L90.752 23.043C90.9737 22.7592 91.0612 22.4646 91.0159 22.1565C90.9702 21.8484 90.7733 21.5565 90.426 21.2835C90.0986 21.0295 89.7945 20.9051 89.5139 20.9133C89.233 20.9214 89.0032 21.0403 88.8244 21.2673C88.6661 21.47 88.6274 21.716 88.7101 22.0079C88.7919 22.2997 88.9932 22.6646 89.3127 23.1079C89.6433 23.5727 89.882 23.9943 90.0279 24.3727C90.1734 24.7511 90.2264 25.1052 90.187 25.4349C90.1467 25.7646 90.0101 26.0782 89.7762 26.3755C89.5277 26.6944 89.2298 26.9052 88.8805 27.0079C88.5316 27.1106 88.1548 27.1052 87.7513 26.9917C87.3478 26.8809 86.9424 26.6646 86.5348 26.3457C86.1561 26.0484 85.849 25.6971 85.6141 25.2917C85.3799 24.8889 85.2635 24.4673 85.2657 24.0295C85.2673 23.5917 85.4188 23.1781 85.7194 22.7944L86.7279 23.5862C86.4616 23.9268 86.3749 24.2646 86.4678 24.6025C86.5605 24.943 86.7916 25.2565 87.1603 25.5457C87.4871 25.8025 87.7902 25.9295 88.07 25.9322C88.3495 25.9322 88.5786 25.8187 88.7579 25.5917C88.8797 25.4349 88.9497 25.2782 88.9667 25.1241C88.9842 24.9673 88.9435 24.7781 88.8449 24.5538C88.746 24.3295 88.5713 24.0403 88.322 23.6835C87.8688 23.0322 87.586 22.443 87.4734 21.9187Z" fill="white"/>
<path d="M97.3137 27.9159L95.7561 26.305L91.3225 30.5942L90.4355 29.678L94.8691 25.3861L93.3285 23.7942L94.0715 23.0753L96.498 25.5861L98.0564 27.1996L97.3137 27.9159Z" fill="white"/>
<path d="M96.9325 35.981L96.103 36.5918L93.8602 33.5404L93.3027 32.7837L99.1013 28.5134L99.8603 29.5458L101.883 32.2945L101.051 32.908L99.0284 30.1593L97.4565 31.3161L99.2013 33.6891L98.3883 34.2864L96.6435 31.9161L94.8909 33.208L96.9325 35.981Z" fill="white"/>
<path d="M99.9295 43.7891L99.3515 42.6512L101.423 41.5972L104.332 40.2593L98.4575 40.8917L98.0443 40.0755L102.015 35.7025L99.2246 37.2647L97.153 38.3188L96.5723 37.1755L102.992 33.9133L103.484 34.8836L103.743 35.3944L99.7863 39.7053L105.596 39.0431L106.35 40.5269L99.9295 43.7891Z" fill="white"/>
<path d="M17.9238 88.9325L23.0153 85.3811L21.4096 84.1887L22.3214 83.5525L24.9915 85.423L25.0861 85.559L18.6847 90.0244L17.9238 88.9325Z" fill="white"/>
<path d="M27.7954 91.0431C27.8907 90.6774 27.7981 90.3428 27.5177 90.0398C27.2414 89.7423 26.9168 89.6263 26.5443 89.6928C26.1708 89.7596 25.7103 90.0472 25.1628 90.5558L23.9485 91.6826C23.4002 92.1917 23.0747 92.6355 22.9721 93.0147C22.8692 93.3942 22.9559 93.7326 23.2322 94.0307C23.5107 94.3307 23.8391 94.4431 24.2172 94.3663C24.5953 94.2899 25.0615 93.9955 25.6155 93.4812L26.8292 92.3545C27.3781 91.8461 27.6997 91.4085 27.7954 91.0431ZM22.4492 94.758C21.8996 94.1645 21.6686 93.5199 21.7564 92.8231C21.8445 92.1272 22.319 91.3788 23.1814 90.5796L24.1132 89.7145C24.9721 88.9172 25.7467 88.5023 26.4371 88.4693C27.1274 88.4361 27.7486 88.7171 28.301 89.3131C28.853 89.9085 29.0867 90.5507 29.0029 91.238C28.9189 91.9261 28.4479 92.6682 27.5887 93.4653L26.6567 94.3299C25.0064 95.8612 23.6041 96.0034 22.4492 94.758Z" fill="white"/>
<path d="M32.382 95.1767C32.4263 94.801 32.2886 94.4827 31.9685 94.2213C31.6538 93.9643 31.3168 93.8948 30.9567 94.0124C30.5967 94.1294 30.1797 94.4783 29.707 95.0583L28.6596 96.3413C28.1872 96.9205 27.9255 97.4056 27.8766 97.7951C27.8272 98.1851 27.9604 98.5089 28.2745 98.7656C28.5916 99.0248 28.9324 99.0902 29.2968 98.9624C29.6606 98.8348 30.0814 98.4781 30.5589 97.8927L31.606 96.6094C32.0792 96.0294 32.3377 95.5518 32.382 95.1767ZM27.5987 99.5937C26.9726 99.0821 26.655 98.4756 26.6466 97.7737C26.6377 97.0719 27.0051 96.2659 27.7478 95.3548L28.5521 94.3689C29.2927 93.4613 30.0025 92.9429 30.6818 92.8151C31.3611 92.6867 32.0155 92.8791 32.6443 93.3935C33.273 93.9072 33.5934 94.5102 33.6052 95.2032C33.6163 95.8956 33.2522 96.6962 32.5114 97.6043L31.7073 98.5894C30.2842 100.334 28.9146 100.669 27.5987 99.5937Z" fill="white"/>
<path d="M35.8948 103.775C35.8832 103.91 35.9075 104.039 35.9672 104.16C36.0258 104.282 36.1222 104.381 36.2541 104.458C36.4693 104.583 36.6662 104.609 36.8447 104.536C37.0235 104.463 37.1716 104.327 37.2882 104.126L37.4975 103.766C37.6123 103.57 37.6542 103.371 37.6226 103.171C37.5905 102.971 37.473 102.812 37.2701 102.693C37.0703 102.576 36.8753 102.553 36.6857 102.625C36.4958 102.695 36.3435 102.829 36.2287 103.026L36.0191 103.386C35.9475 103.509 35.9062 103.639 35.8948 103.775ZM36.0139 101.963C36.2505 101.819 36.512 101.748 36.7988 101.75C37.0862 101.752 37.3757 101.839 37.6685 102.01C37.9667 102.184 38.1876 102.395 38.3316 102.644C38.4745 102.893 38.5412 103.155 38.5306 103.432C38.5198 103.708 38.4404 103.974 38.2916 104.23L38.082 104.589C37.9327 104.845 37.7404 105.045 37.5054 105.191C37.2704 105.336 37.01 105.408 36.7245 105.407C36.4388 105.405 36.1487 105.318 35.8538 105.145C35.558 104.973 35.3382 104.762 35.1926 104.513C35.0473 104.263 34.9798 104 34.9887 103.722C34.9971 103.445 35.0767 103.179 35.225 102.923L35.4354 102.563C35.584 102.308 35.7768 102.107 36.0139 101.963ZM34.8755 98.308C34.906 98.507 35.0243 98.6667 35.2304 98.7867C35.43 98.9035 35.6245 98.9262 35.8125 98.8545C36.0002 98.7824 36.1512 98.6497 36.2641 98.4562L36.4712 98.1008C36.586 97.9032 36.6279 97.7043 36.5971 97.5024C36.5663 97.301 36.4491 97.141 36.2457 97.0221C36.0458 96.9059 35.8516 96.8845 35.6626 96.9572C35.4738 97.031 35.3214 97.1656 35.2072 97.3626L34.9995 97.7183C34.8866 97.9118 34.8455 98.1086 34.8755 98.308ZM34.9884 96.2945C35.2258 96.1489 35.4878 96.0772 35.7752 96.0797C36.0623 96.0824 36.3518 96.1686 36.6441 96.3389C36.9425 96.5132 37.164 96.7248 37.3093 96.9748C37.4543 97.2245 37.5213 97.487 37.5089 97.7626C37.4967 98.038 37.4157 98.3048 37.2645 98.5635L37.0576 98.9189C36.9088 99.1743 36.7181 99.3745 36.4855 99.5191C36.2524 99.664 35.9926 99.7348 35.7058 99.7326C35.4189 99.7297 35.1272 99.6432 34.832 99.4705C34.5374 99.2978 34.3162 99.0872 34.1714 98.8375C34.0261 98.5875 33.9577 98.3251 33.9656 98.0491C33.974 97.7737 34.0523 97.5083 34.2014 97.2526L34.4083 96.897C34.5579 96.6413 34.7507 96.441 34.9884 96.2945ZM32.8145 102.117L39.1562 98.7762L39.5505 99.4583L33.2085 102.798L32.8145 102.117Z" fill="white"/>
<path d="M47.1287 109.21C46.622 109.29 46.0016 109.218 45.2656 108.993C44.6355 108.801 44.124 108.49 43.7315 108.062C43.3388 107.633 43.0917 107.109 42.988 106.488C42.8848 105.868 42.9461 105.186 43.1724 104.444L43.3205 103.958C43.5498 103.205 43.8687 102.597 44.2774 102.135C44.6866 101.673 45.1633 101.372 45.7091 101.231C46.2544 101.089 46.8454 101.116 47.4825 101.31C48.3576 101.577 48.9645 101.996 49.3027 102.567C49.6403 103.137 49.7451 103.806 49.6165 104.57L48.3187 104.175C48.4478 103.249 48.0697 102.652 47.1841 102.382C46.5985 102.203 46.0921 102.285 45.6665 102.626C45.2403 102.967 44.904 103.543 44.6569 104.354L44.5056 104.851C44.343 105.386 44.279 105.864 44.3141 106.286C44.349 106.709 44.4797 107.061 44.7049 107.342C44.9299 107.623 45.2402 107.824 45.6357 107.944C46.0238 108.062 46.3352 108.112 46.5702 108.092C46.8052 108.072 46.9991 108.019 47.1525 107.931L47.5898 106.495L46.0773 106.034L46.3825 105.032L49.2184 105.897L48.345 108.764C48.0403 108.981 47.6351 109.129 47.1287 109.21Z" fill="white"/>
<path d="M56.4087 108.423C56.3309 108.994 56.1389 109.465 55.8318 109.833C55.5253 110.202 55.1393 110.457 54.6745 110.601C54.2096 110.745 53.7032 110.78 53.1566 110.706C52.5953 110.63 52.1108 110.461 51.7024 110.199C51.2943 109.937 50.9942 109.589 50.8033 109.155C50.6121 108.721 50.5556 108.216 50.6334 107.64L51.3289 102.497L52.6947 102.682L51.9992 107.825C51.9277 108.355 52.0071 108.767 52.2385 109.063C52.4697 109.359 52.8252 109.539 53.3057 109.605C53.7926 109.67 54.1851 109.592 54.4827 109.37C54.7801 109.148 54.9654 108.77 55.037 108.237L55.7324 103.094L57.1042 103.279L56.4087 108.423Z" fill="white"/>
<path d="M62.1794 108.116L61.0004 104.952L59.969 108.167L62.1794 108.116ZM62.5956 109.224L59.6105 109.294L59.0328 111.093L57.5859 111.126L60.3363 103.278L61.2546 103.256L61.58 103.249L64.7039 110.96L63.2567 110.994L62.5956 109.224Z" fill="white"/>
<path d="M67.0969 106.43L68.4525 106.182C68.9079 106.099 69.235 105.921 69.4332 105.65C69.632 105.378 69.6968 105.053 69.6274 104.674C69.5537 104.271 69.3811 103.979 69.1088 103.797C68.8371 103.614 68.463 103.567 67.9863 103.654L66.6362 103.901L67.0969 106.43ZM72.2538 109.579L72.2665 109.647L70.8058 109.914L68.7523 107.258L67.2968 107.523L67.8313 110.457L66.4706 110.706L65.0742 103.05L67.7859 102.555C68.6686 102.394 69.387 102.467 69.9404 102.776C70.4944 103.084 70.8393 103.611 70.976 104.358C71.0681 104.863 71.0248 105.313 70.8474 105.707C70.6691 106.101 70.3753 106.434 69.965 106.705L72.2538 109.579Z" fill="white"/>
<path d="M76.8692 105.092L74.7765 102.442L74.78 105.819L76.8692 105.092ZM77.6038 106.018L74.7841 107L74.7849 108.89L73.418 109.366L73.6319 101.052L74.4997 100.75L74.8076 100.643L80.1421 107.025L78.7752 107.501L77.6038 106.018Z" fill="white"/>
<path d="M86.0112 103.944L80.3828 100.786L83.0068 105.588L81.7938 106.252L78.0625 99.4254L79.276 98.7605L84.919 101.923L82.2891 97.1116L83.4935 96.4529L87.2248 103.28L86.0112 103.944Z" fill="white"/>
<path d="M89.6727 93.1316L87.7632 94.6183L91.8526 99.8783L90.7655 100.725L86.6758 95.4648L84.7873 96.9351L84.1016 96.0534L87.0779 93.7362L88.9877 92.2497L89.6727 93.1316Z" fill="white"/>
<path d="M97.8466 92.6559L98.6488 93.4273L95.8136 96.3727L95.1098 97.1035L89.5078 91.7062L90.4672 90.7092L93.0238 88.0524L93.8279 88.8275L91.2715 91.4832L92.7913 92.9481L94.9958 90.6575L95.7807 91.414L93.5759 93.7043L95.2688 95.3362L97.8466 92.6559Z" fill="white"/>
<path d="M101.948 87.1689L102.844 87.8238L100.44 91.1281L99.8435 91.9492L93.5566 87.367L94.3712 86.2481L96.5403 83.2678L97.4424 83.9248L95.2733 86.9062L96.9779 88.1492L98.8496 85.5787L99.7301 86.2208L97.8584 88.7911L99.7598 90.176L101.948 87.1689Z" fill="white"/>
<path d="M28.4688 49.1991V70.8154H23.8252V61.6403H15.4127V70.8154H10.7539V49.1991H15.4127V57.884H23.8252V49.1991H28.4688Z" fill="white"/>
<path d="M43.2449 62.7535L40.6482 54.8705L38.067 62.7535H43.2449ZM44.4911 66.5246H36.8354L35.4258 70.8154H30.4707L38.4824 49.1991H41.6279H42.8146L50.8709 70.8154H45.9007L44.4911 66.5246Z" fill="white"/>
<path d="M68.6532 67.5044C67.9358 68.6426 66.9343 69.5285 65.6487 70.162C64.3628 70.7955 62.854 71.1123 61.1233 71.1123C59.274 71.1123 57.6715 70.6891 56.3162 69.8428C54.9612 68.9966 53.9248 67.789 53.208 66.2204C52.4912 64.6515 52.1328 62.8033 52.1328 60.6749V59.3539C52.1328 57.2357 52.5034 55.3874 53.2453 53.8087C53.987 52.2298 55.0352 51.0152 56.3905 50.1635C57.7455 49.3125 59.3283 48.8868 61.1382 48.8868C62.9086 48.8868 64.4268 49.2136 65.6929 49.8668C66.9589 50.52 67.9409 51.4236 68.638 52.5763C69.3351 53.7295 69.7529 55.063 69.8918 56.5774H65.2481C65.1587 55.2709 64.8003 54.2985 64.1721 53.6603C63.5441 53.0217 62.5329 52.7025 61.1382 52.7025C59.6843 52.7025 58.6061 53.2371 57.9038 54.306C57.2016 55.3749 56.8502 57.0476 56.8502 59.3241V60.6749C56.8502 62.2095 56.9936 63.459 57.2807 64.4239C57.5676 65.389 58.0227 66.1088 58.6458 66.5839C59.2689 67.059 60.0945 67.2966 61.1233 67.2966C62.4589 67.2966 63.455 66.9926 64.1127 66.3836C64.7706 65.775 65.1441 64.8371 65.233 63.5701H69.8772C69.7783 65.055 69.37 66.3666 68.6532 67.5044Z" fill="white"/>
<path d="M88.5633 67.5044C87.8465 68.6426 86.8447 69.5285 85.5593 70.162C84.2734 70.7955 82.765 71.1123 81.0343 71.1123C79.1844 71.1123 77.582 70.6891 76.2275 69.8428C74.8719 68.9966 73.8361 67.789 73.1193 66.2204C72.4014 64.6515 72.043 62.8033 72.043 60.6749V59.3539C72.043 57.2357 72.4141 55.3874 73.156 53.8087C73.8979 52.2298 74.9461 51.0152 76.3012 50.1635C77.6565 49.3125 79.239 48.8868 81.0491 48.8868C82.8195 48.8868 84.3375 49.2136 85.6039 49.8668C86.8701 50.52 87.8513 51.4236 88.5492 52.5763C89.2464 53.7295 89.6642 55.063 89.8025 56.5774H85.1585C85.0699 55.2709 84.711 54.2985 84.083 53.6603C83.4548 53.0217 82.4436 52.7025 81.0491 52.7025C79.5949 52.7025 78.517 53.2371 77.8145 54.306C77.112 55.3749 76.7614 57.0476 76.7614 59.3241V60.6749C76.7614 62.2095 76.9046 63.459 77.1914 64.4239C77.4783 65.389 77.9333 66.1088 78.5564 66.5839C79.1795 67.059 80.0052 67.2966 81.0343 67.2966C82.3693 67.2966 83.366 66.9926 84.0239 66.3836C84.6813 65.775 85.0548 64.8371 85.1439 63.5701H89.7876C89.6885 65.055 89.2806 66.3666 88.5633 67.5044Z" fill="white"/>
<path d="M103.704 58.7008C104.277 58.1464 104.566 57.3943 104.566 56.444C104.566 55.8108 104.441 55.2319 104.193 54.707C103.947 54.1824 103.561 53.7618 103.037 53.4451C102.513 53.1283 101.859 52.9699 101.079 52.9699H97.2517V59.5321H101.079C102.256 59.5321 103.132 59.2551 103.704 58.7008ZM105.441 50.127C106.678 50.7453 107.623 51.5991 108.282 52.6878C108.938 53.777 109.268 55.0189 109.268 56.4143C109.268 57.8 108.941 59.0124 108.29 60.0516C107.637 61.0908 106.691 61.8924 105.454 62.4568C104.217 63.0208 102.759 63.3032 101.079 63.3032H97.2517V70.8154H92.5918V49.1991H101.079C102.751 49.1991 104.204 49.5083 105.441 50.127Z" fill="white"/>
</svg>
