<svg width="36" height="36" viewBox="0 0 36 36" fill="none" xmlns="http://www.w3.org/2000/svg">
<g clip-path="url(#clip0_2078_1369)">
<path d="M35.6004 18C35.6004 8.27981 27.7206 0.400024 18.0004 0.400024C8.28018 0.400024 0.400391 8.27981 0.400391 18C0.400391 27.7202 8.28018 35.6 18.0004 35.6C27.7206 35.6 35.6004 27.7202 35.6004 18Z" stroke="white"/>
<path d="M20.0004 17.6504C18.0236 19.7208 16.0476 24.8 16.0476 24.8C16.0476 24.8 13.2236 17.6504 10.4004 16" stroke="white" stroke-linecap="round" stroke-linejoin="round"/>
<path d="M24.4 13.2616L24.7376 16.8C24.8349 17.9073 24.4904 19.008 23.7793 19.8623C23.0682 20.7165 22.0481 21.2549 20.9416 21.36C19.8603 21.4693 18.7798 21.1446 17.9379 20.4572C17.096 19.7698 16.5617 18.7762 16.4524 17.6948C16.3431 16.6135 16.6679 15.533 17.3553 14.6912C18.0426 13.8493 19.0363 13.3149 20.1176 13.2056L23.8912 12.8424C23.9522 12.8363 24.0138 12.8422 24.0725 12.86C24.1311 12.8778 24.1857 12.907 24.233 12.946C24.2803 12.985 24.3194 13.0329 24.3481 13.0871C24.3768 13.1413 24.3944 13.2006 24.4 13.2616Z" stroke="white" stroke-linecap="round" stroke-linejoin="round"/>
</g>
<defs>
<clipPath id="clip0_2078_1369">
<rect width="36" height="36" fill="white"/>
</clipPath>
</defs>
</svg>
