<svg width="36" height="36" viewBox="0 0 36 36" fill="none" xmlns="http://www.w3.org/2000/svg">
<g clip-path="url(#clip0_2078_1357)">
<path d="M35.6004 18C35.6004 8.27981 27.7206 0.400024 18.0004 0.400024C8.28018 0.400024 0.400391 8.27981 0.400391 18C0.400391 27.7202 8.28018 35.6 18.0004 35.6C27.7206 35.6 35.6004 27.7202 35.6004 18Z" stroke="white"/>
<path d="M21.9772 24H12.0796C11.9523 24 11.8302 23.9495 11.7402 23.8594C11.6502 23.7694 11.5996 23.6473 11.5996 23.52V15.68C11.5996 15.5527 11.6502 15.4306 11.7402 15.3406C11.8302 15.2506 11.9523 15.2 12.0796 15.2H14.294C14.5703 15.2 14.8419 15.1285 15.0823 14.9924C15.3228 14.8562 15.5239 14.6602 15.666 14.4232L17.834 10.8096C17.9975 10.5367 18.2551 10.3329 18.5583 10.2366C18.8616 10.1403 19.1895 10.1581 19.4805 10.2867C19.7716 10.4152 20.0056 10.6457 20.1386 10.9347C20.2716 11.2237 20.2944 11.5514 20.2028 11.856L19.3852 14.5824C19.3638 14.6541 19.3594 14.7298 19.3724 14.8035C19.3854 14.8771 19.4154 14.9468 19.4601 15.0068C19.5048 15.0667 19.5629 15.1155 19.6298 15.149C19.6966 15.1826 19.7704 15.2001 19.8452 15.2H23.5052C23.7512 15.2 23.994 15.2567 24.2145 15.3657C24.4351 15.4747 24.6275 15.6331 24.7769 15.8286C24.9263 16.0241 25.0286 16.2514 25.0758 16.4929C25.123 16.7344 25.1139 16.9835 25.0492 17.2208L23.522 22.8208C23.4296 23.1597 23.2283 23.4587 22.9492 23.6718C22.67 23.885 22.3284 24.0003 21.9772 24Z" stroke="white" stroke-linecap="round"/>
<path d="M14.4004 24V15.2" stroke="white" stroke-linecap="round" stroke-linejoin="round"/>
</g>
<defs>
<clipPath id="clip0_2078_1357">
<rect width="36" height="36" fill="white"/>
</clipPath>
</defs>
</svg>
