<svg width="274" height="56" viewBox="0 0 274 56" fill="none" xmlns="http://www.w3.org/2000/svg">
<path d="M187.048 10.2628C185.988 10.5891 184.765 11.7105 184.133 12.893C183.521 14.0348 183.541 16.2368 184.133 17.3989C185.805 20.6 189.658 21.232 192.084 18.6834C193.002 17.7252 193.369 16.7261 193.369 15.1154C193.369 13.3619 192.92 12.3425 191.656 11.2415C190.27 10.0182 188.822 9.71235 187.048 10.2628Z" fill="#313131"/>
<path d="M34.3373 11.5067C32.2169 12.5669 30.3003 13.3824 25.0808 15.4417C24.7342 15.5641 24.9177 15.7679 26.2429 16.7466L27.8129 17.9088V31.4673V45.0259L32.5635 44.9851L37.2937 44.9239L37.3956 35.9121C37.4976 27.2672 37.518 26.8798 37.9053 26.3497C39.0267 24.8613 41.3307 24.6167 42.554 25.84L43.2064 26.4721L43.3084 35.7082L43.4103 44.9239L48.6706 44.9851C52.2794 45.0259 53.9106 44.9647 53.9106 44.822C53.9106 44.6997 53.7474 44.3123 53.5639 43.9453C53.2377 43.354 53.1766 42.3549 53.095 34.6276C52.9523 24.9633 52.9727 25.0448 51.4639 23.0467C48.9969 19.8049 42.921 19.8049 38.6801 23.0467L37.3956 24.0458V17.0932C37.3956 11.6698 37.3345 10.161 37.151 10.2018C37.0082 10.2222 35.7441 10.8135 34.3373 11.5067Z" fill="#313131"/>
<path d="M114.264 11.5068C112.857 12.2 110.186 13.403 108.31 14.1574C106.414 14.9117 104.885 15.605 104.885 15.6865C104.885 15.7681 105.476 16.2778 106.21 16.7875L107.535 17.7458L107.576 31.3247L107.637 44.9241L113 44.9852C116.302 45.0056 118.341 44.9648 118.341 44.8425C118.341 44.7202 118.137 44.292 117.893 43.8638L117.424 43.0891L117.322 26.6965C117.261 16.0127 117.159 10.2835 117.016 10.2631C116.914 10.2427 115.67 10.7932 114.264 11.5068Z" fill="#313131"/>
<path d="M145.661 11.2022C143.643 12.2217 138.933 14.2606 136.751 15.0557C136.038 15.3208 135.467 15.5655 135.467 15.647C135.467 15.7082 136.119 16.2179 136.894 16.748L138.321 17.7267L138.362 31.326L138.423 44.9253H143.215H148.006L148.108 35.9135C148.21 27.2075 148.23 26.8812 148.638 26.3307C149.861 24.6589 152.716 24.6589 153.654 26.3104C153.857 26.6774 153.939 28.8793 154.021 35.8523L154.123 44.9253L159.403 44.9865C164.378 45.0273 164.664 45.0069 164.521 44.6807C163.624 42.601 163.624 42.6214 163.603 34.3028C163.603 25.556 163.563 25.1482 162.38 23.3744C161.299 21.7229 158.812 20.5607 156.467 20.5607C154.061 20.5811 150.758 21.784 148.985 23.3132L148.108 24.0472L148.067 17.1762C148.026 12.7926 147.924 10.2848 147.802 10.244C147.7 10.2236 146.721 10.6517 145.661 11.2022Z" fill="#313131"/>
<path d="M175.65 11.2013C173.632 12.2411 170.308 13.6887 167.474 14.7693C166.536 15.1159 165.721 15.5033 165.68 15.6256C165.639 15.748 166.149 16.2373 166.801 16.7062C167.454 17.1752 168.025 17.6034 168.086 17.6441C168.147 17.7053 168.229 23.8627 168.29 31.325L168.392 44.9244L173.754 44.9855C176.69 45.0059 179.096 44.9651 179.096 44.8836C179.096 44.7816 178.81 44.17 178.484 43.5175L177.873 42.3146V26.2482C177.873 17.3995 177.811 10.1818 177.73 10.1818C177.628 10.2022 176.71 10.6508 175.65 11.2013Z" fill="#313131"/>
<path d="M130.163 13.8931C129.654 14.362 127.044 16.6659 124.373 19.031L119.5 23.3127L120.54 23.3739L121.58 23.435L121.641 32.3653L121.702 41.2956L122.416 42.7024C123.333 44.4967 124.638 45.4753 126.616 45.8423C129.185 46.3316 132.732 45.6384 134.608 44.2724C135.138 43.885 135.261 43.6403 135.261 43.049C135.261 42.3966 135.22 42.3354 134.812 42.4578C133.079 42.9675 131.998 42.7432 131.611 41.8053C131.448 41.4179 131.407 38.482 131.427 32.3857L131.489 23.5166L133.385 23.4554L135.281 23.3942L135.22 22.5379L135.159 21.6816L133.283 21.6204L131.387 21.5592V17.298C131.387 14.9329 131.326 13.0163 131.244 13.0163C131.142 13.0163 130.673 13.4037 130.163 13.8931Z" fill="#313131"/>
<path d="M192.145 20.7224C190.82 21.436 185.458 23.8215 183.031 24.7594C181.869 25.1876 180.972 25.6361 180.993 25.7585C181.033 25.8604 181.645 26.3701 182.379 26.9002L183.684 27.8177L183.745 36.4218L183.786 45.0259H189.291C192.329 45.0259 194.796 44.9647 194.796 44.8628C194.796 44.7812 194.47 44.2715 194.082 43.721L193.369 42.7016V31.5489C193.369 25.4118 193.307 20.335 193.226 20.2943C193.124 20.2535 192.655 20.437 192.145 20.7224Z" fill="#313131"/>
<path d="M206.725 20.9263C204.156 22.272 199.14 24.5147 196.999 25.2691C196.571 25.4118 196.225 25.6157 196.225 25.6973C196.225 25.7788 196.877 26.3293 197.652 26.9002L199.079 27.9401V36.483V45.0259L203.83 44.9851L208.56 44.9239L208.662 35.9121C208.764 27.1653 208.784 26.9002 209.192 26.3293C210.436 24.6779 213.066 24.5147 214.106 26.0439C214.432 26.5332 214.473 27.3488 214.575 35.749L214.676 44.9239L220.141 44.9851C223.138 45.0055 225.584 44.9647 225.584 44.8832C225.584 44.8016 225.34 44.3734 225.034 43.9249L224.463 43.1297L224.361 34.546C224.239 26.1662 224.239 25.942 223.77 24.7594C222.75 22.1904 220.65 20.7428 217.674 20.6001C214.676 20.437 212.148 21.3137 209.763 23.3322L208.458 24.4536V22.4147C208.458 21.2933 208.397 20.335 208.295 20.2739C208.213 20.2331 207.5 20.5185 206.725 20.9263Z" fill="#313131"/>
<path d="M65.9189 20.8046C60.9848 21.2531 56.9682 24.7804 55.6226 29.8368C55.1332 31.7126 55.0313 34.8525 55.3983 36.6059C56.3362 41.0099 59.6188 44.3129 64.3082 45.577C65.9189 46.0051 69.9355 46.0459 71.7501 45.6585C73.2181 45.3527 75.5017 44.2925 76.7046 43.375C77.4386 42.7837 77.5609 42.6002 77.5609 41.9274C77.5609 41.4992 77.5202 41.1526 77.459 41.1526C77.3978 41.1526 76.9085 41.3769 76.3784 41.6623C73.3608 43.2323 69.9559 42.7021 67.5704 40.3167C66.3063 39.0525 65.0422 36.5039 64.614 34.3835C64.0839 31.6718 63.2888 31.9776 70.955 31.9776H77.6221L77.4794 30.3873C76.9085 23.4959 72.9123 20.1725 65.9189 20.8046ZM67.9986 23.6182C68.7734 24.0464 69.2627 25.4124 69.3646 27.5329C69.4462 29.4494 69.4462 29.5106 68.9161 30.0407C68.4064 30.5504 68.2636 30.5912 66.918 30.5096C65.6946 30.4485 65.4296 30.3669 65.083 29.9387C64.716 29.4902 64.6752 29.2251 64.7772 27.594C64.8791 25.5959 65.3277 24.1891 66.0005 23.7202C66.5102 23.3736 67.4277 23.3328 67.9986 23.6182Z" fill="#313131"/>
<path d="M89.387 20.7842C85.7782 21.09 82.6587 22.6192 81.2927 24.76C79.1518 28.0834 80.4771 31.7737 83.8005 31.7737C85.0442 31.7737 86.2268 31.1009 86.8588 30.0203C87.3278 29.2455 87.3481 29.0212 87.2258 27.5329C87.0423 25.3512 87.2054 24.6376 88.1025 23.7405C89.122 22.7415 90.1822 22.456 91.1812 22.9454C92.4046 23.5366 92.6492 24.291 92.6492 27.4309V30.1222L91.1812 30.5708C85.9821 32.0999 81.3742 34.6078 79.8043 36.7282C78.5198 38.4816 78.2547 41.1526 79.1926 42.9672C79.7227 44.007 81.0684 45.1488 82.2306 45.5158C84.6364 46.3109 88.3472 46.0255 90.4676 44.8633C91.5279 44.2925 93.4648 42.3351 93.4648 41.8458C93.4648 41.2545 93.8114 41.6011 94.3415 42.7633C95.626 45.5769 98.3785 46.6168 101.865 45.6381C102.986 45.3119 104.291 44.2313 105.046 42.9876C106.147 41.1322 105.718 40.0516 104.373 41.3565C103.843 41.8662 103.578 41.9885 103.19 41.8866C102.314 41.6827 102.232 40.9691 102.232 34.1184C102.232 28.9193 102.171 27.5736 101.906 26.6765C100.642 22.3949 96.0542 20.2337 89.387 20.7842ZM92.5473 40.704C92.3842 41.3361 91.2832 41.9681 90.3453 41.9681C88.6938 41.9681 87.8986 40.2351 88.3472 37.5438C88.7142 35.1787 89.8967 33.2417 91.6298 32.1407L92.5473 31.5494L92.6085 35.8923C92.6288 38.2778 92.6085 40.439 92.5473 40.704Z" fill="#313131"/>
<path d="M237.308 20.7642C232.231 21.3555 228.439 24.6789 226.991 29.8372C226.298 32.3247 226.339 35.6073 227.093 37.7889C228.174 40.9695 230.05 43.09 233.026 44.5376C237.92 46.9027 244.363 46.3522 248.175 43.2327C248.868 42.6618 249.032 42.3967 249.032 41.8463C249.032 41.0307 248.95 41.0103 247.788 41.6424C247.298 41.9074 246.34 42.254 245.667 42.3764C242.038 43.1104 238.939 41.3977 237.104 37.6054C236.248 35.8316 235.412 32.6101 235.697 32.1616C235.758 32.0596 238.715 31.9781 242.446 31.9781H249.072L248.93 30.4897C248.318 24.4138 245.219 21.1108 239.755 20.7031C239.082 20.6623 237.981 20.6827 237.308 20.7642ZM239.612 23.8837C240.529 24.842 241.06 27.2071 240.794 29.0217C240.611 30.1431 239.999 30.5509 238.45 30.5509C236.39 30.5509 235.82 29.7761 236.085 27.2275C236.248 25.4944 236.676 24.3527 237.369 23.8225C238.062 23.272 239.061 23.2924 239.612 23.8837Z" fill="#313131"/>
</svg>
