<svg width="121" height="120" viewBox="0 0 121 120" fill="none" xmlns="http://www.w3.org/2000/svg">
<path d="M23.1436 78.0021L13.8958 81.9287L12.7852 79.3132L20.0116 76.2444L19.2824 74.5274L21.3037 73.6689L23.1436 78.0021Z" fill="white"/>
<path d="M20.4782 87.7093C21.0209 87.6912 21.7128 87.4069 22.5532 86.8568C23.3936 86.306 23.9304 85.7853 24.1642 85.2954C24.3975 84.8047 24.3833 84.3594 24.1212 83.9589C23.8538 83.551 23.4485 83.3561 22.9059 83.3741C22.3628 83.3921 21.6713 83.6765 20.8309 84.2273C19.9905 84.7773 19.4534 85.298 19.2199 85.7887C18.9862 86.2787 19.0034 86.7279 19.2707 87.1365C19.5328 87.5364 19.9352 87.728 20.4782 87.7093ZM16.5837 86.1512C16.5607 85.3654 16.776 84.5984 17.2293 83.8494C17.6824 83.1011 18.3613 82.4302 19.2658 81.838C20.1703 81.2452 21.0562 80.8908 21.9237 80.7746C22.7911 80.6585 23.5804 80.7673 24.2917 81.1024C25.0026 81.4368 25.5944 81.9649 26.0662 82.6852C26.5328 83.3975 26.7774 84.1465 26.8004 84.9322C26.8231 85.7179 26.608 86.485 26.1548 87.234C25.7015 87.983 25.0226 88.6532 24.1182 89.246C23.2136 89.8381 22.3278 90.1926 21.4603 90.3088C20.5928 90.4256 19.8034 90.3161 19.0924 89.981C18.3811 89.6465 17.7923 89.1225 17.3257 88.4102C16.8539 87.6899 16.6063 86.9369 16.5837 86.1512Z" fill="white"/>
<path d="M27.5843 95.911C28.1098 95.7742 28.7223 95.3449 29.4215 94.6233C30.1206 93.9016 30.53 93.2761 30.6504 92.7468C30.7705 92.2167 30.6589 91.7855 30.3153 91.4523C29.9649 91.1132 29.5267 91.0118 29.0012 91.1486C28.4754 91.2855 27.8632 91.7147 27.164 92.4363C26.4649 93.1573 26.0551 93.7835 25.935 94.3129C25.8147 94.8429 25.93 95.2775 26.2804 95.6166C26.624 95.9497 27.0585 96.0479 27.5843 95.911ZM23.4427 95.2454C23.2478 94.4838 23.2895 93.688 23.5675 92.8582C23.8452 92.0285 24.3603 91.2254 25.1128 90.4483C25.8651 89.672 26.6516 89.1319 27.4725 88.8282C28.2932 88.5237 29.0871 88.4577 29.8546 88.6279C30.6217 88.7988 31.3148 89.1833 31.9333 89.7828C32.5449 90.3756 32.9479 91.0525 33.1428 91.8142C33.3373 92.5752 33.2959 93.3709 33.018 94.2014C32.7401 95.0312 32.225 95.8342 31.4727 96.6106C30.7202 97.3877 29.9337 97.9277 29.113 98.2315C28.2921 98.5352 27.498 98.602 26.7309 98.4317C25.9635 98.2608 25.274 97.879 24.6625 97.2869C24.044 96.6874 23.6373 96.0071 23.4427 95.2454Z" fill="white"/>
<path d="M39.5898 105.634C39.8364 105.511 40.0807 105.237 40.3225 104.813C40.5642 104.389 40.6753 104.039 40.6562 103.764C40.6369 103.489 40.5152 103.287 40.2907 103.159C40.0663 103.031 39.8306 103.029 39.584 103.152C39.3372 103.276 39.093 103.55 38.8513 103.974C38.6095 104.398 38.4982 104.748 38.5175 105.023C38.5366 105.298 38.6585 105.499 38.883 105.628C39.1074 105.756 39.3429 105.758 39.5898 105.634ZM36.9626 105.243C36.7976 104.576 36.9285 103.869 37.3551 103.121C37.7769 102.381 38.3199 101.911 38.9845 101.712C39.6489 101.513 40.3094 101.6 40.9662 101.975C41.6311 102.354 42.0468 102.88 42.2137 103.553C42.3804 104.227 42.2529 104.933 41.8311 105.673C41.4045 106.421 40.86 106.893 40.1981 107.088C39.5358 107.283 38.8724 107.191 38.2076 106.812C37.5425 106.433 37.1276 105.91 36.9626 105.243ZM35.7768 98.0073C36.0235 97.8838 36.2678 97.6101 36.5095 97.1862C36.7513 96.7623 36.8624 96.4125 36.8433 96.1375C36.824 95.8618 36.7022 95.6602 36.4778 95.5327C36.2616 95.4092 36.0269 95.4105 35.7737 95.5354C35.5204 95.6615 35.2753 95.9319 35.0383 96.3471C34.8013 96.763 34.6933 97.1115 34.7144 97.3932C34.7353 97.6756 34.8538 97.8778 35.07 98.0013C35.2945 98.1288 35.53 98.1308 35.7768 98.0073ZM33.156 97.6202C32.9866 96.9506 33.1156 96.2423 33.5422 95.494C33.8218 95.004 34.1613 94.6301 34.5612 94.3731C34.9609 94.1168 35.3848 93.9866 35.8329 93.9833C36.2808 93.9799 36.7209 94.1014 37.1532 94.3478C37.8181 94.7269 38.234 95.2536 38.4008 95.9266C38.5675 96.6001 38.44 97.3071 38.0182 98.0467C37.5916 98.7944 37.0471 99.2664 36.3852 99.4613C35.7229 99.6569 35.0596 99.5648 34.3947 99.1856C33.7379 98.8111 33.325 98.2891 33.156 97.6202ZM42.251 97.4039L44.0463 98.4272L33.1098 103.756L31.3145 102.732L42.251 97.4039Z" fill="white"/>
<path d="M51.9784 107.44C52.1575 107.904 52.4353 108.281 52.8115 108.573C53.1873 108.864 53.6267 109.044 54.1294 109.111C54.632 109.179 55.1031 109.121 55.5427 108.938C55.9821 108.756 56.3494 108.465 56.6444 108.065C56.9391 107.665 57.1242 107.186 57.1991 106.626C57.274 106.067 57.2217 105.555 57.0425 105.092C56.8632 104.629 56.5855 104.251 56.2096 103.96C55.8334 103.668 55.3941 103.488 54.8915 103.421C54.3888 103.354 53.9176 103.412 53.4782 103.594C53.0386 103.776 52.6713 104.067 52.3765 104.467C52.0816 104.867 51.8968 105.346 51.8219 105.906C51.7469 106.466 51.799 106.977 51.9784 107.44ZM59.7352 113.207C59.3486 113.57 58.9015 113.826 58.3942 113.976C57.8866 114.125 57.3484 114.161 56.7794 114.085C56.2292 114.012 55.7409 113.874 55.3143 113.672C54.8874 113.47 54.4707 113.175 54.0643 112.788C53.6575 112.4 53.2138 111.875 52.7331 111.212C51.889 110.954 51.1621 110.543 50.5523 109.979C49.9424 109.414 49.4985 108.747 49.2205 107.976C48.9422 107.205 48.8611 106.388 48.9767 105.525C49.1088 104.539 49.467 103.684 50.0513 102.961C50.6356 102.238 51.3774 101.71 52.2764 101.376C53.1754 101.043 54.1512 100.947 55.2039 101.088C56.2567 101.229 57.1728 101.579 57.9524 102.137C58.7321 102.695 59.3085 103.4 59.6821 104.251C60.0555 105.102 60.1764 106.021 60.0442 107.007C59.8944 108.127 59.4561 109.074 58.7295 109.85C58.0028 110.627 57.0977 111.131 56.0146 111.362C56.1763 111.596 56.344 111.768 56.5174 111.878C56.6909 111.989 56.8867 112.058 57.1049 112.087C57.6644 112.162 58.1981 111.997 58.7062 111.592L59.7352 113.207Z" fill="white"/>
<path d="M63.6107 110.727C62.6894 110.022 62.1374 108.928 61.9538 107.447L61.2695 101.92L64.09 101.571L64.7636 107.012C64.9612 108.608 65.6908 109.328 66.9538 109.171C68.2075 109.016 68.7356 108.141 68.538 106.545L67.8644 101.104L70.6421 100.76L71.3264 106.287C71.51 107.768 71.2403 108.964 70.5193 109.872C69.7977 110.781 68.6962 111.327 67.2149 111.511C65.7335 111.694 64.5319 111.433 63.6107 110.727Z" fill="white"/>
<path d="M78.98 104.076L76.6248 101.535L76.5674 104.999L78.98 104.076ZM80.5067 105.735L76.5387 107.254L76.4993 109.359L73.791 110.395L74.3431 99.4269L76.9573 98.4269L84.703 106.22L81.9413 107.277L80.5067 105.735Z" fill="white"/>
<path d="M81.1523 96.5002L83.5115 94.9168L87.8547 101.388L91.8354 98.7165L93.0911 100.588L86.7512 104.843L81.1523 96.5002Z" fill="white"/>
<path d="M87.8301 91.7085L89.9269 89.7906L96.7087 97.2025L94.6119 99.1211L87.8301 91.7085Z" fill="white"/>
<path d="M94.1707 88.5484L92.2401 90.9563L90.4824 89.5464L96.112 82.5257L97.8697 83.9356L95.9484 86.3314L102.029 91.2073L100.251 93.4243L94.1707 88.5484Z" fill="white"/>
<path d="M104.746 79.5848L107.991 81.1489L106.757 83.709L103.473 82.1262L96.043 82.7984L97.3454 80.0968L101.974 79.6829L99.4142 75.8044L100.611 73.3217L104.746 79.5848Z" fill="white"/>
<path d="M30.0116 31.7814L25.8054 28.5163L27.6196 33.2247L26.8397 34.2187L21.9568 33.6512L26.0323 36.8509L24.4104 38.917L16.5078 32.7127L17.9524 30.8728L24.6935 31.6759L22.2596 25.3861L23.7042 23.5457L31.6246 29.7273L30.0116 31.7814Z" fill="white"/>
<path d="M35.3546 22.0365L32.4381 20.166L33.2496 23.5345L35.3546 22.0365ZM37.2477 23.2615L33.7863 25.7241L34.2747 27.7722L31.9125 29.4531L29.7012 18.696L31.9816 17.0731L41.4316 22.68L39.0226 24.3937L37.2477 23.2615Z" fill="white"/>
<path d="M45.4317 18.8692C46.2405 18.5734 46.8058 18.1068 47.1282 17.4693C47.4503 16.8317 47.4636 16.1088 47.1678 15.3003C46.8721 14.4913 46.3955 13.9472 45.7382 13.6682C45.0807 13.3891 44.3478 13.3971 43.539 13.6929L41.854 14.309L43.7468 19.4853L45.4317 18.8692ZM38.4062 13.1548L42.868 11.5233C43.9014 11.1454 44.8887 11.0039 45.8299 11.0974C46.771 11.1915 47.5915 11.5133 48.2914 12.062C48.9912 12.6107 49.5155 13.3617 49.8638 14.3144C50.2121 15.267 50.2958 16.1789 50.1151 17.0494C49.9343 17.9205 49.5147 18.6956 48.8562 19.3745C48.1977 20.0534 47.3516 20.5814 46.3184 20.9593L41.8566 22.5908L38.4062 13.1548Z" fill="white"/>
<path d="M60.4914 15.9819L60.7144 18.1669L52.6904 18.9873L51.668 8.99253L59.5066 8.19079L59.7301 10.3757L54.69 10.8911L54.8623 12.576L59.3028 12.1214L59.519 14.2349L55.0785 14.6889L55.2655 16.5167L60.4914 15.9819Z" fill="white"/>
<path d="M68.2345 8.85042L71.0343 9.33506L69.32 19.2344L66.5195 18.7497L68.2345 8.85042Z" fill="white"/>
<path d="M83.6149 13.4006L80.0408 22.7905L77.8545 21.9581L75.6142 15.3772L73.7096 20.3806L71.1074 19.39L74.6816 10L76.8678 10.8325L79.1082 17.4133L81.0127 12.4099L83.6149 13.4006Z" fill="white"/>
<path d="M92.7137 29.7101L91.2724 31.3677L85.1855 26.0752L91.7771 18.493L97.7237 23.6633L96.2831 25.3202L92.4593 21.9964L91.3485 23.2741L94.717 26.2027L93.3232 27.8062L89.9546 24.8776L88.749 26.2635L92.7137 29.7101Z" fill="white"/>
<path d="M93.5965 32.562C93.782 31.4172 94.485 30.4131 95.7033 29.5513L100.249 26.335L101.891 28.6548L97.4149 31.8217C96.1025 32.7496 95.8134 33.7336 96.5484 34.7723C97.2781 35.8037 98.2988 35.8551 99.6112 34.9265L104.087 31.7603L105.703 34.0447L101.157 37.261C99.939 38.1228 98.7581 38.4513 97.6165 38.245C96.4743 38.0394 95.4723 37.3271 94.6105 36.1081C93.7487 34.8898 93.4102 33.7076 93.5965 32.562Z" fill="white"/>
<path d="M60.7727 95.271C80.2518 95.271 96.0435 79.4793 96.0435 60.0002C96.0435 40.5205 80.2518 24.7295 60.7727 24.7295C41.2932 24.7295 25.502 40.5205 25.502 60.0002C25.502 79.4793 41.2932 95.271 60.7727 95.271Z" stroke="white"/>
<path d="M74.1068 80.1957L73.1782 77.3385L72.2503 80.1957H69.2456L71.6762 81.9614L70.7476 84.8186L73.1782 83.0529L75.6088 84.8186L74.6802 81.9614L77.1108 80.1957H74.1068ZM48.3687 34.3668L47.4403 37.224H44.4361L46.8665 38.9903L45.9382 41.8475L48.3687 40.0811L50.7991 41.8475L49.8708 38.9903L52.3012 37.224H49.297L48.3687 34.3668ZM83.1877 71.1148L82.2591 68.2577L81.3312 71.1148H78.3265L80.7571 72.8806L79.8285 75.7377L82.2591 73.972L84.6897 75.7377L83.7611 72.8806L86.1917 71.1148H83.1877ZM39.2877 43.4483L38.3593 46.3055H35.3551L37.7856 48.0712L36.8572 50.9284L39.2877 49.1627L41.7181 50.9284L40.7898 48.0712L43.2203 46.3055H40.2161L39.2877 43.4483ZM49.297 80.1957L48.3687 77.3385L47.4403 80.1957H44.4361L46.8665 81.9614L45.9382 84.8186L48.3687 83.0529L50.7991 84.8186L49.8708 81.9614L52.3012 80.1957H49.297ZM73.1782 34.3668L72.2503 37.224H69.2456L71.6762 38.9903L70.7476 41.8475L73.1782 40.0811L75.6088 41.8475L74.6802 38.9903L77.1108 37.224H74.1068L73.1782 34.3668ZM40.2161 71.1148L39.2877 68.2577L38.3593 71.1148H35.3551L37.7856 72.8806L36.8572 75.7377L39.2877 73.972L41.7181 75.7377L40.7898 72.8806L43.2203 71.1148H40.2161ZM79.8285 50.9284L82.2591 49.1627L84.6897 50.9284L83.7611 48.0712L86.1917 46.3055H83.1877L82.2591 43.4483L81.3312 46.3055H78.3265L80.7571 48.0712L79.8285 50.9284ZM89.5155 58.7102H86.5115L85.5829 55.853L84.655 58.7102H81.6503L84.0809 60.4759L83.153 63.333L85.5829 61.5673L88.0135 63.333L87.0856 60.4759L89.5155 58.7102ZM35.9638 61.5673L38.3943 63.333L37.4659 60.4759L39.8964 58.7102H36.8922L35.9638 55.853L35.0355 58.7102H32.0312L34.4617 60.4759L33.5333 63.333L35.9638 61.5673ZM61.7021 83.5195L60.7736 80.6623L59.8451 83.5195H56.8409L59.2714 85.2859L58.343 88.1431L60.7736 86.3767L63.2042 88.1431L62.2756 85.2859L64.7062 83.5195H61.7021ZM60.7736 31.043L59.8451 33.9002H56.8409L59.2714 35.6665L58.343 38.5237L60.7736 36.7573L63.2042 38.5237L62.2756 35.6665L64.7062 33.9002H61.7021L60.7736 31.043Z" fill="white"/>
<path d="M60.7736 116.984C29.3523 116.984 3.78929 91.4209 3.78929 60C3.78929 28.5784 29.3523 3.0154 60.7736 3.0154C92.1945 3.0154 117.758 28.5784 117.758 60C117.758 91.4209 92.1945 116.984 60.7736 116.984ZM60.7736 0C27.6894 0 0.773438 26.9155 0.773438 60C0.773438 93.0845 27.6894 120 60.7736 120C93.8574 120 120.774 93.0845 120.774 60C120.774 26.9155 93.8574 0 60.7736 0Z" fill="white"/>
<path d="M16.517 41.5278C14.0687 47.3796 12.8281 53.5867 12.8281 59.9999C12.8281 63.1862 13.1377 66.3325 13.7513 69.4126L16.2816 68.976C15.6923 66.0394 15.3947 63.0394 15.3947 59.9999C15.3947 53.9505 16.5608 48.0953 18.8616 42.5745L16.517 41.5278Z" fill="white"/>
<path d="M102.686 42.5745C104.987 48.0953 106.153 53.9505 106.153 59.9999C106.153 63.0394 105.855 66.0394 105.266 68.976L107.796 69.4126C108.41 66.3325 108.719 63.1862 108.719 59.9999C108.719 53.5867 107.479 47.3796 105.03 41.5278L102.686 42.5745Z" fill="white"/>
</svg>
