<svg width="59" height="40" viewBox="0 0 59 40" fill="none" xmlns="http://www.w3.org/2000/svg">
<rect x="0.916016" y="0.5" width="57.3333" height="39" rx="3.5" fill="white" stroke="white"/>
<path fill-rule="evenodd" clip-rule="evenodd" d="M30 28.5946C28.014 30.3084 25.4379 31.343 22.6229 31.343C16.3418 31.343 11.25 26.192 11.25 19.838C11.25 13.484 16.3418 8.33301 22.6229 8.33301C25.4379 8.33301 28.014 9.3676 30 11.0814C31.986 9.3676 34.5621 8.33301 37.3771 8.33301C43.6582 8.33301 48.75 13.484 48.75 19.838C48.75 26.192 43.6582 31.343 37.3771 31.343C34.5621 31.343 31.986 30.3084 30 28.5946Z" fill="#ED0006"/>
<path fill-rule="evenodd" clip-rule="evenodd" d="M30 28.5946C32.4453 26.4843 33.9959 23.3443 33.9959 19.838C33.9959 16.3316 32.4453 13.1916 30 11.0814C31.986 9.36759 34.5621 8.33301 37.3771 8.33301C43.6582 8.33301 48.75 13.484 48.75 19.838C48.75 26.192 43.6582 31.343 37.3771 31.343C34.5621 31.343 31.986 30.3084 30 28.5946Z" fill="#F9A000"/>
<path fill-rule="evenodd" clip-rule="evenodd" d="M29.9998 11.0811C32.4451 13.1913 33.9956 16.3313 33.9956 19.8376C33.9956 23.3439 32.4451 26.4839 29.9998 28.5941C27.5545 26.4839 26.0039 23.3439 26.0039 19.8376C26.0039 16.3313 27.5545 13.1913 29.9998 11.0811Z" fill="#FF5E00"/>
</svg>
