<svg width="123" height="122" viewBox="0 0 123 122" fill="none" xmlns="http://www.w3.org/2000/svg">
<path d="M66.4705 33.7124L61.8721 27.4751L57.2737 33.7124C57.2737 33.7124 45.0523 49.8588 48.8543 60.9325C51.433 68.4428 55.6754 72.3355 58.6991 75.9097L58.6775 75.709C58.0385 69.7542 58.8342 63.7328 60.9978 58.1494L62.0909 55.3284L61.9436 57.0926C61.4098 63.4868 62.5245 69.9112 65.181 75.7498C68.1948 72.2187 72.3495 68.331 74.8899 60.9325C78.6919 49.8588 66.4705 33.7124 66.4705 33.7124Z" fill="white"/>
<path d="M56.0603 75.1234C53.8383 72.6217 51.189 69.6368 49.0597 65.2688C48.9677 65.0797 43.016 59.5221 39.2222 56.9433C43.4225 58.5267 47.5369 61.6149 47.4671 61.4117C47.4117 61.2503 47.3594 61.088 47.3101 60.925C46.3809 57.8527 46.5205 54.4919 47.2371 51.1961C45.5912 50.2485 43.8976 49.5561 42.2551 49.0534C36.8445 47.3976 31.0515 47.5845 25.6792 49.3605C25.4518 49.4357 25.2255 49.512 25 49.5896C25.9346 50.8441 29.4712 53.7707 32.0937 58.6555C33.4309 61.1463 34.9214 63.5506 36.4848 65.9057C38.2662 68.5896 41.6768 73.6382 56.3993 75.5054C56.2874 75.3792 56.1749 75.2525 56.0603 75.1234Z" fill="white"/>
<path d="M67.6866 75.1234C69.9087 72.6217 72.558 69.6368 74.6872 65.2688C74.7793 65.0797 80.731 59.5221 84.5248 56.9433C80.3245 58.5267 76.2101 61.6149 76.2799 61.4117C76.3352 61.2503 76.3876 61.088 76.4369 60.925C77.3661 57.8527 77.2264 54.4919 76.5099 51.1961C78.1557 50.2485 79.8494 49.5561 81.4919 49.0534C86.9024 47.3976 92.6959 47.5845 98.0675 49.3605C98.2946 49.4357 98.5216 49.512 98.7464 49.5896C97.8119 50.8441 94.2761 53.7707 91.653 58.6555C90.3161 61.1463 88.8255 63.5506 87.2622 65.9057C85.4808 68.5896 82.0701 73.6382 67.3477 75.5054C67.4596 75.3792 67.5721 75.2525 67.6866 75.1234Z" fill="white"/>
<path d="M61.873 2.42628C29.6289 2.42628 3.39646 28.7017 3.39646 61C3.39646 93.2971 29.6289 119.574 61.873 119.574C94.1165 119.574 120.349 93.2971 120.349 61C120.349 28.7017 94.1165 2.42628 61.873 2.42628ZM61.873 121C45.873 121 30.8307 114.759 19.5171 103.426C8.20332 92.0937 1.97266 77.0265 1.97266 61C1.97266 44.9734 8.20332 29.9063 19.5171 18.5737C30.8307 7.24115 45.873 1 61.873 1C77.8729 1 92.915 7.24115 104.229 18.5737C115.543 29.9063 121.773 44.9734 121.773 61C121.773 77.0265 115.543 92.0937 104.229 103.426C92.915 114.759 77.8729 121 61.873 121Z" fill="white" stroke="white" stroke-width="2"/>
<path d="M61.8721 19.8149C39.2003 19.8149 20.7554 38.2904 20.7554 61C20.7554 83.7095 39.2003 102.185 61.8721 102.185C84.5438 102.185 102.989 83.7095 102.989 61C102.989 38.2904 84.5438 19.8149 61.8721 19.8149ZM61.8721 103.255C50.6042 103.255 40.0107 98.8595 32.0432 90.8789C24.0754 82.8976 19.6875 72.2867 19.6875 61C19.6875 49.7133 24.0754 39.1022 32.0432 31.1212C40.0107 23.1406 50.6042 18.7452 61.8721 18.7452C73.1399 18.7452 83.7333 23.1406 91.7013 31.1212C99.6686 39.1022 104.057 49.7133 104.057 61C104.057 72.2867 99.6686 82.8976 91.7013 90.8789C83.7333 98.8595 73.1399 103.255 61.8721 103.255Z" fill="white"/>
<path d="M17.9641 88.1627C17.712 88.3191 17.3791 88.2407 17.2257 87.9866C12.3231 79.8643 9.73438 70.5457 9.73438 61C9.73438 48.1449 14.4233 35.827 22.9491 26.2514C23.1465 26.0297 23.4879 26.0137 23.7072 26.2137C23.9241 26.4114 23.9394 26.7463 23.7443 26.9657C15.3943 36.3445 10.8023 48.4091 10.8023 61C10.8023 70.3494 13.3373 79.4762 18.1381 87.4307C18.2899 87.682 18.2135 88.0081 17.9641 88.1627Z" fill="white"/>
<path d="M105.783 88.1627C105.533 88.0081 105.458 87.682 105.609 87.4307C110.41 79.4762 112.945 70.3494 112.945 61C112.945 48.4084 108.353 36.3433 100.002 26.9646C99.8069 26.7451 99.8218 26.4103 100.039 26.2126C100.259 26.0126 100.6 26.0286 100.797 26.2503C109.324 35.8257 114.013 48.1442 114.013 61C114.013 70.5455 111.424 79.8643 106.521 87.9866C106.369 88.2407 106.035 88.3191 105.783 88.1627Z" fill="white"/>
<path d="M35.0013 22.2275L30.7852 15.1212L31.8427 14.4927L38.6475 17.519L35.5442 12.2881L36.7341 11.5807L40.9502 18.687L39.8926 19.3167L33.1055 16.2938L36.2021 21.5133L35.0013 22.2275Z" fill="white"/>
<path d="M44.2183 13.8743L46.9317 12.9361L44.3411 9.82634L44.2183 13.8743ZM42.9141 17.7212L43.2002 8.87663L44.6781 8.36463L50.3272 15.1566L48.9706 15.6263L47.5011 13.8801L44.3638 14.9646L44.2828 17.2469L42.9141 17.7212Z" fill="white"/>
<path d="M54.6035 14.4399L53.5933 7.33595L50.9797 7.70851L50.8262 6.62851L57.4233 5.68794L57.577 6.76794L54.9762 7.13822L55.9864 14.2422L54.6035 14.4399Z" fill="white"/>
<path d="M64.0516 14.0422C62.9165 13.9931 62.0471 13.6811 61.4432 13.1074C60.8394 12.5325 60.5596 11.728 60.6042 10.6937L60.8275 5.49939L62.223 5.55996L62.0019 10.7028C61.9721 11.3954 62.1397 11.9211 62.5049 12.2788C62.8699 12.6377 63.4025 12.832 64.1024 12.8617C64.7939 12.8914 65.3367 12.744 65.7312 12.4182C66.1257 12.0925 66.3381 11.584 66.3678 10.8914L66.5889 5.74853L67.9715 5.80796L67.7482 11.0022C67.7038 12.0365 67.3581 12.8137 66.7118 13.3337C66.065 13.8548 65.1783 14.0902 64.0516 14.0422Z" fill="white"/>
<path d="M72.26 10.8195L74.2291 11.2915C74.7192 11.4092 75.1345 11.3806 75.4746 11.2069C75.8146 11.0332 76.0485 10.6801 76.1758 10.1475C76.4164 9.14063 76.0505 8.52005 75.0784 8.2869L72.9846 7.78519L72.26 10.8195ZM69.959 14.4389L71.8797 6.39891L75.5686 7.28348C76.4661 7.49833 77.0652 7.88576 77.3661 8.4469C77.6671 9.0069 77.7231 9.68234 77.5341 10.4732C77.3989 11.0389 77.1424 11.4881 76.7646 11.8195C76.3865 12.1509 75.9126 12.3326 75.3434 12.3635C75.467 12.5075 75.5555 12.6515 75.6088 12.7966C75.6621 12.9418 75.7053 13.128 75.7389 13.3555L76.1906 15.9326L74.7947 15.5978L74.3469 13.1143C74.3072 12.8766 74.2338 12.6961 74.127 12.5738C74.02 12.4515 73.8128 12.3532 73.5055 12.2789L71.9974 11.9178L71.3175 14.7646L69.959 14.4389Z" fill="white"/>
<path d="M81.6822 14.6512L84.2894 15.8546L84.5671 11.8135L81.6822 14.6512ZM78.084 16.5243L84.3995 10.3369L85.8196 10.9918L85.2076 19.8101L83.9038 19.2089L84.0488 16.9301L81.0339 15.5392L79.3992 17.1312L78.084 16.5243Z" fill="white"/>
<path d="M87.0527 21.0253L91.8208 14.279L92.9618 15.087L88.8148 20.9544L92.2669 23.4013L91.6451 24.2812L87.0527 21.0253Z" fill="white"/>
<path d="M46.2735 91.6079V81.7217L44.4004 82.0464V80.4048L48.2185 79.8094V91.6079H46.2735Z" fill="white"/>
<path d="M55.2433 90.2549C56.3961 90.2549 57.2002 89.8732 57.6566 89.1095C58.113 88.3456 58.3411 87.2904 58.3411 85.9434C58.3411 84.5122 58.1189 83.4117 57.6748 82.6418C57.2304 81.8725 56.4199 81.4874 55.2433 81.4874C54.0666 81.4874 53.2531 81.8725 52.8029 82.6418C52.3526 83.4117 52.1275 84.5122 52.1275 85.9434C52.1275 87.2904 52.3555 88.3456 52.812 89.1095C53.268 89.8732 54.0786 90.2549 55.2433 90.2549ZM55.2433 91.9326C54.0188 91.9326 53.0338 91.6949 52.2895 91.2195C51.545 90.7452 51.0017 90.0595 50.6597 89.1636C50.3176 88.2677 50.1465 87.1941 50.1465 85.9434C50.1465 84.6444 50.3112 83.538 50.6419 82.6239C50.972 81.7101 51.5089 81.0124 52.2535 80.5311C52.9981 80.0502 53.9945 79.8095 55.2433 79.8095C56.4919 79.8095 57.4857 80.0502 58.2241 80.5311C58.9626 81.0124 59.4966 81.7101 59.8269 82.6239C60.1571 83.538 60.3223 84.6444 60.3223 85.9434C60.3223 87.1941 60.1538 88.2677 59.8179 89.1636C59.4817 90.0595 58.9414 90.7452 58.1971 91.2195C57.4523 91.6949 56.468 91.9326 55.2433 91.9326Z" fill="white"/>
<path d="M66.9678 90.2549C68.1207 90.2549 68.9247 89.8732 69.3812 89.1095C69.8376 88.3456 70.0657 87.2904 70.0657 85.9434C70.0657 84.5122 69.8435 83.4117 69.3994 82.6418C68.955 81.8725 68.1444 81.4874 66.9678 81.4874C65.7911 81.4874 64.9777 81.8725 64.5275 82.6418C64.0771 83.4117 63.852 84.5122 63.852 85.9434C63.852 87.2904 64.0801 88.3456 64.5365 89.1095C64.9926 89.8732 65.8032 90.2549 66.9678 90.2549ZM66.9678 91.9326C65.7434 91.9326 64.7584 91.6949 64.0142 91.2195C63.2696 90.7452 62.7265 90.0595 62.3843 89.1636C62.0422 88.2677 61.8711 87.1941 61.8711 85.9434C61.8711 84.6444 62.0357 83.538 62.3664 82.6239C62.6965 81.7101 63.2335 81.0124 63.9781 80.5311C64.7227 80.0502 65.7191 79.8095 66.9678 79.8095C68.2165 79.8095 69.2103 80.0502 69.9487 80.5311C70.6872 81.0124 71.2213 81.7101 71.5516 82.6239C71.8816 83.538 72.0471 84.6444 72.0471 85.9434C72.0471 87.1941 71.8784 88.2677 71.5425 89.1636C71.2063 90.0595 70.6661 90.7452 69.9218 91.2195C69.1769 91.6949 68.1926 91.9326 66.9678 91.9326Z" fill="white"/>
<path d="M82.601 90.5977C83.0691 90.5977 83.4053 90.4777 83.6096 90.2366C83.8136 89.9966 83.9156 89.6594 83.9156 89.2265C83.9156 88.6975 83.8104 88.3096 83.6005 88.063C83.3903 87.8167 83.0571 87.6933 82.601 87.6933C82.1446 87.6933 81.8112 87.8167 81.6014 88.063C81.3912 88.3096 81.2862 88.6975 81.2862 89.2265C81.2862 89.6594 81.3879 89.9966 81.5922 90.2366C81.7962 90.4777 82.1325 90.5977 82.601 90.5977ZM82.601 91.7886C81.7482 91.7886 81.1088 91.5509 80.6829 91.0754C80.2564 90.6011 80.0434 89.9966 80.0434 89.2627C80.0434 88.4088 80.2564 87.7323 80.6829 87.2331C81.1088 86.7343 81.7482 86.4843 82.601 86.4843C83.4534 86.4843 84.0894 86.7343 84.5101 87.2331C84.9302 87.7323 85.1404 88.4088 85.1404 89.2627C85.1404 89.9966 84.9302 90.6011 84.5101 91.0754C84.0894 91.5509 83.4534 91.7886 82.601 91.7886ZM75.3607 91.608L81.5022 79.9901H83.3394L77.1978 91.608H75.3607ZM76.1531 83.9229C76.6215 83.9229 76.9574 83.8027 77.1618 83.5619C77.3658 83.3215 77.4681 82.9847 77.4681 82.5517C77.4681 82.0225 77.3626 81.6346 77.1526 81.388C76.9425 81.1416 76.6094 81.0183 76.1531 81.0183C75.6967 81.0183 75.3636 81.1416 75.1535 81.388C74.9433 81.6346 74.8383 82.0225 74.8383 82.5517C74.8383 82.9847 74.9403 83.3215 75.1447 83.5619C75.3487 83.8027 75.6849 83.9229 76.1531 83.9229ZM76.1531 85.1135C75.3006 85.1135 74.661 84.876 74.2351 84.4009C73.8088 83.9258 73.5957 83.3215 73.5957 82.5878C73.5957 81.7339 73.8088 81.0574 74.2351 80.5582C74.661 80.0594 75.3006 79.8095 76.1531 79.8095C77.0056 79.8095 77.6419 80.0594 78.0623 80.5582C78.4823 81.0574 78.6925 81.7339 78.6925 82.5878C78.6925 83.3215 78.4823 83.9258 78.0623 84.4009C77.6419 84.876 77.0056 85.1135 76.1531 85.1135Z" fill="white"/>
<path d="M19.2539 95.5804L25.5154 90.3621L26.3973 91.4238L20.1358 96.6421L19.2539 95.5804Z" fill="white"/>
<path d="M22.6934 99.5884L28.1348 93.5164L29.0386 94.329L28.196 101.641L32.2012 97.1724L33.2178 98.0867L27.7762 104.159L26.8726 103.346L27.716 96.0513L23.7195 100.511L22.6934 99.5884Z" fill="white"/>
<path d="M34.4735 108.738C33.3184 108.057 32.6321 107.231 32.4155 106.259C32.1985 105.289 32.4048 104.268 33.034 103.199C33.4874 102.427 34.0071 101.834 34.5933 101.42C35.1792 101.007 35.8217 100.8 36.5211 100.801C37.2202 100.801 37.9694 101.037 38.7689 101.509C39.183 101.753 39.5428 102.002 39.8487 102.257C40.1544 102.511 40.4262 102.776 40.6643 103.053L40.0609 104.08C39.5934 103.511 38.9964 103.011 38.2699 102.583C37.3761 102.055 36.6103 101.922 35.9726 102.183C35.3347 102.443 34.7547 103.018 34.2327 103.906C33.7577 104.714 33.585 105.44 33.7146 106.085C33.844 106.73 34.3049 107.287 35.097 107.754C35.7216 108.122 36.2694 108.347 36.7402 108.429L37.8956 106.464L36.1411 105.428L36.597 104.653L39.3651 106.287L37.3751 109.671C37.0641 109.683 36.6645 109.627 36.1763 109.5C35.6879 109.373 35.1203 109.12 34.4735 108.738Z" fill="white"/>
<path d="M43.3749 108.479L45.2593 109.145C45.7284 109.311 46.1388 109.327 46.4907 109.191C46.8422 109.056 47.1082 108.734 47.2878 108.223C47.6275 107.259 47.332 106.614 46.4017 106.284L44.3978 105.576L43.3749 108.479ZM40.7441 111.794L43.4556 104.1L46.9863 105.348C47.845 105.652 48.3932 106.095 48.631 106.676C48.869 107.257 48.8546 107.927 48.588 108.683C48.3969 109.225 48.0989 109.639 47.6941 109.926C47.2888 110.212 46.805 110.342 46.243 110.312C46.3497 110.467 46.4215 110.618 46.459 110.766C46.4964 110.913 46.5198 111.1 46.5294 111.328L46.7079 113.904L45.3721 113.431L45.1877 110.947C45.1731 110.71 45.1196 110.524 45.0274 110.393C44.935 110.262 44.7417 110.145 44.4476 110.041L43.0043 109.53L42.0443 112.254L40.7441 111.794Z" fill="white"/>
<path d="M50.5664 114.829L51.8458 106.771L57.4545 107.665L57.2856 108.729L53.0385 108.052L52.6512 110.492L56.4362 111.095L56.2691 112.146L52.4842 111.544L52.0949 113.995L56.3421 114.672L56.1751 115.723L50.5664 114.829Z" fill="white"/>
<path d="M61.3919 114.901L63.0989 114.854C63.63 114.839 64.0704 114.749 64.4202 114.583C64.7698 114.417 65.0273 114.117 65.1925 113.681C65.3577 113.246 65.4295 112.628 65.4077 111.825C65.3859 111.023 65.2886 110.405 65.1169 109.97C64.9448 109.535 64.6811 109.233 64.3265 109.066C63.9717 108.898 63.5079 108.823 62.9348 108.838L61.2278 108.885L61.3919 114.901ZM60.0428 116.002L59.8203 107.846L63.1204 107.756C64.3256 107.722 65.2279 108.017 65.827 108.638C66.4259 109.261 66.7455 110.31 66.786 111.788C66.8239 113.181 66.5652 114.208 66.0097 114.87C65.454 115.53 64.565 115.879 63.3428 115.912L60.0428 116.002Z" fill="white"/>
<path d="M70.4852 115.257L69.1133 107.215L70.4723 106.983L71.8443 115.025L70.4852 115.257Z" fill="white"/>
<path d="M75.5516 114.272L73.1445 106.477L78.5702 104.795L78.8879 105.825L74.7794 107.098L75.5083 109.458L79.1695 108.323L79.4836 109.341L75.8224 110.475L76.5551 112.848L80.6633 111.574L80.9773 112.591L75.5516 114.272Z" fill="white"/>
<path d="M84.6078 111.12L80.7793 103.918L81.851 103.346L88.4203 106.646L85.6025 101.345L86.8082 100.703L90.6371 107.904L89.565 108.477L83.0127 105.182L85.8246 110.471L84.6078 111.12Z" fill="white"/>
<path d="M95.7869 104.178L91.3429 98.6697L89.3166 100.311L88.6406 99.4731L93.756 95.3314L94.4326 96.1691L92.4154 97.8022L96.8594 103.31L95.7869 104.178Z" fill="white"/>
<path d="M103.168 97.3393C102.476 98.1359 101.818 98.6879 101.193 98.9941L100.277 98.1953C100.617 98.0101 100.956 97.7873 101.294 97.5279C101.632 97.2684 101.936 96.9816 102.207 96.6696C102.633 96.1793 102.896 95.761 102.995 95.4159C103.093 95.0719 102.971 94.7484 102.628 94.449C102.418 94.2661 102.205 94.1701 101.99 94.161C101.774 94.1519 101.517 94.225 101.22 94.3804C100.923 94.5359 100.543 94.7759 100.082 95.1016C99.3337 95.6147 98.7119 95.889 98.2155 95.9267C97.7192 95.9644 97.2389 95.7804 96.7745 95.3759C96.2337 94.9039 95.9827 94.3381 96.0215 93.6764C96.0591 93.0147 96.4185 92.2924 97.0997 91.5096C97.41 91.1519 97.7272 90.8387 98.0524 90.5679C98.3776 90.297 98.6491 90.1004 98.8682 89.977L99.7832 90.7759C99.1785 91.0993 98.6206 91.5541 98.1117 92.1393C97.7124 92.5987 97.4636 93.0079 97.3621 93.3679C97.2617 93.7279 97.3701 94.0467 97.6884 94.3244C97.8732 94.4856 98.0604 94.5713 98.2532 94.5816C98.4449 94.5919 98.6776 94.5233 98.9515 94.3759C99.2253 94.2284 99.5824 94.0044 100.022 93.705C100.586 93.313 101.076 93.0536 101.492 92.9301C101.908 92.8056 102.281 92.7884 102.609 92.8799C102.938 92.9701 103.249 93.1427 103.542 93.3987C104.082 93.8696 104.332 94.441 104.292 95.1107C104.251 95.7816 103.877 96.5244 103.168 97.3393Z" fill="white"/>
</svg>
