<svg width="100" height="100" viewBox="0 0 100 100" fill="none" xmlns="http://www.w3.org/2000/svg">
<path d="M52.2696 0C52.1937 0 52.1184 -7.62939e-06 52.0452 0.01474C49.8591 0.100479 49.1989 1.61049 46.7976 1.77432C44.2363 1.94962 43.4292 0.339134 40.905 0.810432C38.3814 1.28173 38.21 3.07571 35.7579 3.83699C33.3059 4.59772 32.1492 3.21606 29.802 4.25695C27.4548 5.29729 27.7017 7.08145 25.4915 8.38776C23.2809 9.69351 21.8369 8.61712 19.7928 10.1708C17.7493 11.7251 18.4002 13.4049 16.5506 15.1852C14.7009 16.9661 13.0478 16.2507 11.4176 18.2342C9.78695 20.2177 10.8082 21.7014 9.41887 23.8602C8.03011 26.0196 6.25633 25.705 5.12697 28.0107C3.99815 30.3169 5.3334 31.5255 4.47982 33.9469C3.62625 36.3684 1.82779 36.4716 1.26081 38.9756C0.693948 41.4795 2.27243 42.3473 1.99976 44.9003C1.72746 47.4534 0.0017462 47.9689 0.027632 50.5362C0.0538454 53.1035 1.78967 53.5835 2.11335 56.1306C2.43736 58.6777 0.875364 59.5777 1.49258 62.0696C2.10985 64.562 3.91077 64.6287 4.81295 67.0321C5.71568 69.4361 4.40391 70.6714 5.57915 72.9542C6.75438 75.2364 8.52161 74.8863 9.95406 77.0173C11.3865 79.1482 10.3953 80.6522 12.0653 82.6018C13.7353 84.552 15.3742 83.8044 17.2594 85.547C19.1446 87.2902 18.5269 88.9821 20.6022 90.4942C22.6769 92.0064 24.0989 90.9016 26.3358 92.1626C28.5716 93.4241 28.3608 95.2132 30.7282 96.206C33.0962 97.1994 34.2244 95.7948 36.6918 96.5064C39.1586 97.218 39.3666 99.0071 41.8995 99.4276C44.4324 99.8478 45.2062 98.2221 47.7708 98.3456C50.3353 98.4694 50.9497 100.162 53.511 99.9873C56.0728 99.8123 56.4518 98.0502 58.9754 97.579C61.499 97.1077 62.4874 98.6138 64.9395 97.8527C67.3915 97.0918 67.3538 95.2913 69.701 94.2504C72.0477 93.2101 73.3578 94.447 75.5685 93.1407C77.7792 91.8349 77.3264 90.0912 79.3705 88.5375C81.4146 86.9833 82.9732 87.886 84.8229 86.1051C86.6726 84.3248 85.8305 82.7312 87.4612 80.7478C89.0913 78.7648 90.8165 79.2831 92.2058 77.1243C93.5951 74.965 92.4084 73.609 93.5378 71.3033C94.6666 68.9976 96.4661 69.1035 97.3196 66.6826C98.1732 64.2611 96.7053 63.2159 97.2732 60.7114C97.8401 58.2075 99.6144 57.8956 99.8869 55.3431C100.159 52.79 98.4905 52.1118 98.4648 49.5445C98.4386 46.9772 100.093 46.2651 99.7695 43.7185C99.4457 41.1715 97.6659 40.8962 97.0488 38.4038C96.4317 35.9118 97.8772 34.8366 96.9745 32.4331C96.0718 30.0291 94.2761 30.1717 93.1009 27.8889C91.9251 25.6061 93.0834 24.2272 91.6515 22.0968C90.2191 19.9659 88.5054 20.5186 86.8348 18.5684C85.1653 16.6182 85.9747 15.0088 84.0895 13.2656C82.2043 11.523 80.6637 12.4568 78.589 10.9446C76.5144 9.43246 76.9316 7.67999 74.6947 6.41846C72.4589 5.15749 71.1739 6.41901 68.8065 5.42782C66.4386 4.43444 66.4402 2.6328 63.9734 1.92122C61.5066 1.20963 60.5482 2.73492 58.0153 2.31442C55.4824 1.89445 55.069 0.140892 52.5045 0.0174713C52.4242 0.0174713 52.3461 0.00273132 52.2696 0.00273132V0ZM49.7204 4.56496H49.7346C49.8083 4.56496 49.8815 4.56496 49.9552 4.56496C75.0459 4.5666 95.3848 24.9071 95.3842 49.9978C95.3848 75.0884 75.0459 95.4295 49.9552 95.4311C37.9052 95.4317 26.3489 90.645 17.8279 82.1245C9.30746 73.6041 4.52078 62.0477 4.52078 49.9978C4.52023 24.994 24.7237 4.68948 49.7275 4.56496H49.7204ZM49.9634 6.28303C25.8258 6.28303 6.25633 25.859 6.25633 49.9978C6.25633 74.142 25.8279 93.7141 49.9722 93.7141C74.1169 93.7141 93.6874 74.1425 93.6874 49.9978C93.6874 25.8541 74.1169 6.28303 49.9722 6.28303H49.9634ZM48.3972 10.7786L53.4269 10.901L53.3963 12.1707L51.6733 12.1281L51.5466 17.3615L49.9623 17.3238L50.089 12.0904L48.3671 12.0483L48.3972 10.7786ZM55.4906 11.215L57.0542 11.4711L56.0018 17.8896L54.4383 17.6329L55.4906 11.215ZM44.3363 11.2718C45.571 11.2576 46.3088 11.9741 46.471 12.95C46.6054 13.7544 46.2924 14.5856 45.3537 15.0427L47.2574 17.3369L45.494 17.6302L43.7563 15.431L43.3817 15.4932L43.7841 17.9158L42.2212 18.1752L41.1546 11.76L43.7776 11.3226C43.9736 11.2892 44.1599 11.2734 44.3363 11.2718ZM59.3932 11.9375L63.447 13.1591L63.0811 14.3742L60.5433 13.6097L60.1479 14.922L62.0462 15.4949L61.6901 16.6745L59.7918 16.1021L59.0327 18.6214L57.5156 18.1637L59.3932 11.9375ZM38.6479 12.4514L39.0783 13.6452L36.8212 14.4589L37.2674 15.6964L39.2629 14.9771L39.6774 16.1283L37.6813 16.847L38.1652 18.1894L40.4228 17.3757L40.8526 18.57L37.1046 19.9206L34.9 13.8019L38.6479 12.4514ZM44.1085 12.6158C44.043 12.6168 43.9747 12.6305 43.9016 12.6365L42.9333 12.7976L43.1971 14.3873L44.1664 14.2262C44.7513 14.1285 44.9752 13.7817 44.8917 13.2787C44.8218 12.8631 44.564 12.6081 44.1085 12.6163V12.6158ZM65.3502 13.9728L66.7946 14.6222L64.1274 20.5541L62.6819 19.9042L65.3502 13.9728ZM31.5479 15.8471C32.2972 15.8618 33.0126 16.1507 33.5997 16.722L32.1071 17.6198C31.59 17.2801 31.0264 17.2943 30.5103 17.605C29.6764 18.1064 29.4771 19.0703 30.0691 20.0544C30.661 21.039 31.6058 21.3142 32.4397 20.8129C32.9553 20.5027 33.2332 20.0118 33.177 19.3968L34.6695 18.499C35.078 19.8971 34.521 21.2367 33.195 22.034C31.5512 23.0225 29.6906 22.5528 28.6879 20.885C27.6853 19.2177 28.1374 17.3451 29.7812 16.3572C30.3612 16.0077 30.9647 15.8395 31.5479 15.8455V15.8471ZM69.8348 16.728C70.4569 16.728 71.0969 16.9202 71.6965 17.3172C72.9859 18.1719 73.4791 19.5427 73.0099 20.9216L71.5578 19.9599C71.6408 19.3482 71.3853 18.8447 70.8828 18.5121C70.0719 17.9748 69.1162 18.209 68.4821 19.1669C67.8475 20.1243 68.0048 21.0953 68.8158 21.6326C69.3177 21.9647 69.8807 22.0045 70.4121 21.6894L71.8631 22.6511C70.7769 23.6205 69.328 23.6937 68.0381 22.839C66.4391 21.7801 66.0639 19.8982 67.1381 18.2762C67.8099 17.2626 68.7978 16.728 69.8348 16.728ZM49.9858 22.2486C57.3452 22.2486 64.4032 25.1725 69.6071 30.3764C74.8105 35.5804 77.7344 42.6383 77.7338 49.9978C77.7338 65.3222 65.3108 77.7458 49.9858 77.7458C34.6608 77.7458 22.2378 65.3222 22.2378 49.9978C22.2378 42.6383 25.1611 35.5804 30.3645 30.3764C35.5684 25.1725 42.6264 22.2486 49.9858 22.2486ZM77.7136 22.3349L78.9779 23.6642L75.8847 29.8511L74.7297 28.6349L75.2938 27.5623L73.6216 25.8022L72.5212 26.3112L71.3782 25.1097L77.7136 22.3349ZM21.2357 23.3818L25.1038 26.978L26.5171 25.4582L27.4122 26.2904L24.9203 28.9713L20.1571 24.5423L21.2357 23.3818ZM49.8864 23.9334C47.1269 23.9427 44.3865 24.3894 41.7673 25.2577C35.2058 27.434 29.7774 32.1273 26.6761 38.3055C23.5752 44.4836 23.0553 51.641 25.231 58.2026C27.4067 64.7641 32.1 70.193 38.2782 73.2939C44.457 76.3952 51.6138 76.9151 58.1753 74.7394C64.7374 72.5637 70.1658 67.8699 73.2672 61.6917C76.368 55.5135 76.8879 48.3561 74.7122 41.7946C71.1663 31.1017 61.1522 23.8968 49.8864 23.9334ZM77.0703 24.1994L74.7952 25.2616L75.8994 26.4237L77.0703 24.1994ZM50.0606 26.6427C60.0944 26.6804 68.9829 33.1234 72.1411 42.6471C74.0907 48.5271 73.6249 54.9406 70.8462 60.4766C68.0671 66.0131 63.2028 70.2187 57.3228 72.1683C51.4434 74.1179 45.0298 73.6521 39.4939 70.8729C33.9574 68.0943 29.7518 63.2295 27.8021 57.3501C23.7423 45.1062 30.3765 31.8897 42.6204 27.8299C45.0195 27.0342 47.5321 26.6328 50.0606 26.6427ZM81.8024 27.0457L84.4761 31.3076L83.4008 31.9826L82.485 30.5223L78.05 33.3042L77.2079 31.9618L81.6429 29.1805L80.7271 27.7207L81.8024 27.0457ZM19.0845 27.2281C19.416 27.2292 19.7546 27.3242 20.0905 27.5197L19.149 28.9527C18.7853 28.7468 18.4139 28.8577 18.172 29.2083C17.9557 29.5207 17.9612 29.868 18.3019 30.0919C19.2467 30.7123 20.5852 27.7453 22.4049 28.9407C23.3185 29.5404 23.6102 30.7516 22.7757 32.0219C22.0079 33.1911 20.8266 33.7236 19.7016 33.0398L20.6273 31.6303C21.0713 31.8668 21.4454 31.7352 21.6895 31.3633C21.9434 30.9761 21.9129 30.6014 21.5945 30.3928C20.588 29.7315 19.345 32.8061 17.4271 31.5244C16.3971 30.8477 16.378 29.6272 17.1256 28.4891C17.6608 27.6743 18.3544 27.2248 19.084 27.2281H19.0845ZM15.8089 33.3173C16.0154 33.332 16.2295 33.367 16.449 33.4456L15.7898 35.0288C15.3944 34.8933 15.0498 35.0708 14.8773 35.4613C14.7227 35.8086 14.7915 36.1483 15.1684 36.3051C16.212 36.7392 16.9771 33.5761 18.9873 34.4128C19.9965 34.8327 20.5072 35.9687 19.9234 37.3711C19.3854 38.6626 18.3238 39.4053 17.0918 38.9422L17.7395 37.3853C18.2189 37.5349 18.5624 37.3361 18.7334 36.926C18.9114 36.4984 18.812 36.1358 18.4614 35.9899C17.349 35.5268 16.698 38.7784 14.5753 37.8746C13.4377 37.4011 13.1931 36.2051 13.7162 34.9474C14.1586 33.8841 14.9133 33.2823 15.8089 33.3178V33.3173ZM85.4843 33.3817L86.9943 37.068L85.8201 37.5486L84.9103 35.3281L83.6925 35.8272L84.4969 37.7905L83.3653 38.2547L82.5609 36.2903L81.241 36.8315L82.1508 39.052L80.9761 39.5337L79.4661 35.8469L85.4843 33.3817ZM49.9716 35.1309C45.9577 35.1309 42.728 38.3623 42.728 42.3762V47.5577H42.0612H39.6768C39.3022 47.5577 39.0002 47.8592 39.0002 48.2322V64.1923C39.0002 64.5653 39.3022 64.8673 39.6768 64.8673H42.0612H43.7421H56.0968H57.7767H60.268C60.6421 64.8673 60.943 64.5653 60.943 64.1923V48.2322C60.943 47.8592 60.6421 47.5577 60.268 47.5577H57.7767H57.2174V42.3762C57.2174 38.3623 53.9855 35.1309 49.9716 35.1309ZM49.9716 38.1509C52.3603 38.1509 54.2832 40.0754 54.2832 42.4636V44.5541V47.3245V47.5561H45.66V47.3245V44.5541V42.4636C45.66 40.0754 47.5829 38.1509 49.9716 38.1509ZM14.2951 46.0068L15.4846 48.7783L18.4958 49.0606L16.2251 51.0507L16.8842 53.9964L14.2902 52.4542L11.6923 53.9964L12.3581 51.0507L10.0911 49.0574L13.0964 48.7805L14.2951 46.0068ZM85.6295 46.0068L86.8239 48.7783L89.828 49.0606L87.5617 51.0507L88.2252 53.9964L85.6295 52.4542L83.0328 53.9964L83.6952 51.0507L81.4299 49.0574L84.4352 48.7805L85.6295 46.0068ZM49.9716 51.925C51.1823 51.925 52.1643 52.9064 52.1643 54.1176C52.1643 54.6872 51.9414 55.2323 51.5504 55.6386C51.4658 55.7259 51.4073 55.8887 51.4265 56.0094L52.0954 60.0828C52.1304 60.2996 51.9627 60.4995 51.7426 60.5001H48.2027C47.9821 60.5001 47.8128 60.3018 47.8489 60.0828L48.52 56.0094C48.5386 55.8854 48.4774 55.727 48.3933 55.6386C48.0018 55.2323 47.7795 54.6872 47.7795 54.1176C47.7795 52.9064 48.7609 51.925 49.9716 51.925ZM80.9876 60.6382L82.1601 61.1254L81.2399 63.3409L82.455 63.8456L83.2681 61.8861L84.3975 62.3547L83.5843 64.3147L84.9016 64.8619L85.8223 62.6452L86.9943 63.1323L85.4662 66.8115L79.4595 64.3168L80.9876 60.6382ZM17.7471 60.825C18.6252 60.7742 19.3772 61.4093 19.7999 62.4322C20.3411 63.7423 20.0555 64.893 18.9327 65.4271L18.2785 63.8434C18.6531 63.6582 18.7705 63.2885 18.616 62.8915C18.4794 62.5365 18.19 62.3459 17.8132 62.5016C16.7685 62.933 18.468 65.7094 16.4561 66.5412C15.4458 66.9589 14.2809 66.5182 13.7004 65.1142C13.1663 63.821 13.3908 62.5447 14.5889 61.9997L15.2333 63.5577C14.7888 63.792 14.6856 64.1749 14.8554 64.5855C15.0324 65.0137 15.36 65.2005 15.7112 65.0546C16.8242 64.5943 14.9827 61.8364 17.1218 60.9724C17.3353 60.8834 17.5445 60.837 17.7471 60.825ZM78.9375 65.4309L80.0084 66.1108L79.0854 67.5662L83.5051 70.3711L82.6559 71.7085L78.2368 68.9031L77.3128 70.3585L76.2413 69.6786L78.9375 65.4309ZM20.6661 66.5084C21.3837 66.5084 22.0756 66.9748 22.5862 67.7595C23.359 68.9479 23.2891 70.1313 22.2837 70.8626L21.3493 69.4263C21.6835 69.1756 21.731 68.7912 21.5065 68.4285C21.3072 68.1052 20.9872 67.9703 20.6453 68.1921C19.6978 68.8086 21.8784 71.2263 20.0533 72.4135C19.137 73.0093 17.9115 72.7892 17.0825 71.5157C16.3201 70.3432 16.3059 69.0478 17.3839 68.2915L18.303 69.7053C17.9093 70.0172 17.8787 70.4126 18.1212 70.7856C18.3735 71.1733 18.7296 71.2956 19.0479 71.0886C20.0577 70.4317 17.7405 68.0588 19.6847 66.817C20.0075 66.6067 20.3395 66.5095 20.6661 66.5084ZM24.8089 71.0007L25.8842 72.1639L22.0068 75.7481L23.4152 77.2728L22.5168 78.1029L20.0331 75.4155L24.8089 71.0007ZM74.2797 71.9373L80.6107 74.7214L79.4541 75.9349L78.3542 75.4242L76.6793 77.1811L77.2418 78.2553L76.0982 79.4557L73.0138 73.2655L74.2797 71.9373ZM74.9077 73.8159L76.0818 76.0359L77.1872 74.8754L74.9077 73.8159ZM69.9861 76.4662C70.7348 76.4356 71.4639 76.6956 72.0783 77.2368L70.6333 78.2083C70.1003 77.8976 69.5378 77.9407 69.0381 78.2766C68.2304 78.8194 68.0802 79.791 68.7213 80.7445C69.3619 81.698 70.3187 81.9263 71.1259 81.3834C71.6261 81.0476 71.8784 80.5424 71.791 79.9313L73.2366 78.9598C73.715 80.3349 73.2218 81.7013 71.9423 82.5647C70.3509 83.6345 68.469 83.2588 67.3833 81.6439V81.6428C66.2977 80.028 66.6554 78.1357 68.2473 77.0659C68.8087 76.688 69.4034 76.4897 69.9861 76.4662ZM30.9953 77.2925C31.6173 77.2717 32.2633 77.4427 32.8761 77.82C34.1933 78.631 34.7307 79.9848 34.308 81.3785L32.8247 80.4654C32.8875 79.851 32.6145 79.3568 32.1017 79.0412C31.2732 78.5311 30.3268 78.7965 29.7245 79.7746C29.1221 80.7527 29.3105 81.7182 30.1395 82.2283C30.6518 82.5401 31.2164 82.5609 31.7363 82.2283L33.2196 83.1414C32.1656 84.1462 30.72 84.268 29.4023 83.4565C27.7694 82.4511 27.3314 80.5828 28.3515 78.9259C28.9888 77.8905 29.9593 77.3231 30.9953 77.2887V77.2925ZM64.2907 79.4393L66.9852 85.3586L65.5429 86.0156L62.849 80.0952L64.2907 79.4393ZM36.6623 79.9559L40.3906 81.3594L39.9439 82.5467L37.6983 81.7018L37.2346 82.9333L39.2208 83.6804L38.7899 84.825L36.8043 84.078L36.3018 85.4138L38.548 86.2586L38.1007 87.4469L34.3719 86.0434L36.6623 79.9559ZM61.4908 80.7117L61.8534 81.9285L59.3151 82.6854L59.7066 83.9999L61.6066 83.4325L61.9588 84.6131L60.0589 85.1806L60.8114 87.702L59.2938 88.1547L57.4337 81.9224L61.4908 80.7117ZM41.7395 81.7701L44.3559 82.2463C45.9238 82.5319 46.5442 83.5761 46.3416 84.6885C46.1958 85.4902 45.6202 86.1685 44.5826 86.2804L45.5983 89.0831L43.8393 88.7631L42.948 86.1051L42.5745 86.0369L42.1349 88.4529L40.5757 88.1689L41.7395 81.7701ZM55.6648 82.2392L56.6495 88.668L55.0832 88.9078L54.0986 82.4784L55.6648 82.2392ZM52.7126 82.7072L52.7273 83.9764L51.0043 83.9911L51.0403 89.2256L49.4566 89.2404L49.4189 84.0053L47.6959 84.0201L47.6812 82.7433L52.7126 82.7072ZM43.0633 83.3473L42.7744 84.9337L43.7415 85.1096C44.3248 85.2161 44.6525 84.9643 44.7437 84.4635C44.8294 83.9889 44.6126 83.6296 44.0294 83.5236L43.0633 83.3473Z" fill="#313131"/>
</svg>
