<svg width="58" height="41" viewBox="0 0 58 41" fill="none" xmlns="http://www.w3.org/2000/svg">
<path d="M56.8184 8.4375H1.42383" stroke="white" stroke-linecap="round"/>
<path d="M2.0037 27.3101C9.60435 24.0251 19.0085 22.0927 29.1213 22.0927C39.234 22.0927 48.5737 24.0251 56.1744 27.3101M56.4965 25.893C48.8314 22.4792 39.3628 20.4824 29.1213 20.4824C18.8797 20.4824 9.41111 22.4792 1.68164 25.893" stroke="white"/>
<path d="M5.93297 0.193237V1.61031H4.83796V7.40741H2.97001V1.61031H1.875V0.193237H5.93297ZM10.313 0.193237H11.6012C12.503 0.193237 13.0827 0.193237 13.4048 0.257649C13.7269 0.322061 13.9845 0.515298 14.1777 0.772947C14.371 1.09501 14.4998 1.54589 14.4998 2.1256C14.4998 2.70531 14.4354 3.09179 14.3066 3.28502C14.1133 3.47826 13.8557 3.60709 13.4692 3.60709C13.8557 3.73591 14.0489 3.80032 14.1777 3.99356C14.3066 4.12238 14.4354 4.31562 14.4354 4.44444C14.4998 4.57327 14.4998 4.89533 14.4998 5.47504V7.40741H12.7607V4.95974C12.7607 4.57327 12.6963 4.38003 12.6318 4.25121C12.5674 4.1868 12.4386 4.12238 12.181 4.12238V7.40741H10.313V0.193237ZM12.181 1.41707V3.02738C12.3742 3.02738 12.503 2.96296 12.6318 2.89855C12.6963 2.83414 12.7607 2.6409 12.7607 2.38325V1.93237C12.7607 1.73913 12.6963 1.54589 12.6318 1.48148C12.5674 1.41707 12.3742 1.41707 12.181 1.41707ZM23.3887 0.193237V5.02415C23.3887 5.53945 23.3887 5.92593 23.3243 6.18357C23.3243 6.37681 23.1954 6.63446 23.0022 6.8277C22.8734 7.08535 22.6157 7.27858 22.3581 7.34299C22.036 7.47182 21.714 7.53623 21.3275 7.53623C20.8766 7.53623 20.4901 7.47182 20.1681 7.34299C19.846 7.21417 19.5884 7.02093 19.4595 6.76328C19.2663 6.57005 19.2019 6.3124 19.1375 6.05475V0.193237H21.0054V5.60386C21.0054 5.92593 21.0054 6.11916 21.0698 6.18357C21.0698 6.24799 21.1343 6.3124 21.2631 6.3124C21.3919 6.3124 21.4563 6.24799 21.4563 6.18357C21.5207 6.05475 21.5207 5.86151 21.5207 5.47504V0.193237H23.3887ZM32.0199 2.38325H30.2808V1.80354C30.2808 1.54589 30.2808 1.41707 30.2164 1.35266C30.152 1.28824 30.0876 1.22383 30.0231 1.22383C29.8943 1.22383 29.7655 1.28824 29.7655 1.35266C29.7011 1.48148 29.6367 1.61031 29.6367 1.80354C29.6367 2.06119 29.7011 2.19002 29.7655 2.31884C29.8299 2.44766 29.9587 2.6409 30.2808 2.76973C31.1182 3.28502 31.6335 3.6715 31.8267 3.99356C32.0843 4.31562 32.2132 4.83092 32.2132 5.53945C32.2132 6.05475 32.1488 6.44122 32.0199 6.69887C31.8911 6.95652 31.6335 7.14976 31.3114 7.27858C30.9893 7.47182 30.5384 7.53623 30.0876 7.53623C29.5723 7.53623 29.1858 7.47182 28.7993 7.27858C28.4773 7.08535 28.2196 6.8277 28.0908 6.50564C28.0264 6.24799 27.962 5.7971 27.962 5.2818V4.83092H29.7011V5.66828C29.7011 5.92593 29.7011 6.11916 29.7655 6.18357C29.8299 6.3124 29.8943 6.3124 30.0231 6.3124C30.152 6.3124 30.2164 6.24799 30.2808 6.18357C30.3452 6.05475 30.4096 5.92593 30.4096 5.73269C30.4096 5.34622 30.3452 5.02415 30.2164 4.89533C30.0876 4.76651 29.8299 4.57327 29.3146 4.25121C28.8637 3.92915 28.5417 3.73591 28.4128 3.54267C28.284 3.41385 28.1552 3.22061 28.0264 2.96296C27.962 2.76973 27.8975 2.44766 27.8975 2.06119C27.8975 1.48148 27.962 1.09501 28.0908 0.837359C28.2196 0.57971 28.4773 0.386473 28.7993 0.257649C29.1214 0.0644122 29.5078 0 29.9587 0C30.4096 0 30.8605 0.0644122 31.1826 0.257649C31.5046 0.386473 31.7623 0.57971 31.8267 0.837359C31.9555 1.09501 32.0199 1.48148 32.0199 2.06119V2.38325ZM40.4579 0.193237V1.61031H39.3629V7.40741H37.495V1.61031H36.4V0.193237H40.4579ZM44.838 0.193237H47.9297V1.61031H46.7059V2.96296H47.8653V4.38003H46.7059V5.92593H48.0586V7.40741H44.838V0.193237ZM52.5674 0.193237H53.9201C54.8219 0.193237 55.466 0.193237 55.788 0.257649C56.1101 0.386473 56.3678 0.515298 56.4966 0.708535C56.6898 0.901771 56.8186 1.09501 56.8186 1.35266C56.883 1.54589 56.883 1.99678 56.883 2.70531V5.21739C56.883 5.92593 56.883 6.3124 56.8186 6.57005C56.7542 6.76328 56.6254 6.95652 56.4966 7.08535C56.3033 7.21417 56.1101 7.27858 55.9169 7.34299C55.7236 7.34299 55.3372 7.40741 54.8863 7.40741H52.5674V0.193237ZM54.4354 1.41707V6.18357C54.693 6.18357 54.8219 6.11916 54.8863 5.99034C54.9507 5.86151 55.0151 5.60386 55.0151 5.08857V2.31884C55.0151 1.99678 55.0151 1.73913 54.9507 1.67472C54.9507 1.54589 54.8863 1.48148 54.8219 1.48148C54.7574 1.41707 54.6286 1.41707 54.4354 1.41707Z" fill="white"/>
<path d="M9.3469 13.527L6.25511 13.7203V12.8829C6.25511 12.4965 6.1907 12.2388 6.12629 12.11C6.06188 12.0456 5.93305 11.9812 5.73982 11.9812C5.54658 11.9812 5.35334 12.0456 5.28893 12.2388C5.16011 12.3676 5.09569 12.6253 5.09569 12.8829C5.09569 13.3338 5.16011 13.5915 5.28893 13.7847C5.41775 13.9779 5.73982 14.1712 6.25511 14.4288C7.7366 15.0729 8.63837 15.5882 9.02484 16.0391C9.41131 16.4256 9.60455 17.1985 9.60455 18.2291C9.60455 19.0021 9.47573 19.5818 9.28249 20.0327C9.08925 20.4192 8.63837 20.8056 8.05866 21.1921C7.41453 21.643 6.706 21.9006 5.93305 22.1583C5.03128 22.4159 4.25833 22.4803 3.61421 22.3515C2.97009 22.2227 2.58362 21.9006 2.39038 21.4498C2.19714 20.9989 2.13273 20.2259 2.13273 19.3241V18.4868C3.16333 18.2291 4.19392 18.0359 5.22452 17.8427V19.2597C5.22452 19.7106 5.22452 20.0327 5.35334 20.0971C5.41775 20.2259 5.54658 20.2259 5.80423 20.2259C5.99746 20.1615 6.1907 20.0327 6.25511 19.8394C6.38394 19.6462 6.44835 19.453 6.44835 19.1309C6.44835 18.4224 6.31953 18.0359 6.12629 17.8427C5.93305 17.6494 5.41775 17.3918 4.5804 17.0053C3.74304 16.6832 3.22774 16.3612 2.97009 16.1679C2.64803 15.9747 2.45479 15.6527 2.26156 15.2018C2.06832 14.8153 2.00391 14.2356 2.00391 13.5915C2.00391 12.6253 2.13273 11.8523 2.39038 11.4014C2.64803 10.9506 3.0345 10.6285 3.61421 10.3708C4.12951 10.1132 4.83804 9.98438 5.61099 9.98438C6.51276 9.98438 7.2213 10.1132 7.80101 10.3708C8.44513 10.5641 8.8316 10.8861 9.02484 11.2726C9.21808 11.5947 9.3469 12.1744 9.3469 13.0762V13.527ZM13.2116 10.1776H18.7511V12.0456C17.9781 12.0456 17.2696 12.11 16.4967 12.11V13.9135C17.2052 13.9135 17.9137 13.8491 18.6223 13.8491V15.6527C17.9137 15.6527 17.2052 15.7171 16.4967 15.7815V17.9071C17.334 17.7783 18.1714 17.7138 18.9443 17.6494V19.5174C17.012 19.775 15.144 20.0327 13.2116 20.2903V10.1776ZM25.772 10.1776V17.3274C26.4161 17.3274 27.1247 17.263 27.7688 17.263V19.0665C26.0297 19.0665 24.2261 19.1309 22.4226 19.2597V10.1776H25.772ZM34.4677 10.1776V17.3918C35.1118 17.3918 35.8203 17.4562 36.4645 17.4562V19.2597C34.6609 19.1953 32.9218 19.1309 31.1182 19.0665V10.1776H34.4677ZM39.8139 10.1776H45.3533V12.2388C44.6448 12.1744 43.8719 12.1744 43.1633 12.11V13.9779C43.8074 14.0423 44.516 14.1068 45.2245 14.1068V16.0391C44.516 15.9747 43.8074 15.9103 43.1633 15.8459V18.0359C43.9363 18.1003 44.7736 18.2291 45.611 18.2936V20.3547C43.6786 20.0327 41.7463 19.775 39.8139 19.5818V10.1776ZM49.0248 10.1776C49.8622 10.1776 50.6351 10.242 51.4081 10.242C52.954 10.242 54.049 10.3064 54.6287 10.4353C55.144 10.4997 55.5949 10.8217 55.9814 11.337C56.3034 11.8523 56.4967 12.6253 56.4967 13.7203C56.4967 14.7509 56.3678 15.395 56.1102 15.7171C55.8525 15.9747 55.4016 16.1035 54.6287 16.1035C55.3372 16.3612 55.7881 16.6188 55.9814 16.9409C56.239 17.263 56.3678 17.5206 56.4322 17.7783C56.4322 18.0359 56.4967 18.6156 56.4967 19.7106V23.0601L53.4049 22.0939V18.1647C53.4049 17.5206 53.3405 17.1341 53.2116 16.9409C53.1472 16.8121 52.8252 16.6832 52.3743 16.6188V21.8362C51.2793 21.5786 50.1843 21.2565 49.0248 20.9989V10.1776ZM52.3743 12.1744V14.8153C52.7607 14.8153 53.0184 14.8153 53.1472 14.7509C53.3405 14.6865 53.4049 14.3644 53.4049 13.8491V13.205C53.4049 12.8185 53.3405 12.5609 53.1472 12.432C53.0184 12.3032 52.7607 12.2388 52.3743 12.1744Z" fill="white"/>
<path d="M53.3388 27.3747C50.1826 34.0736 40.714 38.9689 29.5707 38.9689C18.2342 38.9689 8.63675 33.8803 5.60938 26.9238" stroke="white"/>
<path d="M54.6282 27.9548C51.15 34.9113 41.2305 39.9998 29.5719 39.9998C17.6556 39.9998 7.54288 34.6536 4.32227 27.4395" stroke="white"/>
<path d="M29.8297 24.2188L31.44 29.1141H36.593L32.4062 32.1415L34.0165 37.1012L29.8297 34.0094L25.7073 37.1012L27.3177 32.1415L23.1309 29.1141H28.2838L29.8297 24.2188Z" fill="white"/>
<path d="M16.9468 26.9883L17.8485 29.8224L20.8115 29.758L18.4282 31.4971L19.33 34.3313L16.9468 32.5921L14.5635 34.3313L15.5297 31.4971L13.082 29.758L16.045 29.8224L16.9468 26.9883Z" fill="white"/>
<path d="M42.7768 26.9883L43.6786 29.8224L46.5772 29.758L44.1939 31.4971L45.1601 34.3313L42.7768 32.5921L40.3936 34.3313L41.2954 31.4971L38.9121 29.758L41.8751 29.8224L42.7768 26.9883Z" fill="white"/>
</svg>
