<svg width="59" height="40" viewBox="0 0 59 40" fill="none" xmlns="http://www.w3.org/2000/svg">
<rect x="0.833984" y="0.5" width="57.3333" height="39" rx="3.5" fill="white" stroke="white"/>
<g clip-path="url(#clip0_2096_3415)">
<path d="M29.8778 33.0751C30.119 32.9592 36.3901 30.3509 38.3799 28.786C40.4301 27.163 41.5154 24.8446 41.5154 22.0624V9.02111L41.3345 8.96315C36.3298 6.35489 30.119 6.52877 29.8175 6.52877C29.5763 6.52877 23.3656 6.35489 18.3608 8.96315L18.2402 9.02111V22.1204C18.2402 24.9025 19.3256 27.221 21.3758 28.8439C23.3656 30.4089 29.6366 33.0171 29.8778 33.0751Z" fill="#341B14"/>
<path d="M29.8788 33.3649C29.8788 33.3649 23.246 30.5828 21.1958 29.0178C19.0251 27.279 18 24.9026 18 22.1784V8.61541C23.246 5.89122 29.8788 6.12307 29.8788 6.12307C29.8788 6.12307 36.5116 5.89122 41.7576 8.61541V22.1204C41.7576 24.8446 40.7325 27.221 38.5618 28.9599C36.5116 30.5828 29.8788 33.3649 29.8788 33.3649ZM18.9648 22.1784C18.9648 24.7287 19.9295 26.8153 21.7988 28.2643C23.4872 29.5974 28.4919 31.742 29.8788 32.3216C31.2657 31.742 36.3307 29.5395 37.9588 28.2643C39.828 26.8153 40.7928 24.6707 40.7928 22.1784V8.84726C33.7982 8.20968 25.477 8.55745 18.9648 14.3536V22.1784Z" fill="#FFB406"/>
<path d="M36.5723 20.2665C37.4768 20.7881 37.8386 21.1359 37.8989 21.7735C37.8989 22.469 37.4165 22.8747 36.6326 22.8747C35.9693 22.8747 35.1854 22.527 34.6428 22.0633V23.918C35.306 24.2658 36.0899 24.5556 36.9341 24.5556C38.9842 24.5556 39.949 23.1645 39.949 21.8894C40.0093 20.7302 39.6475 19.8028 37.8989 18.8174C37.115 18.3537 36.512 18.0639 36.512 17.3684C36.512 16.6728 37.1753 16.383 37.718 16.383C38.4416 16.383 39.1651 16.7888 39.5872 17.1945V15.4557C39.2254 15.1659 38.4416 14.7601 37.2959 14.8181C35.909 14.876 34.4619 15.8034 34.4619 17.4263C34.5222 18.5276 34.8839 19.3391 36.5723 20.2665ZM29.4571 24.4397C29.638 24.4976 29.9395 24.5556 30.4219 24.5556C32.7735 24.5556 34.1001 22.527 34.1001 19.6289C34.1001 16.6729 32.7132 14.876 30.241 14.876C29.0953 14.876 28.1908 15.1079 27.4069 15.5716V28.6709H29.4571V24.4397ZM29.4571 16.5569C29.638 16.499 29.9395 16.383 30.1807 16.383C31.3866 16.383 31.869 17.3104 31.869 19.5709C31.869 21.7735 31.266 22.8168 30.0601 22.8168C29.7586 22.8168 29.5174 22.7588 29.3968 22.7008V16.5569H29.4571ZM23.1258 24.5556C24.392 24.5556 25.4774 24.2658 26.2613 23.7441V14.992H24.1508V22.5849C23.9096 22.7588 23.6081 22.8168 23.1861 22.8168C22.2213 22.8168 22.1007 21.9473 22.1007 21.4257V14.992H19.9902V21.3098C19.9902 23.4543 21.0756 24.5556 23.1258 24.5556ZM37.1753 32.3804V33.7135H37.4165V33.1919H37.4768L37.8386 33.7135H38.1401C38.1401 33.7135 37.7783 33.1919 37.718 33.1339C37.8989 33.0759 38.0195 32.96 38.0195 32.7861C38.0195 32.6122 37.8989 32.3804 37.5371 32.3804H37.1753ZM37.5371 32.5543C37.718 32.5543 37.7783 32.6702 37.7783 32.7282C37.7783 32.8441 37.718 32.96 37.4768 32.96H37.4165V32.5543H37.5371Z" fill="#FFB406"/>
<path d="M38.5013 33.0173C38.5013 33.481 38.0792 33.8867 37.5968 33.8867C37.1145 33.8867 36.6924 33.481 36.6924 33.0173C36.6924 32.5536 37.1145 32.1479 37.5968 32.1479C38.1395 32.1479 38.5013 32.5536 38.5013 33.0173ZM37.5968 31.916C36.9939 31.916 36.4512 32.3797 36.4512 33.0173C36.4512 33.5969 36.9336 34.1185 37.5968 34.1185C38.1998 34.1185 38.7425 33.6549 38.7425 33.0173C38.7425 32.4377 38.1998 31.916 37.5968 31.916Z" fill="#FFB406"/>
</g>
<defs>
<clipPath id="clip0_2096_3415">
<rect width="23.7576" height="28" fill="white" transform="translate(18 6.12109)"/>
</clipPath>
</defs>
</svg>
