<svg width="60" height="40" viewBox="0 0 60 40" fill="none" xmlns="http://www.w3.org/2000/svg">
<rect x="1.24805" y="0.5" width="57.3333" height="39" rx="3.5" fill="white" stroke="white"/>
<path fill-rule="evenodd" clip-rule="evenodd" d="M18.4568 27.0974H14.9229L12.273 16.9876C12.1472 16.5226 11.8801 16.1114 11.4873 15.9177C10.5069 15.4307 9.42658 15.0432 8.24805 14.8477V14.4585H13.9408C14.7265 14.4585 15.3158 15.0432 15.414 15.7222L16.7889 23.0147L20.3211 14.4585H23.7568L18.4568 27.0974ZM25.721 27.0974H22.3835L25.1317 14.4585H28.4692L25.721 27.0974ZM32.787 17.9598C32.8852 17.2791 33.4745 16.8899 34.1619 16.8899C35.2423 16.7922 36.4191 16.9876 37.4012 17.4729L37.9904 14.7517C37.0083 14.3624 35.928 14.167 34.9476 14.167C31.7084 14.167 29.3513 15.9177 29.3513 18.3474C29.3513 20.1958 31.0209 21.1663 32.1995 21.751C33.4745 22.334 33.9655 22.7232 33.8673 23.3062C33.8673 24.1807 32.8852 24.57 31.9048 24.57C30.7263 24.57 29.5478 24.2785 28.4692 23.7915L27.8799 26.5144C29.0584 26.9997 30.3334 27.1951 31.512 27.1951C35.1441 27.2912 37.4012 25.5422 37.4012 22.917C37.4012 19.6111 32.787 19.4173 32.787 17.9598ZM49.0814 27.0974L46.4314 14.4585H43.585C42.9957 14.4585 42.4065 14.8477 42.2101 15.4307L37.303 27.0974H40.7386L41.4244 25.2507H45.6457L46.0386 27.0974H49.0814ZM44.0761 17.8621L45.0564 22.6255H42.3083L44.0761 17.8621Z" fill="#172B85"/>
</svg>
