<svg width="36" height="36" viewBox="0 0 36 36" fill="none" xmlns="http://www.w3.org/2000/svg">
<g clip-path="url(#clip0_4160_3812)">
<path d="M35.6004 18C35.6004 8.27981 27.7206 0.400024 18.0004 0.400024C8.28018 0.400024 0.400391 8.27981 0.400391 18C0.400391 27.7202 8.28018 35.6 18.0004 35.6C27.7206 35.6 35.6004 27.7202 35.6004 18Z" stroke="white"/>
<path d="M20.2184 17.156L23.2008 10.4M16.2536 17.3056L12.8008 10.4M19.0096 16.8384L15.8688 10.4M20.2888 10.4L19.4568 12.4M13.6008 21.6C13.6008 22.5494 13.8823 23.4774 14.4097 24.2668C14.9372 25.0561 15.6868 25.6713 16.5639 26.0346C17.441 26.3979 18.4061 26.493 19.3372 26.3078C20.2683 26.1226 21.1236 25.6654 21.7949 24.9941C22.4662 24.3228 22.9233 23.4676 23.1086 22.5365C23.2938 21.6053 23.1987 20.6402 22.8354 19.7631C22.4721 18.8861 21.8569 18.1364 21.0675 17.609C20.2782 17.0815 19.3501 16.8 18.4008 16.8C17.1277 16.8 15.9068 17.3057 15.0067 18.2059C14.1065 19.1061 13.6008 20.327 13.6008 21.6Z" stroke="white" stroke-linecap="round" stroke-linejoin="round"/>
<path d="M17.1992 20.8L18.7992 19.6V23.6" stroke="white" stroke-linecap="round" stroke-linejoin="round"/>
</g>
<defs>
<clipPath id="clip0_4160_3812">
<rect width="36" height="36" fill="white"/>
</clipPath>
</defs>
</svg>
