<svg width="119" height="26" viewBox="0 0 119 26" fill="none" xmlns="http://www.w3.org/2000/svg">
<path d="M11.4681 0.5C11.2795 0.5 11.0909 0.556215 10.9381 0.671108C8.27799 2.65693 3.73364 2.9468 0.978729 0.874889C0.549897 0.552351 0.20641 0.661974 0.159699 1.19708C-0.815971 12.3771 2.68071 17.7307 10.6016 25.0657C11.0782 25.5068 11.8583 25.5068 12.3349 25.0657C20.2554 17.7307 23.7524 12.3771 22.7768 1.19708C22.7311 0.661974 22.3866 0.552351 21.9577 0.874889C19.2028 2.9468 14.6585 2.65693 11.9984 0.671108C11.8456 0.557972 11.657 0.5 11.4681 0.5ZM54.2149 0.927593V12.8399H56.8181V8.22829H57.7752L60.3576 12.8399H63.4887L60.6825 7.99745C60.8665 7.93175 61.0544 7.87237 61.2227 7.77294C61.7407 7.46796 62.1457 7.03405 62.4259 6.48524C62.7062 5.92976 62.8442 5.29171 62.8442 4.57987C62.8442 3.86874 62.7055 3.23315 62.4259 2.68293C62.146 2.12956 61.7442 1.69248 61.2308 1.38716C60.7159 1.08148 60.1181 0.930054 59.455 0.930054H56.5951L54.2149 0.927593ZM75.5258 0.927593V12.8399H78.129V8.22829H79.0864L81.6689 12.8399H84.8L81.9934 7.99745C82.1778 7.93175 82.3653 7.87237 82.5339 7.77294C83.052 7.46796 83.4569 7.03405 83.7372 6.48524C84.0171 5.92976 84.1555 5.29171 84.1555 4.57987C84.1555 3.86874 84.0168 3.23315 83.7372 2.68293C83.4573 2.12956 83.0555 1.69248 82.5417 1.38716C82.0268 1.08148 81.4297 0.930054 80.7659 0.930054H77.906L75.5258 0.927593ZM43.1377 0.943754H41.4613L41.4065 1.0857L36.911 12.8464H39.7151L40.3585 11.0095H44.2398L44.8832 12.8464H47.6873L43.1377 0.943754ZM92.6805 0.943754H91.0042L90.949 1.0857L86.4538 12.8464H89.2576L89.9013 11.0095H93.7822L94.426 12.8464H97.2297L92.6805 0.943754ZM28.4886 0.943754V12.8472H31.0917V8.29996H35.5904V5.77516H31.0917V3.4682H36.4569V0.943754H30.8694H28.4886ZM49.2105 0.943754V12.8472H51.8923V0.943754H49.2105ZM64.5687 0.943754V3.4682H67.6885V12.8472H70.2917V3.4682H73.4115V0.943754H64.5687ZM99.3142 0.943754V12.8472H103.318C104.326 12.8472 105.191 12.6717 105.908 12.3105C106.619 11.9518 107.164 11.4409 107.522 10.7872C107.883 10.1358 108.062 9.37579 108.062 8.52061V5.27344C108.062 4.37679 107.878 3.59399 107.504 2.94048C107.13 2.28697 106.576 1.78383 105.863 1.44654C105.153 1.10854 104.306 0.944811 103.325 0.944811H101.694L99.3142 0.943754ZM110.306 0.943754V12.8472H118.424V10.3234H112.909V8.19807H117.557V5.67292H112.909V3.4682H118.424V0.943754H112.687H110.306ZM56.8181 3.47558H59.2822C59.4719 3.47558 59.6211 3.51915 59.7511 3.60488C59.8821 3.69025 59.9811 3.81042 60.0559 3.98152C60.1353 4.15228 60.1764 4.35536 60.1764 4.59533C60.1764 4.83706 60.1276 5.04119 60.0482 5.21335C59.9738 5.38552 59.874 5.50427 59.7434 5.59C59.6124 5.67573 59.4659 5.71859 59.2826 5.71859H56.8181V3.47558ZM78.129 3.47558H80.5935C80.7828 3.47558 80.9324 3.51915 81.0623 3.60488C81.1934 3.69025 81.2924 3.81007 81.3672 3.98152C81.4462 4.15228 81.4877 4.35536 81.4877 4.59533C81.4877 4.83706 81.4389 5.04119 81.3595 5.21335C81.2847 5.38552 81.1853 5.50427 81.0546 5.59C80.9233 5.67573 80.7768 5.71859 80.5938 5.71859H78.1294L78.129 3.47558ZM101.917 3.49174H103.373C104.046 3.49174 104.535 3.6502 104.873 3.94744C105.211 4.24504 105.381 4.6519 105.381 5.23092V8.60458C105.381 9.18396 105.211 9.59047 104.873 9.88736C104.535 10.1853 104.046 10.3455 103.373 10.3455H101.917V3.49174ZM42.2997 5.49373L43.3561 8.50796H41.2432L42.2997 5.49373ZM91.8421 5.49373L92.8989 8.50796H90.7857L91.8421 5.49373ZM15.245 7.3724C15.3353 7.37064 15.4217 7.40824 15.4824 7.47499L16.8862 9.02691C17.0011 9.15479 16.9909 9.3512 16.8634 9.46609C14.7533 11.3744 12.9828 13.5026 11.5776 15.9081L10.8095 17.2244C10.7576 17.3127 10.6655 17.3698 10.5633 17.3771C10.4615 17.3843 10.3621 17.3408 10.2982 17.2607L9.34744 16.0707C8.53578 15.0554 7.62298 14.1991 6.64836 13.3295C6.58655 13.2744 6.54932 13.1971 6.54475 13.1146C6.54019 13.0321 6.56864 12.9512 6.62378 12.8896L8.01669 11.3284C8.12978 11.1999 8.32576 11.1873 8.45465 11.3001C9.06401 11.8441 9.65194 12.4885 10.2374 13.1168C11.6117 11.054 13.1792 9.13582 15.0441 7.44934C15.0971 7.40156 15.1646 7.37345 15.2355 7.36994C15.2387 7.36959 15.2415 7.36959 15.2447 7.36994L15.245 7.3724ZM31.365 17.3814C30.7598 17.3814 30.2425 17.4988 29.8123 17.732C29.382 17.9652 29.0537 18.3046 28.8275 18.7493C28.6016 19.1908 28.4886 19.725 28.4886 20.3526V22.5349C28.4886 23.1623 28.6016 23.6986 28.8275 24.1437C29.0537 24.5848 29.382 24.9221 29.8123 25.1554C30.2425 25.3858 30.7598 25.5 31.365 25.5C31.8648 25.5 32.3098 25.3931 32.7 25.1776C33.0937 24.9625 33.4175 24.6506 33.6728 24.2422C33.9317 23.8298 34.1118 23.3339 34.214 22.754H32.661C32.6062 23.0203 32.5194 23.2467 32.3986 23.4327C32.2781 23.6183 32.131 23.7608 31.9561 23.8588C31.7808 23.9537 31.5838 24.0008 31.365 24.0008C31.0844 24.0008 30.8459 23.9439 30.6489 23.8306C30.4522 23.7148 30.3008 23.5457 30.1954 23.3269C30.0932 23.1082 30.0416 22.8439 30.0416 22.534V20.3509C30.0416 20.041 30.0936 19.7771 30.1954 19.5579C30.3005 19.336 30.4522 19.1673 30.6489 19.0544C30.8459 18.9386 31.0844 18.8804 31.365 18.8804C31.5803 18.8804 31.7738 18.9292 31.9452 19.0285C32.1201 19.1273 32.2676 19.2682 32.3877 19.4538C32.5113 19.6403 32.603 19.8646 32.661 20.1269H34.214C34.115 19.547 33.9373 19.0535 33.6784 18.6456C33.4231 18.2331 33.0989 17.9192 32.7052 17.7045C32.3115 17.4886 31.8648 17.3805 31.365 17.3805V17.3814ZM36.4365 17.46V25.4141H41.7623V23.9702H37.9348V22.1866H41.161V20.742H37.9348V18.9039H41.7623V17.46H37.9348H36.4365ZM44.0937 17.46V25.4197H45.5919V22.2205H46.5019L48.2935 25.4197H50.1096L48.2085 22.1402C48.3925 22.0914 48.566 22.0196 48.7262 21.9251C49.0616 21.7282 49.3197 21.451 49.502 21.0934C49.6843 20.7323 49.7756 20.3142 49.7756 19.8405C49.7756 19.3659 49.6839 18.9507 49.502 18.5936C49.3197 18.2324 49.0626 17.9528 48.7307 17.7563C48.3992 17.5589 48.015 17.4608 47.5773 17.4608H45.5919L44.0937 17.46ZM51.2644 17.46V18.9039H53.4303V25.4141H54.9286V18.9039H57.0945V17.46H51.2644ZM58.8239 17.46V25.4141H60.3766V17.46H58.8239ZM62.9812 17.46V25.4141H64.4798V22.2568H67.6028V20.8122H64.4798V18.9039H68.2037V17.46H64.4798H62.9812ZM70.2074 17.46V25.4141H71.7601V17.46H70.2074ZM74.3647 17.46V25.4141H79.6916V23.9702H75.8633V22.1866H79.0896V20.742H75.8633V18.9039H79.6916V17.46H75.8633H74.3647ZM82.0226 17.46V25.4141H84.6475C85.3296 25.4141 85.9052 25.295 86.3755 25.0585C86.8458 24.8217 87.1977 24.49 87.4313 24.0631C87.668 23.6365 87.7863 23.1361 87.7863 22.5635V20.3094C87.7863 19.7077 87.6645 19.1948 87.42 18.7675C87.1759 18.3414 86.818 18.0161 86.3478 17.7934C85.881 17.571 85.3159 17.46 84.6525 17.46H83.5212H82.0226ZM45.5919 18.8991H47.4569C47.6135 18.8991 47.7508 18.9353 47.8674 19.0136C47.9847 19.0898 48.0733 19.1988 48.1351 19.3413C48.2007 19.4832 48.2341 19.6475 48.2341 19.834C48.2341 20.0196 48.1962 20.1842 48.1305 20.3267C48.068 20.4699 47.9798 20.5781 47.8629 20.6543C47.7452 20.7306 47.6107 20.7686 47.4579 20.7686H45.593L45.5919 18.8991ZM83.5212 18.8991H84.6855C85.1775 18.8991 85.5589 19.018 85.8287 19.2545C86.0984 19.4914 86.2329 19.8276 86.2329 20.2618V22.6027C86.2329 23.0364 86.0987 23.3726 85.8287 23.6099C85.5589 23.8468 85.1775 23.9654 84.6855 23.9654H83.5212V18.8991Z" fill="white"/>
</svg>
