<svg width="123" height="122" viewBox="0 0 123 122" fill="none" xmlns="http://www.w3.org/2000/svg">
<path d="M50.4737 56.1003H48.5855C48.4793 55.7362 48.4135 55.2223 48.379 54.5886C47.6818 55.5864 46.4101 56.313 44.3289 56.313C40.3954 56.313 38.2363 53.3332 38.2363 49.462C38.2363 45.381 40.5614 42.3083 44.7777 42.3083C48.1561 42.3083 50.188 44.193 50.5366 46.5496H47.99C47.6489 45.4305 46.8036 44.3398 44.7388 44.3398C41.8257 44.3398 40.8756 46.7368 40.8756 49.3481C40.8756 51.8455 41.905 54.2545 44.7253 54.2545C47.417 54.2545 47.9811 52.4133 47.9811 50.8283V50.6979H44.7134V48.5856H50.4737V56.1003Z" fill="white"/>
<path d="M66.1009 50.7627C66.1009 48.3731 66.1338 45.7844 66.1936 44.2847H66.1069C65.4875 46.863 63.8431 51.8399 62.4531 56.1006H60.2568C59.2034 52.4631 57.5008 46.8301 56.8993 44.2503H56.8185C56.9307 45.8368 56.9846 48.7102 56.9846 51.0413V56.1006H54.6445V42.5064H58.4359C59.6598 46.2862 61.0856 51.0803 61.5136 53.0054H61.539C61.8681 51.3829 63.6112 46.2038 64.9024 42.5064H68.5651V56.1006H66.1009V50.7627Z" fill="white"/>
<path d="M74.819 49.2431C74.819 51.9952 76.0982 54.1975 78.6807 54.1975C81.477 54.1975 82.5154 51.8679 82.5154 49.2791C82.5154 46.5854 81.3364 44.4071 78.6522 44.4071C75.9845 44.4071 74.819 46.5105 74.819 49.2431ZM85.1547 49.2461C85.1547 53.014 82.9448 56.2964 78.5804 56.2964C74.4105 56.2964 72.1797 53.1982 72.1797 49.303C72.1797 45.3689 74.5796 42.3082 78.7599 42.3082C82.68 42.3082 85.1547 45.1247 85.1547 49.2461Z" fill="white"/>
<path d="M37.207 66.0962H46.4266V68.2086H39.6997V71.9105H46.0017V74.0229H39.6997V79.6919H37.207V66.0962Z" fill="white"/>
<path d="M52.1124 72.0049H54.7427C56.5112 72.0049 57.2309 71.3352 57.2309 70.0633C57.2309 68.8408 56.4334 68.1547 54.8579 68.1547H52.1124V72.0049ZM52.1124 74.0619V79.6919H49.6152V66.0962H55.3546C58.2573 66.0962 59.8148 67.6887 59.8148 69.7966C59.8148 71.6004 58.8153 72.6162 57.7246 73.0057C58.546 73.2708 59.544 74.0154 59.544 76.4244V77.0656C59.544 77.987 59.5335 79.0777 59.734 79.6919H57.3057C57.0633 79.1016 57.0393 78.0694 57.0393 76.6836V76.4529C57.0393 74.8124 56.6069 74.0619 54.3342 74.0619H52.1124Z" fill="white"/>
<path d="M72.5966 73.6589H66.0148V77.578H73.2639L72.9557 79.6919H63.5371V66.0962H72.8943V68.2086H66.0148V71.5465H72.5966V73.6589Z" fill="white"/>
<path d="M85.5145 73.6589H78.9328V77.578H86.1818L85.8736 79.6919H76.4551V66.0962H85.8123V68.2086H78.9328V71.5465H85.5145V73.6589Z" fill="white"/>
<path d="M26.3242 98.1637L30.4836 94.1532C30.0557 94.1007 29.3196 93.8146 28.9994 93.5959L29.4168 93.1929C29.8448 93.4296 30.5644 93.6243 31.2108 93.6663L31.5833 94.0528L26.8045 98.6626L26.3242 98.1637Z" fill="white" stroke="white" stroke-width="0.4"/>
<path d="M31.3979 98.5096C30.5855 99.4879 29.7925 100.833 30.7486 101.629C31.7211 102.438 32.8418 101.455 33.7305 100.382C34.5399 99.407 35.3135 98.0931 34.3739 97.3125C33.3968 96.5006 32.3286 97.3875 31.3979 98.5096ZM34.2871 100.842C33.2861 102.05 31.7466 103.241 30.3626 102.09C29.013 100.968 29.7791 99.3201 30.8399 98.0407C31.8932 96.7702 33.4058 95.726 34.7509 96.8436C36.093 97.9583 35.321 99.5942 34.2871 100.842Z" fill="white" stroke="white" stroke-width="0.4"/>
<path d="M36.4193 102.394C35.7445 103.471 35.1356 104.911 36.1889 105.572C37.2602 106.244 38.2402 105.122 38.9808 103.94C39.6526 102.866 40.2466 101.462 39.2112 100.812C38.1355 100.138 37.1929 101.158 36.4193 102.394ZM39.5927 104.322C38.7594 105.653 37.3918 107.037 35.8672 106.081C34.3815 105.148 34.9231 103.411 35.8059 102.003C36.6812 100.604 38.0427 99.368 39.5224 100.298C41.0007 101.226 40.4531 102.949 39.5927 104.322Z" fill="white" stroke="white" stroke-width="0.4"/>
<path d="M45.432 108.784C45.1357 109.502 45.248 110.159 45.8749 110.419C46.4718 110.666 47.0165 110.323 47.3277 109.569C47.6344 108.828 47.4818 108.204 46.8683 107.95C46.3207 107.723 45.7417 108.035 45.432 108.784ZM47.8887 109.801C47.4937 110.757 46.6708 111.344 45.6325 110.914C44.6495 110.507 44.4595 109.535 44.8604 108.565C45.2435 107.637 46.0798 107.028 47.0853 107.445C48.0488 107.843 48.3226 108.75 47.8887 109.801ZM42.3274 104.155C42.0281 104.878 42.1434 105.529 42.7703 105.789C43.3672 106.035 43.9119 105.693 44.2231 104.94C44.5328 104.189 44.3772 103.574 43.7622 103.319C43.2011 103.087 42.649 103.374 42.3274 104.155ZM44.7841 105.172C44.3861 106.135 43.5587 106.711 42.5279 106.284C41.5598 105.884 41.3384 104.943 41.7558 103.936C42.1389 103.006 42.9827 102.401 43.9807 102.814C44.9277 103.207 45.218 104.12 44.7841 105.172ZM41.2441 108.956L47.8094 104.528L48.4034 104.774L41.8441 109.205L41.2441 108.956Z" fill="white" stroke="white" stroke-width="0.4"/>
<path d="M54.2109 109.458C54.0029 111.012 54.6433 112.544 56.2293 112.756C57.9394 112.985 58.8296 111.674 59.0391 110.101C59.2486 108.538 58.6321 107.084 57.0267 106.868C55.339 106.643 54.4144 107.93 54.2109 109.458ZM59.7902 110.189C59.5373 112.09 58.2716 113.666 56.111 113.377C54.1196 113.112 53.1905 111.38 53.4568 109.388C53.7201 107.413 55.0607 105.967 57.1389 106.246C59.063 106.502 60.064 108.147 59.7902 110.189Z" fill="white" stroke="white" stroke-width="0.4"/>
<path d="M62.8891 109.944L64.502 109.896C65.6585 109.861 66.1702 109.412 66.1448 108.552C66.1209 107.744 65.5822 107.299 64.5558 107.331L62.8143 107.383L62.8891 109.944ZM62.9085 110.571L63.0028 113.758L62.2861 113.779L62.0781 106.776L64.6875 106.699C66.0924 106.657 66.8615 107.394 66.8929 108.49C66.9198 109.389 66.4111 109.972 65.687 110.171C66.3438 110.314 66.8435 110.75 66.8794 111.953L66.8884 112.236C66.9019 112.723 66.8899 113.361 67.0216 113.638L66.3139 113.659C66.1762 113.362 66.1792 112.808 66.1612 112.182L66.1568 112.015C66.1239 110.935 65.7977 110.484 64.496 110.523L62.9085 110.571Z" fill="white" stroke="white" stroke-width="0.4"/>
<path d="M75.5008 112.261L74.9427 112.369C74.8813 112.275 74.7946 111.947 74.6689 111.36C74.4908 111.891 74.0495 112.631 72.7029 112.891C70.7264 113.274 69.4068 111.968 69.0297 110.013C68.6332 107.956 69.4367 106.198 71.476 105.803C73.0096 105.506 74.1587 106.131 74.606 107.342L73.9043 107.478C73.4689 106.648 72.7373 106.195 71.5748 106.42C69.9125 106.741 69.4487 108.188 69.7659 109.833C70.0561 111.336 71.0242 112.578 72.6445 112.264C74.2814 111.947 74.5103 110.786 74.2484 109.425L74.2335 109.351L72.1433 109.754L72.0236 109.132L74.7946 108.595L75.5008 112.261Z" fill="white" stroke="white" stroke-width="0.4"/>
<path d="M81.0251 107.372C79.6501 105.782 78.9424 104.99 78.6311 104.573L78.6222 104.578C78.6581 105.16 78.6805 106.45 78.7239 108.238L81.0251 107.372ZM78.7463 108.906L78.7718 111.328L78.0985 111.582L78.0117 104.133L78.8227 103.827L83.7556 109.454L83.0345 109.725L81.441 107.893L78.7463 108.906Z" fill="white" stroke="white" stroke-width="0.4"/>
<path d="M86.0735 108.276L82.5664 102.215L83.4267 101.716C85.1668 102.627 89.0958 104.646 89.8394 105.094L89.8484 105.09C89.3127 104.29 88.7876 103.365 88.216 102.377L86.7273 99.8014L87.3303 99.4523L90.8374 105.514L90.0354 105.978C88.3926 105.111 84.3035 102.944 83.506 102.509L83.4955 102.515C83.9728 103.238 84.516 104.189 85.1518 105.286L86.678 107.926L86.0735 108.276Z" fill="white" stroke="white" stroke-width="0.4"/>
<path d="M89.7697 97.5944L93.9995 103.175L93.4294 103.606L89.2012 98.0259L89.7697 97.5944Z" fill="white" stroke="white" stroke-width="0.4"/>
<path d="M98.9945 96.1305C99.554 97.1822 99.5361 98.3912 98.4319 99.4489C96.9537 100.866 95.0879 100.445 93.7234 99.0189C92.4127 97.6496 91.9803 95.681 93.4825 94.2413C94.6181 93.1522 95.8749 93.1746 96.8414 93.8698L96.3252 94.3642C95.5338 93.9537 94.7288 93.9102 93.8895 94.7147C92.697 95.8578 93.2431 97.4219 94.2575 98.4826C95.254 99.5253 96.7861 100.163 98.0204 98.9785C98.8239 98.2084 98.791 97.4054 98.4783 96.6279L98.9945 96.1305Z" fill="white" stroke="white" stroke-width="0.4"/>
<path d="M29.8197 28.6616L25.6648 24.6466C25.6289 25.0766 25.37 25.8241 25.1635 26.1522L24.7461 25.7477C24.966 25.3118 25.1336 24.5837 25.1531 23.9365L25.5256 23.5499L30.3 28.1642L29.8197 28.6616Z" fill="white" stroke="white" stroke-width="0.4"/>
<path d="M30.1345 23.7854C30.944 24.7637 32.117 25.7959 33.0745 25.0004C34.0486 24.1929 33.2915 22.909 32.4028 21.8364C31.5963 20.8596 30.4517 19.8543 29.5091 20.6348C28.5321 21.4453 29.2039 22.6618 30.1345 23.7854ZM32.9579 21.3734C33.9573 22.5824 34.8415 24.3173 33.4561 25.4664C32.105 26.587 30.6283 25.5263 29.569 24.2454C28.5171 22.9749 27.7735 21.2925 29.1201 20.1764C30.4637 19.0618 31.9255 20.124 32.9579 21.3734Z" fill="white" stroke="white" stroke-width="0.4"/>
<path d="M35.1137 19.9397C35.787 21.0184 36.8133 22.1944 37.8682 21.5352C38.9394 20.8641 38.3589 19.4903 37.6213 18.3082C36.9495 17.2341 35.9485 16.085 34.9117 16.7352C33.8359 17.4079 34.3416 18.7022 35.1137 19.9397ZM38.2317 17.9232C39.0636 19.2551 39.71 21.0918 38.1838 22.0476C36.6966 22.978 35.374 21.7315 34.4927 20.3217C33.619 18.9225 33.1028 17.1562 34.5855 16.2288C36.0637 15.3015 37.3729 16.5494 38.2317 17.9232Z" fill="white" stroke="white" stroke-width="0.4"/>
<path d="M45.2383 16.434C45.533 17.1516 46.0761 17.5381 46.7045 17.2805C47.3 17.0348 47.4452 16.4056 47.1355 15.652C46.8302 14.9089 46.2841 14.5748 45.6677 14.8295C45.1216 15.0542 44.9301 15.6849 45.2383 16.434ZM47.6965 15.4213C48.09 16.3771 47.9195 17.3734 46.8811 17.8018C45.8966 18.2078 45.0782 17.6535 44.6787 16.6842C44.2957 15.7524 44.4603 14.7321 45.4672 14.3171C46.4308 13.9186 47.2641 14.3681 47.6965 15.4213ZM42.391 19.5127L43.9261 11.7373L44.5201 11.4931L42.991 19.2655L42.391 19.5127ZM39.7757 15.3449C40.0749 16.07 40.615 16.449 41.2419 16.1898C41.8389 15.9441 41.9841 15.3164 41.6729 14.5628C41.3646 13.8123 40.8215 13.4857 40.2066 13.7389C39.644 13.9711 39.4555 14.5643 39.7757 15.3449ZM42.2354 14.3306C42.6319 15.2954 42.4509 16.2872 41.4185 16.7127C40.4505 17.1127 39.6321 16.6018 39.2176 15.5936C38.8346 14.6632 39.0066 13.6385 40.0046 13.2265C40.9532 12.8355 41.8015 13.2789 42.2354 14.3306Z" fill="white" stroke="white" stroke-width="0.4"/>
<path d="M52.6765 12.4698C52.8815 14.0233 53.8989 15.3357 55.4849 15.1245C57.1965 14.8983 57.7127 13.4001 57.5047 11.8271C57.2983 10.2645 56.3242 9.01954 54.7188 9.23377C53.0311 9.45699 52.473 10.9417 52.6765 12.4698ZM58.2528 11.7162C58.5042 13.6174 57.6933 15.4691 55.5343 15.7567C53.5413 16.0204 52.1932 14.5926 51.9299 12.5986C51.6696 10.6255 52.5867 8.87872 54.6634 8.60306C56.5891 8.34687 57.9835 9.67274 58.2528 11.7162Z" fill="white" stroke="white" stroke-width="0.4"/>
<path d="M61.3802 11.43L62.9932 11.481C64.1497 11.5154 64.6868 11.0989 64.7138 10.239C64.7392 9.43 64.2275 8.9551 63.2011 8.92364L61.4596 8.86971L61.3802 11.43ZM61.3608 12.0577L61.2635 15.2443L60.5469 15.2219L60.7623 8.221L63.3717 8.30042C64.7766 8.34386 65.4978 9.12588 65.4649 10.2225C65.4364 11.1214 64.8933 11.6727 64.1587 11.827C64.805 12.0098 65.2793 12.4757 65.2419 13.6772L65.2329 13.9604C65.218 14.4473 65.1656 15.084 65.2808 15.3687L64.5731 15.3462C64.4534 15.0406 64.4908 14.4877 64.5103 13.863L64.5163 13.6967C64.5492 12.6151 64.25 12.1477 62.9498 12.1072L61.3608 12.0577Z" fill="white" stroke="white" stroke-width="0.4"/>
<path d="M72.6314 16.6377L72.0748 16.5283C72.0508 16.4175 72.0927 16.0819 72.196 15.4901C71.8339 15.9171 71.1486 16.4369 69.8021 16.1748C67.8256 15.7897 67.0895 14.0863 67.4695 12.1298C67.8675 10.0743 69.2694 8.74396 71.3072 9.14097C72.8408 9.4391 73.6742 10.4489 73.6383 11.7388L72.9366 11.6024C72.8408 10.6706 72.3321 9.97692 71.1696 9.7507C69.5073 9.4271 68.5378 10.5956 68.2191 12.2391C67.9273 13.7403 68.3612 15.2549 69.9816 15.571C71.6184 15.8901 72.2633 14.8968 72.5281 13.538L72.5431 13.4631L70.4529 13.0556L70.5741 12.4339L73.3435 12.9732L72.6314 16.6377Z" fill="white" stroke="white" stroke-width="0.4"/>
<path d="M78.9504 15.8031C78.9638 13.6997 78.9534 12.636 78.9923 12.1176L78.9833 12.1146C78.6272 12.5776 77.7953 13.5633 76.6507 14.9356L78.9504 15.8031ZM76.2273 15.4525L74.6518 17.2922L73.9785 17.0375L78.8172 11.3775L79.6281 11.6832L79.6341 19.1709L78.913 18.8997L78.9205 16.4697L76.2273 15.4525Z" fill="white" stroke="white" stroke-width="0.4"/>
<path d="M81.0293 19.8062L84.5423 13.7491L85.4012 14.248C85.476 16.2136 85.6765 20.6316 85.6555 21.5005L85.666 21.5065C86.0939 20.6436 86.634 19.7282 87.2071 18.7395L88.7003 16.1671L89.3033 16.5177L85.7887 22.5747L84.9882 22.1088C84.9239 20.2496 84.7728 15.6203 84.7548 14.7109L84.7443 14.705C84.3538 15.4795 83.7987 16.4233 83.1629 17.52L81.6338 20.1582L81.0293 19.8062Z" fill="white" stroke="white" stroke-width="0.4"/>
<path d="M92.461 18.8594L88.2268 24.4355L87.6582 24.0011L91.8924 18.425L92.461 18.8594Z" fill="white" stroke="white" stroke-width="0.4"/>
<path d="M95.2686 28.1899C94.2437 28.7937 93.0362 28.8251 91.9335 27.766C90.4583 26.3472 90.7979 24.4626 92.164 23.0378C93.4761 21.67 95.4212 21.1532 96.9204 22.5944C98.056 23.685 98.0859 24.9434 97.4351 25.9397L96.9189 25.4438C97.2944 24.6348 97.3034 23.8273 96.4655 23.0213C95.2746 21.8768 93.738 22.4895 92.7221 23.5487C91.7241 24.5914 91.1526 26.1495 92.3854 27.336C93.1874 28.106 93.9893 28.0401 94.7524 27.6925L95.2686 28.1899Z" fill="white" stroke="white" stroke-width="0.4"/>
<path d="M61.6951 99.9569C45.243 99.9569 31.3987 89.7455 25.7176 75.8577C25.6054 75.5821 25.3361 75.4038 25.0384 75.4038C24.5117 75.4038 24.1571 75.9401 24.3576 76.427C30.4351 91.1883 44.9422 101.434 61.6951 101.434C78.3283 101.434 92.9133 91.2916 99.0327 76.427C99.2332 75.9401 98.8786 75.4038 98.3519 75.4038C98.0527 75.4038 97.7849 75.5866 97.6697 75.8652C91.7881 90.1261 77.8077 99.9569 61.6951 99.9569ZM61.6951 22.0428C77.8316 22.0428 91.7986 31.8991 97.6697 46.1345C97.7849 46.4132 98.0527 46.5945 98.3519 46.5945C98.8786 46.5945 99.2332 46.0596 99.0327 45.5727C92.9312 30.7516 78.3912 20.5657 61.6951 20.5657C44.6804 20.5657 30.3334 31.0602 24.3576 45.5727C24.1571 46.0596 24.5117 46.5945 25.0384 46.5945C25.3361 46.5945 25.6054 46.4177 25.7176 46.142C31.4555 32.1149 45.3791 22.0428 61.6951 22.0428Z" fill="white"/>
<path d="M61.6946 2.56854C29.5054 2.56854 3.33997 28.6768 3.33997 60.9993C3.33997 93.2319 29.4142 119.431 61.6946 119.431C93.8897 119.431 120.051 93.3173 120.051 60.9993C120.051 28.7681 93.9765 2.56854 61.6946 2.56854ZM61.6946 121C28.5912 121 1.77344 94.1382 1.77344 60.9993C1.77344 27.8528 28.6017 1 61.6946 1C94.9505 1 121.617 28.0251 121.617 60.9993C121.617 94.2985 94.6273 121 61.6946 121Z" fill="white" stroke="white" stroke-width="2"/>
</svg>
