<svg width="102" height="102" viewBox="0 0 102 102" fill="none" xmlns="http://www.w3.org/2000/svg">
<path d="M100.619 51.0008C100.619 78.5459 78.3277 100.876 50.8291 100.876C23.3306 100.876 1.03906 78.5459 1.03906 51.0008C1.03906 23.4558 23.3306 1.12603 50.8291 1.12603C78.3277 1.12603 100.619 23.4558 100.619 51.0008Z" fill="white"/>
<path d="M50.8303 1.25007C23.4449 1.25007 1.16443 23.5681 1.16443 51.0004C1.16443 78.4325 23.4449 100.75 50.8303 100.75C78.2157 100.75 100.496 78.4325 100.496 51.0004C100.496 23.5681 78.2157 1.25007 50.8303 1.25007ZM50.8303 101C23.3071 101 0.916016 78.5701 0.916016 51.0004C0.916016 23.4304 23.3071 1 50.8303 1C78.3534 1 100.746 23.4304 100.746 51.0004C100.746 78.5701 78.3534 101 50.8303 101Z" fill="#313131" stroke="#313131"/>
<path d="M50.8289 5.52687C25.7974 5.52687 5.43294 25.9261 5.43294 51C5.43294 76.0736 25.7974 96.4725 50.8289 96.4725C75.8605 96.4725 96.2249 76.0736 96.2249 51C96.2249 25.9261 75.8605 5.52687 50.8289 5.52687ZM50.8289 97.9717C24.9722 97.9717 3.9375 76.8999 3.9375 51C3.9375 25.1 24.9722 4.02888 50.8289 4.02888C76.6844 4.02888 97.7203 25.1 97.7203 51C97.7203 76.8999 76.6844 97.9717 50.8289 97.9717Z" fill="#313131"/>
<path d="M18.4448 46.2481C18.8592 46.6152 19.1753 47.1269 19.3929 47.7828C19.6094 48.4389 19.7066 49.1615 19.6856 49.9518C19.6623 50.7811 19.4618 51.5036 19.083 52.1192C18.7043 52.7349 18.1668 53.2032 17.4695 53.5243C16.7735 53.8459 15.9606 53.998 15.0308 53.9812L14.3802 53.9637C13.4247 53.9374 12.6032 53.7536 11.912 53.4118C11.2221 53.0703 10.7007 52.5902 10.3465 51.9723C9.99228 51.3544 9.82749 50.6373 9.84962 49.8211C9.88037 48.6842 10.1755 47.8029 10.7339 47.1768C11.2922 46.5511 12.0904 46.1931 13.1283 46.1027L13.0754 48.0251C12.5257 48.0978 12.1186 48.2811 11.8567 48.5749C11.5947 48.8684 11.4558 49.2787 11.4422 49.8052C11.4238 50.4766 11.6611 50.9948 12.1555 51.3596C12.6499 51.7248 13.394 51.923 14.3889 51.9544L15.0001 51.971C16.0036 51.9987 16.7661 51.8284 17.29 51.4606C17.8126 51.093 18.0844 50.5402 18.1041 49.8028C18.125 49.0614 17.9811 48.5282 17.6749 48.2036L16.0245 48.1585L15.9753 49.9557L14.5229 49.9158L14.6262 46.1439L18.4448 46.2481Z" fill="#313131"/>
<path d="M15.5464 41.9059L16.0039 40.3797C16.1466 39.9046 16.1367 39.5003 15.9744 39.1669C15.8108 38.8336 15.5169 38.6033 15.0926 38.4754C14.6609 38.3454 14.2834 38.3663 13.9624 38.5377C13.6414 38.7091 13.4041 39.0491 13.2516 39.5579L12.7953 41.0779L15.5464 41.9059ZM17.5289 40.859L17.0763 42.3663L20.4325 43.3766L19.8655 45.2686L10.6973 42.5095L11.7205 39.0974C12.0464 38.0126 12.5383 37.2484 13.1987 36.8051C13.8579 36.3617 14.6277 36.2728 15.5095 36.5381C16.1343 36.7261 16.6151 37.0188 16.9521 37.4156C17.2878 37.8127 17.4969 38.3238 17.5805 38.9492L21.9218 38.0898L22.0103 38.1163L21.4015 40.1473L17.5289 40.859Z" fill="#313131"/>
<path d="M21.7318 30.5298L19.8059 33.7954L22.0134 35.102L24.2738 31.2689L25.6389 32.0762L22.375 37.6104L14.1328 32.7334L17.3894 27.2107L18.7655 28.0246L16.5125 31.8462L18.4765 33.0085L20.4012 29.7424L21.7318 30.5298Z" fill="#313131"/>
<path d="M25.2113 27.2838L26.8949 25.5803L23.5031 23.9115L25.2113 27.2838ZM28.4051 26.3271L25.9726 28.7888L26.9109 30.6466L25.4351 32.1396L21.1406 22.8571L22.4258 21.556L31.749 25.7515L30.2744 27.2442L28.4051 26.3271Z" fill="#313131"/>
<path d="M33.433 15.5127L30.9426 17.0628L35.151 23.8481L33.476 24.8906L29.2676 18.1056L26.8104 19.6348L25.9668 18.2756L32.5893 14.1533L33.433 15.5127Z" fill="#313131"/>
<path d="M47.4508 16.3952C47.5935 17.4195 47.3918 18.2935 46.8458 19.0168C46.2985 19.7405 45.477 20.22 44.38 20.4553C43.1797 20.7127 42.1491 20.5108 41.2882 19.8492C40.4274 19.1875 39.8457 18.1506 39.5431 16.7379L39.4214 16.165C39.2283 15.2635 39.2172 14.4353 39.387 13.6801C39.5579 12.9256 39.8973 12.3011 40.4089 11.8078C40.9193 11.3141 41.565 10.983 42.3447 10.8167C43.4257 10.5851 44.3566 10.6874 45.1412 11.1259C45.9246 11.5636 46.4805 12.2952 46.8064 13.3205L44.8781 13.7344C44.7022 13.1393 44.4402 12.7365 44.0922 12.5258C43.7441 12.3155 43.2756 12.2735 42.6841 12.4003C42.0409 12.5383 41.6092 12.8725 41.3879 13.4024C41.1677 13.9324 41.1566 14.6836 41.3559 15.6554L41.5071 16.3639C41.7248 17.377 42.036 18.0847 42.4418 18.487C42.8489 18.889 43.3814 19.0194 44.0418 18.8776C44.6382 18.7497 45.0527 18.5181 45.2888 18.1826C45.5237 17.847 45.6024 17.389 45.5225 16.8087L47.4508 16.3952Z" fill="#313131"/>
<path d="M56.5785 10.3029L56.2599 16.6112C56.2083 17.659 55.8394 18.4712 55.1544 19.0475C54.4693 19.624 53.5593 19.8836 52.4254 19.8262C51.3087 19.7699 50.438 19.4289 49.8108 18.8037C49.1849 18.1785 48.8909 17.3484 48.9291 16.3128L49.2513 9.93335L51.2214 10.0331L50.9029 16.3534C50.8709 16.9804 50.9976 17.4449 51.2829 17.7474C51.5682 18.0498 51.9753 18.2144 52.5053 18.241C53.6121 18.297 54.2049 17.7426 54.2812 16.577L54.6021 10.2031L56.5785 10.3029Z" fill="#313131"/>
<path d="M62.6247 19.2122C62.7366 18.8563 62.6973 18.5436 62.5067 18.2738C62.316 18.0039 61.9274 17.6602 61.3432 17.2425C60.7579 16.8247 60.3065 16.4529 59.9905 16.1273C59.1321 15.2384 58.8517 14.319 59.1517 13.3686C59.3079 12.8745 59.5846 12.478 59.9856 12.1786C60.3852 11.8795 60.8796 11.7031 61.4687 11.6502C62.0578 11.5969 62.6764 11.6731 63.3245 11.8781C63.9763 12.0843 64.5198 12.3865 64.9552 12.7842C65.3905 13.1823 65.6808 13.6415 65.8272 14.162C65.9735 14.6824 65.96 15.2171 65.7866 15.7652L63.9062 15.1702C64.0377 14.7514 64.0095 14.3843 63.8189 14.0685C63.6282 13.753 63.2962 13.5199 62.819 13.3691C62.3591 13.2235 61.9717 13.2076 61.6556 13.3218C61.3383 13.4357 61.1305 13.652 61.0309 13.9699C60.9362 14.2673 61.0075 14.5636 61.2424 14.8594C61.4785 15.1545 61.8585 15.4823 62.3849 15.8418C63.3527 16.5029 64.0058 17.1493 64.344 17.7813C64.6822 18.4134 64.74 19.0851 64.5149 19.7968C64.2653 20.5879 63.7709 21.1143 63.0318 21.375C62.2914 21.6359 61.4158 21.6064 60.4049 21.2865C59.7027 21.064 59.1038 20.7331 58.6082 20.2931C58.1126 19.8532 57.7842 19.3613 57.6231 18.8174C57.4607 18.2735 57.473 17.7065 57.6587 17.1161L59.5465 17.7133C59.228 18.7223 59.6707 19.4172 60.8747 19.7981C61.3211 19.9394 61.6987 19.9591 62.0073 19.8562C62.316 19.7534 62.5214 19.5388 62.6247 19.2122Z" fill="#313131"/>
<path d="M74.7856 19.5905L72.2928 18.0446L68.0954 24.8369L66.418 23.797L70.6165 17.0047L68.1569 15.4797L68.9981 14.1187L75.6267 18.2298L74.7856 19.5905Z" fill="#313131"/>
<path d="M78.5544 27.4424C79.2825 26.7495 79.7104 26.0924 79.8408 25.4715C79.9712 24.8505 79.8064 24.2983 79.3464 23.8148C78.8902 23.3347 78.3515 23.1419 77.7317 23.2367C77.1106 23.3317 76.4379 23.721 75.7148 24.4047L75.3766 24.7272C74.6682 25.4022 74.2427 26.0561 74.1001 26.6891C73.9574 27.3223 74.1185 27.8838 74.5834 28.3734C75.0396 28.8537 75.5795 29.0434 76.1994 28.9421C76.8204 28.8412 77.4931 28.4487 78.2162 27.7649L78.5544 27.4424ZM79.6182 29.1923C78.9357 29.8432 78.2224 30.2928 77.4784 30.5415C76.7343 30.79 76.0087 30.8225 75.3016 30.6388C74.5957 30.4551 73.9648 30.0724 73.4126 29.4904C72.8653 28.9147 72.5161 28.2693 72.3623 27.5545C72.2099 26.8394 72.2726 26.1137 72.5493 25.3765C72.826 24.6399 73.297 23.9519 73.9599 23.3131L74.303 22.9863C74.9855 22.3356 75.7037 21.886 76.4576 21.6376C77.2103 21.3892 77.9395 21.3576 78.6454 21.5428C79.3501 21.7282 79.9773 22.1101 80.5283 22.689C81.078 23.2678 81.4273 23.9145 81.5773 24.6295C81.7274 25.3444 81.6597 26.0724 81.3744 26.8138C81.0891 27.5553 80.607 28.2498 79.9281 28.8973L79.6182 29.1923Z" fill="#313131"/>
<path d="M86.6278 31.0925L81.4307 36.3202L88.748 35.5223L89.8684 37.8621L81.2376 42.0078L80.3816 40.2205L82.7416 39.0871L86.8996 37.3091L79.3498 38.0648L78.7644 36.8414L84.0759 31.4272L80.0951 33.5586L77.7351 34.692L76.8828 32.9103L85.5136 28.7646L86.6278 31.0925Z" fill="#313131"/>
<path d="M86.2733 48.2051L85.6806 44.4586L83.1496 44.8606L83.8444 49.2574L82.2789 49.5059L81.2754 43.1574L90.7302 41.6571L91.7312 47.9924L90.1534 48.2428L89.4598 43.859L87.2068 44.2165L87.7995 47.9632L86.2733 48.2051Z" fill="#313131"/>
<path d="M87.2199 52.5362L87.0908 54.1245C87.0502 54.6189 87.1449 55.0122 87.3736 55.304C87.6024 55.596 87.9381 55.7598 88.3796 55.796C88.8285 55.8327 89.1925 55.7337 89.4717 55.4989C89.7509 55.2638 89.9108 54.8817 89.955 54.352L90.0842 52.7701L87.2199 52.5362ZM85.4994 53.9747L85.6273 52.4061L82.1346 52.1204L82.2958 50.1511L91.8366 50.9313L91.5476 54.4825C91.4554 55.6116 91.1319 56.4617 90.5797 57.0332C90.0288 57.6047 89.2934 57.8532 88.3759 57.7779C87.7253 57.7248 87.1941 57.5392 86.7821 57.2214C86.3701 56.9036 86.059 56.4474 85.8475 55.8532L81.7804 57.602L81.6895 57.5945L81.8616 55.4812L85.4994 53.9747Z" fill="#313131"/>
<path d="M29.9463 83.2309C30.1578 82.934 30.2156 82.6297 30.1197 82.3217C30.0237 82.0125 29.7655 81.574 29.3461 81.0085C28.9268 80.4431 28.6193 79.9602 28.4238 79.5612C27.8913 78.4732 27.9073 77.532 28.473 76.7375C28.7669 76.3245 29.1457 76.0391 29.6081 75.881C30.0705 75.7237 30.5846 75.7091 31.149 75.8377C31.7135 75.9665 32.2669 76.2242 32.8093 76.6112C33.3541 77.0006 33.7685 77.4464 34.0551 77.9486C34.3404 78.451 34.472 78.9664 34.4523 79.4957C34.4314 80.0243 34.2568 80.5182 33.9309 80.9765L32.3592 79.853C32.6076 79.5035 32.6912 79.1528 32.6088 78.8015C32.5276 78.4498 32.2878 78.1315 31.8894 77.8474C31.5044 77.5727 31.1478 77.4405 30.8194 77.4511C30.4899 77.4616 30.2316 77.6001 30.0422 77.866C29.8639 78.1145 29.8417 78.412 29.9721 78.7584C30.1012 79.1048 30.357 79.5251 30.7383 80.0193C31.4417 80.9272 31.8549 81.7267 31.9792 82.4191C32.1046 83.1089 31.9546 83.752 31.5315 84.347C31.0605 85.0085 30.4407 85.3497 29.6733 85.3682C28.9059 85.3879 28.0991 85.096 27.2542 84.4923C26.6664 84.0723 26.2089 83.5832 25.8793 83.0227C25.5509 82.4634 25.3935 81.9054 25.4071 81.3498C25.4194 80.7954 25.6014 80.2706 25.9531 79.7767L27.5309 80.9038C26.9308 81.7477 27.1337 82.5287 28.1397 83.2469C28.5135 83.5142 28.8591 83.646 29.1776 83.6436C29.4962 83.6411 29.752 83.5044 29.9463 83.2309Z" fill="#313131"/>
<path d="M39.1847 86.0017L35.7658 84.5629L34.793 86.8825L38.8059 88.569L38.2057 90.0029L32.4121 87.5662L36.04 78.9095L41.8214 81.3403L41.2163 82.7853L37.2157 81.1025L36.3512 83.1659L39.7701 84.6035L39.1847 86.0017Z" fill="#313131"/>
<path d="M43.3196 86.0815L44.8545 86.3451C45.3328 86.4264 45.724 86.3685 46.0277 86.1702C46.3315 85.9718 46.5209 85.6577 46.5934 85.2302C46.6685 84.7941 46.6033 84.4295 46.3991 84.1376C46.1937 83.8444 45.8358 83.6546 45.3242 83.566L43.7944 83.3036L43.3196 86.0815ZM44.5716 87.8862L43.0552 87.6263L42.476 91.014L40.5723 90.6863L42.155 81.4323L45.5874 82.0224C46.6795 82.2096 47.4789 82.5977 47.988 83.1865C48.4972 83.7754 48.6755 84.5145 48.523 85.4052C48.4148 86.0359 48.1885 86.5385 47.8441 86.913C47.4986 87.2887 47.0275 87.5536 46.4311 87.7076L47.7826 91.8332L47.7679 91.9219L45.7239 91.5708L44.5716 87.8862Z" fill="#313131"/>
<path d="M53.4415 89.4295L55.0882 82.2414L57.2329 82.0973L54.6073 91.6838L52.5966 91.8193L48.7227 82.6713L50.8625 82.5272L53.4415 89.4295Z" fill="#313131"/>
<path d="M61.7163 90.3868L59.8421 90.8574L57.5645 81.75L59.4374 81.2795L61.7163 90.3868Z" fill="#313131"/>
<path d="M69.8703 83.7778C70.2183 84.7288 70.2073 85.6071 69.8334 86.4128C69.4608 87.2197 68.7746 87.8492 67.7735 88.3025C66.6777 88.7989 65.6508 88.8199 64.6891 88.3666C63.7286 87.9132 62.9563 87.0423 62.3746 85.7537L62.1385 85.2302C61.7658 84.4085 61.5838 83.6176 61.59 82.86C61.5961 82.1024 61.7929 81.4335 62.1791 80.8557C62.5652 80.2767 63.1137 79.8258 63.8258 79.5037C64.8109 79.0569 65.7246 78.9614 66.5646 79.2174C67.4058 79.4732 68.0895 80.0574 68.6147 80.9703L66.8548 81.7685C66.5633 81.2351 66.2288 80.905 65.8525 80.7756C65.4762 80.6463 65.0187 80.7042 64.4788 80.9493C63.8922 81.2142 63.5491 81.6244 63.447 82.1775C63.3462 82.7307 63.4913 83.4513 63.8836 84.3395L64.1763 84.9862C64.5932 85.9102 65.0384 86.5224 65.5106 86.823C65.9829 87.1236 66.5215 87.1371 67.1229 86.8636C67.6665 86.6173 68.0157 86.3093 68.1707 85.9385C68.3269 85.5689 68.306 85.1144 68.1104 84.576L69.8703 83.7778Z" fill="#313131"/>
<path d="M75.3427 78.5193L72.3997 80.7791L73.9284 82.7747L77.3817 80.1225L78.325 81.3556L73.3393 85.1855L67.6367 77.7343L72.6125 73.913L73.5644 75.1562L70.1209 77.801L71.4799 79.5767L74.4228 77.3166L75.3427 78.5193Z" fill="#313131"/>
<path d="M50.8263 25.7581C36.9319 25.7581 25.6275 37.0815 25.6275 51.0001C25.6275 64.9185 36.9319 76.242 50.8263 76.242C64.7207 76.242 76.0251 64.9185 76.0251 51.0001C76.0251 37.0815 64.7207 25.7581 50.8263 25.7581ZM50.8263 77.7402C36.1067 77.7402 24.1309 65.7446 24.1309 51.0001C24.1309 36.2554 36.1067 24.2596 50.8263 24.2596C65.5459 24.2596 77.5206 36.2554 77.5206 51.0001C77.5206 65.7446 65.5459 77.7402 50.8263 77.7402Z" fill="#313131"/>
<path d="M18.987 60.8788L20.2144 64.6665H24.1904L20.9744 67.0073L22.203 70.7949L18.987 68.4541L15.7699 70.7949L16.9984 67.0073L13.7812 64.6665H17.7572L18.987 60.8788Z" fill="#313131"/>
<path d="M83.8335 62.7003L85.0621 66.4879H89.0392L85.822 68.8286L87.0494 72.6162L83.8335 70.2755L80.6175 72.6162L81.8461 68.8286L78.6289 66.4879H82.6049L83.8335 62.7003Z" fill="#313131"/>
<path fill-rule="evenodd" clip-rule="evenodd" d="M39.3701 47.1095C39.3701 47.6873 39.364 48.2651 39.3726 48.8428C39.3873 49.8715 40.1326 50.6064 41.1497 50.6062C42.1692 50.6058 42.9403 49.8513 42.9476 48.8281C42.955 47.6814 42.9538 46.5347 42.9476 45.3876C42.9439 44.7572 42.6808 44.2517 42.1495 43.9058C42.0069 43.8129 41.9613 43.7145 41.9884 43.5564C42.0855 43.015 42.1384 42.4624 42.2786 41.9329C43.2649 38.2015 46.6223 35.4858 50.4483 35.3196C53.1526 35.2021 55.4708 36.1125 57.3586 38.0516C58.8429 39.5758 59.6608 41.4229 59.8465 43.5482C59.8588 43.6842 59.8637 43.7936 59.7161 43.8867C59.1442 44.2484 58.8847 44.7854 58.886 45.4592C58.8897 46.5521 58.8848 47.6457 58.8897 48.7395C58.8909 48.9159 58.8921 49.1025 58.9475 49.266C59.0188 49.475 58.9401 49.5661 58.7765 49.6685C57.6144 50.3958 56.3341 50.7457 54.985 50.8762C54.9149 50.8831 54.819 50.8326 54.7674 50.7786C54.5657 50.5727 54.3332 50.4316 54.0442 50.4262C53.5388 50.4163 53.0321 50.4082 52.5279 50.4284C51.9535 50.4512 51.5354 50.9129 51.5404 51.4802C51.544 52.0382 51.9855 52.4938 52.555 52.5078C53.0333 52.5199 53.513 52.5135 53.9926 52.5096C54.3025 52.5074 54.5743 52.3938 54.7575 52.1433C54.8768 51.9794 55.017 51.936 55.2027 51.9169C56.7313 51.758 58.1788 51.3457 59.4738 50.4838C59.6312 50.379 59.742 50.3587 59.9215 50.4447C61.0517 50.983 62.4094 50.2219 62.45 48.9951C62.493 47.7344 62.4721 46.471 62.4537 45.2088C62.4451 44.6805 62.188 44.2443 61.7465 43.9575C61.5325 43.8178 61.4649 43.6589 61.4465 43.4235C61.2276 40.7804 60.1601 38.5307 58.2723 36.679C53.1797 31.6832 44.6165 33.1493 41.4596 39.5502C40.8508 40.7843 40.488 42.0842 40.381 43.4571C40.37 43.605 40.3995 43.7624 40.2163 43.8709C39.6407 44.2114 39.3701 44.7356 39.3701 45.4027C39.3701 45.9713 39.3701 46.5403 39.3701 47.1095ZM54.0565 53.4052C53.5216 53.4052 53.0555 53.4106 52.5881 53.4042C51.4936 53.3894 50.6585 52.5373 50.6585 51.442C50.6573 50.3969 51.5108 49.5439 52.5795 49.5249C52.9067 49.5189 53.235 49.514 53.5634 49.5157C53.9803 49.5179 54.4279 49.4631 54.7772 49.7175C55.1609 49.9959 55.5323 49.9453 55.932 49.8392C56.1374 49.7846 56.3427 49.7232 56.5506 49.6823C56.7449 49.6443 56.8482 49.5341 56.922 49.352C57.2811 48.4784 57.5701 47.5859 57.7459 46.6557C58.1444 44.5415 57.7964 42.5894 56.4989 40.8445C54.7317 38.4696 51.5846 37.4663 48.8003 38.3809C45.8918 39.3361 43.918 41.9939 43.9376 45.0096C43.9524 47.2484 44.7088 49.2749 45.8709 51.1588C46.5978 52.3366 47.4894 53.3667 48.6958 54.0792C50.5368 55.1676 52.3975 54.8327 54.0565 53.4052ZM45.8168 53.6372C45.7565 53.6372 45.7209 53.634 45.6865 53.638C40.8988 54.1721 37.5967 58.6072 38.3359 63.2032C38.5449 64.4998 39.2828 65.3966 40.5323 65.8543C41.4793 66.2007 42.4656 66.3236 43.4617 66.3278C48.2813 66.3479 53.101 66.3627 57.9194 66.3405C58.827 66.3366 59.7432 66.2096 60.6373 66.0444C61.5842 65.87 62.418 65.4347 62.9689 64.5902C63.4436 63.8647 63.5875 63.0464 63.606 62.2C63.6884 58.4942 61.4206 55.2409 57.9181 54.0311C57.3044 53.8194 56.6773 53.6776 56.1238 53.6397C55.8422 54.0991 55.6344 54.536 55.3392 54.9015C54.1057 56.4253 52.5795 57.6344 51.0423 58.8268C50.9869 58.8693 50.8369 58.859 50.7779 58.8132C49.43 57.7811 48.119 56.704 46.963 55.4554C46.4735 54.9283 45.9902 54.3886 45.8168 53.6372Z" fill="#313131"/>
<path fill-rule="evenodd" clip-rule="evenodd" d="M45.8168 53.6372C45.9902 54.3886 46.4735 54.9283 46.963 55.4554C48.119 56.704 49.43 57.7811 50.7779 58.8132C50.8369 58.859 50.9869 58.8693 51.0423 58.8268C52.5795 57.6344 54.1057 56.4253 55.3392 54.9015C55.6344 54.536 55.8422 54.0991 56.1238 53.6397C56.6773 53.6776 57.3044 53.8194 57.9181 54.0311C61.4206 55.2409 63.6884 58.4942 63.606 62.2C63.5875 63.0464 63.4436 63.8647 62.9689 64.5902C62.418 65.4347 61.5842 65.87 60.6373 66.0444C59.7432 66.2096 58.827 66.3366 57.9194 66.3405C53.101 66.3627 48.2813 66.3479 43.4617 66.3278C42.4656 66.3236 41.4793 66.2007 40.5323 65.8543C39.2828 65.3966 38.5449 64.4998 38.3359 63.2032C37.5967 58.6072 40.8988 54.1721 45.6865 53.638C45.7209 53.634 45.7565 53.6372 45.8168 53.6372Z" fill="#313131"/>
<path fill-rule="evenodd" clip-rule="evenodd" d="M54.0624 53.4065C52.4034 54.834 50.5427 55.169 48.7017 54.0806C47.4952 53.3681 46.6036 52.338 45.8768 51.1601C44.7146 49.2762 43.9583 47.2497 43.9435 45.0109C43.9238 41.9952 45.8977 39.3374 48.8062 38.3822C51.5905 37.4677 54.7376 38.4709 56.5048 40.8459C57.8023 42.5907 58.1503 44.5428 57.7518 46.6571C57.576 47.5873 57.2869 48.4798 56.9278 49.3533C56.8541 49.5354 56.7508 49.6456 56.5565 49.6836C56.3486 49.7245 56.1432 49.786 55.9378 49.8405C55.5382 49.9466 55.1668 49.9972 54.7831 49.7188C54.4338 49.4644 53.9862 49.5193 53.5693 49.517C53.2409 49.5153 52.9125 49.5202 52.5854 49.5263C51.5167 49.5452 50.6632 50.3982 50.6644 51.4433C50.6644 52.5386 51.4995 53.3907 52.594 53.4055C53.0613 53.4119 53.5274 53.4065 54.0624 53.4065Z" fill="#313131"/>
<path fill-rule="evenodd" clip-rule="evenodd" d="M39.3732 47.1112C39.3732 46.5421 39.3732 45.9731 39.3732 45.4044C39.3732 44.7374 39.6438 44.2132 40.2193 43.8727C40.4026 43.7642 40.3731 43.6067 40.3841 43.4589C40.4911 42.086 40.8539 40.7861 41.4627 39.552C44.6196 33.1511 53.1828 31.685 58.2754 36.6808C60.1632 38.5325 61.2307 40.7821 61.4496 43.4253C61.468 43.6607 61.5356 43.8196 61.7496 43.9593C62.1911 44.2461 62.4481 44.6823 62.4568 45.2105C62.4752 46.4727 62.4961 47.7362 62.4531 48.9969C62.4125 50.2237 61.0548 50.9848 59.9246 50.4464C59.745 50.3605 59.6343 50.3808 59.4769 50.4856C58.1819 51.3474 56.7344 51.7598 55.2058 51.9187C55.0201 51.9378 54.8799 51.9811 54.7606 52.1451C54.5774 52.3955 54.3056 52.5091 53.9957 52.5113C53.516 52.5153 53.0364 52.5217 52.558 52.5096C51.9886 52.4956 51.5471 52.04 51.5434 51.482C51.5385 50.9147 51.9566 50.453 52.5309 50.4302C53.0352 50.41 53.5419 50.4181 54.0473 50.428C54.3363 50.4334 54.5688 50.5744 54.7704 50.7804C54.8221 50.8344 54.918 50.8849 54.9881 50.878C56.3372 50.7475 57.6175 50.3975 58.7796 49.6702C58.9432 49.5679 59.0219 49.4768 58.9505 49.2678C58.8952 49.1043 58.894 48.9177 58.8928 48.7413C58.8878 47.6475 58.8927 46.5539 58.8891 45.461C58.8878 44.7871 59.1473 44.2501 59.7192 43.8885C59.8668 43.7953 59.8619 43.6859 59.8496 43.5499C59.6639 41.4247 58.846 39.5776 57.3616 38.0534C55.4739 36.1142 53.1557 35.2039 50.4514 35.3214C46.6254 35.4876 43.268 38.2033 42.2817 41.9347C42.1415 42.4642 42.0886 43.0168 41.9915 43.5582C41.9644 43.7162 42.0099 43.8147 42.1526 43.9076C42.6839 44.2535 42.947 44.7589 42.9507 45.3894C42.9569 46.5364 42.9581 47.6832 42.9507 48.8298C42.9433 49.853 42.1723 50.6076 41.1528 50.6079C40.1357 50.6082 39.3904 49.8732 39.3757 48.8446C39.3671 48.2669 39.3732 47.6891 39.3732 47.1112Z" fill="#313131"/>
</svg>
