<svg width="101" height="100" viewBox="0 0 101 100" fill="none" xmlns="http://www.w3.org/2000/svg">
<path d="M99.9169 51.9296C100.692 51.168 100.692 49.9223 99.9311 49.1394L95.7785 44.9043C95.7074 44.7549 95.5866 44.5556 95.3946 44.3136C93.8729 42.3633 93.944 40.05 94.3209 38.3702L96.8167 32.5479C97.2362 31.5443 96.7527 30.3983 95.743 29.9713L91.1069 28.0352C88.6182 26.6046 87.6867 23.7147 87.3667 22.2342L87.3951 16.8532C87.3951 15.7642 86.4992 14.8958 85.4113 14.8958L81.0383 14.9101C78.8695 14.4972 76.8714 12.7605 76.2528 11.7569C75.6342 10.7533 74.724 6.73172 74.724 6.73172C74.3969 5.69253 73.2877 5.13023 72.2495 5.45053L67.7627 6.85986C63.6884 7.6784 59.9197 4.86687 58.6327 3.77785L56.0658 0.688745C55.3619 -0.144033 54.1175 -0.229438 53.2855 0.475221L48.7063 4.36864C45.023 6.68903 40.3584 4.34729 40.3584 4.34729L40.3798 4.37574L36.5258 2.37565C35.5588 1.87741 34.3784 2.29025 33.8807 3.25827L31.584 7.7211C29.8987 11.0451 25.7817 11.7925 24.2529 11.9277L19.1688 11.522C18.0809 11.4437 17.1565 12.2765 17.0712 13.3655L16.5735 20.5402C15.7558 22.761 13.7648 24.1489 12.9684 24.6329L6.72528 26.7042C5.69424 27.053 5.16095 28.1847 5.50937 29.2097L7.79187 35.8932C7.89142 38.2207 6.73239 40.2778 6.20621 41.0963L1.15056 45.5236C0.339954 46.2496 0.283065 47.4952 1.00124 48.3066L5.90044 53.8086C6.93148 55.7162 6.56884 57.8515 6.21331 59.0616L3.30508 65.0334C2.83578 66.0156 3.26953 67.1901 4.25079 67.6598L9.69752 70.2507C12.4849 72.3291 13.0608 76.1656 13.1533 76.9699L12.8689 82.173C12.8191 83.262 13.6723 84.1731 14.7603 84.2229L19.5315 84.4435C19.6737 84.4649 19.8444 84.4791 20.0577 84.4862C24.5729 84.5788 26.635 89.5398 26.635 89.5398L28.3273 94.2589C28.7042 95.2839 29.8419 95.7892 30.8658 95.412L35.9357 93.54C35.9783 93.5258 36.0281 93.5115 36.0779 93.4973C39.3701 92.4795 42.3708 94.4226 43.7147 95.5188L47.2629 99.3837C48.0024 100.181 49.2538 100.202 50.0502 99.462L55.5823 94.2803C56.9475 93.476 58.4407 93.3834 59.6851 93.5329L66.7033 96.743C67.6987 97.1914 68.8578 96.7288 69.2986 95.7323L71.3892 91.0488C71.4816 90.9136 71.5882 90.7072 71.6949 90.4154C72.6335 87.9313 74.8805 86.9418 76.5159 86.5504L83.5838 86.7639C84.6718 86.7924 85.5606 85.9169 85.589 84.8279L85.7099 78.9913C85.7668 78.8347 85.8095 78.6354 85.8521 78.3792C86.357 75.2972 88.9595 73.596 90.5878 72.8131L95.2737 71.0052C96.2834 70.6066 96.7669 69.4535 96.3687 68.4357C96.3687 68.4357 93.8231 62.6489 93.6667 61.3677C93.5102 60.0865 93.5885 58.421 94.7262 56.9618C95.8568 55.5027 99.9311 51.9367 99.9311 51.9367L99.9169 51.9296Z" fill="#A97D50"/>
<path d="M9.47688 50.0009C9.47688 27.4019 27.7796 9.08081 50.3558 9.08081C72.932 9.08081 91.2347 27.4019 91.2347 50.0009C91.2347 72.5998 72.932 90.928 50.3558 90.928C27.7796 90.928 9.47688 72.6069 9.47688 50.0009Z" fill="#45301A"/>
<path d="M11.269 50.0005C11.269 28.3909 28.7682 10.867 50.3631 10.867C71.958 10.867 89.4573 28.3909 89.4573 50.0005C89.4573 71.61 71.9509 89.134 50.3631 89.134C28.7753 89.134 11.269 71.61 11.269 50.0005Z" fill="white"/>
<path d="M18.2436 44.8617L19.495 48.7338H23.5552L20.2701 51.1182L21.5287 54.9831L18.2436 52.5987L14.9585 54.9831L16.2099 51.1182L12.9248 48.7338H16.985L18.2436 44.8617Z" fill="#45301A"/>
<path d="M81.9198 44.8617L83.1712 48.7338H87.2314L83.9463 51.1182L85.2049 54.9831L81.9198 52.5987L78.6347 54.9831L79.8861 51.1182L76.601 48.7338H80.6612L81.9198 44.8617Z" fill="#45301A"/>
<path d="M24.9071 49.5735C24.9071 35.5017 36.3054 24.0919 50.363 24.0919C64.4207 24.0919 75.819 35.5017 75.819 49.5735C75.819 63.6454 64.4207 75.0551 50.363 75.0551C36.3054 75.0551 24.9071 63.6454 24.9071 49.5735Z" fill="#45301A"/>
<path d="M50.3627 73.4536C37.208 73.4536 26.4995 62.7414 26.4995 49.5664C26.4995 36.3914 37.2009 25.6792 50.3627 25.6792C63.5244 25.6792 74.2259 36.3914 74.2259 49.5664C74.2259 62.7414 63.5244 73.4536 50.3627 73.4536ZM50.3627 26.7112C37.7698 26.7112 27.5234 36.9679 27.5234 49.5735C27.5234 62.1791 37.7698 72.4358 50.3627 72.4358C62.9556 72.4358 73.2019 62.1791 73.2019 49.5735C73.2019 36.9679 62.9556 26.7112 50.3627 26.7112Z" fill="white"/>
<path d="M27.1238 31.8619C27.3107 31.6398 27.3882 31.4649 27.3562 31.3373C27.3281 31.2051 27.2167 31.057 27.022 30.8928L25.7045 29.7819L25.3383 30.217L25.1889 30.091L26.8365 28.133L26.9859 28.259L26.7628 28.5241L28.6781 30.139L28.5922 30.241C28.4104 30.2271 28.2565 30.295 28.1307 30.4446C28.0773 30.508 27.9579 30.7327 27.7724 31.1187C27.5907 31.5002 27.4065 31.8019 27.2196 32.024C26.5979 32.7628 25.9163 33.1681 25.1746 33.2401C24.4367 33.3075 23.6693 33.0053 22.8724 32.3334C22.071 31.6576 21.6303 30.9258 21.5504 30.1378C21.4742 29.3452 21.7374 28.5909 22.34 27.8748C22.5726 27.5983 22.8415 27.3524 23.1466 27.137C23.451 26.9133 23.6222 26.7787 23.6604 26.7334C23.6985 26.6881 23.718 26.6465 23.719 26.6085C23.7154 26.5668 23.7002 26.5113 23.6733 26.4421L23.7362 26.3673L25.2557 27.5556L25.1528 27.678C24.5267 27.5297 23.9938 27.4639 23.5541 27.4806C23.1136 27.4889 22.7771 27.6313 22.5445 27.9077C21.9609 28.6012 22.3461 29.5186 23.6999 30.6601L24.2364 31.1125C24.9156 31.6852 25.5 32.0346 25.9898 32.1609C26.4788 32.2788 26.8568 32.1791 27.1238 31.8619Z" fill="#45301A"/>
<path d="M31.2301 25.6253L30.2907 23.1326L28.8491 22.0912L28.4435 22.3943L28.3425 22.259L30.5484 20.6105L30.6493 20.7458L30.2295 21.0596L33.8025 23.6363L32.1436 19.6291L31.4249 20.1662L31.324 20.0308L32.7471 18.9673L32.848 19.1026L32.3784 19.4536L34.74 25.3539L34.1067 25.8271L30.6524 23.3947L32.1286 27.3055L31.5096 27.7681L26.0455 24.1864L25.7111 24.4364L25.6102 24.301L27.9227 22.5727L28.0237 22.7081L27.5256 23.0803L31.2301 25.6253Z" fill="#45301A"/>
<path d="M39.0369 22.9751L37.6778 21.473L36.0653 22.1746L36.2029 24.2083L36.8137 23.9425L36.881 24.0974L35.635 24.6396L35.5677 24.4847L35.9505 24.3182L35.595 17.8141L36.2628 17.5236L40.7471 22.2309L41.1217 22.0679L41.189 22.2228L38.526 23.3816L38.4587 23.2267L39.0369 22.9751ZM35.8987 19.4945L36.0607 21.9634L37.5347 21.322L35.8987 19.4945Z" fill="#45301A"/>
<path d="M44.1682 18.2461L43.7063 18.3361L44.2749 21.259L44.8414 21.1486L44.8737 21.3144L42.0409 21.8665L42.0086 21.7008L42.5752 21.5903L41.4516 15.8144L40.8851 15.9248L40.8528 15.759L43.4851 15.2459C44.2405 15.0987 44.783 15.0352 45.1127 15.0555C45.447 15.0688 45.6888 15.1182 45.8381 15.2038C46.1612 15.3763 46.3708 15.7098 46.467 16.2042C46.5631 16.6986 46.5101 17.0772 46.308 17.34C46.1046 17.597 45.7571 17.7945 45.2653 17.9327L45.2703 17.9588C45.7535 17.9311 46.1089 18.0067 46.3368 18.1856C46.5646 18.3646 46.7277 18.7071 46.8261 19.2132L46.9161 19.6756C46.9749 19.9781 47.0291 20.1788 47.0785 20.2779C47.1337 20.3758 47.2136 20.4145 47.3182 20.3941C47.4228 20.3737 47.4951 20.3114 47.5351 20.207C47.5798 20.0956 47.5983 19.8807 47.5906 19.5622L47.7422 19.5508C47.7745 20.0577 47.7256 20.4113 47.5958 20.6117C47.4717 20.811 47.1714 20.957 46.6949 21.0499C46.2184 21.1428 45.857 21.0985 45.6106 20.9172C45.3689 20.7288 45.1881 20.3264 45.0682 19.7098L44.9443 19.0729C44.8809 18.7471 44.7909 18.5171 44.6743 18.3829C44.5636 18.2475 44.3949 18.2019 44.1682 18.2461ZM43.1513 15.4831L43.674 18.1704L43.953 18.116C44.2842 18.0514 44.5084 17.9021 44.6257 17.6679C44.7488 17.4326 44.7657 17.0852 44.6763 16.6257L44.6271 16.3727C44.5377 15.9131 44.4004 15.626 44.2152 15.5111C44.0347 15.3893 43.7759 15.3613 43.4389 15.427L43.1513 15.4831Z" fill="#45301A"/>
<path d="M52.6035 20.4684L51.9979 18.5345L50.2401 18.4955L49.514 20.3999L50.1799 20.4147L50.1761 20.5835L48.8178 20.5534L48.8216 20.3846L49.2388 20.3938L51.6377 14.3388L52.3656 14.3549L54.4678 20.5097L54.8762 20.5187L54.8725 20.6876L51.9694 20.6233L51.9732 20.4544L52.6035 20.4684ZM51.2103 15.992L50.3243 18.3018L51.9312 18.3374L51.2103 15.992Z" fill="#45301A"/>
<path d="M62.167 16.0281L60.7648 21.9164L59.5555 21.6279L57.9249 15.3265L56.6318 20.7566L57.1069 20.8699L57.0677 21.0342L55.8843 20.7519L55.9235 20.5876L56.3986 20.7009L57.7617 14.9769L57.2866 14.8635L57.3257 14.6992L59.7098 15.2681L60.9392 20.1487L61.9338 15.9724L61.4587 15.8591L61.4978 15.6948L62.6812 15.9772L62.6421 16.1414L62.167 16.0281Z" fill="#45301A"/>
<path d="M68.0547 18.2359C67.2265 17.8403 66.4313 18.4421 65.669 20.0412L65.3669 20.675C65.0049 21.4344 64.8301 22.0831 64.8427 22.6209C64.8578 23.1534 65.079 23.5217 65.5064 23.7259C66.0942 24.0066 66.9066 23.6921 67.9437 22.7824L68.088 22.8513L67.1791 24.6135L67.0909 24.5714C67.0869 24.4973 67.0766 24.4431 67.0601 24.409C67.0462 24.3694 67.0125 24.3369 66.959 24.3114C66.9109 24.2885 66.6982 24.2394 66.3208 24.1642C65.946 24.0836 65.5849 23.9604 65.2376 23.7945C64.3667 23.3785 63.803 22.8203 63.5465 22.12C63.2954 21.4222 63.3942 20.6027 63.8429 19.6614C64.2942 18.7148 64.8906 18.1034 65.6322 17.8273C66.3792 17.5538 67.1748 17.6186 68.019 18.0219C68.3449 18.1775 68.6424 18.3722 68.9115 18.6058C69.1885 18.8366 69.3537 18.9647 69.4071 18.9902C69.4605 19.0158 69.5057 19.0242 69.5426 19.0156C69.5821 19.0016 69.6319 18.9729 69.692 18.9293L69.7801 18.9714L69.0144 20.7429L68.8701 20.674C68.8872 20.019 68.835 19.4885 68.7137 19.0826C68.6003 18.6738 68.3806 18.3916 68.0547 18.2359Z" fill="#45301A"/>
<path d="M73.2161 21.1245L75.5332 22.8467L75.4327 22.9823L75.0405 22.6908L72.7537 25.7739C72.2772 26.4162 71.7846 26.7771 71.2759 26.8566C70.7707 26.9313 70.2281 26.7532 69.6483 26.3222C69.2633 26.036 69.0114 25.7344 68.8927 25.4174C68.7787 25.1038 68.8205 24.8139 69.0181 24.5474C69.1699 24.3428 69.3452 24.2258 69.5439 24.1964C69.7462 24.1623 69.9448 24.2176 70.1397 24.3625C70.3393 24.5108 70.4496 24.6703 70.4706 24.8409C70.4963 25.015 70.4562 25.1734 70.3503 25.3161C70.2479 25.4541 70.1177 25.575 69.9595 25.6789L69.6815 25.4722C69.5858 25.5118 69.5132 25.5649 69.4638 25.6315C69.4179 25.6934 69.4082 25.771 69.4347 25.8645C69.4695 25.9568 69.5392 26.0418 69.6438 26.1195C69.8339 26.2608 70.0098 26.2772 70.1715 26.1685C70.3414 26.0587 70.6117 25.754 70.9823 25.2544L73.6503 21.6575L73.1156 21.2601L73.2161 21.1245Z" fill="#45301A"/>
<path d="M75.4969 31.2031L76.4839 29.4336L75.304 28.1288L73.4231 28.9098L73.8701 29.4041L73.745 29.5174L72.8332 28.5091L72.9583 28.3958L73.2384 28.7055L79.2808 26.2879L79.7694 26.8282L76.7484 32.587L77.0225 32.8902L76.8974 33.0035L74.9487 30.8486L75.0738 30.7353L75.4969 31.2031ZM77.7875 27.1134L75.5024 28.0568L76.5811 29.2496L77.7875 27.1134Z" fill="#45301A"/>
<path d="M24.2953 62.5963L24.1473 62.6537L18.9691 62.3695L19.0577 62.5985C19.2141 63.0025 19.4792 63.3076 19.8531 63.5138C20.2331 63.7226 20.6869 63.8022 21.2145 63.7525L21.2614 63.8737L19.5886 64.4296L18.2539 60.9816L18.3817 60.932L23.5946 61.226L23.4877 60.9499C23.3331 60.5503 23.1283 60.2812 22.8734 60.1425C22.6186 60.0039 22.1694 59.9096 21.5259 59.8597L21.479 59.7384L23.0049 59.2628L24.2953 62.5963Z" fill="#45301A"/>
<path d="M22.9451 67.7419L25.0209 67.1351L25.9534 66.0309L25.7333 65.6831L25.8491 65.6097L27.046 67.501L26.9302 67.5744L26.7024 67.2145L24.3948 69.9516L27.7411 68.8556L27.3511 68.2394L27.4669 68.166L28.2391 69.3862L28.1233 69.4596L27.8685 69.057L22.9465 70.6051L22.6028 70.0621L24.7863 67.4122L21.5295 68.366L21.1935 67.8352L24.4321 63.6271L24.2506 63.3403L24.3664 63.2669L25.6213 65.2497L25.5055 65.3231L25.2352 64.8961L22.9451 67.7419Z" fill="#45301A"/>
<path d="M27.7168 72.2847L27.452 72.0086L25.7087 73.6845L26.0335 74.0231L25.9346 74.1181L24.3104 72.4251L24.4093 72.3301L24.7342 72.6687L28.1791 69.357L27.8543 69.0184L27.9532 68.9234L29.4624 70.4965C29.8955 70.948 30.1778 71.2908 30.3091 71.525C30.4473 71.7594 30.52 71.9464 30.5274 72.0862C30.552 72.383 30.4169 72.6731 30.122 72.9566C29.8271 73.2401 29.5455 73.3706 29.2772 73.3481C29.0124 73.3223 28.7246 73.1718 28.4138 72.8964L28.3982 72.9114C28.6299 73.2294 28.7348 73.5057 28.7131 73.7402C28.6913 73.9747 28.5296 74.2371 28.2277 74.5272L27.9519 74.7924C27.7715 74.9658 27.6584 75.0912 27.6126 75.1686C27.5702 75.2494 27.5789 75.3211 27.6389 75.3836C27.6989 75.4461 27.7733 75.4681 27.8621 75.4494C27.9577 75.431 28.1125 75.349 28.3263 75.2035L28.4009 75.302C28.0693 75.5473 27.8066 75.6697 27.6127 75.6691C27.4222 75.6721 27.1903 75.5312 26.9171 75.2464C26.6439 74.9617 26.5149 74.6951 26.5301 74.4469C26.5522 74.1987 26.747 73.8979 27.1148 73.5444L27.4947 73.1792C27.6889 72.9924 27.8062 72.8297 27.8464 72.6908C27.89 72.5555 27.8468 72.4201 27.7168 72.2847ZM29.1537 70.3728L27.5509 71.9136L27.7108 72.0803C27.9007 72.2782 28.1013 72.3657 28.3127 72.3427C28.5274 72.3232 28.7718 72.1818 29.0459 71.9183L29.1968 71.7732C29.4709 71.5098 29.6063 71.2895 29.6031 71.1123C29.6066 70.9353 29.5118 70.7461 29.3186 70.5447L29.1537 70.3728Z" fill="#45301A"/>
<path d="M32.7232 77.0917L33.0364 76.6589C33.5529 75.9454 33.8438 75.4696 33.9091 75.2316C33.9864 74.9607 33.9714 74.7476 33.8639 74.5924C33.8047 74.5019 33.7167 74.4142 33.5998 74.3295C33.483 74.2447 33.3704 74.1869 33.2621 74.1559C33.1577 74.1278 33.0501 74.133 32.9391 74.1714C32.8281 74.2098 32.7241 74.2592 32.6269 74.3196C32.5337 74.3828 32.4209 74.4853 32.2885 74.6271C32.1015 74.8363 31.8485 75.1612 31.5296 75.6018L31.2248 76.0229C30.8806 76.4986 30.6526 76.8505 30.5409 77.0787C30.4359 77.3058 30.3797 77.482 30.3721 77.6073C30.3546 77.8859 30.4724 78.1171 30.7256 78.3007C31.0333 78.5238 31.3251 78.5392 31.6009 78.3469C31.8835 78.1534 32.2576 77.735 32.7232 77.0917ZM30.625 78.415C29.9745 77.9433 29.6146 77.4147 29.5453 76.8293C29.4827 76.2429 29.6927 75.6163 30.1753 74.9495C30.6606 74.2789 31.213 73.8768 31.8323 73.7433C32.4584 73.6087 33.0869 73.7702 33.7179 74.2279C34.3489 74.6855 34.6915 75.2134 34.7456 75.8115C34.8065 76.4086 34.5942 77.0425 34.1088 77.7131C33.6234 78.3837 33.0831 78.7856 32.4878 78.9187C31.8964 79.0547 31.2755 78.8868 30.625 78.415Z" fill="#45301A"/>
<path d="M39.8719 77.8669L39.1506 79.5312L39.0271 79.4717C39.1142 78.8028 39.1343 78.3288 39.0872 78.0495C39.0422 77.7659 38.8811 77.5572 38.6038 77.4234L38.5258 77.3857L36.4643 81.6665L37.0167 81.9331L36.9509 82.0697L34.5787 80.925L34.6445 80.7884L35.1969 81.055L37.2584 76.7742L37.174 76.7334C36.8967 76.5996 36.6289 76.6067 36.3708 76.7547C36.1147 76.8984 35.7609 77.2061 35.3095 77.6778L35.186 77.6182L36.0374 76.0166L39.8719 77.8669Z" fill="#45301A"/>
<path d="M41.3148 82.1071C41.1953 82.5336 41.1755 82.8806 41.2554 83.148C41.34 83.4168 41.5721 83.6045 41.9519 83.7111C42.3317 83.8177 42.6566 83.7814 42.9266 83.6022C43.1966 83.423 43.3991 83.0923 43.5342 82.6102L44.4149 79.467L43.9633 79.3402L44.0004 79.2081L45.0146 79.4929L44.9776 79.625L44.5955 79.5177L43.7285 82.6122C43.5674 83.1871 43.3199 83.5801 42.986 83.7914C42.652 84.0027 42.1608 84.0173 41.5125 83.8353C40.8687 83.6546 40.4132 83.3816 40.1458 83.0165C39.883 82.6527 39.8432 82.144 40.0264 81.4903L40.872 78.4723L40.4899 78.3651L40.5269 78.233L42.7152 78.8473L42.6782 78.9794L42.2266 78.8527L41.3148 82.1071Z" fill="#45301A"/>
<path d="M48.6276 80.1124L50.7488 80.1068C51.4751 80.1049 52.0165 80.2094 52.373 80.4204C52.7294 80.6265 52.9084 80.9991 52.9098 81.5384C52.9113 82.1354 52.696 82.5477 52.2637 82.7751C51.8602 82.9832 51.2953 83.0882 50.569 83.0901L50.5112 83.0902L50.5163 85.0258L51.4181 85.0234L51.4185 85.1606L48.6408 85.1679L48.6404 85.0307L49.1094 85.0295L49.0969 80.2484L48.6279 80.2496L48.6276 80.1124ZM50.5038 80.2447L50.5109 82.953L50.6624 82.9526C50.951 82.9519 51.1503 82.8526 51.2605 82.6549C51.3706 82.4572 51.4251 82.1369 51.4239 81.6939L51.423 81.3473C51.4219 80.938 51.3683 80.6517 51.262 80.4883C51.1606 80.3248 50.9728 80.2435 50.6986 80.2442L50.5038 80.2447Z" fill="#45301A"/>
<path d="M53.7842 80.0761L55.9601 79.747L55.9806 79.8827L55.5882 79.942L56.3018 84.6695L56.6941 84.6102L56.7146 84.7458L54.5388 85.0749L54.5183 84.9392L54.9107 84.8799L54.1971 80.1524L53.8047 80.2118L53.7842 80.0761Z" fill="#45301A"/>
<path d="M57.4965 79.5919L61.0823 78.4874L61.5714 79.8329L61.4473 79.8712C61.1113 79.4659 60.8114 79.2106 60.5476 79.1055C60.2824 78.9958 59.9452 79.0039 59.5361 79.1299L59.2947 79.2043L59.9504 81.3373L60.1848 81.265C60.4009 81.1985 60.5577 81.062 60.6553 80.8556C60.7515 80.6447 60.7871 80.3919 60.7619 80.0974L60.8654 80.0655L61.4935 82.1088L61.3762 82.1449C61.1874 81.8252 60.9991 81.6137 60.8113 81.5103C60.6281 81.4056 60.4147 81.3907 60.171 81.4658L60.0055 81.5167L60.6867 83.7325L60.9487 83.6518C61.3717 83.5215 61.6913 83.2845 61.9078 82.9408C62.1288 82.5957 62.2336 82.2082 62.2223 81.7785L62.3602 81.736L62.7676 83.2578L58.9818 84.4239L58.9351 84.272L59.342 84.1467L57.95 79.6185L57.5431 79.7438L57.4965 79.5919Z" fill="#45301A"/>
<path d="M65.95 76.4514L68.1723 80.8379L67.2715 81.2952L62.9529 78.2482L65.0023 82.2933L65.3563 82.1136L65.4183 82.236L64.5367 82.6836L64.4747 82.5612L64.8286 82.3815L62.6682 78.1174L62.3143 78.2971L62.2523 78.1747L64.0283 77.2731L67.3524 79.6507L65.7762 76.5396L65.4223 76.7193L65.3603 76.5969L66.2419 76.1494L66.3039 76.2717L65.95 76.4514Z" fill="#45301A"/>
<path d="M66.9001 75.7819L68.6893 74.4995L68.7691 74.611L68.4465 74.8423L71.2273 78.7295L71.5499 78.4982L71.6297 78.6098L69.8406 79.8923L69.7608 79.7807L70.0834 79.5494L67.3026 75.6622L66.98 75.8935L66.9001 75.7819Z" fill="#45301A"/>
<path d="M69.994 73.6569L72.6865 71.0415L73.7331 72.0175L73.6399 72.108C73.1566 71.8998 72.7736 71.809 72.4909 71.8354C72.2048 71.8583 71.9082 72.019 71.6009 72.3174L71.4197 72.4934L72.9723 74.095L73.1483 73.924C73.3106 73.7664 73.3883 73.5735 73.3815 73.3452C73.3714 73.1135 73.2883 72.8722 73.1322 72.6213L73.2098 72.5459L74.6971 74.0801L74.6091 74.1656C74.2957 73.9668 74.0319 73.8641 73.8177 73.8574C73.607 73.8475 73.4101 73.9313 73.2272 74.109L73.1029 74.2297L74.7158 75.8935L74.9125 75.7024C75.2301 75.3939 75.4072 75.0373 75.4439 74.6327C75.4841 74.2247 75.4015 73.8319 75.1963 73.4543L75.2999 73.3537L76.3538 74.5238L75.9965 74.8708C75.9499 75.2583 76.0873 75.6179 76.4089 75.9496C76.5329 76.0775 76.6287 76.1521 76.6964 76.1736C76.7641 76.195 76.8359 76.1689 76.9118 76.0951C76.9878 76.0213 77.0038 75.8615 76.9599 75.6157L77.0674 75.5918C77.0961 75.7182 77.1132 75.8257 77.1187 75.9143C77.1275 76.0064 77.1088 76.1151 77.0627 76.2404C77.0166 76.3657 76.928 76.492 76.7968 76.6194C76.6657 76.7468 76.5166 76.8212 76.3496 76.8425C76.1826 76.8639 76.0287 76.802 75.8881 76.6568C75.7507 76.5152 75.6698 76.3556 75.6452 76.1782C75.6207 76.0007 75.6553 75.7323 75.7492 75.3728L75.836 75.0268L73.5112 77.285L73.4006 77.171L73.7061 76.8743L70.41 73.4742L70.1045 73.7709L69.994 73.6569Z" fill="#45301A"/>
<path d="M78.474 67.6459C79.2773 68.2265 79.6735 68.8574 79.6628 69.5385C79.6539 70.1676 79.3862 70.8471 78.8597 71.5771L77.6643 73.2341L77.5532 73.1538L77.8319 72.7673L73.9597 69.9683L73.6809 70.3548L73.5698 70.2744L74.8749 68.4652C75.4156 67.7157 75.9751 67.2649 76.5535 67.1129C77.128 66.958 77.7682 67.1357 78.474 67.6459ZM78.6556 71.6256L78.8161 71.4031C79.1005 71.0088 79.1648 70.6277 79.009 70.2597C78.8522 69.885 78.4462 69.4609 77.791 68.9873L77.4518 68.7421C76.5744 68.1079 75.9249 67.8938 75.5034 68.0998C75.3021 68.1979 75.0959 68.3933 74.8847 68.686L74.7833 68.8266L78.6556 71.6256Z" fill="#45301A"/>
<path d="M78.4266 62.4202L78.5694 62.4895L81.8899 66.4771L81.9969 66.2561C82.1858 65.8662 82.2282 65.4641 82.1243 65.0498C82.018 64.629 81.767 64.2423 81.3712 63.8896L81.4279 63.7726L82.9741 64.6195L81.3624 67.9468L81.239 67.8869L77.9021 63.8672L77.773 64.1337C77.5862 64.5192 77.5289 64.8526 77.6012 65.1339C77.6735 65.4151 77.9106 65.8084 78.3125 66.3139L78.2559 66.4309L76.8684 65.637L78.4266 62.4202Z" fill="#45301A"/>
<path d="M81.8837 59.7215L79.9991 58.1082L79.7966 58.8089L79.6857 58.7768L80.0806 57.41L80.1915 57.4421L80.0592 57.9L82.0714 59.6179L84.3655 60.2822L84.4877 59.859L84.6194 59.8972L83.9839 62.0964L83.8522 62.0583L83.9745 61.6351L81.8121 61.0089L79.0247 61.4799L78.9305 61.806L78.8196 61.7739L79.4611 59.5538L79.572 59.5859L79.4417 60.0369L81.8837 59.7215Z" fill="#45301A"/>
<path d="M37.6746 43.7349C37.6746 40.4271 38.2157 37.8994 39.298 36.1516C40.3802 34.3894 41.8737 33.5083 43.7785 33.5083C45.0339 33.5083 46.08 33.7971 46.917 34.3749C47.7683 34.9527 48.2662 35.7688 48.4105 36.8233C47.79 37.2277 47.0108 37.4516 46.0728 37.4949C45.8852 36.4405 45.6111 35.6821 45.2503 35.2199C44.8896 34.7433 44.3268 34.5049 43.562 34.5049C42.4221 34.5049 41.5274 35.1983 40.8781 36.5849C40.2287 37.9716 39.904 39.936 39.904 42.4783H39.9473C40.842 40.9905 42.1768 40.2466 43.9516 40.2466C45.5678 40.2466 46.7871 40.781 47.6096 41.8499C48.4465 42.9188 48.865 44.1899 48.865 45.6633C48.865 47.3533 48.3816 48.7833 47.4148 49.9533C46.448 51.1088 45.1926 51.6866 43.6486 51.6866C42.7684 51.6866 41.9747 51.5349 41.2677 51.2316C40.575 50.9283 40.005 50.5238 39.5577 50.0183C39.1104 49.5127 38.7424 48.9133 38.4538 48.2199C38.1652 47.5266 37.9632 46.8116 37.8478 46.0749C37.7323 45.3383 37.6746 44.5583 37.6746 43.7349ZM46.3759 45.5766C46.3759 44.3777 46.1378 43.3594 45.6616 42.5216C45.1998 41.6838 44.5216 41.2649 43.627 41.2649C42.5303 41.2649 41.6933 41.6333 41.1161 42.3699C40.539 43.0921 40.2504 44.0816 40.2504 45.3383C40.2504 47.2016 40.5317 48.5666 41.0945 49.4333C41.6573 50.2855 42.5014 50.7116 43.627 50.7116C45.4596 50.7116 46.3759 48.9999 46.3759 45.5766Z" fill="white"/>
<path d="M51.0396 42.8899C51.0396 41.5033 51.1695 40.2394 51.4293 39.0983C51.7034 37.9427 52.1002 36.9533 52.6197 36.1299C53.1392 35.2921 53.7741 34.6494 54.5245 34.2016C55.2748 33.7394 56.1334 33.5083 57.1002 33.5083C58.0959 33.5083 58.9689 33.7466 59.7192 34.2233C60.4696 34.6855 61.0973 35.3427 61.6023 36.1949C62.1218 37.0327 62.5114 38.0438 62.7712 39.2283C63.0309 40.3983 63.1608 41.691 63.1608 43.1066C63.1608 44.2766 63.0237 45.3816 62.7495 46.4216C62.4754 47.4616 62.0785 48.3716 61.5591 49.1516C61.0396 49.9316 60.4047 50.5527 59.6543 51.0149C58.904 51.4627 58.0526 51.6866 57.1002 51.6866C56.1045 51.6866 55.2315 51.4555 54.4812 50.9933C53.7308 50.5166 53.0959 49.881 52.5764 49.0866C52.0714 48.2777 51.689 47.346 51.4293 46.2916C51.1695 45.2227 51.0396 44.0888 51.0396 42.8899ZM57.1002 50.7116C57.5908 50.7116 58.0454 50.5238 58.4638 50.1483C58.8967 49.7583 59.2647 49.2021 59.5677 48.4799C59.8852 47.7577 60.1305 46.8838 60.3037 45.8583C60.4768 44.8183 60.5634 43.6483 60.5634 42.3483C60.5634 39.8205 60.2748 37.8777 59.6976 36.5199C59.1348 35.1621 58.269 34.4833 57.1002 34.4833C55.9314 34.4833 55.0584 35.1621 54.4812 36.5199C53.9184 37.8777 53.637 39.8205 53.637 42.3483C53.637 45.0927 53.9328 47.1727 54.5245 48.5883C55.1161 50.0038 55.9747 50.7116 57.1002 50.7116Z" fill="white"/>
<path d="M40.5079 64.0499C40.4701 63.9366 40.4701 63.8233 40.5079 63.7099L41.291 63.5966C41.3161 63.3573 41.3287 62.989 41.3287 62.4916V56.9288L40.5645 56.8344C40.5393 56.7399 40.5393 56.6234 40.5645 56.4849C40.6588 56.4912 40.8066 56.4944 41.0079 56.4944C41.4105 56.4944 41.9294 56.4786 42.5647 56.4471C43.2063 56.4094 43.5742 56.3905 43.6686 56.3905C44.9014 56.3905 45.8355 56.7242 46.4708 57.3916C47.106 58.059 47.4237 58.9562 47.4237 60.0833C47.4237 61.2292 47.1249 62.1799 46.5274 62.9355C45.9298 63.691 45.0933 64.0688 44.0177 64.0688C43.6591 64.0688 43.1843 64.0625 42.593 64.0499C42.0017 64.0436 41.5772 64.0405 41.3193 64.0405C40.9545 64.0405 40.684 64.0436 40.5079 64.0499ZM43.6591 63.6155C45.4329 63.6155 46.3198 62.457 46.3198 60.1399C46.3198 59.1388 46.0871 58.3486 45.6216 57.7694C45.1624 57.1901 44.4989 56.8816 43.6308 56.8438C43.5554 56.8375 43.439 56.8344 43.2817 56.8344C42.9484 56.8344 42.6465 56.8596 42.376 56.9099C42.3508 57.1492 42.3383 57.5301 42.3383 58.0527V63.5871C42.4137 63.5871 42.593 63.5934 42.876 63.606C43.1654 63.6123 43.4264 63.6155 43.6591 63.6155Z" fill="white"/>
<path d="M54.4357 61.4999V58.081C54.4357 57.5836 54.4231 57.2153 54.398 56.976L53.5205 56.8627C53.4828 56.7494 53.4828 56.636 53.5205 56.5227C53.9168 56.5416 54.3005 56.551 54.6716 56.551C55.0804 56.551 55.461 56.5384 55.8132 56.5133C55.8384 56.6518 55.8384 56.7683 55.8132 56.8627L54.9546 56.9571V64.031H54.4546L50.2938 58.3927C50.0988 58.1346 49.8692 57.7977 49.605 57.3821C49.6365 57.6718 49.6522 58.0212 49.6522 58.4305V62.4916C49.6522 62.989 49.6648 63.3573 49.6899 63.5966L50.5674 63.7099C50.6051 63.8233 50.6051 63.9366 50.5674 64.0499C50.0264 64.0373 49.6427 64.031 49.4163 64.031C49.0452 64.031 48.6647 64.0405 48.2747 64.0594C48.2495 63.9209 48.2495 63.8044 48.2747 63.7099L49.1333 63.6155V58.0527C49.1333 57.5553 49.1207 57.187 49.0955 56.9477L48.3124 56.8344C48.2747 56.7273 48.2747 56.6203 48.3124 56.5133H50.1617L53.9451 61.6699C53.9954 61.7392 54.0489 61.821 54.1055 61.9155C54.1684 62.0099 54.2344 62.1233 54.3036 62.2555C54.3791 62.3877 54.4388 62.4884 54.4829 62.5577C54.4514 62.1799 54.4357 61.8273 54.4357 61.4999Z" fill="white"/>
<path d="M58.4256 58.0527V63.6155L59.1898 63.7099C59.215 63.8044 59.215 63.9209 59.1898 64.0594C58.7935 64.0405 58.3627 64.031 57.8972 64.031C57.5576 64.031 57.1236 64.0373 56.5952 64.0499C56.5575 63.9366 56.5575 63.8233 56.5952 63.7099L57.3783 63.5966C57.4035 63.3573 57.416 62.989 57.416 62.4916V56.9288L56.6518 56.8344C56.6266 56.7399 56.6266 56.6234 56.6518 56.4849C56.9978 56.5101 57.4286 56.5227 57.9444 56.5227C58.4036 56.5227 58.8376 56.5133 59.2464 56.4944C59.2841 56.6077 59.2841 56.721 59.2464 56.8344L58.4633 56.9477C58.4382 57.187 58.4256 57.5553 58.4256 58.0527Z" fill="white"/>
</svg>
