<svg width="59" height="40" viewBox="0 0 59 40" fill="none" xmlns="http://www.w3.org/2000/svg">
<rect x="0.582031" y="0.5" width="57.3333" height="39" rx="3.5" fill="white" stroke="white"/>
<path fill-rule="evenodd" clip-rule="evenodd" d="M16.582 25.4014H13.9894C13.8119 25.4014 13.661 25.5303 13.6334 25.7054L12.5848 32.3538C12.5639 32.4851 12.6655 32.6033 12.7986 32.6033H14.0364C14.2138 32.6033 14.3647 32.4744 14.3923 32.2989L14.6752 30.5058C14.7024 30.3302 14.8537 30.2014 15.0308 30.2014H15.8515C17.5594 30.2014 18.545 29.3749 18.8026 27.7372C18.9185 27.0207 18.8075 26.4577 18.4719 26.0633C18.1034 25.6305 17.4498 25.4014 16.582 25.4014ZM16.8812 27.8296C16.7394 28.76 16.0286 28.76 15.3412 28.76H14.95L15.2245 27.0224C15.2408 26.9175 15.3318 26.8401 15.4379 26.8401H15.6172C16.0854 26.8401 16.5271 26.8401 16.7554 27.107C16.8913 27.2663 16.9331 27.5028 16.8812 27.8296ZM24.3322 27.7998H23.0907C22.9849 27.7998 22.8935 27.8772 22.8771 27.9822L22.8222 28.3294L22.7354 28.2037C22.4666 27.8135 21.8673 27.6831 21.2691 27.6831C19.897 27.6831 18.7252 28.7223 18.497 30.18C18.3784 30.907 18.547 31.6023 18.9594 32.0872C19.3378 32.533 19.8792 32.7188 20.5233 32.7188C21.6287 32.7188 22.2419 32.0079 22.2419 32.0079L22.1864 32.353C22.1656 32.4849 22.2671 32.6031 22.3994 32.6031H23.5178C23.6957 32.6031 23.8457 32.4742 23.8738 32.2988L24.5449 28.0493C24.5661 27.9186 24.4649 27.7998 24.3322 27.7998ZM22.6015 30.2163C22.4817 30.9256 21.9187 31.4017 21.2008 31.4017C20.8403 31.4017 20.552 31.2861 20.3671 31.067C20.1836 30.8495 20.1138 30.5396 20.1722 30.1947C20.2842 29.4914 20.8566 28.9998 21.5636 28.9998C21.9161 28.9998 22.2028 29.1168 22.3915 29.3379C22.5807 29.5612 22.6557 29.8728 22.6015 30.2163ZM29.697 27.7996H30.9447C31.1194 27.7996 31.2214 27.9956 31.1221 28.1389L26.9724 34.1288C26.9052 34.2258 26.7945 34.2835 26.6763 34.2835H25.4301C25.2547 34.2835 25.1522 34.0859 25.2538 33.9423L26.5459 32.1184L25.1717 28.0854C25.1242 27.9452 25.2277 27.7996 25.3768 27.7996H26.6028C26.7621 27.7996 26.9026 27.9042 26.9486 28.0566L27.6779 30.4924L29.3987 27.9577C29.4661 27.8587 29.578 27.7996 29.697 27.7996Z" fill="#253B80"/>
<path fill-rule="evenodd" clip-rule="evenodd" d="M43.2252 32.3532L44.2893 25.5832C44.3056 25.4781 44.3967 25.4007 44.5024 25.4004H45.7003C45.8326 25.4004 45.9342 25.519 45.9133 25.6502L44.864 32.2983C44.8367 32.4737 44.6858 32.6027 44.5081 32.6027H43.4382C43.3059 32.6027 43.2044 32.4844 43.2252 32.3532ZM35.0763 25.4007H32.4831C32.3061 25.4007 32.1552 25.5297 32.1275 25.7048L31.0789 32.3532C31.058 32.4844 31.1596 32.6027 31.2921 32.6027H32.6226C32.7463 32.6027 32.8521 32.5125 32.8714 32.3897L33.1689 30.5051C33.1963 30.3295 33.3475 30.2008 33.5245 30.2008H34.3449C36.0531 30.2008 37.0386 29.3743 37.2963 27.7365C37.4126 27.02 37.3008 26.4571 36.9654 26.0627C36.5972 25.6299 35.944 25.4007 35.0763 25.4007ZM35.3754 27.829C35.234 28.7593 34.5231 28.7593 33.8354 28.7593H33.4445L33.7194 27.0218C33.7357 26.9169 33.8259 26.8395 33.9324 26.8395H34.1117C34.5796 26.8395 35.0217 26.8395 35.2498 27.1064C35.3859 27.2657 35.4273 27.5021 35.3754 27.829ZM42.8258 27.7992H41.5851C41.4784 27.7992 41.3879 27.8765 41.3719 27.9816L41.317 28.3288L41.2298 28.203C40.961 27.8129 40.3621 27.6825 39.7638 27.6825C38.3917 27.6825 37.2203 28.7216 36.9921 30.1793C36.8738 30.9064 37.0417 31.6016 37.4542 32.0865C37.8333 32.5323 38.374 32.7181 39.018 32.7181C40.1235 32.7181 40.7365 32.0072 40.7365 32.0072L40.6812 32.3523C40.6603 32.4843 40.7619 32.6025 40.8951 32.6025H42.013C42.19 32.6025 42.3409 32.4736 42.3686 32.2981L43.04 28.0486C43.0605 27.9179 42.9589 27.7992 42.8258 27.7992ZM41.0952 30.2157C40.9761 30.925 40.4124 31.4011 39.6944 31.4011C39.3345 31.4011 39.0458 31.2855 38.8607 31.0664C38.6772 30.8488 38.6082 30.539 38.6659 30.1941C38.7784 29.4908 39.3501 28.9992 40.0572 28.9992C40.4098 28.9992 40.6963 29.1162 40.8852 29.3372C41.0751 29.5606 41.1502 29.8722 41.0952 30.2157Z" fill="#179BD7"/>
<path d="M26.1761 23.023L26.4949 20.9985L25.7849 20.982H22.3945L24.7507 6.04224C24.7579 5.99713 24.7817 5.95508 24.8165 5.92522C24.8512 5.89536 24.8958 5.87891 24.9421 5.87891H30.6588C32.5567 5.87891 33.8663 6.27384 34.5502 7.05333C34.8707 7.41902 35.0749 7.80114 35.1737 8.22167C35.2772 8.66293 35.2791 9.19011 35.1779 9.83309L35.1705 9.88002V10.292L35.4912 10.4736C35.7612 10.6168 35.9756 10.7808 36.1402 10.9685C36.4146 11.2812 36.5919 11.6785 36.6668 12.1496C36.7442 12.6342 36.7186 13.2107 36.5919 13.8635C36.4456 14.6143 36.2091 15.2683 35.8898 15.8034C35.596 16.2964 35.2218 16.7053 34.7775 17.0223C34.3533 17.3234 33.8493 17.552 33.2795 17.6983C32.7272 17.842 32.0977 17.9146 31.4072 17.9146H30.9623C30.6442 17.9146 30.3351 18.0291 30.0926 18.2346C29.8495 18.4442 29.6884 18.7306 29.6391 19.0439L29.6056 19.2262L29.0424 22.7944L29.0168 22.9255C29.0102 22.9671 28.9986 22.9878 28.9816 23.0018C28.9663 23.0144 28.9444 23.023 28.923 23.023H26.1761Z" fill="#253B80"/>
<path d="M35.7948 9.92773C35.7778 10.0368 35.7584 10.1483 35.7364 10.2629C34.9824 14.1336 32.4033 15.4708 29.109 15.4708H27.4318C27.029 15.4708 26.6896 15.7633 26.6268 16.1607L25.768 21.6069L25.5248 23.1506C25.4839 23.4114 25.6852 23.6467 25.9483 23.6467H28.9232C29.2755 23.6467 29.5747 23.3907 29.6301 23.0434L29.6594 22.8921L30.2196 19.3378L30.2555 19.1428C30.3103 18.7942 30.6101 18.5383 30.9624 18.5383H31.4073C34.2894 18.5383 36.5457 17.3681 37.2052 13.9819C37.4806 12.5673 37.338 11.3862 36.6091 10.5555C36.3885 10.305 36.1148 10.0972 35.7948 9.92773Z" fill="#179BD7"/>
<path d="M35.0064 9.61337C34.8914 9.57984 34.7724 9.54937 34.6505 9.52195C34.528 9.49514 34.4024 9.47137 34.2733 9.45065C33.821 9.37751 33.3256 9.34277 32.7947 9.34277H28.314C28.2036 9.34277 28.0989 9.36776 28.005 9.41286C27.7984 9.51219 27.6449 9.70784 27.6077 9.94735L26.6543 15.9847L26.627 16.1608C26.6898 15.7634 27.0292 15.4709 27.432 15.4709H29.1092C32.4035 15.4709 34.9828 14.1331 35.7366 10.2631C35.7591 10.1485 35.778 10.037 35.795 9.92786C35.6043 9.82669 35.3977 9.74014 35.1752 9.66639C35.1205 9.64811 35.0638 9.63044 35.0064 9.61337Z" fill="#222D65"/>
<path d="M27.6073 9.94712C27.6445 9.7076 27.7982 9.51196 28.0047 9.41323C28.0993 9.36812 28.2035 9.34314 28.3136 9.34314H32.7945C33.3254 9.34314 33.8208 9.37787 34.273 9.45102C34.4023 9.47173 34.5279 9.49551 34.6503 9.52231C34.7723 9.54975 34.891 9.58023 35.0063 9.61374C35.0635 9.63081 35.1201 9.64847 35.1756 9.66616C35.398 9.73989 35.6047 9.82705 35.7954 9.92761C36.0198 8.49721 35.7937 7.52329 35.0203 6.64139C34.1677 5.67053 32.6287 5.25488 30.6596 5.25488H24.9428C24.5405 5.25488 24.1975 5.54741 24.1352 5.94539L21.7542 21.0387C21.7071 21.3373 21.9375 21.6068 22.2385 21.6068H25.768L26.6542 15.9844L27.6073 9.94712Z" fill="#253B80"/>
</svg>
