<svg width="314" height="56" viewBox="0 0 314 56" fill="none" xmlns="http://www.w3.org/2000/svg">
<g clip-path="url(#clip0_2078_1858)">
<path d="M22.6541 5.92376L2.49414 14.0518H41.8541H81.2142L62.9742 6.24376C52.9261 1.89176 44.2861 -1.75624 43.7741 -1.94824C43.2621 -2.14024 33.7261 1.37976 22.6541 5.92376Z" fill="#313131"/>
<path d="M2.17383 18.2755V19.8755H41.8538H81.5339V18.2755V16.6755H41.8538H2.17383V18.2755Z" fill="#313131"/>
<path d="M122.494 36.5155C122.494 46.8835 122.558 47.3955 123.71 47.3955C124.414 47.3955 125.182 47.0755 125.374 46.7555C125.63 46.3075 126.206 46.3715 127.038 46.8195C127.742 47.1395 129.342 47.3955 130.686 47.2675C137.086 46.7555 137.982 34.0835 131.71 32.0355C129.982 31.4595 129.15 31.4595 127.614 32.2275L125.694 33.1875V29.4115C125.694 25.8275 125.63 25.6355 124.094 25.6355H122.494V36.5155ZM131.838 36.1955C132.99 37.9875 132.798 42.2755 131.454 43.8755C130.494 45.0275 127.55 45.1555 126.462 44.0675C126.014 43.6195 125.694 41.6995 125.694 39.7155C125.694 37.7315 126.014 35.8115 126.462 35.3635C127.806 34.0195 130.686 34.4675 131.838 36.1955Z" fill="#313131"/>
<path d="M190.974 29.5395C190.974 32.9315 190.846 33.3795 190.014 32.6755C189.502 32.2915 188.03 31.9075 186.686 31.9075C183.102 31.9075 180.734 34.7875 180.734 39.1395C180.734 42.6595 182.014 45.7315 183.87 46.7555C185.47 47.5875 188.158 47.5875 189.758 46.7555C190.59 46.3075 190.974 46.3075 190.974 46.7555C190.974 47.0755 191.678 47.3955 192.574 47.3955H194.174V36.5155V25.6355H192.574C191.038 25.6355 190.974 25.8275 190.974 29.5395ZM190.206 35.3635C191.358 36.5155 191.166 42.5955 189.95 43.8115C187.454 46.3715 183.934 44.0035 183.934 39.7155C183.934 36.7075 185.47 34.5955 187.71 34.5955C188.67 34.5955 189.758 34.9155 190.206 35.3635Z" fill="#313131"/>
<path d="M294.014 36.5155V47.3955H295.614H297.214V36.5155V25.6355H295.614H294.014V36.5155Z" fill="#313131"/>
<path d="M302.014 27.2354C298.43 30.7554 301.246 37.7954 306.174 37.7954C311.678 37.7954 313.918 29.9234 309.438 26.4674C307.646 25.0594 303.742 25.4434 302.014 27.2354ZM308.798 27.1074C312.958 30.3074 311.166 36.5154 306.11 36.5154C301.566 36.5154 299.39 31.0754 302.654 27.8754C304.318 26.1474 307.134 25.8274 308.798 27.1074Z" fill="#313131"/>
<path d="M303.613 31.3314C303.613 33.1234 303.933 34.5954 304.253 34.5954C304.637 34.5954 304.893 34.0194 304.893 33.3154C304.893 32.5474 305.341 32.0354 305.917 32.0354C306.493 32.0354 307.069 32.6114 307.261 33.3154C307.901 35.6834 308.669 34.5954 308.541 31.5234C308.413 28.5154 308.413 28.5154 306.045 28.3234L303.613 28.1314V31.3314ZM307.133 30.1154C307.133 30.6274 306.621 31.1394 306.045 31.2674C305.213 31.3954 304.893 31.0754 304.893 30.1154C304.893 29.1554 305.213 28.8354 306.045 28.9634C306.621 29.0914 307.133 29.6034 307.133 30.1154Z" fill="#313131"/>
<path d="M10.7508 27.1074C10.6228 27.5554 10.5588 32.6754 10.6228 38.4354L10.8148 48.9954L13.1828 49.1874L15.5508 49.3794L15.7428 45.3474L15.9348 41.3154L19.9668 40.9954C23.5508 40.7394 24.2548 40.4194 25.9188 38.5634C27.3908 36.9634 27.7748 35.8754 27.7748 33.6354C27.7748 29.7314 25.9188 27.7474 21.4388 26.9154C16.5108 26.0194 11.1348 26.0834 10.7508 27.1074ZM22.5268 31.8434C23.2948 32.9314 23.0388 34.9154 21.8868 36.3234C21.5028 36.7714 19.9668 37.1554 18.4308 37.1554H15.6148V34.0834C15.6148 32.3554 15.8068 30.7554 16.1268 30.4994C16.8948 29.6674 21.6308 30.6914 22.5268 31.8434Z" fill="#313131"/>
<path d="M30.9746 37.7954V49.3154H33.5986H36.2866L35.9666 41.3154L35.6466 33.3154L38.1426 39.8434C39.4866 43.4274 40.5746 46.4354 40.5746 46.5634C40.5746 46.7554 41.2146 46.7554 41.9186 46.6274C43.0066 46.4994 43.8386 45.0914 45.7586 40.0994C47.1026 36.6434 48.3186 33.6994 48.3826 33.5714C48.5106 33.5074 48.5106 36.9634 48.3826 41.3794L48.1266 49.3154H50.4306H52.7346V37.7314V26.2114L50.0466 26.4034L47.2946 26.5954L44.7986 33.6354L42.2386 40.6114L41.1506 38.1154C40.5746 36.7074 39.2946 33.4434 38.3346 30.8834L36.6066 26.2754H33.7906H30.9746V37.7954Z" fill="#313131"/>
<path d="M62.653 27.2355C59.709 28.8355 58.621 30.0515 57.469 33.0595C56.125 36.5795 56.573 42.4035 58.365 44.7715C61.693 49.3155 67.901 50.7235 72.381 47.9715C74.493 46.6275 74.557 46.5635 73.405 45.2195C72.765 44.5155 72.189 43.7475 72.125 43.6195C72.061 43.4915 70.973 43.8755 69.821 44.4515C65.469 46.4995 61.693 43.4275 61.693 37.7955C61.693 32.4835 65.597 29.0915 69.565 31.0755C71.293 31.9715 71.485 31.9075 72.573 30.5635C73.725 29.2195 73.725 29.0915 72.573 27.9395C70.909 26.2115 65.213 25.8275 62.653 27.2355Z" fill="#313131"/>
<path d="M87.293 36.8355V47.3955H88.893C90.429 47.3955 90.493 47.2035 90.493 43.5555V39.7155H93.757C99.517 39.7155 102.653 37.2195 102.653 32.6755C102.653 28.5795 98.557 26.3395 91.005 26.2755H87.293V36.8355ZM98.621 31.1395C99.581 32.6755 99.581 32.9955 98.749 34.5315C97.917 36.0035 97.341 36.1955 94.141 36.3875L90.493 36.5795V32.9955V29.4755H94.013C97.085 29.4755 97.661 29.6675 98.621 31.1395Z" fill="#313131"/>
<path d="M139.583 26.7235C139.327 26.9155 139.135 31.7155 139.135 37.2835V47.3955H141.119H143.103L142.847 39.7155C142.783 35.5555 142.847 32.2915 143.039 32.5475C143.295 32.8035 144.703 36.2595 146.239 40.2275C149.887 49.8915 150.463 49.8275 154.623 39.3955L157.631 31.7155L157.695 39.5235V47.3955H159.295H160.895V36.8355V26.2755H158.719H156.607L153.535 34.2755C151.743 39.0115 150.271 42.0195 149.951 41.5715C149.695 41.1235 148.287 37.5395 146.751 33.5075C144.127 26.4035 144.063 26.2755 142.015 26.2755C140.927 26.2755 139.775 26.4675 139.583 26.7235Z" fill="#313131"/>
<path d="M209.15 27.4915C204.094 30.5635 203.582 41.7635 208.318 45.7315C209.918 47.0755 210.942 47.3955 213.822 47.3955C216.958 47.3955 217.598 47.1395 219.518 45.2195C222.078 42.6595 222.462 40.3555 220.286 40.3555C219.326 40.4195 218.366 41.1875 217.534 42.4675C216.51 44.0675 215.742 44.5795 213.95 44.7075C210.43 45.0275 208.894 42.7235 208.894 37.2195C208.894 34.9155 209.278 32.2915 209.726 31.4595C211.39 28.1315 216.574 28.3235 217.854 31.7155C218.302 32.8675 218.942 33.3155 220.094 33.3155C221.95 33.3155 222.078 32.6755 220.734 30.1155C218.814 26.4035 213.054 25.1235 209.15 27.4915Z" fill="#313131"/>
<path d="M258.173 30.1155C258.173 31.5875 257.917 32.0355 256.893 32.0355C256.125 32.0355 255.613 32.4835 255.613 33.0595C255.613 33.6355 256.189 34.2115 256.893 34.4035C258.045 34.7235 258.173 35.2995 258.173 39.3315C258.173 45.2835 259.069 47.0115 262.205 47.2675C264.253 47.4595 264.573 47.2675 264.573 46.1795C264.573 45.2835 264.189 44.8355 263.293 44.8355C262.141 44.8355 262.013 44.3875 262.013 39.7155C262.013 35.0435 262.141 34.5955 263.293 34.5955C264.125 34.5955 264.573 34.1475 264.573 33.3155C264.573 32.4835 264.125 32.0355 263.293 32.0355C262.269 32.0355 262.013 31.5875 262.013 30.1155C262.013 28.3875 261.821 28.1955 260.093 28.1955C258.365 28.1955 258.173 28.3875 258.173 30.1155Z" fill="#313131"/>
<path d="M168.766 32.3555C163.582 34.5955 163.326 44.3875 168.382 46.6915C170.814 47.7795 174.654 47.5235 176.318 46.1795C178.43 44.4515 177.278 43.2995 174.59 44.3235C172.158 45.2195 169.79 44.6435 168.702 42.9155C167.422 40.8035 168.318 40.3555 173.438 40.3555H178.174V38.4355C178.174 35.4915 176.574 32.9315 174.27 32.0995C171.71 31.2035 171.262 31.2675 168.766 32.3555ZM174.334 35.8115C175.486 38.0515 175.102 38.4355 171.454 38.4355C167.678 38.4355 167.422 38.1795 168.958 36.0035C170.238 34.2115 173.374 34.0835 174.334 35.8115Z" fill="#313131"/>
<path d="M229.566 31.8435C227.518 32.2275 224.958 35.1075 224.51 37.5395C223.486 43.0435 226.494 47.3955 231.358 47.3955C233.918 47.3955 237.694 45.9235 237.694 44.8995C237.694 43.5555 236.094 43.0435 234.878 43.9395C232.894 45.3475 230.27 45.0275 228.798 43.1715C228.094 42.2115 227.646 41.2515 227.838 40.9315C228.03 40.6115 230.462 40.3555 233.342 40.3555H238.462L238.014 38.0515C237.438 34.7875 236.03 32.8675 233.726 32.0995C232.638 31.7155 231.55 31.4595 231.358 31.4595C231.166 31.5235 230.334 31.7155 229.566 31.8435ZM233.726 35.3635C234.174 35.8115 234.494 36.6435 234.494 37.2835C234.494 38.2435 233.918 38.4355 231.294 38.4355C227.966 38.4355 227.582 37.9875 228.734 35.8115C229.502 34.4035 232.51 34.1475 233.726 35.3635Z" fill="#313131"/>
<path d="M246.207 32.3555C245.055 32.8675 244.095 32.9955 244.095 32.6755C244.095 32.2915 243.391 32.0355 242.495 32.0355H240.895V39.7155V47.3955H242.495C244.095 47.3955 244.095 47.3315 244.095 41.7635C244.095 35.6835 244.543 34.5955 247.295 34.5955C250.047 34.5955 250.495 35.6835 250.495 41.7635C250.495 47.3315 250.495 47.3955 252.095 47.3955C253.695 47.3955 253.695 47.3955 253.695 41.0595C253.695 35.9395 253.503 34.4675 252.607 33.4435C251.071 31.6515 248.703 31.2035 246.207 32.3555Z" fill="#313131"/>
<path d="M272.383 32.4195C271.615 32.9315 270.975 33.0595 270.975 32.7395C270.975 32.3555 270.143 32.0355 269.055 32.0355H267.135V39.7155V47.3955H269.055H270.975V41.6355C270.975 36.5155 271.103 35.8755 272.319 35.2355C273.023 34.7875 274.047 34.6595 274.559 34.8515C275.327 35.1075 275.519 34.7875 275.327 33.5075C275.071 31.3955 274.239 31.0755 272.383 32.4195Z" fill="#313131"/>
<path d="M281.854 31.8436C279.998 32.1636 277.374 34.4036 277.374 35.6836C277.374 36.1316 278.078 36.5156 278.974 36.5156C279.87 36.5156 280.574 36.1956 280.574 35.8756C280.574 35.4916 281.278 34.9156 282.11 34.5316C284.03 33.6356 286.334 34.7236 286.334 36.5156C286.334 37.5396 285.886 37.7956 284.414 37.7956C281.406 37.7956 278.078 39.4596 277.374 41.3156C276.478 43.6836 276.542 44.0676 278.334 45.7956C279.998 47.5236 282.942 47.9076 285.054 46.7556C285.886 46.3076 286.398 46.3076 286.654 46.7556C286.846 47.0756 287.678 47.3956 288.51 47.3956C289.918 47.3956 289.918 47.2676 289.726 41.7636C289.406 33.9556 289.214 33.3796 286.654 32.2916C285.438 31.7796 284.222 31.4596 283.966 31.4596C283.71 31.5236 282.75 31.7156 281.854 31.8436ZM286.334 41.9556C286.334 43.8756 284.926 44.9636 282.686 44.7076C281.15 44.5796 280.894 44.1956 280.894 42.5956C280.894 41.1236 281.214 40.6756 282.494 40.3556C284.926 39.7156 286.334 40.3556 286.334 41.9556Z" fill="#313131"/>
<path d="M105.854 38.4354C105.854 44.0034 106.046 45.0274 107.134 46.1154C108.542 47.5234 112.126 47.8434 114.238 46.7554C115.07 46.3074 115.454 46.3074 115.454 46.7554C115.454 47.0754 116.158 47.3954 117.054 47.3954H118.654V39.7154V32.0354H116.67H114.75L114.878 37.4754C115.006 43.2994 114.43 44.8354 111.998 44.8354C109.566 44.8354 109.054 43.6194 109.054 37.6674C109.054 32.0994 109.054 32.0354 107.454 32.0354H105.854V38.4354Z" fill="#313131"/>
<path d="M2.17383 56.1636V57.9556H41.8538H81.5339V56.1636V54.4356H41.8538H2.17383V56.1636Z" fill="#313131"/>
</g>
<defs>
<clipPath id="clip0_2078_1858">
<rect width="313.652" height="56" fill="white" transform="translate(0.173828)"/>
</clipPath>
</defs>
</svg>
