<svg width="59" height="40" viewBox="0 0 59 40" fill="none" xmlns="http://www.w3.org/2000/svg">
<rect x="0.582031" y="0.5" width="57.3333" height="39" rx="3.5" fill="white" stroke="white"/>
<g clip-path="url(#clip0_2096_3393)">
<mask id="mask0_2096_3393" style="mask-type:luminance" maskUnits="userSpaceOnUse" x="11" y="13" width="36" height="14">
<path d="M46.5272 13H11.082V27H46.5272V13Z" fill="white"/>
</mask>
<g mask="url(#mask0_2096_3393)">
<path d="M13.1104 15.6875H11.082V23.8897H13.1104V15.6875Z" fill="#313131"/>
<path d="M19.4714 16.1564C19.4714 14.416 18.0541 13 16.312 13H11.082V14.7516H16.0633C16.8517 14.7516 17.5048 15.371 17.5192 16.1323C17.5264 16.5135 17.3834 16.8733 17.1164 17.1453C16.8493 17.4174 16.4925 17.5674 16.1116 17.5674H14.1712C14.1023 17.5674 14.0462 17.6233 14.0462 17.6922V19.249C14.0462 19.2755 14.0544 19.3008 14.0698 19.3221L17.3621 23.8896H19.7721L16.4721 19.3096C18.134 19.2262 19.4714 17.8299 19.4714 16.1564Z" fill="#313131"/>
<path d="M31.1937 16.3465C31.1937 18.3838 29.7629 19.7057 27.5858 19.7057H24.7553V23.8891H23.4023V13.0029H27.5858C29.7629 13.0029 31.1937 14.3093 31.1937 16.3465ZM27.4612 18.4616C28.8921 18.4616 29.8096 17.6372 29.8096 16.3465C29.8096 15.0558 28.9077 14.247 27.4769 14.247H24.7553V18.4616H27.4612Z" fill="#313131"/>
<path d="M31.5352 21.666C31.5352 20.0799 32.6395 19.1934 34.7232 19.1934H37.0562V18.649C37.0562 17.6227 36.3253 17.0007 35.0809 17.0007C33.9614 17.0007 33.2149 17.5292 33.0593 18.338H31.7839C31.9707 16.7829 33.2304 15.8652 35.1432 15.8652C37.1651 15.8652 38.3313 16.8762 38.3313 18.7269V23.89H37.2271L37.1182 22.6459C36.6207 23.3612 35.8276 23.9832 34.4589 23.9832C32.717 23.9832 31.5352 23.1124 31.5352 21.666ZM34.5522 22.8947C36.1385 22.8947 37.0562 21.9772 37.0562 20.6553V20.2664H34.5991C33.4637 20.2664 32.826 20.6863 32.826 21.5884C32.826 22.3659 33.4949 22.8947 34.5522 22.8947Z" fill="#313131"/>
<path d="M40.3686 15.958L42.81 22.2877L45.1739 15.958H46.5269L42.8723 25.2268C42.3746 26.5021 42.0791 26.9999 40.9594 26.9999H39.4355V25.8335H40.5707C41.3017 25.8335 41.4261 25.6467 41.7215 24.9004L42.1102 23.9361L39.0156 15.958L40.3686 15.958Z" fill="#313131"/>
</g>
</g>
<defs>
<clipPath id="clip0_2096_3393">
<rect width="35.448" height="14" fill="white" transform="translate(11.082 13)"/>
</clipPath>
</defs>
</svg>
