<svg width="122" height="120" viewBox="0 0 122 120" fill="none" xmlns="http://www.w3.org/2000/svg">
<path d="M86.0979 60.0013C86.0979 73.8546 74.861 85.0854 60.9991 85.0854C47.1372 85.0854 35.9004 73.8546 35.9004 60.0013C35.9004 46.1481 47.1381 34.9165 60.9991 34.9165C74.8601 34.9165 86.0979 46.1472 86.0979 60.0013Z" fill="url(#paint0_linear_775_10973)"/>
<path d="M60.9993 89.3707C44.7953 89.3707 31.6123 76.1955 31.6123 60.001C31.6123 43.8065 44.7953 30.6304 60.9993 30.6304C77.2034 30.6304 90.3864 43.8061 90.3864 60.001C90.3864 76.1959 77.2034 89.3707 60.9993 89.3707ZM60.9993 32.3447C45.7409 32.3447 33.3276 44.7511 33.3276 60.001C33.3276 75.2508 45.741 87.6563 60.9993 87.6563C76.2577 87.6563 88.671 75.2503 88.671 60.001C88.671 44.7516 76.2577 32.3447 60.9993 32.3447Z" fill="#313131"/>
<path d="M60.9993 120C27.8961 120 0.963867 93.0846 0.963867 60.0005C0.963867 26.9164 27.8961 0.000488281 60.9993 0.000488281C94.1025 0.000488281 121.035 26.9164 121.035 60.0005C121.035 93.0846 94.1025 120 60.9993 120ZM60.9993 3.42909C29.7872 3.42909 4.39449 28.8068 4.39449 60.0005C4.39449 91.1942 29.7872 116.572 60.9993 116.572C92.2113 116.572 117.604 91.1942 117.604 60.0005C117.604 28.8068 92.2113 3.42909 60.9993 3.42909Z" fill="#313131"/>
<path d="M59.6359 42.1629C56.6424 42.541 54.0081 44.5703 52.8359 47.4C52.3317 48.6226 52.1426 49.9965 52.1805 52.2716L52.1994 53.469L54.1026 53.4879L55.9996 53.5005L56.0248 51.5972L56.0437 49.6877L56.2391 49.1331C56.5227 48.3453 56.7874 47.9357 57.4302 47.2928C58.3881 46.3349 59.3902 45.9127 60.7388 45.9127C62.0875 45.9127 63.0895 46.3349 64.0475 47.2928C64.6903 47.9357 64.955 48.3453 65.2386 49.1331L65.4339 49.6877L65.4528 51.5972L65.4781 53.5005L67.375 53.4879L69.2783 53.469L69.2972 52.2716C69.3413 49.6246 69.1081 48.2949 68.3518 46.7887C67.4506 44.9988 65.9507 43.5872 64.0853 42.7805C62.7366 42.2007 61.1232 41.9801 59.6359 42.1629Z" fill="white"/>
<path d="M48.3867 64.8761V74.3608H60.739H73.0913V64.8761V55.3913H60.739H48.3867V64.8761ZM56.9577 61.0632V62.0086H55.7035C54.0776 62.0086 54.1217 61.9834 54.1217 62.9476C54.1217 63.4077 54.1469 63.6597 54.2036 63.7354C54.2603 63.8173 54.4557 63.8803 54.8149 63.9433C55.4389 64.0505 55.8674 64.2521 56.2329 64.624C56.8001 65.1912 56.9955 65.8466 56.9451 67.0566C56.9136 67.7688 56.901 67.8381 56.6804 68.2792C56.3338 68.9851 55.7603 69.4199 54.9725 69.5712C54.7456 69.609 54.1154 69.6342 53.397 69.6216L52.1995 69.6027L52.1806 68.6763L52.1617 67.7499L53.4537 67.7309C55.0922 67.7057 55.0355 67.7436 55.0355 66.7667C55.0355 65.9474 54.9914 65.8844 54.3234 65.7899C54.065 65.7584 53.7058 65.6512 53.5167 65.5567C53.1134 65.3613 52.5903 64.8319 52.4201 64.4412C52.1302 63.7984 52.105 62.3552 52.3634 61.6556C52.6218 60.9687 53.2583 60.4015 53.9894 60.2061C54.1721 60.1557 54.7708 60.1242 55.6216 60.1242L56.9577 60.1179V61.0632ZM63.575 61.0569V62.0023L62.2767 62.0212C60.676 62.0464 60.739 62.0086 60.739 62.9539C60.739 63.7606 60.7957 63.8362 61.4637 63.937C62.346 64.0757 63.0141 64.5673 63.3733 65.3361C63.5372 65.6827 63.5435 65.7332 63.5435 66.7667V67.8381L63.3355 68.2603C63.0771 68.7834 62.5792 69.2561 62.0751 69.4514C61.7473 69.5838 61.5898 69.5964 60.2852 69.6216L58.8483 69.6468V68.6952V67.7436H60.0079C61.199 67.7436 61.5142 67.6931 61.6213 67.4915C61.7032 67.3402 61.7032 66.1932 61.6213 66.0483C61.5457 65.897 61.4259 65.8529 60.947 65.7899C60.134 65.6827 59.3903 65.1471 59.05 64.416C58.8861 64.0694 58.8798 64.019 58.8798 62.9854C58.8798 61.9455 58.8861 61.9014 59.0563 61.5359C59.2454 61.1389 59.6235 60.704 59.9701 60.4834C60.4617 60.1809 60.8083 60.1242 62.2389 60.1242L63.575 60.1179V61.0569ZM67.3689 63.9118L67.3878 67.712L68.352 67.7309L69.3163 67.7499L69.2973 68.6763L69.2784 69.6027L67.3752 69.6216L65.4656 69.6342V64.8761V60.1179H66.411H67.3563L67.3689 63.9118Z" fill="white"/>
<path d="M20.6323 55.1558L22.4172 58.7686L26.4076 59.3495L23.5203 62.1619L24.2024 66.1329L20.6323 64.2596L17.0641 66.1329L17.7457 62.1619L14.8584 59.3495L18.8488 58.7686L20.6323 55.1558Z" fill="#313131"/>
<path d="M101.68 55.1558L103.465 58.7686L107.456 59.3495L104.568 62.1619L105.25 66.1329L101.68 64.2596L98.1119 66.1329L98.7936 62.1619L95.9062 59.3495L99.8966 58.7686L101.68 55.1558Z" fill="#313131"/>
<path d="M24.9878 38.7026L26.7727 42.3155L30.7631 42.8964L27.8758 45.7087L28.5578 49.6798L24.9878 47.8065L21.4195 49.6798L22.1012 45.7087L19.2139 42.8964L23.2043 42.3155L24.9878 38.7026Z" fill="#313131"/>
<path d="M97.3248 38.2188L99.1096 41.8316L103.1 42.4125L100.213 45.2248L100.895 49.1959L97.3248 47.3226L93.7564 49.1959L94.4381 45.2248L91.5508 42.4125L95.5412 41.8316L97.3248 38.2188Z" fill="#313131"/>
<path d="M36.0231 22.3754C35.7554 22.0918 35.4403 21.9543 35.0779 21.9627C34.7155 21.9711 34.3363 22.1283 33.9404 22.4342C33.6713 22.6421 33.4735 22.8558 33.3471 23.0751C33.2187 23.2919 33.156 23.5045 33.159 23.713C33.1645 23.9195 33.232 24.1065 33.3614 24.274C33.4642 24.4176 33.5876 24.5168 33.7314 24.5719C33.8778 24.625 34.0376 24.6454 34.2106 24.6333C34.3817 24.6187 34.5637 24.5814 34.7566 24.5215C34.9476 24.4591 35.1428 24.3813 35.3423 24.2879L36.1723 23.9141C36.5713 23.7275 36.9619 23.5878 37.3443 23.495C37.7266 23.4022 38.0934 23.3681 38.4448 23.3926C38.7961 23.417 39.1259 23.5108 39.4343 23.6738C39.7452 23.8349 40.0275 24.0769 40.2811 24.3998C40.6473 24.879 40.8451 25.3869 40.8747 25.9235C40.9048 26.4556 40.7684 26.9926 40.4657 27.5346C40.1635 28.0722 39.6951 28.5861 39.0606 29.0764C38.4311 29.5628 37.8083 29.89 37.1922 30.058C36.5786 30.224 35.995 30.2189 35.4413 30.0427C34.8882 29.862 34.3886 29.4961 33.9425 28.945L35.5378 27.7123C35.7576 27.96 36.0011 28.1204 36.2684 28.1936C36.5363 28.2622 36.8163 28.2547 37.1083 28.1709C37.4009 28.0827 37.6893 27.9287 37.9736 27.709C38.2528 27.4933 38.4638 27.2654 38.6067 27.0253C38.752 26.7832 38.826 26.5457 38.8284 26.3128C38.8308 26.0799 38.7595 25.8695 38.6143 25.6816C38.479 25.5065 38.3132 25.3995 38.1169 25.3606C37.9232 25.3198 37.695 25.334 37.4323 25.4032C37.1721 25.4704 36.8734 25.5796 36.5362 25.7308L35.5224 26.1736C34.7414 26.5217 34.0292 26.6727 33.3856 26.6268C32.7421 26.5809 32.1989 26.2688 31.7563 25.6907C31.3889 25.2205 31.1959 24.711 31.1771 24.162C31.1608 23.6111 31.2996 23.0641 31.5933 22.5209C31.8871 21.9777 32.3182 21.4865 32.8868 21.0471C33.4655 20.6 34.0471 20.3087 34.6316 20.1732C35.2186 20.0358 35.769 20.0504 36.2828 20.2169C36.7965 20.3834 37.2367 20.6959 37.6032 21.1545L36.0231 22.3754Z" fill="#313131"/>
<path d="M43.5517 25.8152L39.6167 16.7808L45.7043 14.1293L46.3903 15.7041L42.2127 17.5237L43.1504 19.6764L47.0147 17.9933L47.7006 19.5681L43.8363 21.2512L44.7759 23.4084L48.971 21.5811L49.657 23.1559L43.5517 25.8152Z" fill="#313131"/>
<path d="M59.2941 14.8987L57.209 15.2054C57.1313 14.9413 57.0183 14.7131 56.87 14.5209C56.7213 14.3255 56.544 14.1668 56.338 14.0447C56.132 13.9227 55.9025 13.8397 55.6497 13.7958C55.4 13.7515 55.1355 13.7499 54.8562 13.791C54.3516 13.8652 53.9305 14.0552 53.5929 14.361C53.2549 14.6636 53.0177 15.0681 52.8814 15.5745C52.7447 16.0777 52.7261 16.6673 52.8255 17.3433C52.9277 18.0383 53.1168 18.607 53.3926 19.0496C53.6716 19.4916 54.0161 19.8057 54.4261 19.9918C54.836 20.1779 55.287 20.2348 55.7789 20.1624C56.055 20.1218 56.3051 20.0477 56.5292 19.9402C56.7565 19.8322 56.9519 19.6948 57.1154 19.5281C57.2785 19.3582 57.4053 19.1629 57.4961 18.942C57.59 18.7207 57.6416 18.4764 57.6509 18.2092L59.7373 17.912C59.7492 18.3674 59.6778 18.8189 59.5232 19.2664C59.3712 19.7102 59.1384 20.1222 58.8247 20.5023C58.5137 20.8787 58.1231 21.1988 57.6528 21.4625C57.1853 21.7226 56.6389 21.8986 56.0137 21.9905C55.1442 22.1185 54.3377 22.0361 53.5943 21.7434C52.8541 21.4502 52.2308 20.9599 51.7244 20.2725C51.2212 19.5846 50.8916 18.7106 50.7357 17.6507C50.5793 16.5875 50.6462 15.6537 50.9364 14.849C51.2265 14.0444 51.6857 13.3965 52.3137 12.9053C52.9413 12.411 53.6836 12.1008 54.5404 11.9747C55.1053 11.8917 55.6406 11.894 56.1464 11.9817C56.6553 12.0689 57.1194 12.2374 57.5387 12.4869C57.9575 12.7333 58.3165 13.0582 58.6158 13.4617C58.9182 13.8646 59.1443 14.3436 59.2941 14.8987Z" fill="#313131"/>
<path d="M69.5571 12.4091L71.6192 12.7066L70.7055 19.0404C70.6029 19.7516 70.3432 20.3494 69.9266 20.8337C69.5131 21.3186 68.9816 21.6664 68.3322 21.8774C67.6832 22.0852 66.9555 22.1309 66.1491 22.0146C65.3395 21.8978 64.6528 21.648 64.089 21.2653C63.5256 20.8794 63.1142 20.3954 62.8546 19.8135C62.595 19.2316 62.5165 18.5851 62.6191 17.8739L63.5328 11.54L65.5949 11.8375L64.7066 17.9952C64.653 18.3666 64.6863 18.7085 64.8066 19.0207C64.93 19.3335 65.129 19.5939 65.4036 19.8021C65.6782 20.0102 66.014 20.1429 66.4108 20.2001C66.8109 20.2579 67.1704 20.2255 67.4895 20.103C67.8117 19.9809 68.0747 19.7871 68.2783 19.5216C68.485 19.2565 68.6152 18.9382 68.6688 18.5667L69.5571 12.4091Z" fill="#313131"/>
<path d="M72.5043 23.1892L76.4924 14.1781L80.0476 15.7516C80.7281 16.0527 81.255 16.4315 81.6283 16.8879C82.0058 17.3426 82.2227 17.8473 82.279 18.4018C82.3394 18.9548 82.2379 19.529 81.9743 20.1244C81.7095 20.7228 81.3526 21.1805 80.9037 21.4974C80.456 21.8115 79.9366 21.9745 79.3455 21.9865C78.7573 21.9998 78.1171 21.8532 77.4248 21.5468L75.0444 20.4933L75.7221 18.9622L77.7945 19.8793C78.1582 20.0403 78.4824 20.1242 78.7671 20.1309C79.0517 20.1376 79.2969 20.0672 79.5025 19.9197C79.711 19.7734 79.8809 19.5522 80.012 19.2559C80.1444 18.9567 80.1959 18.6779 80.1665 18.4193C80.1401 18.162 80.0285 17.9267 79.8317 17.7134C79.6393 17.4984 79.3597 17.3098 78.993 17.1475L77.7082 16.5789L74.4095 24.0324L72.5043 23.1892ZM79.1855 21.2422L79.6102 26.3341L77.507 25.4033L77.1308 20.3328L79.1855 21.2422Z" fill="#313131"/>
<path d="M80.808 27.202L86.8806 19.4414L92.11 23.5334L91.0514 24.8862L87.4629 22.0782L86.0159 23.9274L89.3354 26.5248L88.2768 27.8776L84.9573 25.2802L83.5074 27.1332L87.111 29.953L86.0525 31.3058L80.808 27.202Z" fill="#313131"/>
<path d="M33.9958 87.4681L32.9254 85.6527C33.1408 85.481 33.3095 85.2903 33.4316 85.0806C33.5564 84.8692 33.6365 84.6451 33.6719 84.4082C33.7073 84.1714 33.6976 83.9276 33.6429 83.6769C33.5898 83.4289 33.4915 83.1833 33.3482 82.9402C33.0891 82.5008 32.7543 82.1825 32.3438 81.9851C31.936 81.7862 31.4719 81.719 30.9516 81.7838C30.434 81.847 29.8809 82.052 29.2923 82.399C28.6872 82.7558 28.2317 83.1454 27.9259 83.5678C27.6217 83.9929 27.4607 84.4304 27.4429 84.8803C27.4252 85.3301 27.5426 85.7692 27.7951 86.1975C27.9368 86.4379 28.0998 86.6416 28.2839 86.8086C28.4696 86.9784 28.6705 87.1076 28.8866 87.1961C29.1054 87.2831 29.3342 87.3269 29.573 87.3277C29.8134 87.3312 30.0591 87.2869 30.3101 87.1947L31.3722 89.015C30.9549 89.1978 30.5098 89.3019 30.0371 89.3274C29.5687 89.3541 29.0993 89.2938 28.629 89.1466C28.163 89.0005 27.7193 88.7595 27.2977 88.4234C26.8805 88.0885 26.5115 87.6488 26.1905 87.1045C25.7441 86.3474 25.5163 85.5694 25.507 84.7705C25.4994 83.9744 25.7184 83.2122 26.1641 82.4839C26.6115 81.7584 27.2966 81.1236 28.2195 80.5795C29.1452 80.0337 30.0353 79.7435 30.8899 79.7088C31.7446 79.6741 32.5178 79.855 33.2095 80.2514C33.9041 80.6463 34.4713 81.2167 34.9112 81.9628C35.2012 82.4546 35.4009 82.9513 35.5104 83.4527C35.6215 83.957 35.6405 84.4503 35.5675 84.9328C35.4972 85.4136 35.3317 85.8687 35.071 86.298C34.8118 86.73 34.4535 87.1201 33.9958 87.4681Z" fill="#313131"/>
<path d="M30.6817 94.2846L37.1522 86.8525L38.7236 88.2206L36.0538 91.287L39.2437 94.0642L41.9134 90.9977L43.4811 92.3626L37.0106 99.7947L35.4429 98.4298L38.1158 95.3597L34.9259 92.5826L32.253 95.6527L30.6817 94.2846Z" fill="#313131"/>
<path d="M40.711 102.649L44.7603 93.6651L50.8138 96.3936L50.108 97.9596L45.9539 96.0872L44.989 98.2279L48.8316 99.9599L48.1258 101.526L44.2831 99.7939L43.3163 101.939L47.4879 103.819L46.7821 105.385L40.711 102.649Z" fill="#313131"/>
<path d="M59.9002 101.904L57.8111 101.627C57.8089 101.351 57.7629 101.101 57.6731 100.875C57.5838 100.647 57.4569 100.445 57.2923 100.271C57.1277 100.097 56.9299 99.9545 56.6988 99.8429C56.4709 99.7317 56.217 99.6575 55.9372 99.6203C55.4316 99.5531 54.9745 99.6202 54.5659 99.8215C54.1578 100.02 53.8186 100.343 53.5485 100.793C53.2789 101.239 53.099 101.801 53.009 102.478C52.9165 103.175 52.942 103.774 53.0857 104.275C53.2326 104.776 53.4776 105.173 53.8207 105.465C54.1638 105.756 54.5818 105.935 55.0746 106C55.3513 106.037 55.6121 106.034 55.8571 105.993C56.1053 105.951 56.3309 105.873 56.534 105.757C56.7374 105.639 56.9131 105.486 57.0609 105.298C57.212 105.111 57.3287 104.891 57.4111 104.636L59.4989 104.923C59.3853 105.365 59.1926 105.779 58.921 106.167C58.653 106.552 58.316 106.884 57.91 107.163C57.5076 107.44 57.0441 107.64 56.5195 107.765C55.9985 107.887 55.4248 107.906 54.7984 107.823C53.9272 107.707 53.1743 107.406 52.5399 106.92C51.9087 106.435 51.444 105.793 51.1458 104.993C50.8509 104.193 50.774 103.262 50.9151 102.2C51.0567 101.135 51.3775 100.255 51.8775 99.5612C52.3775 98.8672 52.9969 98.3703 53.7357 98.0705C54.4749 97.7675 55.2738 97.6731 56.1323 97.7872C56.6983 97.8624 57.2124 98.0117 57.6746 98.2349C58.14 98.4586 58.54 98.748 58.8746 99.1031C59.2097 99.455 59.4657 99.8661 59.6427 100.336C59.8228 100.807 59.9087 101.329 59.9002 101.904Z" fill="#313131"/>
<path d="M63.303 108.577L61.6601 98.8605L63.7144 98.5131L64.4387 102.797L64.5668 102.775L67.339 97.9002L69.8012 97.4839L66.9312 102.444L71.4868 107.193L69.0293 107.608L65.6923 104.064L64.8904 105.468L65.3572 108.229L63.303 108.577Z" fill="#313131"/>
<path d="M80.16 98.2846C80.647 99.2425 80.8797 100.15 80.8582 101.006C80.8396 101.861 80.6087 102.625 80.1657 103.296C79.724 103.963 79.1157 104.494 78.3408 104.888C77.5602 105.285 76.7695 105.464 75.9688 105.425C75.168 105.386 74.4167 105.122 73.7148 104.633C73.0129 104.144 72.4191 103.422 71.9336 102.467C71.4465 101.509 71.2124 100.603 71.231 99.7476C71.2496 98.8925 71.4798 98.1313 71.9215 97.4642C72.3617 96.7941 72.9721 96.2607 73.7527 95.8638C74.5276 95.4698 75.3154 95.2924 76.1162 95.3315C76.9183 95.3662 77.6704 95.628 78.3723 96.1168C79.0771 96.6041 79.673 97.3267 80.16 98.2846ZM78.2771 99.2419C77.9616 98.6214 77.6026 98.1454 77.2002 97.8139C76.8005 97.4809 76.3775 97.2893 75.931 97.2393C75.4845 97.1892 75.0368 97.2783 74.5879 97.5065C74.139 97.7347 73.8032 98.044 73.5806 98.4343C73.358 98.8245 73.2621 99.2799 73.2928 99.8005C73.3264 100.32 73.501 100.889 73.8165 101.51C74.1319 102.13 74.4895 102.607 74.8891 102.94C75.2916 103.272 75.716 103.462 76.1625 103.513C76.609 103.563 77.0567 103.474 77.5056 103.245C77.9546 103.017 78.2903 102.708 78.5129 102.318C78.7355 101.927 78.83 101.473 78.7964 100.953C78.7657 100.433 78.5925 99.8624 78.2771 99.2419Z" fill="#313131"/>
<path d="M83.4206 89.346L84.8768 87.856L89.4534 92.329C89.9673 92.8312 90.2969 93.3934 90.4424 94.0155C90.5902 94.6354 90.5577 95.2697 90.3451 95.9186C90.1302 96.5653 89.738 97.18 89.1686 97.7627C88.5968 98.3477 87.9902 98.755 87.3486 98.9846C86.7047 99.212 86.0712 99.259 85.4482 99.1254C84.8251 98.9919 84.2567 98.6741 83.7428 98.1718L79.1662 93.6989L80.6225 92.2089L85.0717 96.5574C85.3401 96.8198 85.6359 96.9944 85.959 97.0815C86.2843 97.1662 86.612 97.1591 86.9421 97.06C87.2721 96.961 87.5773 96.7681 87.8575 96.4813C88.14 96.1923 88.3259 95.8828 88.4151 95.5529C88.5066 95.2206 88.5051 94.894 88.4107 94.573C88.3185 94.2497 88.1382 93.9568 87.8698 93.6945L83.4206 89.346Z" fill="#313131"/>
<path d="M87.7042 87.7984L86.1742 87.0177L89.8525 79.8088L91.3826 80.5895L90.0114 83.2768L97.2589 86.9749L96.3229 88.8092L89.0754 85.1112L87.7042 87.7984Z" fill="#313131"/>
<defs>
<linearGradient id="paint0_linear_775_10973" x1="40.4377" y1="74.3898" x2="81.5448" y2="45.5894" gradientUnits="userSpaceOnUse">
<stop stop-color="#161A1F"/>
<stop offset="0.14" stop-color="#2A323B"/>
<stop offset="0.258" stop-color="#343F4A"/>
<stop offset="0.36" stop-color="#2A323B"/>
<stop offset="0.489" stop-color="#161A1F"/>
<stop offset="0.613" stop-color="#2A323B"/>
<stop offset="0.737" stop-color="#343F4A"/>
<stop offset="0.839" stop-color="#2A323B"/>
<stop offset="1" stop-color="#161A1F"/>
</linearGradient>
</defs>
</svg>
